<?xml version="1.0" encoding="UTF-8" standalone="no"?>
<svg
   viewBox="0 0 487.50226 364.4111"
   font-family="'Times New Roman', 'Liberation Serif', 'STIX Two Math', 'Latin Modern Math', 'Cambria Math', serif"
   font-size="32px"
   version="1.1"
   id="svg176"
   sodipodi:docname="16-coulombs-law.svg"
   width="487.50226"
   height="364.4111"
   inkscape:version="1.1.1 (3bf5ae0d25, 2021-09-20, custom)"
   xmlns:inkscape="http://www.inkscape.org/namespaces/inkscape"
   xmlns:sodipodi="http://sodipodi.sourceforge.net/DTD/sodipodi-0.dtd"
   xmlns:xlink="http://www.w3.org/1999/xlink"
   xmlns="http://www.w3.org/2000/svg"
   xmlns:svg="http://www.w3.org/2000/svg"
   xmlns:rdf="http://www.w3.org/1999/02/22-rdf-syntax-ns#"
   xmlns:cc="http://creativecommons.org/ns#"
   xmlns:dc="http://purl.org/dc/elements/1.1/">
  <sodipodi:namedview
     id="namedview178"
     pagecolor="#505050"
     bordercolor="#eeeeee"
     borderopacity="1"
     inkscape:pageshadow="0"
     inkscape:pageopacity="0"
     inkscape:pagecheckerboard="0"
     showgrid="false"
     inkscape:zoom="1.2069027"
     inkscape:cx="269.69862"
     inkscape:cy="192.22759"
     inkscape:window-width="1920"
     inkscape:window-height="1058"
     inkscape:window-x="1400"
     inkscape:window-y="22"
     inkscape:window-maximized="1"
     inkscape:current-layer="svg176" />
  <title
     id="title2">Coulomb's Law</title>
  <desc
     id="desc4">
    The vector text decoration is a problem.
    An overbar can be used to get F̄ but F⃑ or F⃗ would be better.
    Most fonts do not have the latter two, and even if they do, the metrics may not work.
    Liberation Sans has them, but they mostly overlap the character and become almost invisible.
    Math typesetting conventions vary by country.
    Bold Roman (bold says vector).
    Bold Italic (bold says vector, and italic says variable).
    Regular Italic with decoration (hat or arrow to distinguish vector variable from ordinary variable).
    There may be Bold Roman/Italic with hat to show unit vector, but bold with arrow decoration seems uncommon.
  </desc>
  <metadata
     id="metadata6">
    <rdf:RDF>
      <cc:Work
         rdf:about="">
        <dc:format>image/svg+xml</dc:format>
        <dc:type
           rdf:resource="http://purl.org/dc/dcmitype/StillImage" />
        <dc:creator
           rdf:resource="https://en.wikipedia.org/wiki/en:User:Dna-webmaster" />
        <dc:contributor
           rdf:resource="https://commons.wikimedia.org/wiki/User:Maksim" />
        <dc:contributor
           rdf:resource="https://commons.wikimedia.org/wiki/User:Jfmelero" />
        <dc:contributor
           rdf:resource="http://commons.wikimedia.org/wiki/User:JoKalliauer" />
        <dc:contributor
           rdf:resource="http://commons.wikimedia.org/wiki/User:Glrx" />
        <cc:license
           rdf:resource="https://creativecommons.org/licenses/by/3.0/deed.en" />
        <cc:attributionURL
           rdf:resource="http://commons.wikimedia.org/wiki/File:CoulombsLaw.svg" />
        <cc:attributionName>User:Dna-Dennis</cc:attributionName>
      </cc:Work>
    </rdf:RDF>
  </metadata>
  <defs
     id="defs32">
    <style
       type="text/css"
       id="style8">
      .sub {font-size:20px; baseline-shift:sub;}
      .sup {font-size:20px; baseline-shift:super;}
      .big {font-size:48px;}
      .var {font-style:italic;}
      .vec {font-style:italic; font-weight:bold;}
    </style>
    <radialGradient
       id="gprime"
       cx="-12.83"
       cy="25.35"
       r="40"
       gradientUnits="userSpaceOnUse">
      <stop
         stop-color="#737fde"
         stop-opacity=".73"
         offset="0"
         id="stop10" />
      <stop
         stop-color="#2f2fd3"
         offset=".5"
         id="stop12" />
      <stop
         stop-color="#000074"
         offset="1"
         id="stop14" />
    </radialGradient>
    <radialGradient
       id="hprime"
       cx="-12.83"
       cy="25.35"
       r="40"
       gradientUnits="userSpaceOnUse">
      <stop
         stop-color="#e9a2a2"
         stop-opacity=".73"
         offset="0"
         id="stop17" />
      <stop
         stop-color="#d52222"
         offset=".5"
         id="stop19" />
      <stop
         stop-color="#860822"
         offset="1"
         id="stop21" />
    </radialGradient>
    <g
       id="vector">
      <g
         transform="matrix(0,0.2194,0.2832,0,0,0)"
         id="g26">
        <path
           d="M 26.488,211.89 H 44.144 V 44.14 H 70.631 L 35.316,-0.004 0,44.14 h 26.488 z"
           id="path24" />
      </g>
    </g>
    <g
       id="charge">
      <path
         d="m 0,0 c -22,0 -39.8,17.8 -39.791,39.783 0,22 17.8,39.8 39.791,39.783 22,0 39.8,-17.8 39.775,-39.783 0,-22 -17.8,-39.8 -39.775,-39.783 z"
         stroke="#6b9e9e"
         stroke-width="0.43"
         id="path29" />
    </g>
    <g
       id="g4721">
      <symbol
         overflow="visible"
         id="symbol1314">
        <path
           style="stroke:none"
           d=""
           id="path3233" />
      </symbol>
      <symbol
         overflow="visible"
         id="symbol7951">
        <path
           style="stroke:none"
           d="m 3.015625,-3.234375 h 0.96875 c 0.75,0 0.828125,0.15625 0.828125,0.4375 0,0.078125 0,0.1875 -0.0625,0.5 C 4.71875,-2.25 4.71875,-2.21875 4.71875,-2.1875 c 0,0.078125 0.0625,0.109375 0.109375,0.109375 0.109375,0 0.109375,-0.03125 0.15625,-0.203125 L 5.53125,-4.453125 C 5.5625,-4.5625 5.5625,-4.578125 5.5625,-4.609375 5.5625,-4.625 5.546875,-4.71875 5.4375,-4.71875 5.34375,-4.71875 5.328125,-4.671875 5.296875,-4.5 5.078125,-3.734375 4.859375,-3.546875 4,-3.546875 H 3.09375 l 0.640625,-2.53125 C 3.828125,-6.4375 3.84375,-6.46875 4.28125,-6.46875 h 1.3125 c 1.21875,0 1.453125,0.328125 1.453125,1.09375 0,0.234375 0,0.265625 -0.03125,0.546875 C 7,-4.703125 7,-4.6875 7,-4.65625 c 0,0.046875 0.03125,0.125 0.125,0.125 0.109375,0 0.109375,-0.0625 0.125,-0.25 L 7.453125,-6.515625 C 7.484375,-6.78125 7.4375,-6.78125 7.1875,-6.78125 H 2.296875 c -0.1875,0 -0.296875,0 -0.296875,0.203125 0,0.109375 0.09375,0.109375 0.28125,0.109375 0.375,0 0.65625,0 0.65625,0.171875 0,0.046875 0,0.0625 -0.0625,0.25 L 1.5625,-0.78125 c -0.09375,0.390625 -0.109375,0.46875 -0.90625,0.46875 -0.171875,0 -0.28125,0 -0.28125,0.1875 C 0.375,0 0.5,0 0.53125,0 0.8125,0 1.5625,-0.03125 1.84375,-0.03125 2.171875,-0.03125 3,0 3.328125,0 3.421875,0 3.53125,0 3.53125,-0.1875 3.53125,-0.265625 3.484375,-0.296875 3.484375,-0.296875 3.453125,-0.3125 3.421875,-0.3125 3.203125,-0.3125 c -0.21875,0 -0.265625,0 -0.515625,-0.015625 -0.296875,-0.03125 -0.328125,-0.078125 -0.328125,-0.203125 0,-0.015625 0,-0.078125 0.046875,-0.21875 z m 0,0"
           id="path9133" />
      </symbol>
      <symbol
         overflow="visible"
         id="symbol4809">
        <path
           style="stroke:none"
           d=""
           id="path8735" />
      </symbol>
      <symbol
         overflow="visible"
         id="symbol3597">
        <path
           style="stroke:none"
           d="m 2.328125,-4.4375 c 0,-0.1875 0,-0.1875 -0.203125,-0.1875 -0.453125,0.4375 -1.078125,0.4375 -1.359375,0.4375 v 0.25 c 0.15625,0 0.625,0 1,-0.1875 v 3.546875 c 0,0.234375 0,0.328125 -0.6875,0.328125 H 0.8125 V 0 c 0.125,0 0.984375,-0.03125 1.234375,-0.03125 0.21875,0 1.09375,0.03125 1.25,0.03125 V -0.25 H 3.03125 c -0.703125,0 -0.703125,-0.09375 -0.703125,-0.328125 z m 0,0"
           id="path5871" />
      </symbol>
    </g>
    <g
       id="g5037">
      <symbol
         overflow="visible"
         id="symbol8736">
        <path
           style="stroke:none"
           d=""
           id="path5757" />
      </symbol>
      <symbol
         overflow="visible"
         id="symbol2116">
        <path
           style="stroke:none"
           d="m 1.578125,2.15625 v -9.296875 c 0,-0.140625 0,-0.34375 -0.1875,-0.34375 -0.203125,0 -0.203125,0.203125 -0.203125,0.34375 V 2.15625 c 0,0.140625 0,0.34375 0.203125,0.34375 0.1875,0 0.1875,-0.203125 0.1875,-0.34375 z m 0,0"
           id="path9627" />
      </symbol>
      <symbol
         overflow="visible"
         id="symbol9621">
        <path
           style="stroke:none"
           d=""
           id="path9818" />
      </symbol>
      <symbol
         overflow="visible"
         id="symbol5695">
        <path
           style="stroke:none"
           d="M 7.25,-4.78125 7.453125,-6.515625 C 7.484375,-6.78125 7.4375,-6.78125 7.1875,-6.78125 H 2.296875 c -0.1875,0 -0.296875,0 -0.296875,0.203125 0,0.109375 0.09375,0.109375 0.28125,0.109375 0.375,0 0.65625,0 0.65625,0.171875 0,0.046875 0,0.0625 -0.0625,0.25 L 1.5625,-0.78125 c -0.09375,0.390625 -0.109375,0.46875 -0.90625,0.46875 -0.171875,0 -0.28125,0 -0.28125,0.1875 C 0.375,0 0.5,0 0.53125,0 L 1.84375,-0.03125 3.328125,0 c 0.09375,0 0.203125,0 0.203125,-0.1875 0,-0.078125 -0.046875,-0.109375 -0.046875,-0.109375 C 3.453125,-0.3125 3.421875,-0.3125 3.203125,-0.3125 c -0.21875,0 -0.265625,0 -0.515625,-0.015625 -0.296875,-0.03125 -0.328125,-0.078125 -0.328125,-0.203125 0,0 0,-0.078125 0.046875,-0.21875 l 0.609375,-2.484375 h 0.96875 c 0.75,0 0.828125,0.15625 0.828125,0.4375 0,0.078125 0,0.1875 -0.0625,0.5 C 4.71875,-2.25 4.71875,-2.1875 4.71875,-2.1875 c 0,0.078125 0.0625,0.109375 0.109375,0.109375 0.109375,0 0.109375,-0.03125 0.15625,-0.203125 L 5.53125,-4.453125 c 0.03125,-0.109375 0.03125,-0.125 0.03125,-0.15625 0,0 -0.015625,-0.109375 -0.125,-0.109375 -0.09375,0 -0.109375,0.046875 -0.140625,0.21875 C 5.078125,-3.734375 4.859375,-3.546875 4,-3.546875 H 3.09375 l 0.640625,-2.53125 C 3.828125,-6.4375 3.84375,-6.46875 4.28125,-6.46875 h 1.3125 c 1.21875,0 1.453125,0.328125 1.453125,1.09375 0,0.234375 0,0.265625 -0.03125,0.546875 C 7,-4.703125 7,-4.6875 7,-4.65625 c 0,0.046875 0.03125,0.125 0.125,0.125 0.109375,0 0.109375,-0.0625 0.125,-0.25 z m 0,0"
           id="path283" />
      </symbol>
      <symbol
         overflow="visible"
         id="symbol7129">
        <path
           style="stroke:none"
           d=""
           id="path112" />
      </symbol>
      <symbol
         overflow="visible"
         id="symbol8325">
        <path
           style="stroke:none"
           d="M 3.296875,0 V -0.25 H 3.03125 c -0.703125,0 -0.703125,-0.09375 -0.703125,-0.328125 V -4.4375 c 0,-0.1875 0,-0.1875 -0.203125,-0.1875 -0.453125,0.4375 -1.078125,0.4375 -1.359375,0.4375 v 0.25 c 0.15625,0 0.625,0 1,-0.1875 v 3.546875 c 0,0.234375 0,0.328125 -0.6875,0.328125 H 0.8125 V 0 l 1.234375,-0.03125 z m 0,0"
           id="path2562" />
      </symbol>
    </g>
    <g
       id="g1611">
      <symbol
         overflow="visible"
         id="symbol3504">
        <path
           style="stroke:none"
           d=""
           id="path7903" />
      </symbol>
      <symbol
         overflow="visible"
         id="symbol209">
        <path
           style="stroke:none"
           d="m 1.578125,2.15625 v -9.296875 c 0,-0.140625 0,-0.34375 -0.1875,-0.34375 -0.203125,0 -0.203125,0.203125 -0.203125,0.34375 V 2.15625 c 0,0.140625 0,0.34375 0.203125,0.34375 0.1875,0 0.1875,-0.203125 0.1875,-0.34375 z m 0,0"
           id="path1666" />
      </symbol>
      <symbol
         overflow="visible"
         id="symbol7597">
        <path
           style="stroke:none"
           d=""
           id="path4527" />
      </symbol>
      <symbol
         overflow="visible"
         id="symbol386">
        <path
           style="stroke:none"
           d="M 7.25,-4.78125 7.453125,-6.515625 C 7.484375,-6.78125 7.4375,-6.78125 7.1875,-6.78125 H 2.296875 c -0.1875,0 -0.296875,0 -0.296875,0.203125 0,0.109375 0.09375,0.109375 0.28125,0.109375 0.375,0 0.65625,0 0.65625,0.171875 0,0.046875 0,0.0625 -0.0625,0.25 L 1.5625,-0.78125 c -0.09375,0.390625 -0.109375,0.46875 -0.90625,0.46875 -0.171875,0 -0.28125,0 -0.28125,0.1875 C 0.375,0 0.5,0 0.53125,0 L 1.84375,-0.03125 3.328125,0 c 0.09375,0 0.203125,0 0.203125,-0.1875 0,-0.078125 -0.046875,-0.109375 -0.046875,-0.109375 C 3.453125,-0.3125 3.421875,-0.3125 3.203125,-0.3125 c -0.21875,0 -0.265625,0 -0.515625,-0.015625 -0.296875,-0.03125 -0.328125,-0.078125 -0.328125,-0.203125 0,0 0,-0.078125 0.046875,-0.21875 l 0.609375,-2.484375 h 0.96875 c 0.75,0 0.828125,0.15625 0.828125,0.4375 0,0.078125 0,0.1875 -0.0625,0.5 C 4.71875,-2.25 4.71875,-2.1875 4.71875,-2.1875 c 0,0.078125 0.0625,0.109375 0.109375,0.109375 0.109375,0 0.109375,-0.03125 0.15625,-0.203125 L 5.53125,-4.453125 c 0.03125,-0.109375 0.03125,-0.125 0.03125,-0.15625 0,0 -0.015625,-0.109375 -0.125,-0.109375 -0.09375,0 -0.109375,0.046875 -0.140625,0.21875 C 5.078125,-3.734375 4.859375,-3.546875 4,-3.546875 H 3.09375 l 0.640625,-2.53125 C 3.828125,-6.4375 3.84375,-6.46875 4.28125,-6.46875 h 1.3125 c 1.21875,0 1.453125,0.328125 1.453125,1.09375 0,0.234375 0,0.265625 -0.03125,0.546875 C 7,-4.703125 7,-4.6875 7,-4.65625 c 0,0.046875 0.03125,0.125 0.125,0.125 0.109375,0 0.109375,-0.0625 0.125,-0.25 z m 0,0"
           id="path6759" />
      </symbol>
      <symbol
         overflow="visible"
         id="symbol6305">
        <path
           style="stroke:none"
           d=""
           id="path7495" />
      </symbol>
      <symbol
         overflow="visible"
         id="symbol7775">
        <path
           style="stroke:none"
           d="M 3.296875,0 V -0.25 H 3.03125 c -0.703125,0 -0.703125,-0.09375 -0.703125,-0.328125 V -4.4375 c 0,-0.1875 0,-0.1875 -0.203125,-0.1875 -0.453125,0.4375 -1.078125,0.4375 -1.359375,0.4375 v 0.25 c 0.15625,0 0.625,0 1,-0.1875 v 3.546875 c 0,0.234375 0,0.328125 -0.6875,0.328125 H 0.8125 V 0 l 1.234375,-0.03125 z m 0,0"
           id="path9824" />
      </symbol>
      <symbol
         overflow="visible"
         id="symbol6113">
        <path
           style="stroke:none"
           d="M 3.515625,-1.265625 H 3.28125 c -0.015625,0.15625 -0.09375,0.5625 -0.1875,0.625 C 3.046875,-0.59375 2.515625,-0.59375 2.40625,-0.59375 H 1.125 c 0.734375,-0.640625 0.984375,-0.84375 1.390625,-1.171875 0.515625,-0.40625 1,-0.84375 1,-1.5 0,-0.84375 -0.734375,-1.359375 -1.625,-1.359375 -0.859375,0 -1.453125,0.609375 -1.453125,1.25 0,0.34375 0.296875,0.390625 0.375,0.390625 0.15625,0 0.359375,-0.125 0.359375,-0.375 0,-0.125 -0.046875,-0.375 -0.40625,-0.375 C 0.984375,-4.21875 1.453125,-4.375 1.78125,-4.375 c 0.703125,0 1.0625,0.546875 1.0625,1.109375 0,0.609375 -0.4375,1.078125 -0.65625,1.328125 L 0.515625,-0.265625 C 0.4375,-0.203125 0.4375,-0.1875 0.4375,0 h 2.875 z m 0,0"
           id="path7572" />
      </symbol>
      <symbol
         overflow="visible"
         id="symbol1243">
        <path
           style="stroke:none"
           d=""
           id="path4193" />
      </symbol>
      <symbol
         overflow="visible"
         id="symbol8920">
        <path
           style="stroke:none"
           d="M 7.1875,-3.453125 C 7.1875,-3.65625 7,-3.65625 6.859375,-3.65625 h -5.96875 c -0.140625,0 -0.328125,0 -0.328125,0.203125 0,0.1875 0.1875,0.1875 0.328125,0.1875 H 6.84375 c 0.15625,0 0.34375,0 0.34375,-0.1875 z m 0,1.921875 c 0,-0.1875 -0.1875,-0.1875 -0.34375,-0.1875 H 0.890625 c -0.140625,0 -0.328125,0 -0.328125,0.1875 0,0.203125 0.1875,0.203125 0.328125,0.203125 h 5.96875 c 0.140625,0 0.328125,0 0.328125,-0.203125 z m 0,0"
           id="path1066" />
      </symbol>
    </g>
    <g
       id="g2150">
      <symbol
         overflow="visible"
         id="symbol823">
        <path
           style="stroke:none"
           d=""
           id="path443" />
      </symbol>
      <symbol
         overflow="visible"
         id="symbol8637">
        <path
           style="stroke:none"
           d="m 1.578125,2.15625 v -9.296875 c 0,-0.140625 0,-0.34375 -0.1875,-0.34375 -0.203125,0 -0.203125,0.203125 -0.203125,0.34375 V 2.15625 c 0,0.140625 0,0.34375 0.203125,0.34375 0.1875,0 0.1875,-0.203125 0.1875,-0.34375 z m 0,0"
           id="path6282" />
      </symbol>
      <symbol
         overflow="visible"
         id="symbol5447">
        <path
           style="stroke:none"
           d=""
           id="path3289" />
      </symbol>
      <symbol
         overflow="visible"
         id="symbol5325">
        <path
           style="stroke:none"
           d="M 7.25,-4.78125 7.453125,-6.515625 C 7.484375,-6.78125 7.4375,-6.78125 7.1875,-6.78125 H 2.296875 c -0.1875,0 -0.296875,0 -0.296875,0.203125 0,0.109375 0.09375,0.109375 0.28125,0.109375 0.375,0 0.65625,0 0.65625,0.171875 0,0.046875 0,0.0625 -0.0625,0.25 L 1.5625,-0.78125 c -0.09375,0.390625 -0.109375,0.46875 -0.90625,0.46875 -0.171875,0 -0.28125,0 -0.28125,0.1875 C 0.375,0 0.5,0 0.53125,0 L 1.84375,-0.03125 3.328125,0 c 0.09375,0 0.203125,0 0.203125,-0.1875 0,-0.078125 -0.046875,-0.109375 -0.046875,-0.109375 C 3.453125,-0.3125 3.421875,-0.3125 3.203125,-0.3125 c -0.21875,0 -0.265625,0 -0.515625,-0.015625 -0.296875,-0.03125 -0.328125,-0.078125 -0.328125,-0.203125 0,0 0,-0.078125 0.046875,-0.21875 l 0.609375,-2.484375 h 0.96875 c 0.75,0 0.828125,0.15625 0.828125,0.4375 0,0.078125 0,0.1875 -0.0625,0.5 C 4.71875,-2.25 4.71875,-2.1875 4.71875,-2.1875 c 0,0.078125 0.0625,0.109375 0.109375,0.109375 0.109375,0 0.109375,-0.03125 0.15625,-0.203125 L 5.53125,-4.453125 c 0.03125,-0.109375 0.03125,-0.125 0.03125,-0.15625 0,0 -0.015625,-0.109375 -0.125,-0.109375 -0.09375,0 -0.109375,0.046875 -0.140625,0.21875 C 5.078125,-3.734375 4.859375,-3.546875 4,-3.546875 H 3.09375 l 0.640625,-2.53125 C 3.828125,-6.4375 3.84375,-6.46875 4.28125,-6.46875 h 1.3125 c 1.21875,0 1.453125,0.328125 1.453125,1.09375 0,0.234375 0,0.265625 -0.03125,0.546875 C 7,-4.703125 7,-4.6875 7,-4.65625 c 0,0.046875 0.03125,0.125 0.125,0.125 0.109375,0 0.109375,-0.0625 0.125,-0.25 z m 0,0"
           id="path1557" />
      </symbol>
      <symbol
         overflow="visible"
         id="symbol4821">
        <path
           style="stroke:none"
           d="m 4.890625,-1.421875 c 0,-0.109375 -0.09375,-0.109375 -0.125,-0.109375 -0.09375,0 -0.109375,0.046875 -0.140625,0.1875 -0.203125,0.71875 -0.421875,1.234375 -0.859375,1.234375 -0.203125,0 -0.328125,-0.109375 -0.328125,-0.46875 0,-0.171875 0.046875,-0.40625 0.078125,-0.5625 C 3.5625,-1.3125 3.5625,-1.34375 3.5625,-1.453125 3.5625,-2.09375 2.9375,-2.375 2.078125,-2.5 2.390625,-2.671875 2.71875,-2.984375 2.9375,-3.234375 3.421875,-3.765625 3.875,-4.1875 4.359375,-4.1875 c 0.0625,0 0.078125,0 0.09375,0.015625 0.125,0.015625 0.125,0.015625 0.21875,0.078125 0.015625,0 0.015625,0.015625 0.03125,0.03125 -0.46875,0.03125 -0.5625,0.421875 -0.5625,0.546875 0,0.15625 0.109375,0.34375 0.375,0.34375 0.265625,0 0.546875,-0.21875 0.546875,-0.609375 0,-0.296875 -0.234375,-0.625 -0.671875,-0.625 -0.28125,0 -0.734375,0.078125 -1.453125,0.875 -0.34375,0.375 -0.734375,0.78125 -1.109375,0.921875 L 2.859375,-6.8125 c 0,0 0,-0.109375 -0.125,-0.109375 -0.234375,0 -0.953125,0.078125 -1.21875,0.109375 -0.078125,0 -0.1875,0.015625 -0.1875,0.1875 0,0.125 0.09375,0.125 0.234375,0.125 0.484375,0 0.5,0.0625 0.5,0.171875 L 2.03125,-6.125 0.59375,-0.390625 c -0.046875,0.140625 -0.046875,0.15625 -0.046875,0.21875 0,0.234375 0.203125,0.28125 0.296875,0.28125 0.125,0 0.265625,-0.09375 0.328125,-0.203125 0.046875,-0.09375 0.5,-1.9375 0.5625,-2.1875 0.34375,0.03125 1.15625,0.1875 1.15625,0.84375 0,0.078125 0,0.109375 -0.03125,0.21875 -0.015625,0.109375 -0.03125,0.234375 -0.03125,0.34375 0,0.578125 0.390625,0.984375 0.90625,0.984375 0.296875,0 0.578125,-0.15625 0.796875,-0.53125 0.25,-0.4375 0.359375,-1 0.359375,-1 z m 0,0"
           id="path2367" />
      </symbol>
      <symbol
         overflow="visible"
         id="symbol1248">
        <path
           style="stroke:none"
           d=""
           id="path2541" />
      </symbol>
      <symbol
         overflow="visible"
         id="symbol9263">
        <path
           style="stroke:none"
           d="M 3.296875,0 V -0.25 H 3.03125 c -0.703125,0 -0.703125,-0.09375 -0.703125,-0.328125 V -4.4375 c 0,-0.1875 0,-0.1875 -0.203125,-0.1875 -0.453125,0.4375 -1.078125,0.4375 -1.359375,0.4375 v 0.25 c 0.15625,0 0.625,0 1,-0.1875 v 3.546875 c 0,0.234375 0,0.328125 -0.6875,0.328125 H 0.8125 V 0 l 1.234375,-0.03125 z m 0,0"
           id="path986" />
      </symbol>
      <symbol
         overflow="visible"
         id="symbol3827">
        <path
           style="stroke:none"
           d="M 3.515625,-1.265625 H 3.28125 c -0.015625,0.15625 -0.09375,0.5625 -0.1875,0.625 C 3.046875,-0.59375 2.515625,-0.59375 2.40625,-0.59375 H 1.125 c 0.734375,-0.640625 0.984375,-0.84375 1.390625,-1.171875 0.515625,-0.40625 1,-0.84375 1,-1.5 0,-0.84375 -0.734375,-1.359375 -1.625,-1.359375 -0.859375,0 -1.453125,0.609375 -1.453125,1.25 0,0.34375 0.296875,0.390625 0.375,0.390625 0.15625,0 0.359375,-0.125 0.359375,-0.375 0,-0.125 -0.046875,-0.375 -0.40625,-0.375 C 0.984375,-4.21875 1.453125,-4.375 1.78125,-4.375 c 0.703125,0 1.0625,0.546875 1.0625,1.109375 0,0.609375 -0.4375,1.078125 -0.65625,1.328125 L 0.515625,-0.265625 C 0.4375,-0.203125 0.4375,-0.1875 0.4375,0 h 2.875 z m 0,0"
           id="path953" />
      </symbol>
      <symbol
         overflow="visible"
         id="symbol7973">
        <path
           style="stroke:none"
           d=""
           id="path622" />
      </symbol>
      <symbol
         overflow="visible"
         id="symbol4923">
        <path
           style="stroke:none"
           d="M 7.1875,-3.453125 C 7.1875,-3.65625 7,-3.65625 6.859375,-3.65625 h -5.96875 c -0.140625,0 -0.328125,0 -0.328125,0.203125 0,0.1875 0.1875,0.1875 0.328125,0.1875 H 6.84375 c 0.15625,0 0.34375,0 0.34375,-0.1875 z m 0,1.921875 c 0,-0.1875 -0.1875,-0.1875 -0.34375,-0.1875 H 0.890625 c -0.140625,0 -0.328125,0 -0.328125,0.1875 0,0.203125 0.1875,0.203125 0.328125,0.203125 h 5.96875 c 0.140625,0 0.328125,0 0.328125,-0.203125 z m 0,0"
           id="path5343" />
      </symbol>
      <symbol
         overflow="visible"
         id="symbol427">
        <path
           style="stroke:none"
           d=""
           id="path3920" />
      </symbol>
      <symbol
         overflow="visible"
         id="symbol8958">
        <path
           style="stroke:none"
           d="m 3.453125,-0.71875 c 0,-0.046875 -0.0625,-0.125 -0.125,-0.125 -0.03125,0 -0.046875,0.015625 -0.109375,0.078125 C 2.671875,-0.125 1.859375,-0.125 1.734375,-0.125 1.3125,-0.125 1.03125,-0.40625 1.03125,-0.96875 c 0,-0.09375 0,-0.234375 0.09375,-0.625 h 0.4375 c 0.1875,0 0.75,-0.015625 1.125,-0.140625 0.515625,-0.1875 0.609375,-0.515625 0.609375,-0.71875 0,-0.390625 -0.390625,-0.625 -0.859375,-0.625 -0.84375,0 -1.96875,0.640625 -1.96875,1.84375 0,0.703125 0.4375,1.296875 1.25,1.296875 1.1875,0 1.734375,-0.6875 1.734375,-0.78125 z M 3,-2.453125 C 3,-1.78125 1.8125,-1.78125 1.515625,-1.78125 H 1.171875 C 1.46875,-2.796875 2.234375,-2.875 2.4375,-2.875 2.734375,-2.875 3,-2.71875 3,-2.453125 Z m 0,0"
           id="path7037" />
      </symbol>
      <symbol
         overflow="visible"
         id="symbol4258">
        <path
           style="stroke:none"
           d="M 3.09375,1.203125 C 3.09375,1.09375 3,1.09375 2.921875,1.09375 c -0.15625,0 -0.34375,0 -0.34375,-0.078125 0,-0.015625 0,-0.03125 0.03125,-0.15625 L 3.546875,-2.875 c 0,-0.03125 0.015625,-0.0625 0.015625,-0.09375 0,-0.046875 -0.03125,-0.109375 -0.09375,-0.109375 -0.0625,0 -0.359375,0.234375 -0.5,0.46875 -0.0625,-0.140625 -0.296875,-0.46875 -0.75,-0.46875 -0.890625,0 -1.796875,0.984375 -1.796875,1.984375 0,0.6875 0.453125,1.15625 1.0625,1.15625 0.390625,0 0.71875,-0.25 0.875,-0.375 l -0.25,1.015625 C 2,1.09375 2,1.09375 1.5625,1.09375 c -0.078125,0 -0.171875,0 -0.171875,0.15625 0,0.046875 0.03125,0.109375 0.09375,0.109375 0.234375,0 0.5,-0.03125 0.734375,-0.03125 0.234375,0 0.53125,0.03125 0.75,0.03125 0.0625,0 0.125,-0.03125 0.125,-0.15625 z M 2.828125,-2.171875 2.5,-0.875 C 2.453125,-0.765625 2.453125,-0.75 2.375,-0.640625 2.09375,-0.3125 1.765625,-0.125 1.5,-0.125 c -0.265625,0 -0.515625,-0.1875 -0.515625,-0.671875 0,-0.375 0.203125,-1.140625 0.375,-1.421875 0.3125,-0.5625 0.671875,-0.65625 0.859375,-0.65625 0.484375,0 0.625,0.53125 0.625,0.609375 0,0.03125 -0.015625,0.078125 -0.015625,0.09375 z m 0,0"
           id="path1005" />
      </symbol>
      <symbol
         overflow="visible"
         id="symbol4595">
        <path
           style="stroke:none"
           d="m 3.5625,-2.5625 c 0,-0.359375 -0.375,-0.515625 -0.734375,-0.515625 -0.359375,0 -0.671875,0.15625 -0.984375,0.5 -0.125,-0.421875 -0.546875,-0.5 -0.71875,-0.5 -0.25,0 -0.421875,0.171875 -0.546875,0.359375 -0.15625,0.265625 -0.25,0.671875 -0.25,0.71875 0,0.078125 0.09375,0.078125 0.125,0.078125 0.09375,0 0.09375,-0.015625 0.140625,-0.203125 0.109375,-0.421875 0.25,-0.75 0.515625,-0.75 0.1875,0 0.234375,0.15625 0.234375,0.34375 0,0.125 -0.0625,0.390625 -0.125,0.578125 l -0.140625,0.625 L 0.84375,-0.4375 C 0.828125,-0.34375 0.78125,-0.171875 0.78125,-0.15625 0.78125,0 0.90625,0.0625 1.015625,0.0625 1.125,0.0625 1.265625,0 1.3125,-0.125 1.328125,-0.171875 1.40625,-0.484375 1.453125,-0.65625 l 0.1875,-0.75 c 0,-0.046875 0.171875,-0.671875 0.171875,-0.703125 0.015625,-0.0625 0.21875,-0.40625 0.453125,-0.578125 0.0625,-0.046875 0.25,-0.1875 0.5625,-0.1875 0.0625,0 0.234375,0 0.375,0.09375 -0.21875,0.0625 -0.296875,0.265625 -0.296875,0.390625 0,0.140625 0.109375,0.25 0.265625,0.25 0.171875,0 0.390625,-0.125 0.390625,-0.421875 z m 0,0"
           id="path249" />
      </symbol>
      <symbol
         overflow="visible"
         id="symbol4975">
        <path
           style="stroke:none"
           d=""
           id="path12" />
      </symbol>
      <symbol
         overflow="visible"
         id="symbol4960">
        <path
           style="stroke:none"
           d="M 1.359375,1.484375 V -4.96875 c 0,-0.09375 0,-0.25 -0.171875,-0.25 -0.171875,0 -0.171875,0.15625 -0.171875,0.25 v 6.453125 c 0,0.09375 0,0.25 0.15625,0.25 0.1875,0 0.1875,-0.15625 0.1875,-0.25 z m 0,0"
           id="path9194" />
      </symbol>
      <symbol
         overflow="visible"
         id="symbol4907">
        <path
           style="stroke:none"
           d="m 1.578125,-1.734375 c 0,-0.25 -0.1875,-0.40625 -0.390625,-0.40625 -0.25,0 -0.40625,0.1875 -0.40625,0.390625 0,0.25 0.1875,0.40625 0.390625,0.40625 0.25,0 0.40625,-0.203125 0.40625,-0.390625 z m 0,0"
           id="path7596" />
      </symbol>
      <symbol
         overflow="visible"
         id="symbol839">
        <path
           style="stroke:none"
           d=""
           id="path1742" />
      </symbol>
      <symbol
         overflow="visible"
         id="symbol6597">
        <path
           style="stroke:none"
           d="m 2.765625,0 v -0.21875 h -0.25 c -0.53125,0 -0.53125,-0.0625 -0.53125,-0.203125 v -2.75 C 1.984375,-3.3125 1.96875,-3.3125 1.796875,-3.3125 1.453125,-3 0.890625,-3 0.796875,-3 H 0.71875 v 0.21875 h 0.078125 c 0.109375,0 0.4375,-0.015625 0.734375,-0.140625 v 2.5 c 0,0.140625 0,0.203125 -0.53125,0.203125 H 0.75 V 0 c 0.265625,-0.015625 0.71875,-0.015625 1,-0.015625 0.296875,0 0.734375,0 1.015625,0.015625 z m 0,0"
           id="path8150" />
      </symbol>
      <symbol
         overflow="visible"
         id="symbol9789">
        <path
           style="stroke:none"
           d="M 2.9375,-0.96875 H 2.71875 c 0,0.09375 -0.0625,0.40625 -0.140625,0.453125 -0.03125,0.03125 -0.453125,0.03125 -0.53125,0.03125 H 1.078125 C 1.40625,-0.71875 1.765625,-1 2.0625,-1.203125 c 0.453125,-0.3125 0.875,-0.59375 0.875,-1.125 0,-0.640625 -0.609375,-0.984375 -1.3125,-0.984375 -0.671875,0 -1.171875,0.375 -1.171875,0.875 0,0.25 0.21875,0.296875 0.296875,0.296875 0.125,0 0.28125,-0.09375 0.28125,-0.296875 0,-0.171875 -0.125,-0.28125 -0.28125,-0.28125 0.140625,-0.234375 0.4375,-0.375 0.765625,-0.375 0.484375,0 0.890625,0.28125 0.890625,0.765625 0,0.421875 -0.296875,0.75 -0.671875,1.0625 l -1.21875,1.03125 C 0.46875,-0.1875 0.453125,-0.1875 0.453125,-0.15625 V 0 h 2.3125 z m 0,0"
           id="path6596" />
      </symbol>
    </g>
  </defs>
  <path
     stroke="#6b9e9e"
     d="m 98.841133,6.7174997 h 1.749997 V 287.8675 h -1.749997 z"
     stroke-width="0.02"
     id="path36"
     style="fill:#afafaf" />
  <path
     stroke="#6b9e9e"
     d="m 386.71113,7.7174997 h 1.75 V 287.8675 h -1.75 z"
     stroke-width="0.02"
     id="path38"
     style="fill:#afafaf" />
  <path
     d="m 115.82113,282.2975 -15.286,3.6309 15.286,3.6472 v -2.7354 h 58.086 v -0.0326 h 139.48 v -1.7585 h -139.48 v -0.0326 h -58.086 v -2.7191 z m 255.68,0 v 2.7191 h -58.086 v 1.8236 h 58.086 v 2.7354 l 15.286,-3.6472 z"
     id="path40"
     style="fill:#afafaf" />
  <text
     x="246.47116"
     y="280.48752"
     fill="#000000"
     class="var"
     text-anchor="middle"
     id="text42">r</text>
  <g
     id="g80"
     transform="translate(-262.91887,-61.7425)"
     style="text-anchor:middle">
    <title
       id="title46">Upper Charges</title>
    <use
       xlink:href="#vector"
       transform="translate(262.92,97.04)"
       fill="#15159f"
       id="use48"
       x="0"
       y="0"
       width="100%"
       height="100%" />
    <use
       xlink:href="#charge"
       x="362.62"
       y="64.389999"
       fill="url(#gprime)"
       id="use50"
       style="fill:url(#gprime)"
       width="100%"
       height="100%" />
    <text
       x="290"
       y="82.93"
       id="text56"><tspan
         class="vec"
         id="tspan52">F</tspan><tspan
         class="sub"
         dx="-5"
         id="tspan54">1</tspan></text>
    <text
       fill="#ffffff"
       x="362"
       y="112.18"
       id="text62">+<tspan
   class="var"
   id="tspan58">q</tspan><tspan
   class="sub"
   id="tspan60">1</tspan></text>
    <use
       xlink:href="#vector"
       transform="matrix(-1,0,0,1,750.42,97.04)"
       fill="#15159f"
       id="use64"
       x="0"
       y="0"
       width="100%"
       height="100%" />
    <use
       xlink:href="#charge"
       x="651.12"
       y="64.389999"
       fill="url(#gprime)"
       id="use66"
       style="fill:url(#gprime)"
       width="100%"
       height="100%" />
    <text
       x="710"
       y="83.32"
       id="text72"><tspan
         class="vec"
         id="tspan68">F</tspan><tspan
         class="sub"
         dx="-5"
         id="tspan70">2</tspan></text>
    <text
       fill="#ffffff"
       x="650"
       y="112.18"
       id="text78">+<tspan
   class="var"
   id="tspan74">q</tspan><tspan
   class="sub"
   id="tspan76">2</tspan></text>
  </g>
  <g
     id="g116"
     transform="translate(-262.91887,-61.7425)"
     style="text-anchor:middle">
    <title
       id="title82">Lower Charges</title>
    <use
       xlink:href="#vector"
       transform="matrix(-1,0,0,1,461.89,246.32)"
       fill="#15159f"
       id="use84"
       x="0"
       y="0"
       width="100%"
       height="100%" />
    <use
       xlink:href="#charge"
       x="362.59"
       y="213.67"
       fill="url(#gprime)"
       id="use86"
       style="fill:url(#gprime)"
       width="100%"
       height="100%" />
    <text
       x="420"
       y="228.71001"
       id="text92"><tspan
         class="vec"
         id="tspan88">F</tspan><tspan
         class="sub"
         dx="-5"
         id="tspan90">1</tspan></text>
    <text
       fill="#ffffff"
       x="362"
       y="261.45999"
       id="text98">+<tspan
   class="var"
   id="tspan94">q</tspan><tspan
   class="sub"
   id="tspan96">1</tspan></text>
    <use
       xlink:href="#vector"
       transform="translate(550.11,246.32)"
       fill="#b80b2f"
       id="use100"
       x="0"
       y="0"
       width="100%"
       height="100%" />
    <use
       xlink:href="#charge"
       x="650.81"
       y="213.67"
       fill="url(#hprime)"
       id="use102"
       style="fill:url(#hprime)"
       width="100%"
       height="100%" />
    <text
       x="580"
       y="232.89"
       id="text108"><tspan
         class="vec"
         id="tspan104">F</tspan><tspan
         class="sub"
         dx="-5"
         id="tspan106">2</tspan></text>
    <text
       fill="#ffffff"
       x="650"
       y="261.51001"
       id="text114">−<tspan
   class="var"
   id="tspan110">q</tspan><tspan
   class="sub"
   id="tspan112">2</tspan></text>
  </g>
  <g
     inkscape:label=""
     transform="matrix(3.9821708,0,0,3.9821708,-306.70686,23.694575)"
     id="g2696">
    <g
       id="g3440">
      <g
         style="fill:#000000;fill-opacity:1"
         id="g3652">
        <use
           xlink:href="#symbol8637"
           x="91.925003"
           y="82.061996"
           id="use6945"
           width="100%"
           height="100%" />
      </g>
      <g
         style="fill:#000000;fill-opacity:1"
         id="g5222">
        <use
           xlink:href="#symbol5325"
           x="94.693001"
           y="82.061996"
           id="use7547"
           width="100%"
           height="100%" />
      </g>
      <g
         style="fill:#000000;fill-opacity:1"
         id="g5125">
        <use
           xlink:href="#symbol9263"
           x="101.099"
           y="83.556999"
           id="use9547"
           width="100%"
           height="100%" />
      </g>
      <g
         style="fill:#000000;fill-opacity:1"
         id="g5284">
        <use
           xlink:href="#symbol8637"
           x="105.568"
           y="82.061996"
           id="use1648"
           width="100%"
           height="100%" />
      </g>
      <g
         style="fill:#000000;fill-opacity:1"
         id="g7231">
        <use
           xlink:href="#symbol4923"
           x="111.103"
           y="82.061996"
           id="use8458"
           width="100%"
           height="100%" />
      </g>
      <g
         style="fill:#000000;fill-opacity:1"
         id="g2147">
        <use
           xlink:href="#symbol8637"
           x="121.619"
           y="82.061996"
           id="use755"
           width="100%"
           height="100%" />
      </g>
      <g
         style="fill:#000000;fill-opacity:1"
         id="g1572">
        <use
           xlink:href="#symbol5325"
           x="124.387"
           y="82.061996"
           id="use4679"
           width="100%"
           height="100%" />
      </g>
      <g
         style="fill:#000000;fill-opacity:1"
         id="g2394">
        <use
           xlink:href="#symbol3827"
           x="130.793"
           y="83.556999"
           id="use452"
           width="100%"
           height="100%" />
      </g>
      <g
         style="fill:#000000;fill-opacity:1"
         id="g2873">
        <use
           xlink:href="#symbol8637"
           x="135.263"
           y="82.061996"
           id="use8423"
           width="100%"
           height="100%" />
      </g>
      <g
         style="fill:#000000;fill-opacity:1"
         id="g5298">
        <use
           xlink:href="#symbol4923"
           x="140.797"
           y="82.061996"
           id="use7616"
           width="100%"
           height="100%" />
      </g>
      <g
         style="fill:#000000;fill-opacity:1"
         id="g744">
        <use
           xlink:href="#symbol4821"
           x="151.314"
           y="82.061996"
           id="use7275"
           width="100%"
           height="100%" />
      </g>
      <g
         style="fill:#000000;fill-opacity:1"
         id="g5779">
        <use
           xlink:href="#symbol8958"
           x="156.5"
           y="83.556999"
           id="use5699"
           width="100%"
           height="100%" />
      </g>
      <g
         style="fill:#000000;fill-opacity:1"
         id="g7649">
        <use
           xlink:href="#symbol4960"
           x="161.974"
           y="77.231003"
           id="use1"
           width="100%"
           height="100%" />
      </g>
      <g
         style="fill:#000000;fill-opacity:1"
         id="g7506">
        <use
           xlink:href="#symbol4258"
           x="164.34"
           y="77.231003"
           id="use8059"
           width="100%"
           height="100%" />
      </g>
      <g
         style="fill:#000000;fill-opacity:1"
         id="g2470">
        <use
           xlink:href="#symbol6597"
           x="167.991"
           y="78.226997"
           id="use7135"
           width="100%"
           height="100%" />
      </g>
      <g
         style="fill:#000000;fill-opacity:1"
         id="g4867">
        <use
           xlink:href="#symbol4907"
           x="171.88"
           y="77.231003"
           id="use618"
           width="100%"
           height="100%" />
      </g>
      <g
         style="fill:#000000;fill-opacity:1"
         id="g7482">
        <use
           xlink:href="#symbol4258"
           x="174.246"
           y="77.231003"
           id="use9722"
           width="100%"
           height="100%" />
      </g>
      <g
         style="fill:#000000;fill-opacity:1"
         id="g1431">
        <use
           xlink:href="#symbol9789"
           x="177.897"
           y="78.226997"
           id="use9194"
           width="100%"
           height="100%" />
      </g>
      <g
         style="fill:#000000;fill-opacity:1"
         id="g1626">
        <use
           xlink:href="#symbol4960"
           x="181.786"
           y="77.231003"
           id="use6352"
           width="100%"
           height="100%" />
      </g>
      <path
         style="fill:none;stroke:#000000;stroke-width:0.398;stroke-linecap:butt;stroke-linejoin:miter;stroke-miterlimit:10;stroke-opacity:1"
         d="M -0.00134375,0.0016875 H 22.178344"
         transform="matrix(1,0,0,-1,161.974,79.572)"
         id="path9804" />
      <g
         style="fill:#000000;fill-opacity:1"
         id="g8413">
        <use
           xlink:href="#symbol4595"
           x="169.162"
           y="85.498001"
           id="use1515"
           width="100%"
           height="100%" />
      </g>
      <g
         style="fill:#000000;fill-opacity:1"
         id="g6230">
        <use
           xlink:href="#symbol9789"
           x="173.075"
           y="83.504997"
           id="use73"
           width="100%"
           height="100%" />
      </g>
    </g>
  </g>
</svg>
