<?xml version='1.0' encoding='UTF-8'?>
<!-- Created with Inkscape and VFPt -->
<svg xmlns:xlink="http://www.w3.org/1999/xlink" xmlns="http://www.w3.org/2000/svg" version="1.1" baseProfile="full" width="951" height="652">
  <title>Electrostatic induction</title>
  <defs>
    <clipPath id="image_clip">
      <rect x="-4.755" y="-3.26" width="9.51" height="6.52"/>
    </clipPath>
    <path id="arrow1" stroke="#000000" stroke-width="1" stroke-linejoin="miter" stroke-miterlimit="10" fill="#000000" transform="scale(0.01)" d="M 0,0 L -0.46,1.1 L 2.83,0 L -0.46,-1.1 L 0,0 Z"/>
  </defs>
  <rect id="background" x="0" y="0" width="951" height="652" fill="#ffffff" opacity="0"/>
  <g id="image" transform="translate(475.5,326.0) scale(100.0,-100.0)" clip-path="url(#image_clip)">
    <g id="symbols_bg">
      
    </g>
    <g id="fieldlines" fill="none" stroke="#000000" stroke-width="0.01" stroke-linejoin="round" stroke-linecap="round">
      <g id="fieldline1">
        <path d="M 1.2314,-0.4443 C 1.6749,-0.4097 2.1165,-0.3441 2.5465,-0.2287 2.9375,-0.1256 3.3295,-0.0176 3.7334,0.0212 4.0744,0.0577 4.4174,0.0689 4.7600,0.0785"/>
        <g id="arrows1">
          <use xlink:href="#arrow1" transform="translate(2.6003,-0.2148) rotate(14.59) scale(3.0)"/>
          <use xlink:href="#arrow1" transform="translate(4.1405,0.0543) rotate(3.06) scale(3.0)"/>
        </g>
      </g>
      <g id="fieldline2">
        <path d="M 1.2314,-0.4443 C 1.6826,-0.3277 2.1278,-0.1695 2.5235,0.0806 2.7795,0.2318 3.0043,0.4359 3.2794,0.5538 3.5792,0.6708 3.9018,0.7079 4.2166,0.7642 4.3977,0.7934 4.5789,0.8227 4.7600,0.8519"/>
        <g id="arrows2">
          <use xlink:href="#arrow1" transform="translate(2.4862,0.0579) rotate(31.81) scale(3.0)"/>
          <use xlink:href="#arrow1" transform="translate(4.0576,0.7378) rotate(9.48) scale(3.0)"/>
        </g>
      </g>
      <g id="fieldline3">
        <path d="M 1.2314,-0.4443 C 1.6085,-0.2688 1.9832,-0.0661 2.2766,0.2343 2.4273,0.3913 2.5633,0.5742 2.6173,0.7884 2.6290,0.8363 2.6352,0.8856 2.6352,0.9350"/>
        <g id="arrows3">
          <use xlink:href="#arrow1" transform="translate(2.0281,0.0150) rotate(38.63) scale(3.0)"/>
        </g>
      </g>
      <g id="fieldline4">
        <path d="M 3.1460,1.2554 C 3.4694,1.2554 3.7888,1.3187 4.1031,1.3897 4.3238,1.4405 4.5424,1.4999 4.7600,1.5627"/>
        <g id="arrows4">
          <use xlink:href="#arrow1" transform="translate(4.0425,1.3760) rotate(12.93) scale(3.0)"/>
        </g>
      </g>
      <g id="fieldline5">
        <path d="M 1.2314,-0.4443 C 1.5199,-0.2413 1.8031,-0.0202 2.0168,0.2637 2.1613,0.4575 2.2700,0.6889 2.2700,0.9350"/>
        <g id="arrows5">
          <use xlink:href="#arrow1" transform="translate(1.9139,0.1369) rotate(50.08) scale(3.0)"/>
        </g>
      </g>
      <g id="fieldline6">
        <path d="M 3.1460,1.8783 C 3.4824,1.8783 3.8078,1.9835 4.1157,2.1104 4.3349,2.2010 4.5485,2.3045 4.7600,2.4116"/>
        <g id="arrows6">
          <use xlink:href="#arrow1" transform="translate(4.0598,2.0876) rotate(22.32) scale(3.0)"/>
        </g>
      </g>
      <g id="fieldline7">
        <path d="M 1.2314,-0.4443 C 1.4644,-0.2099 1.6877,0.0402 1.8478,0.3312 1.9485,0.5163 2.0164,0.7226 2.0164,0.9350"/>
        <g id="arrows7">
          <use xlink:href="#arrow1" transform="translate(1.7887,0.2294) rotate(59.69) scale(3.0)"/>
        </g>
      </g>
      <g id="fieldline8">
        <path d="M 3.1460,2.3213 C 3.2847,2.3213 3.4094,2.3944 3.5261,2.4622 3.7806,2.6188 4.0144,2.8060 4.2476,2.9921 4.3596,3.0820 4.4704,3.1734 4.5810,3.2650"/>
        <g id="arrows8">
          <use xlink:href="#arrow1" transform="translate(3.9722,2.7750) rotate(37.74) scale(3.0)"/>
        </g>
      </g>
      <g id="fieldline9">
        <path d="M 1.2314,-0.4443 C 1.4162,-0.1790 1.5852,0.1004 1.7028,0.4025 1.7683,0.5723 1.8131,0.7521 1.8129,0.9350"/>
        <g id="arrows9">
          <use xlink:href="#arrow1" transform="translate(1.6596,0.2969) rotate(67.58) scale(3.0)"/>
        </g>
      </g>
      <g id="fieldline10">
        <path d="M 3.0713,2.4490 C 3.0728,2.5287 3.1116,2.6012 3.1484,2.6698 3.2275,2.8094 3.3202,2.9407 3.4126,3.0716 3.4585,3.1365 3.5054,3.2007 3.5521,3.2650"/>
        <g id="arrows10">
          <use xlink:href="#arrow1" transform="translate(3.3030,2.9144) rotate(55.37) scale(3.0)"/>
        </g>
      </g>
      <g id="fieldline11">
        <path d="M 1.2314,-0.4443 C 1.3816,-0.1217 1.5027,0.2150 1.5874,0.5608 1.6164,0.6834 1.6396,0.8085 1.6397,0.9350"/>
        <g id="arrows11">
          <use xlink:href="#arrow1" transform="translate(1.5293,0.3440) rotate(74.21) scale(3.0)"/>
        </g>
      </g>
      <g id="fieldline12">
        <path d="M 2.6863,2.4490 C 2.6861,2.6660 2.7308,2.8803 2.7917,3.0878 2.8090,3.1473 2.8281,3.2062 2.8476,3.2650"/>
        <g id="arrows12">
          <use xlink:href="#arrow1" transform="translate(2.7432,2.9040) rotate(75.99) scale(3.0)"/>
        </g>
      </g>
      <g id="fieldline13">
        <path d="M 1.2314,-0.4443 C 1.3083,-0.1627 1.3566,0.1255 1.4045,0.4131 1.4273,0.5566 1.4588,0.6985 1.4834,0.8417 1.4882,0.8726 1.4912,0.9038 1.4912,0.9350"/>
        <g id="arrows13">
          <use xlink:href="#arrow1" transform="translate(1.3978,0.3743) rotate(80.22) scale(3.0)"/>
        </g>
      </g>
      <g id="fieldline14">
        <path d="M 2.1639,2.4490 C 2.1641,2.7188 2.1741,2.9888 2.2004,3.2574 2.2006,3.2600 2.2009,3.2625 2.2011,3.2650"/>
        <g id="arrows14">
          <use xlink:href="#arrow1" transform="translate(2.1743,2.8983) rotate(86.83) scale(3.0)"/>
        </g>
      </g>
      <g id="fieldline15">
        <path d="M 1.2314,-0.4443 C 1.2565,-0.1732 1.2550,0.0992 1.2625,0.3711 1.2689,0.5248 1.2759,0.6824 1.3305,0.8279 1.3457,0.8675 1.3666,0.9047 1.3924,0.9384"/>
        <g id="arrows15">
          <use xlink:href="#arrow1" transform="translate(1.2631,0.3883) rotate(87.17) scale(3.0)"/>
        </g>
      </g>
      <g id="fieldline16">
        <path d="M 1.6201,2.4490 C 1.6195,2.6115 1.5866,2.7713 1.5637,2.9316 1.5466,3.0424 1.5318,3.1535 1.5198,3.2650"/>
        <g id="arrows16">
          <use xlink:href="#arrow1" transform="translate(1.5687,2.8981) rotate(98.57) scale(3.0)"/>
        </g>
      </g>
      <g id="fieldline17">
        <path d="M 1.2314,-0.4444 C 1.2082,-0.1633 1.1579,0.1144 1.1226,0.3940 1.1047,0.5556 1.0894,0.7239 1.1381,0.8818 1.1685,0.9799 1.2387,1.0769 1.3440,1.1000 1.3588,1.1034 1.3739,1.1051 1.3890,1.1051"/>
        <g id="arrows17">
          <use xlink:href="#arrow1" transform="translate(1.1239,0.3829) rotate(96.12) scale(3.0)"/>
        </g>
      </g>
      <g id="fieldline18">
        <path d="M 1.3890,2.2947 C 1.2828,2.2947 1.1875,2.3553 1.1153,2.4288 0.9986,2.5494 0.9194,2.7004 0.8533,2.8532 0.7964,2.9867 0.7518,3.1251 0.7137,3.2650"/>
        <g id="arrows18">
          <use xlink:href="#arrow1" transform="translate(0.9064,2.7377) rotate(115.01) scale(3.0)"/>
        </g>
      </g>
      <g id="fieldline19">
        <path d="M 1.2314,-0.4444 C 1.1008,0.0564 0.8856,0.5352 0.8153,1.0510 0.7823,1.2890 0.7293,1.5296 0.6012,1.7364 0.4307,2.0189 0.2315,2.2859 0.1016,2.5913 0.0049,2.8081 -0.0670,3.0352 -0.1257,3.265"/>
        <g id="arrows19">
          <use xlink:href="#arrow1" transform="translate(0.8928,0.6635) rotate(103.46) scale(3.0)"/>
          <use xlink:href="#arrow1" transform="translate(0.1022,2.5899) rotate(113.09) scale(3.0)"/>
        </g>
      </g>
      <g id="fieldline20">
        <path d="M 1.2314,-0.4444 C 1.0579,-0.0858 0.8774,0.2712 0.6612,0.6063 0.4967,0.8626 0.2456,1.0796 -0.0618,1.1328 -0.2794,1.1816 -0.5000,1.1258 -0.7188,1.1286 -0.9066,1.1305 -1.0538,1.2823 -1.1110,1.4514 -1.2190,1.7618 -1.1828,2.0963 -1.1903,2.4189 -1.1905,2.7015 -1.2037,2.9840 -1.2335,3.2650"/>
        <g id="arrows20">
          <use xlink:href="#arrow1" transform="translate(0.6845,0.5715) rotate(124.34) scale(3.0)"/>
          <use xlink:href="#arrow1" transform="translate(-1.1903,2.1740) rotate(89.93) scale(3.0)"/>
        </g>
      </g>
      <g id="fieldline21">
        <path d="M 1.2314,-0.4444 C 1.0678,-0.2138 0.8988,0.0133 0.7172,0.2300 0.5830,0.3851 0.4345,0.5399 0.2406,0.6181 0.1275,0.6628 -0.0091,0.6771 -0.1179,0.6131"/>
        <g id="arrows21">
          <use xlink:href="#arrow1" transform="translate(0.7318,0.2127) rotate(131.04) scale(3.0)"/>
        </g>
      </g>
      <g id="fieldline22">
        <path d="M -2.6217,2.4728 C -2.6104,2.6747 -2.6370,2.8771 -2.6839,3.0733 -2.6993,3.1377 -2.7169,3.2016 -2.7360,3.2650"/>
        <g id="arrows22">
          <use xlink:href="#arrow1" transform="translate(-2.6506,2.9134) rotate(101.13) scale(3.0)"/>
        </g>
      </g>
      <g id="fieldline23">
        <path d="M 1.2314,-0.4444 C 1.0389,-0.2543 0.8438,-0.0664 0.6388,0.1103 0.4784,0.2451 0.3039,0.3761 0.0970,0.4271 0.0393,0.4408 -0.0199,0.4475 -0.0792,0.4464"/>
        <g id="arrows23">
          <use xlink:href="#arrow1" transform="translate(0.6339,0.1144) rotate(140.69) scale(3.0)"/>
        </g>
      </g>
      <g id="fieldline24">
        <path d="M -2.9649,2.3898 C -3.1032,2.6166 -3.2442,2.8421 -3.3971,3.0594 -3.4453,3.1285 -3.4945,3.1969 -3.5441,3.2650"/>
        <g id="arrows24">
          <use xlink:href="#arrow1" transform="translate(-3.2732,2.8780) rotate(124.00) scale(3.0)"/>
        </g>
      </g>
      <g id="fieldline25">
        <path d="M 1.2314,-0.4444 C 0.9975,-0.2825 0.7620,-0.1228 0.5204,0.0273 0.3278,0.1462 0.1243,0.2524 -0.0968,0.3063"/>
        <g id="arrows25">
          <use xlink:href="#arrow1" transform="translate(0.5551,0.0060) rotate(148.68) scale(3.0)"/>
        </g>
      </g>
      <g id="fieldline26">
        <path d="M -3.2155,2.1250 C -3.4756,2.2910 -3.7140,2.4879 -3.9570,2.6773 -4.2060,2.8741 -4.4552,3.0705 -4.7060,3.2650"/>
        <g id="arrows26">
          <use xlink:href="#arrow1" transform="translate(-4.0413,2.7438) rotate(141.72) scale(3.0)"/>
        </g>
      </g>
      <g id="fieldline27">
        <path d="M 1.2314,-0.4444 C 0.8832,-0.2832 0.5317,-0.1292 0.1832,0.0313 0.0744,0.0807 -0.0342,0.1304 -0.1428,0.1803"/>
        <g id="arrows27">
          <use xlink:href="#arrow1" transform="translate(0.4932,-0.1099) rotate(155.54) scale(3.0)"/>
        </g>
      </g>
      <g id="fieldline28">
        <path d="M -3.3902,1.7137 C -3.3864,1.7255 -3.3883,1.7352 -3.4089,1.7364 -3.7215,1.8331 -4.0226,1.9627 -4.3219,2.0940 -4.4685,2.1585 -4.6143,2.2250 -4.7600,2.2915"/>
        <g id="arrows28">
          <use xlink:href="#arrow1" transform="translate(-4.1413,2.0152) rotate(156.62) scale(3.0)"/>
        </g>
      </g>
      <g id="fieldline29">
        <path d="M 1.2314,-0.4444 C 0.9596,-0.3704 0.6853,-0.3055 0.4157,-0.2235 0.1958,-0.1558 -0.0200,-0.0687 -0.2112,0.0610"/>
        <g id="arrows29">
          <use xlink:href="#arrow1" transform="translate(0.4468,-0.2331) rotate(162.48) scale(3.0)"/>
        </g>
      </g>
      <g id="fieldline30">
        <path d="M -3.4803,1.2488 C -3.9102,1.2972 -4.3363,1.3747 -4.7600,1.4608"/>
        <g id="arrows30">
          <use xlink:href="#arrow1" transform="translate(-4.1864,1.3517) rotate(169.97) scale(3.0)"/>
        </g>
      </g>
      <g id="fieldline31">
        <path d="M 1.2314,-0.4443 C 0.9752,-0.4204 0.7182,-0.4038 0.4628,-0.3714 0.2397,-0.3419 0.0129,-0.2880 -0.1758,-0.1599 -0.2218,-0.1288 -0.2657,-0.0941 -0.3057,-0.0554"/>
        <g id="arrows31">
          <use xlink:href="#arrow1" transform="translate(0.4170,-0.3650) rotate(170.38) scale(3.0)"/>
        </g>
      </g>
      <g id="fieldline32">
        <path d="M -3.4970,0.7374 C -3.4959,0.7262 -3.5134,0.7295 -3.5273,0.7282 -3.9043,0.7081 -4.2814,0.6871 -4.6590,0.6817 -4.6927,0.6812 -4.7263,0.6806 -4.7600,0.6801"/>
        <g id="arrows32">
          <use xlink:href="#arrow1" transform="translate(-4.1864,0.6954) rotate(-177.74) scale(3.0)"/>
        </g>
      </g>
      <g id="fieldline33">
        <path d="M 1.2314,-0.4443 C 0.9636,-0.4656 0.6962,-0.4939 0.4277,-0.5052 0.2196,-0.5124 0.0012,-0.4990 -0.1854,-0.3976 -0.2869,-0.3432 -0.3755,-0.2647 -0.4408,-0.1699"/>
        <g id="arrows33">
          <use xlink:href="#arrow1" transform="translate(0.4080,-0.5057) rotate(-179.61) scale(3.0)"/>
        </g>
      </g>
      <g id="fieldline34">
        <path d="M -3.4203,0.2282 C -3.6650,0.1571 -3.9071,0.0768 -4.1534,0.0113 -4.3543,-0.0429 -4.5567,-0.0911 -4.7600,-0.1350"/>
        <g id="arrows34">
          <use xlink:href="#arrow1" transform="translate(-4.1526,0.0115) rotate(-165.19) scale(3.0)"/>
        </g>
      </g>
      <g id="fieldline35">
        <path d="M 1.2314,-0.4443 C 0.9490,-0.5179 0.6669,-0.5934 0.3833,-0.6624 0.1872,-0.7071 -0.0210,-0.7500 -0.2192,-0.6925 -0.4181,-0.6341 -0.5883,-0.4742 -0.6465,-0.2735"/>
        <g id="arrows35">
          <use xlink:href="#arrow1" transform="translate(0.4270,-0.6522) rotate(-167.05) scale(3.0)"/>
        </g>
      </g>
      <g id="fieldline36">
        <path d="M -3.1984,-0.1658 C -3.3358,-0.3411 -3.5214,-0.4709 -3.7109,-0.5844 -4.0437,-0.7796 -4.4016,-0.9278 -4.7600,-1.0687"/>
        <g id="arrows36">
          <use xlink:href="#arrow1" transform="translate(-4.0073,-0.7439) rotate(-154.23) scale(3.0)"/>
        </g>
      </g>
      <g id="fieldline37">
        <path d="M 1.2314,-0.4443 C 0.8785,-0.6102 0.5132,-0.7538 0.1812,-0.9606 0.0546,-1.0419 -0.0716,-1.1297 -0.1682,-1.2465 -0.1878,-1.2722 -0.2083,-1.3016 -0.2072,-1.3353"/>
        <g id="arrows37">
          <use xlink:href="#arrow1" transform="translate(0.4791,-0.7936) rotate(-152.48) scale(3.0)"/>
        </g>
      </g>
      <g id="fieldline38">
        <path d="M -0.7775,-1.4968 C -0.9288,-1.2740 -1.1637,-1.1302 -1.3720,-0.9668 -1.5661,-0.8299 -1.7539,-0.6616 -1.9920,-0.6095 -2.2084,-0.5668 -2.3990,-0.7068 -2.5638,-0.8267 -3.0204,-1.1756 -3.5083,-1.4807 -4.0091,-1.7616 -4.2575,-1.9022 -4.5083,-2.0385 -4.7600,-2.1730"/>
        <g id="arrows38">
          <use xlink:href="#arrow1" transform="translate(-3.592,-1.520) rotate(-149.26) scale(3.0)"/>
        </g>
      </g>
      <g id="fieldline39">
        <path d="M 1.2314,-0.4443 C 1.0351,-0.5828 0.8308,-0.7098 0.6386,-0.8539 0.5096,-0.9529 0.3810,-1.0614 0.3014,-1.2057 0.2754,-1.2542 0.2564,-1.3066 0.2481,-1.3610"/>
        <g id="arrows39">
          <use xlink:href="#arrow1" transform="translate(0.5596,-0.9160) rotate(-138.88) scale(3.0)"/>
        </g>
      </g>
      <g id="fieldline40">
        <path d="M -1.0136,-1.7774 C -1.4486,-1.6325 -1.9312,-1.6932 -2.3437,-1.8806 -2.8125,-2.0917 -3.2323,-2.3934 -3.6540,-2.6838 -3.9271,-2.8754 -4.1979,-3.0701 -4.4686,-3.2650"/>
        <g id="arrows40">
          <use xlink:href="#arrow1" transform="translate(-3.0273,-2.2599) rotate(-147.06) scale(3.0)"/>
        </g>
      </g>
      <g id="fieldline41">
        <path d="M 1.2314,-0.4443 C 1.0712,-0.6057 0.9004,-0.7563 0.7421,-0.9196 0.6111,-1.0563 0.4859,-1.2110 0.4413,-1.3993"/>
        <g id="arrows41">
          <use xlink:href="#arrow1" transform="translate(0.6561,-1.0138) rotate(-128.64) scale(3.0)"/>
        </g>
      </g>
      <g id="fieldline42">
        <path d="M -1.0157,-2.0587 C -1.4864,-2.1975 -1.9074,-2.4639 -2.2899,-2.7657 -2.4918,-2.9242 -2.6855,-3.0930 -2.8759,-3.2650"/>
        <g id="arrows42">
          <use xlink:href="#arrow1" transform="translate(-2.1017,-2.6229) rotate(-143.45) scale(3.0)"/>
        </g>
      </g>
      <g id="fieldline43">
        <path d="M 1.2314,-0.4443 C 1.0972,-0.6375 0.9488,-0.8204 0.8122,-1.0118 0.7194,-1.1438 0.6350,-1.2839 0.5872,-1.4390"/>
        <g id="arrows43">
          <use xlink:href="#arrow1" transform="translate(0.7588,-1.0904) rotate(-121.77) scale(3.0)"/>
        </g>
      </g>
      <g id="fieldline44">
        <path d="M -0.8856,-2.2781 C -1.1113,-2.5364 -1.3472,-2.7858 -1.5701,-3.0466 -1.6322,-3.1189 -1.6937,-3.1918 -1.7549,-3.2650"/>
        <g id="arrows44">
          <use xlink:href="#arrow1" transform="translate(-1.3685,-2.8167) rotate(-131.53) scale(3.0)"/>
        </g>
      </g>
      <g id="fieldline45">
        <path d="M 1.2314,-0.4443 C 1.1194,-0.6868 0.9865,-0.9187 0.8622,-1.1549 0.8069,-1.2614 0.7549,-1.3698 0.7120,-1.4819"/>
        <g id="arrows45">
          <use xlink:href="#arrow1" transform="translate(0.8638,-1.1517) rotate(-116.84) scale(3.0)"/>
        </g>
      </g>
      <g id="fieldline46">
        <path d="M -0.6393,-2.3651 C -0.6477,-2.4912 -0.6885,-2.6123 -0.7331,-2.7296 -0.8045,-2.9126 -0.8916,-3.0891 -0.9788,-3.2650"/>
        <g id="arrows46">
          <use xlink:href="#arrow1" transform="translate(-0.7919,-2.8720) rotate(-114.23) scale(3.0)"/>
        </g>
      </g>
      <g id="fieldline47">
        <path d="M 1.2314,-0.4443 C 1.1342,-0.8097 0.9975,-1.1636 0.8378,-1.5060 0.8341,-1.5141 0.8304,-1.5221 0.8267,-1.5302"/>
        <g id="arrows47">
          <use xlink:href="#arrow1" transform="translate(0.9719,-1.2020) rotate(-113.00) scale(3.0)"/>
        </g>
      </g>
      <g id="fieldline48">
        <path d="M -0.2083,-2.3514 C -0.2043,-2.5713 -0.2433,-2.7892 -0.2895,-3.0034 -0.3085,-3.0910 -0.3298,-3.1780 -0.3515,-3.2650"/>
        <g id="arrows48">
          <use xlink:href="#arrow1" transform="translate(-0.2597,-2.8579) rotate(-101.33) scale(3.0)"/>
        </g>
      </g>
      <g id="fieldline49">
        <path d="M 1.2314,-0.4443 C 1.2067,-0.7179 1.1661,-0.9918 1.0825,-1.2542 1.0455,-1.3696 0.9977,-1.4815 0.9380,-1.5871"/>
        <g id="arrows49">
          <use xlink:href="#arrow1" transform="translate(1.0860,-1.2439) rotate(-109.05) scale(3.0)"/>
        </g>
      </g>
      <g id="fieldline50">
        <path d="M 0.3734,-2.4160 C 0.3115,-2.6552 0.2836,-2.9013 0.2563,-3.1464 0.2521,-3.1859 0.2478,-3.2255 0.2436,-3.2650"/>
        <g id="arrows50">
          <use xlink:href="#arrow1" transform="translate(0.2876,-2.8807) rotate(-97.17) scale(3.0)"/>
        </g>
      </g>
      <g id="fieldline51">
        <path d="M 1.2314,-0.4444 C 1.2521,-0.6894 1.2613,-0.9374 1.2267,-1.1816 1.2024,-1.3504 1.1518,-1.5187 1.0518,-1.6588"/>
        <g id="arrows51">
          <use xlink:href="#arrow1" transform="translate(1.2100,-1.2766) rotate(-103.90) scale(3.0)"/>
        </g>
      </g>
      <g id="fieldline52">
        <path d="M 0.8217,-2.5600 C 0.7968,-2.6718 0.7961,-2.7871 0.7975,-2.9011 0.7997,-3.0225 0.8069,-3.1438 0.8146,-3.2650"/>
        <g id="arrows52">
          <use xlink:href="#arrow1" transform="translate(0.7984,-2.9472) rotate(-87.84) scale(3.0)"/>
        </g>
      </g>
      <g id="fieldline53">
        <path d="M 1.2314,-0.4444 C 1.2987,-0.6990 1.3551,-0.9600 1.3520,-1.2247 1.3487,-1.3807 1.3246,-1.5429 1.2404,-1.6773 1.2214,-1.7075 1.1990,-1.7356 1.1737,-1.7608"/>
        <g id="arrows53">
          <use xlink:href="#arrow1" transform="translate(1.3493,-1.2961) rotate(-96.38) scale(3.0)"/>
        </g>
      </g>
      <g id="fieldline54">
        <path d="M 1.1083,-2.5184 C 1.1849,-2.6326 1.2323,-2.7630 1.2767,-2.8923 1.3181,-3.0154 1.3545,-3.1401 1.3902,-3.2650"/>
        <g id="arrows54">
          <use xlink:href="#arrow1" transform="translate(1.2860,-2.9200) rotate(-72.28) scale(3.0)"/>
        </g>
      </g>
      <g id="fieldline56">
        <path d="M 1.2314,-0.4444 C 1.3851,-0.7963 1.5652,-1.1680 1.5594,-1.5648 1.5585,-1.7376 1.5121,-1.9068 1.4388,-2.0624 1.3974,-2.1417 1.4570,-2.2200 1.4940,-2.2875 1.6776,-2.6012 1.8251,-2.9339 1.9740,-3.2650"/>
        <g id="arrows56">
          <use xlink:href="#arrow1" transform="translate(1.551,-1.681) rotate(-99.2) scale(3.0)"/>
          <use xlink:href="#arrow1" transform="translate(1.813,-2.909) rotate(-65.7) scale(3.0)"/>
        </g>
      </g>
      <g id="fieldline57">
        <path d="M 1.2314,-0.4444 C 1.4567,-0.7610 1.6493,-1.1068 1.7477,-1.4851 1.8146,-1.7376 1.8574,-1.9993 1.9739,-2.2357 2.1431,-2.5868 2.3531,-2.9160 2.5516,-3.2508 2.5544,-3.2556 2.5573,-3.2603 2.5601,-3.2650"/>
        <g id="arrows57">
          <use xlink:href="#arrow1" transform="translate(1.7907,-1.6560) rotate(-76.77) scale(3.0)"/>
          <use xlink:href="#arrow1" transform="translate(2.4671,-3.1105) rotate(-58.96) scale(3.0)"/>
        </g>
      </g>
      <g id="fieldline58">
        <path d="M 1.2314,-0.4444 C 1.5146,-0.7214 1.7639,-1.0325 1.9703,-1.3709 2.1643,-1.6875 2.3695,-1.9981 2.6050,-2.2858 2.8731,-2.6198 3.1554,-2.9420 3.4364,-3.2650"/>
        <g id="arrows58">
          <use xlink:href="#arrow1" transform="translate(2.0735,-1.5352) rotate(-57.78) scale(3.0)"/>
          <use xlink:href="#arrow1" transform="translate(2.9830,-2.7407) rotate(-49.52) scale(3.0)"/>
        </g>
      </g>
      <g id="fieldline59">
        <path d="M 1.2314,-0.4444 C 1.6290,-0.7145 1.9857,-1.0380 2.3356,-1.3659 3.0481,-2.0227 3.8178,-2.6127 4.5719,-3.2200 4.5907,-3.2350 4.6095,-3.2500 4.6283,-3.2650"/>
        <g id="arrows59">
          <use xlink:href="#arrow1" transform="translate(2.3074,-1.3400) rotate(-42.52) scale(3.0)"/>
          <use xlink:href="#arrow1" transform="translate(3.4193,-2.2953) rotate(-39.15) scale(3.0)"/>
        </g>
      </g>
      <g id="fieldline60">
        <path d="M 1.2314,-0.4444 C 1.9000,-0.7545 2.5345,-1.1311 3.1863,-1.4740 3.7111,-1.7553 4.2361,-2.0365 4.7600,-2.3195"/>
        <g id="arrows60">
          <use xlink:href="#arrow1" transform="translate(2.4836,-1.0940) rotate(-28.57) scale(3.0)"/>
          <use xlink:href="#arrow1" transform="translate(3.7612,-1.7822) rotate(-28.22) scale(3.0)"/>
        </g>
      </g>
      <g id="fieldline61">
        <path d="M 1.2314,-0.4444 C 1.8179,-0.6057 2.4051,-0.7640 2.9929,-0.9202 3.5870,-1.0807 4.1748,-1.2634 4.7600,-1.4536"/>
        <g id="arrows61">
          <use xlink:href="#arrow1" transform="translate(2.5953,-0.8137) rotate(-14.90) scale(3.0)"/>
          <use xlink:href="#arrow1" transform="translate(3.9990,-1.2121) rotate(-17.23) scale(3.0)"/>
        </g>
      </g>
      <g id="fieldline62">
        <path d="M 1.2314,-0.4443 C 1.6945,-0.4886 2.1593,-0.5132 2.6245,-0.5141 3.1460,-0.5160 3.6677,-0.5413 4.1856,-0.6037 4.3774,-0.6256 4.5687,-0.6505 4.7600,-0.6763"/>
        <g id="arrows62">
          <use xlink:href="#arrow1" transform="translate(2.6363,-0.5143) rotate(-0.75) scale(3.0)"/>
          <use xlink:href="#arrow1" transform="translate(4.1259,-0.5971) rotate(-6.42) scale(3.0)"/>
        </g>
      </g>
    </g>
    <g id="symbols">
      <path stroke="#000000" d="M 1.389,0.935 L 3.146,0.935 L 3.146,2.449 L 1.389,2.449 L 1.389,0.935 Z" fill="none" stroke-width="0.03"/>
      <path
       style="fill:none;stroke:#0000ff;stroke-width:0.05;stroke-linecap:round;stroke-linejoin:round"
       d="M 1.389,1.15 L 1.389,0.935 L 2.8,0.935"/>
      <path
       style="fill:none;stroke:#ff0000;stroke-width:0.05;stroke-linecap:round;stroke-linejoin:round"
       d="M 3.146,1.2 L 3.146,2.449 L 1.389,2.449 L 1.389,2.2"/>
      <path stroke="black" d="M -2.193,2.207 C -2.262,2.366 -2.400,2.472 -2.671,2.475 C -3.136,2.480 -3.395,1.919 -3.474,1.308 C -3.554,0.697 -3.456,0.035 -3.206,-0.161 C -2.714,-0.549 -2.343,0.105 -1.681,-0.101 C -1.426,-0.180 -1.232,-0.239 -0.903,-0.293 C -0.351,-0.383 0.142,0.405 -0.176,0.687 C -0.499,0.975 -1.622,0.392 -1.994,0.829 C -2.184,1.086 -2.036,1.845 -2.193,2.207 Z" fill="none" stroke-width="0.03"/>
      <path
       style="fill:none;stroke:#0000ff;stroke-width:0.05;stroke-linecap:round;stroke-linejoin:round"
       d="M -0.903,-0.293 C -0.351,-0.383 0.142,0.405 -0.176,0.687"/>
      <path
       style="fill:none;stroke:#ff0000;stroke-width:0.05;stroke-linecap:round;stroke-linejoin:round"
       d="M -2.193,2.207 C -2.262,2.366 -2.400,2.472 -2.671,2.475 C -3.136,2.480 -3.395,1.919 -3.474,1.308 C -3.554,0.697 -3.456,0.035 -3.206,-0.161"/>
      <path stroke="black" d="M 1.311,-1.955 C 1.186,-1.653 0.703,-1.401 0.105,-1.343 C -0.142,-1.319 -0.354,-1.337 -0.525,-1.386 C -0.737,-1.447 -0.888,-1.553 -0.969,-1.683 C -1.048,-1.811 -1.060,-1.960 -0.997,-2.112 C -0.820,-2.536 -0.466,-2.284 0.146,-2.369 C 0.758,-2.453 0.954,-2.797 1.260,-2.355 C 1.353,-2.220 1.364,-2.083 1.311,-1.955 Z" fill="none" stroke-width="0.03"/>
      <path
       style="fill:none;stroke:#0000ff;stroke-width:0.05;stroke-linecap:round;stroke-linejoin:round"
       d="M 1.311,-1.955 C 1.186,-1.653 0.703,-1.401 0.105,-1.343 C -0.044,-1.329 -0.180,-1.329 -0.302,-1.343"/>
      <path
       style="fill:none;stroke:#ff0000;stroke-width:0.05;stroke-linecap:round;stroke-linejoin:round"
       d="M -0.755,-1.483 C -0.849,-1.538 -0.921,-1.607 -0.969,-1.683 C -1.048,-1.811 -1.060,-1.960 -0.997,-2.112 C -0.820,-2.536 -0.466,-2.284 0.146,-2.369 C 0.758,-2.453 0.954,-2.797 1.260,-2.355"/>
      <g id="wire1" transform="translate(1.23143,-0.44435) scale(0.015,0.015)">
        <circle cx="0" cy="0" r="13" style="fill:white; stroke:#ff0000; stroke-width:2"/>
        <path d="M -8,0 H 8 M 0,-8 V 8" style="fill:none; stroke:#ff0000; stroke-width:2.7"/>
      </g>
      <g
         id="g426"
         style="font-size:32px;line-height:100%;font-family:Arial;fill:#000000;stroke:#000000;stroke-width:1px"
         transform="scale(0.01,-0.01)">
        <text
           style="fill:#0000ff;stroke:#0000ff"
           id="text7125-9"
           y="-70.426666"
           x="149.31386"
           xml:space="preserve"><tspan
             y="-70.426666"
             x="149.31386"
             id="tspan7129-1">−</tspan></text>
        <text
           style="fill:#0000ff;stroke:#0000ff"
           id="text7125-2"
           y="-70.426666"
           x="169.82596"
           xml:space="preserve"><tspan
             y="-70.426666"
             x="169.82596"
             id="tspan7129-7">−</tspan></text>
        <text
           style="fill:#0000ff;stroke:#0000ff"
           id="text7125-0"
           y="-70.426666"
           x="190.82642"
           xml:space="preserve"><tspan
             y="-70.426666"
             x="190.82642"
             id="tspan7129-9">−</tspan></text>
        <text
           style="fill:#0000ff;stroke:#0000ff"
           id="text7125-36"
           y="-70.426666"
           x="213.53622"
           xml:space="preserve"><tspan
             y="-70.426666"
             x="213.53622"
             id="tspan7129-0">−</tspan></text>
        <text
           style="fill:#0000ff;stroke:#0000ff"
           id="text7125-6"
           y="-70.426666"
           x="240.88568"
           xml:space="preserve"><tspan
             y="-70.426666"
             x="240.88568"
             id="tspan7129-2">−</tspan></text>
        <text
           style="fill:#ff0000;stroke:#ff0000"
           xml:space="preserve"
           x="116.60782"
           y="-234.52338"
           id="text7259-4"><tspan
             id="tspan7261-3"
             x="116.60782"
             y="-234.52338">+</tspan></text>
        <text
           style="fill:#ff0000;stroke:#ff0000"
           xml:space="preserve"
           x="162.51582"
           y="-246.97716"
           id="text7259-1"><tspan
             id="tspan7261-4"
             x="162.51582"
             y="-246.97716">+</tspan></text>
        <text
           style="fill:#ff0000;stroke:#ff0000"
           xml:space="preserve"
           x="216.72635"
           y="-246.97716"
           id="text7259-9"><tspan
             id="tspan7261-2"
             x="216.72635"
             y="-246.97716">+</tspan></text>
        <text
           style="fill:#ff0000;stroke:#ff0000"
           xml:space="preserve"
           x="249.69221"
           y="-246.97716"
           id="text7259-0"><tspan
             id="tspan7261-6"
             x="249.69221"
             y="-246.97716">+</tspan></text>
        <text
           style="fill:#ff0000;stroke:#ff0000"
           xml:space="preserve"
           x="290.96057"
           y="-246.97716"
           id="text7259-8"><tspan
             id="tspan7261-9"
             x="290.96057"
             y="-246.97716">+</tspan></text>
        <text
           style="fill:#ff0000;stroke:#ff0000"
           xml:space="preserve"
           x="319.53101"
           y="-235.01175"
           id="text7259-2"><tspan
             id="tspan7261-66"
             x="319.53101"
             y="-235.01175">+</tspan></text>
        <text
           style="fill:#ff0000;stroke:#ff0000"
           xml:space="preserve"
           x="319.53101"
           y="-187.39441"
           id="text7259-49"><tspan
             id="tspan7261-5"
             x="319.53101"
             y="-187.39441">+</tspan></text>
        <text
           style="fill:#ff0000;stroke:#ff0000"
           xml:space="preserve"
           x="319.53101"
           y="-125.12557"
           id="text7259-04"><tspan
             id="tspan7261-8"
             x="319.53101"
             y="-125.12557">+</tspan></text>
        <text
           style="fill:#ff0000;stroke:#ff0000"
           xml:space="preserve"
           x="-260.13486"
           y="-249.31915"
           id="text7259-7"><tspan
             id="tspan7261-1"
             x="-260.13486"
             y="-249.31915">+</tspan></text>
        <text
           style="fill:#ff0000;stroke:#ff0000"
           xml:space="preserve"
           x="-302.73672"
           y="-244.50894"
           id="text7259-72"><tspan
             id="tspan7261-7"
             x="-302.73672"
             y="-244.50894">+</tspan></text>
        <text
           style="fill:#ff0000;stroke:#ff0000"
           xml:space="preserve"
           x="-336.62555"
           y="-218.46126"
           id="text7259-22"><tspan
             id="tspan7261-61"
             x="-336.62555"
             y="-218.46126">+</tspan></text>
        <text
           style="fill:#ff0000;stroke:#ff0000"
           xml:space="preserve"
           x="-358.04077"
           y="-176.46207"
           id="text7259-06"><tspan
             id="tspan7261-15"
             x="-358.04077"
             y="-176.46207">+</tspan></text>
        <text
           style="fill:#ff0000;stroke:#ff0000"
           xml:space="preserve"
           x="-370.53223"
           y="-126.84508"
           id="text7259-94"><tspan
             id="tspan7261-90"
             x="-370.53223"
             y="-126.84508">+</tspan></text>
        <text
           style="fill:#ff0000;stroke:#ff0000"
           xml:space="preserve"
           x="-372.56955"
           y="-71.904961"
           id="text7259-91"><tspan
             id="tspan7261-77"
             x="-372.56955"
             y="-71.904961">+</tspan></text>
        <text
           style="fill:#ff0000;stroke:#ff0000"
           xml:space="preserve"
           x="-366.96033"
           y="-18.370739"
           id="text7259-11"><tspan
             id="tspan7261-59"
             x="-366.96033"
             y="-18.370739">+</tspan></text>
        <text
           style="fill:#ff0000;stroke:#ff0000"
           xml:space="preserve"
           x="-346.20108"
           y="31.413839"
           id="text7259-77"><tspan
             id="tspan7261-67"
             x="-346.20108"
             y="31.413839">+</tspan></text>
        <text
           style="fill:#ff0000;stroke:#ff0000"
           xml:space="preserve"
           x="-102.67619"
           y="155.4505"
           id="text7259-3"><tspan
             id="tspan7261-65"
             x="-102.67619"
             y="155.4505">+</tspan></text>
        <text
           style="fill:#ff0000;stroke:#ff0000"
           xml:space="preserve"
           x="-126.36276"
           y="195.49792"
           id="text7259-6"><tspan
             id="tspan7261-39"
             x="-126.36276"
             y="195.49792">+</tspan></text>
        <text
           style="fill:#ff0000;stroke:#ff0000"
           xml:space="preserve"
           x="-120.50215"
           y="230.17311"
           id="text7259-48"><tspan
             id="tspan7261-12"
             x="-120.50215"
             y="230.17311">+</tspan></text>
        <text
           style="fill:#ff0000;stroke:#ff0000"
           xml:space="preserve"
           x="-98.524933"
           y="253.61551"
           id="text7259-93"><tspan
             id="tspan7261-908"
             x="-98.524933"
             y="253.61551">+</tspan></text>
        <text
           style="fill:#ff0000;stroke:#ff0000"
           xml:space="preserve"
           x="-64.826492"
           y="260.94122"
           id="text7259-85"><tspan
             id="tspan7261-0"
             x="-64.826492"
             y="260.94122">+</tspan></text>
        <text
           style="fill:#ff0000;stroke:#ff0000"
           xml:space="preserve"
           x="-20.383636"
           y="258.25516"
           id="text7259-96"><tspan
             id="tspan7261-38"
             x="-20.383636"
             y="258.25516">+</tspan></text>
        <text
           style="fill:#ff0000;stroke:#ff0000"
           xml:space="preserve"
           x="35.047844"
           y="268.5112"
           id="text7259-5"><tspan
             id="tspan7261-611"
             x="35.047844"
             y="268.5112">+</tspan></text>
        <text
           style="fill:#ff0000;stroke:#ff0000"
           xml:space="preserve"
           x="81.444237"
           y="281.45334"
           id="text7259-59"><tspan
             id="tspan7261-84"
             x="81.444237"
             y="281.45334">+</tspan></text>
        <text
           style="fill:#ff0000;stroke:#ff0000"
           xml:space="preserve"
           x="116.11943"
           y="268.5112"
           id="text7259-81"><tspan
             id="tspan7261-03"
             x="116.11943"
             y="268.5112">+</tspan></text>
        <text
           style="fill:#0000ff;stroke:#0000ff"
           id="text7125-9-4"
           y="-70.426666"
           x="127.01549"
           xml:space="preserve"><tspan
             y="-70.426666"
             x="127.01549"
             id="tspan7129-1-4">−</tspan></text>
        <text
           style="fill:#0000ff;stroke:#0000ff"
           id="text7125-9-47"
           y="-78.903938"
           x="115.68214"
           xml:space="preserve"><tspan
             y="-78.903938"
             x="115.68214"
             id="tspan7129-1-6">−</tspan></text>
        <text
           style="fill:#0000ff;stroke:#0000ff"
           id="text7125-9-3"
           y="-102.79876"
           x="113.88963"
           xml:space="preserve"><tspan
             y="-102.79876"
             x="113.88963"
             id="tspan7129-1-1">−</tspan></text>
        <text
           style="fill:#0000ff;stroke:#0000ff"
           id="text7125-9-7"
           y="-49.621029"
           x="-5.3483839"
           xml:space="preserve"><tspan
             y="-49.621029"
             x="-5.3483839"
             id="tspan7129-1-5">−</tspan></text>
        <text
           style="fill:#0000ff;stroke:#0000ff"
           id="text7125-9-9"
           y="-27.519333"
           x="-3.794358"
           xml:space="preserve"><tspan
             y="-27.519333"
             x="-3.794358"
             id="tspan7129-1-62">−</tspan></text>
        <text
           style="fill:#0000ff;stroke:#0000ff"
           id="text7125-9-1"
           y="-9.5617065"
           x="-8.1110954"
           xml:space="preserve"><tspan
             y="-9.5617065"
             x="-8.1110954"
             id="tspan7129-1-7">−</tspan></text>
        <text
           style="fill:#0000ff;stroke:#0000ff"
           id="text7125-9-8"
           y="3.5611751"
           x="-14.845206"
           xml:space="preserve"><tspan
             y="3.5611751"
             x="-14.845206"
             id="tspan7129-1-57">−</tspan></text>
        <text
           style="fill:#0000ff;stroke:#0000ff"
           id="text7125-9-41"
           y="16.166048"
           x="-24.514698"
           xml:space="preserve"><tspan
             y="16.166048"
             x="-24.514698"
             id="tspan7129-1-8">−</tspan></text>
        <text
           style="fill:#0000ff;stroke:#0000ff"
           id="text7125-9-5"
           y="29.461599"
           x="-37.464909"
           xml:space="preserve"><tspan
             y="29.461599"
             x="-37.464909"
             id="tspan7129-1-9">−</tspan></text>
        <text
           style="fill:#0000ff;stroke:#0000ff"
           id="text7125-9-75"
           y="40.512447"
           x="-54.38652"
           xml:space="preserve"><tspan
             y="40.512447"
             x="-54.38652"
             id="tspan7129-1-3">−</tspan></text>
        <text
           style="fill:#0000ff;stroke:#0000ff"
           id="text7125-9-88"
           y="48.455246"
           x="-80.977623"
           xml:space="preserve"><tspan
             y="48.455246"
             x="-80.977623"
             id="tspan7129-1-31">−</tspan></text>
        <text
           style="fill:#0000ff;stroke:#0000ff"
           id="text7125-9-89"
           y="136.44516"
           x="-39.020168"
           xml:space="preserve"><tspan
             y="136.44516"
             x="-39.020168"
             id="tspan7129-1-64">−</tspan></text>
        <text
           style="fill:#0000ff;stroke:#0000ff"
           id="text7125-9-33"
           y="137.35548"
           x="6.5095372"
           xml:space="preserve"><tspan
             y="137.35548"
             x="6.5095372"
             id="tspan7129-1-38">−</tspan></text>
        <text
           style="fill:#0000ff;stroke:#0000ff"
           id="text7125-9-6"
           y="140.60658"
           x="28.13512"
           xml:space="preserve"><tspan
             y="140.60658"
             x="28.13512"
             id="tspan7129-1-0">−</tspan></text>
        <text
           style="fill:#0000ff;stroke:#0000ff"
           id="text7125-9-48"
           y="145.06636"
           x="48.499958"
           xml:space="preserve"><tspan
             y="145.06636"
             x="48.499958"
             id="tspan7129-1-88">−</tspan></text>
        <text
           style="fill:#0000ff;stroke:#0000ff"
           id="text7125-9-97"
           y="150.35986"
           x="62.944939"
           xml:space="preserve"><tspan
             y="150.35986"
             x="62.944939"
             id="tspan7129-1-76">−</tspan></text>
        <text
           style="fill:#0000ff;stroke:#0000ff"
           id="text7125-9-43"
           y="156.07024"
           x="78.551636"
           xml:space="preserve"><tspan
             y="156.07024"
             x="78.551636"
             id="tspan7129-1-03">−</tspan></text>
        <text
           style="fill:#0000ff;stroke:#0000ff"
           id="text7125-9-0"
           y="161.66718"
           x="90.478111"
           xml:space="preserve"><tspan
             y="161.66718"
             x="90.478111"
             id="tspan7129-1-92">−</tspan></text>
        <text
           style="fill:#0000ff;stroke:#0000ff"
           id="text7125-9-54"
           y="170.16986"
           x="103.81555"
           xml:space="preserve"><tspan
             y="170.16986"
             x="103.81555"
             id="tspan7129-1-05">−</tspan></text>
        <text
           style="fill:#0000ff;stroke:#0000ff"
           id="text7125-9-94"
           y="182.89536"
           x="122.81129"
           xml:space="preserve"><tspan
             y="182.89536"
             x="122.81129"
             id="tspan7129-1-69">−</tspan></text>
      </g>
    </g>
  </g>
</svg>
