<?xml version='1.0' encoding='utf-8'?>
<svg xmlns:xlink="http://www.w3.org/1999/xlink" xmlns="http://www.w3.org/2000/svg" version="1.1" baseProfile="full" width="800" height="600">
  <title>VFPt_capacitor-square-plate</title>
  <desc>VFPt_capacitor-square-plate
created with VectorFieldPlot 2.0
https://commons.wikimedia.org/wiki/User:Geek3/VectorFieldPlot

about: https://commons.wikimedia.org/wiki/File:VFPt_capacitor-square-plate.svg
rights: Creative Commons Attribution ShareAlike 4.0
  </desc>
  <defs>
    <clipPath id="image_clip">
      <rect x="-4.0" y="-3.0" width="8.0" height="6.0"/>
    </clipPath>
    <path id="arrow1" stroke="none" fill="#000000" transform="scale(0.01)" d="M 0.3,0 L -2.2,2.25 L 3.8,0 L -2.2,-2.25 L 0.3,0 Z"/>
  </defs>
  <rect id="background" x="0" y="0" width="800" height="600" fill="#ffffff"/>
  <g id="image" transform="translate(400.0,300.0) scale(100.0,-100.0)" clip-path="url(#image_clip)">
    <g id="fieldlines" fill="none" stroke="#000000" stroke-width="0.02" stroke-linejoin="round" stroke-linecap="round">
      <g id="fieldline1">
        <path d="M 0.4390,0.7500 L 0.4473,0.8667 L 0.4570,0.9836 L 0.4678,1.1008 L 0.4800,1.2185 L 0.4934,1.3370 L 0.5082,1.4563 L 0.5243,1.5768 L 0.5418,1.6984 L 0.5608,1.8215 L 0.5812,1.9461 L 0.6031,2.0723 L 0.6266,2.2004 L 0.6517,2.3303 L 0.6784,2.4622 L 0.7067,2.5961 L 0.7368,2.7320 L 0.7685,2.8700 L 0.8020,3.0100 M 0.8020,-3.0100 L 0.7685,-2.8700 L 0.7368,-2.7320 L 0.7068,-2.5961 L 0.6784,-2.4622 L 0.6517,-2.3303 L 0.6266,-2.2004 L 0.6031,-2.0723 L 0.5812,-1.9461 L 0.5608,-1.8215 L 0.5418,-1.6984 L 0.5243,-1.5767 L 0.5082,-1.4563 L 0.4934,-1.3370 L 0.4800,-1.2185 L 0.4678,-1.1008 L 0.4570,-0.9836 L 0.4473,-0.8667 L 0.4390,-0.7500"/>
        <g id="arrows1">
          <use xlink:href="#arrow1" transform="translate(0.5716,1.8878) rotate(80.69) scale(2.0)"/>
          <use xlink:href="#arrow1" transform="translate(0.5716,-1.8878) rotate(99.31) scale(2.0)"/>
        </g>
      </g>
      <g id="fieldline2">
        <path d="M 1.2655,0.7500 L 1.2809,0.8063 L 1.2974,0.8619 L 1.3150,0.9170 L 1.3338,0.9715 L 1.3536,1.0254 L 1.3747,1.0789 L 1.3969,1.1319 L 1.4202,1.1845 L 1.4448,1.2367 L 1.4706,1.2886 L 1.4976,1.3402 L 1.5259,1.3914 L 1.5555,1.4425 L 1.5864,1.4933 L 1.6186,1.5438 L 1.6522,1.5942 L 1.6872,1.6444 L 1.7235,1.6944 L 1.7613,1.7442 L 1.8005,1.7938 L 1.8411,1.8432 L 1.8831,1.8923 L 1.9266,1.9412 L 1.9715,1.9898 L 2.0178,2.0381 L 2.0655,2.0860 L 2.1146,2.1336 L 2.1650,2.1807 L 2.2168,2.2274 L 2.2700,2.2736 L 2.3244,2.3193 L 2.3801,2.3643 L 2.4370,2.4088 L 2.4952,2.4526 L 2.5545,2.4958 L 2.6149,2.5382 L 2.6764,2.5799 L 2.7390,2.6207 L 2.8027,2.6608 L 2.8673,2.7000 L 2.9328,2.7383 L 2.9993,2.7757 L 3.0667,2.8122 L 3.1349,2.8477 L 3.2039,2.8822 L 3.2737,2.9157 L 3.3442,2.9482 L 3.4155,2.9796 L 3.4874,3.0100 M 3.4874,-3.0100 L 3.4155,-2.9796 L 3.3442,-2.9482 L 3.2737,-2.9157 L 3.2039,-2.8822 L 3.1349,-2.8477 L 3.0667,-2.8122 L 2.9993,-2.7757 L 2.9328,-2.7383 L 2.8673,-2.7000 L 2.8027,-2.6608 L 2.7390,-2.6207 L 2.6764,-2.5799 L 2.6149,-2.5382 L 2.5545,-2.4958 L 2.4952,-2.4526 L 2.4370,-2.4088 L 2.3801,-2.3643 L 2.3244,-2.3193 L 2.2700,-2.2736 L 2.2168,-2.2274 L 2.1650,-2.1807 L 2.1146,-2.1336 L 2.0655,-2.0860 L 2.0178,-2.0381 L 1.9715,-1.9898 L 1.9266,-1.9412 L 1.8831,-1.8923 L 1.8411,-1.8432 L 1.8005,-1.7938 L 1.7613,-1.7442 L 1.7235,-1.6944 L 1.6872,-1.6444 L 1.6522,-1.5942 L 1.6186,-1.5438 L 1.5864,-1.4932 L 1.5555,-1.4425 L 1.5259,-1.3914 L 1.4976,-1.3401 L 1.4706,-1.2886 L 1.4448,-1.2367 L 1.4202,-1.1845 L 1.3969,-1.1319 L 1.3747,-1.0789 L 1.3536,-1.0254 L 1.3337,-0.9715 L 1.3150,-0.9170 L 1.2974,-0.8619 L 1.2809,-0.8063 L 1.2655,-0.7500"/>
        <g id="arrows2">
          <use xlink:href="#arrow1" transform="translate(1.5909,1.4999) rotate(57.73) scale(2.0)"/>
          <use xlink:href="#arrow1" transform="translate(2.7593,2.6335) rotate(32.19) scale(2.0)"/>
          <use xlink:href="#arrow1" transform="translate(2.7594,-2.6334) rotate(147.47) scale(2.0)"/>
          <use xlink:href="#arrow1" transform="translate(1.5909,-1.4999) rotate(121.81) scale(2.0)"/>
        </g>
      </g>
      <g id="fieldline3">
        <path d="M 1.9830,0.7500 L 2.0016,0.7730 L 2.0206,0.7945 L 2.0400,0.8146 L 2.0597,0.8332 L 2.0798,0.8504 L 2.1002,0.8662 L 2.1211,0.8808 L 2.1424,0.8942 L 2.1643,0.9064 L 2.1867,0.9175 L 2.2099,0.9275 L 2.2339,0.9365 L 2.2587,0.9444 L 2.2844,0.9512 L 2.3111,0.9570 L 2.3387,0.9616 L 2.3674,0.9651 L 2.3969,0.9674 L 2.4273,0.9685 L 2.4584,0.9684 L 2.4903,0.9669 L 2.5227,0.9641 L 2.5556,0.9600 L 2.5889,0.9546 L 2.6225,0.9478 L 2.6561,0.9397 L 2.6898,0.9303 L 2.7235,0.9195 L 2.7569,0.9075 L 2.7902,0.8942 L 2.8230,0.8797 L 2.8555,0.8639 L 2.8874,0.8470 L 2.9188,0.8290 L 2.9495,0.8098 L 2.9795,0.7896 L 3.0088,0.7683 L 3.0373,0.7461 L 3.0650,0.7229 L 3.0918,0.6988 L 3.1176,0.6738 L 3.1425,0.6480 L 3.1663,0.6214 L 3.1892,0.5940 L 3.2109,0.5659 L 3.2316,0.5371 L 3.2512,0.5078 L 3.2697,0.4778 L 3.2870,0.4472 L 3.3032,0.4161 L 3.3181,0.3846 L 3.3319,0.3526 L 3.3444,0.3202 L 3.3557,0.2875 L 3.3658,0.2544 L 3.3747,0.2211 L 3.3823,0.1875 L 3.3886,0.1537 L 3.3937,0.1197 L 3.3975,0.0856 L 3.4001,0.0514 L 3.4013,0.0171 L 3.4013,-0.0171 L 3.4001,-0.0514 L 3.3975,-0.0856 L 3.3937,-0.1197 L 3.3886,-0.1537 L 3.3823,-0.1875 L 3.3747,-0.2211 L 3.3658,-0.2544 L 3.3558,-0.2875 L 3.3444,-0.3202 L 3.3319,-0.3526 L 3.3181,-0.3846 L 3.3032,-0.4161 L 3.2870,-0.4472 L 3.2697,-0.4777 L 3.2512,-0.5077 L 3.2317,-0.5371 L 3.2110,-0.5659 L 3.1892,-0.5940 L 3.1663,-0.6213 L 3.1425,-0.6480 L 3.1176,-0.6738 L 3.0918,-0.6988 L 3.0650,-0.7229 L 3.0374,-0.7461 L 3.0089,-0.7683 L 2.9796,-0.7896 L 2.9495,-0.8098 L 2.9188,-0.8289 L 2.8874,-0.8470 L 2.8555,-0.8639 L 2.8230,-0.8796 L 2.7902,-0.8942 L 2.7570,-0.9075 L 2.7235,-0.9195 L 2.6899,-0.9303 L 2.6562,-0.9397 L 2.6225,-0.9478 L 2.5889,-0.9546 L 2.5556,-0.9600 L 2.5227,-0.9641 L 2.4903,-0.9669 L 2.4584,-0.9684 L 2.4273,-0.9685 L 2.3969,-0.9674 L 2.3673,-0.9651 L 2.3387,-0.9616 L 2.3111,-0.9570 L 2.2844,-0.9512 L 2.2587,-0.9444 L 2.2339,-0.9365 L 2.2099,-0.9275 L 2.1867,-0.9175 L 2.1642,-0.9064 L 2.1424,-0.8942 L 2.1211,-0.8808 L 2.1002,-0.8662 L 2.0797,-0.8504 L 2.0597,-0.8332 L 2.0400,-0.8146 L 2.0206,-0.7945 L 2.0016,-0.7730 L 1.9830,-0.7500"/>
        <g id="arrows3">
          <use xlink:href="#arrow1" transform="translate(2.9064,0.8357) rotate(-30.91) scale(2.0)"/>
          <use xlink:href="#arrow1" transform="translate(2.9063,-0.8356) rotate(-150.64) scale(2.0)"/>
        </g>
      </g>
      <g id="fieldline4">
        <path d="M 2.0799,0.7500 L 2.0966,0.7179 L 2.1148,0.6857 L 2.1363,0.6503 L 2.1689,0.5998 L 2.2102,0.5364 L 2.2352,0.4959 L 2.2561,0.4598 L 2.2745,0.4256 L 2.2910,0.3923 L 2.3059,0.3595 L 2.3194,0.3269 L 2.3314,0.2944 L 2.3422,0.2619 L 2.3516,0.2294 L 2.3598,0.1968 L 2.3667,0.1641 L 2.3723,0.1314 L 2.3767,0.0986 L 2.3798,0.0657 L 2.3817,0.0329 L 2.3823,-0.0000 L 2.3817,-0.0329 L 2.3798,-0.0658 L 2.3767,-0.0986 L 2.3723,-0.1314 L 2.3667,-0.1641 L 2.3598,-0.1968 L 2.3516,-0.2294 L 2.3422,-0.2619 L 2.3314,-0.2944 L 2.3194,-0.3269 L 2.3059,-0.3595 L 2.2910,-0.3924 L 2.2745,-0.4257 L 2.2561,-0.4598 L 2.2352,-0.4958 L 2.2102,-0.5364 L 2.1689,-0.5998 L 2.1363,-0.6503 L 2.1148,-0.6857 L 2.0966,-0.7179 L 2.0799,-0.7500"/>
        <g id="arrows4">
          <use xlink:href="#arrow1" transform="translate(2.3816,0.0000) rotate(-90.93) scale(2.0)"/>
        </g>
      </g>
      <g id="fieldline5">
        <path d="M 1.7841,0.7500 L 1.8168,0.6247 L 1.8471,0.5087 L 1.8648,0.4369 L 1.8783,0.3770 L 1.8893,0.3232 L 1.8983,0.2728 L 1.9057,0.2248 L 1.9115,0.1783 L 1.9160,0.1329 L 1.9192,0.0883 L 1.9211,0.0440 L 1.9217,0.0000 L 1.9211,-0.0440 L 1.9192,-0.0883 L 1.9160,-0.1329 L 1.9115,-0.1783 L 1.9057,-0.2248 L 1.8983,-0.2728 L 1.8893,-0.3232 L 1.8783,-0.3770 L 1.8648,-0.4369 L 1.8471,-0.5087 L 1.8168,-0.6247 L 1.7841,-0.7500"/>
        <g id="arrows5">
          <use xlink:href="#arrow1" transform="translate(1.9212,0.0000) rotate(-90.44) scale(2.0)"/>
        </g>
      </g>
      <g id="fieldline6">
        <path d="M 1.4974,0.7500 L 1.5216,0.5894 L 1.5355,0.4906 L 1.5459,0.4094 L 1.5540,0.3371 L 1.5603,0.2704 L 1.5652,0.2073 L 1.5688,0.1465 L 1.5711,0.0874 L 1.5723,0.0290 L 1.5723,-0.0290 L 1.5711,-0.0874 L 1.5688,-0.1465 L 1.5652,-0.2073 L 1.5603,-0.2704 L 1.5540,-0.3371 L 1.5459,-0.4094 L 1.5355,-0.4906 L 1.5216,-0.5894 L 1.4974,-0.7500"/>
        <g id="arrows6">
          <use xlink:href="#arrow1" transform="translate(1.5722,0.0000) rotate(-90.33) scale(2.0)"/>
        </g>
      </g>
      <g id="fieldline7">
        <path d="M 1.2175,0.7500 L 1.2318,0.5974 L 1.2416,0.4807 L 1.2489,0.3802 L 1.2543,0.2888 L 1.2582,0.2030 L 1.2608,0.1205 L 1.2620,0.0399 L 1.2620,-0.0399 L 1.2608,-0.1205 L 1.2582,-0.2030 L 1.2543,-0.2888 L 1.2489,-0.3802 L 1.2416,-0.4807 L 1.2318,-0.5974 L 1.2175,-0.7500"/>
        <g id="arrows7">
          <use xlink:href="#arrow1" transform="translate(1.2620,0.0000) rotate(-90.12) scale(2.0)"/>
        </g>
      </g>
      <g id="fieldline8">
        <path d="M 0.9425,0.7500 L 0.9524,0.5819 L 0.9593,0.4457 L 0.9642,0.3246 L 0.9675,0.2125 L 0.9694,0.1052 L 0.9701,-0.0000 L 0.9694,-0.1052 L 0.9675,-0.2125 L 0.9642,-0.3246 L 0.9593,-0.4457 L 0.9524,-0.5819 L 0.9425,-0.7500"/>
        <g id="arrows8">
          <use xlink:href="#arrow1" transform="translate(0.9699,0.0000) rotate(-90.13) scale(2.0)"/>
        </g>
      </g>
      <g id="fieldline9">
        <path d="M 0.6710,0.7500 L 0.6778,0.5622 L 0.6824,0.4052 L 0.6854,0.2638 L 0.6871,0.1301 L 0.6877,-0.0000 L 0.6871,-0.1301 L 0.6854,-0.2638 L 0.6824,-0.4052 L 0.6778,-0.5622 L 0.6710,-0.7500"/>
        <g id="arrows9">
          <use xlink:href="#arrow1" transform="translate(0.6876,0.0000) rotate(-90.10) scale(2.0)"/>
        </g>
      </g>
      <g id="fieldline10">
        <path d="M 0.4018,0.7500 L 0.4065,0.4997 L 0.4093,0.2888 L 0.4106,0.0946 L 0.4106,-0.0946 L 0.4093,-0.2888 L 0.4065,-0.4997 L 0.4018,-0.7500"/>
        <g id="arrows10">
          <use xlink:href="#arrow1" transform="translate(0.4106,0.0000) rotate(-90.00) scale(2.0)"/>
        </g>
      </g>
      <g id="fieldline11">
        <path d="M 0.1338,0.7500 L 0.1360,0.3421 L 0.1366,-0.0000 L 0.1360,-0.3421 L 0.1338,-0.7500"/>
        <g id="arrows11">
          <use xlink:href="#arrow1" transform="translate(0.1366,0.0000) rotate(-90.04) scale(2.0)"/>
        </g>
      </g>
      <g id="fieldline12">
        <path d="M -0.1338,0.7500 L -0.1360,0.3421 L -0.1366,-0.0000 L -0.1360,-0.3421 L -0.1338,-0.7500"/>
        <g id="arrows12">
          <use xlink:href="#arrow1" transform="translate(-0.1366,0.0000) rotate(-89.96) scale(2.0)"/>
        </g>
      </g>
      <g id="fieldline13">
        <path d="M -0.4018,0.7500 L -0.4065,0.4997 L -0.4093,0.2888 L -0.4106,0.0946 L -0.4106,-0.0946 L -0.4093,-0.2888 L -0.4065,-0.4997 L -0.4018,-0.7500"/>
        <g id="arrows13">
          <use xlink:href="#arrow1" transform="translate(-0.4106,-0.0000) rotate(-90.00) scale(2.0)"/>
        </g>
      </g>
      <g id="fieldline14">
        <path d="M -0.6710,0.7500 L -0.6778,0.5622 L -0.6824,0.4052 L -0.6854,0.2638 L -0.6871,0.1301 L -0.6877,0.0000 L -0.6871,-0.1301 L -0.6854,-0.2638 L -0.6824,-0.4052 L -0.6778,-0.5622 L -0.6710,-0.7500"/>
        <g id="arrows14">
          <use xlink:href="#arrow1" transform="translate(-0.6876,0.0000) rotate(-89.90) scale(2.0)"/>
        </g>
      </g>
      <g id="fieldline15">
        <path d="M -0.9425,0.7500 L -0.9524,0.5819 L -0.9593,0.4457 L -0.9642,0.3246 L -0.9675,0.2125 L -0.9694,0.1052 L -0.9701,-0.0000 L -0.9694,-0.1052 L -0.9675,-0.2125 L -0.9642,-0.3246 L -0.9593,-0.4457 L -0.9524,-0.5819 L -0.9425,-0.7500"/>
        <g id="arrows15">
          <use xlink:href="#arrow1" transform="translate(-0.9699,0.0000) rotate(-89.87) scale(2.0)"/>
        </g>
      </g>
      <g id="fieldline16">
        <path d="M -1.2175,0.7500 L -1.2318,0.5974 L -1.2416,0.4807 L -1.2489,0.3802 L -1.2543,0.2888 L -1.2582,0.2030 L -1.2608,0.1205 L -1.2620,0.0399 L -1.2620,-0.0399 L -1.2608,-0.1205 L -1.2582,-0.2030 L -1.2543,-0.2888 L -1.2489,-0.3802 L -1.2416,-0.4807 L -1.2318,-0.5974 L -1.2175,-0.7500"/>
        <g id="arrows16">
          <use xlink:href="#arrow1" transform="translate(-1.2620,0.0000) rotate(-89.88) scale(2.0)"/>
        </g>
      </g>
      <g id="fieldline17">
        <path d="M -1.4974,0.7500 L -1.5216,0.5894 L -1.5355,0.4906 L -1.5459,0.4094 L -1.5540,0.3371 L -1.5603,0.2704 L -1.5652,0.2073 L -1.5688,0.1465 L -1.5711,0.0874 L -1.5723,0.0290 L -1.5723,-0.0290 L -1.5711,-0.0874 L -1.5688,-0.1465 L -1.5652,-0.2073 L -1.5603,-0.2704 L -1.5540,-0.3371 L -1.5459,-0.4094 L -1.5355,-0.4906 L -1.5216,-0.5894 L -1.4974,-0.7500"/>
        <g id="arrows17">
          <use xlink:href="#arrow1" transform="translate(-1.5722,0.0000) rotate(-89.67) scale(2.0)"/>
        </g>
      </g>
      <g id="fieldline18">
        <path d="M -1.7841,0.7500 L -1.8168,0.6247 L -1.8471,0.5087 L -1.8648,0.4369 L -1.8783,0.3770 L -1.8893,0.3232 L -1.8983,0.2728 L -1.9057,0.2248 L -1.9115,0.1783 L -1.9160,0.1329 L -1.9192,0.0883 L -1.9211,0.0440 L -1.9217,0.0000 L -1.9211,-0.0440 L -1.9192,-0.0883 L -1.9160,-0.1329 L -1.9115,-0.1783 L -1.9057,-0.2248 L -1.8983,-0.2728 L -1.8893,-0.3232 L -1.8783,-0.3770 L -1.8648,-0.4369 L -1.8471,-0.5087 L -1.8168,-0.6247 L -1.7841,-0.7500"/>
        <g id="arrows18">
          <use xlink:href="#arrow1" transform="translate(-1.9212,0.0000) rotate(-89.56) scale(2.0)"/>
        </g>
      </g>
      <g id="fieldline19">
        <path d="M -2.0799,0.7500 L -2.0966,0.7179 L -2.1148,0.6857 L -2.1363,0.6503 L -2.1689,0.5998 L -2.2102,0.5364 L -2.2352,0.4959 L -2.2561,0.4598 L -2.2745,0.4256 L -2.2910,0.3923 L -2.3059,0.3595 L -2.3194,0.3269 L -2.3314,0.2944 L -2.3422,0.2619 L -2.3516,0.2294 L -2.3598,0.1968 L -2.3667,0.1641 L -2.3723,0.1314 L -2.3767,0.0986 L -2.3798,0.0657 L -2.3817,0.0329 L -2.3823,-0.0000 L -2.3817,-0.0329 L -2.3798,-0.0658 L -2.3767,-0.0986 L -2.3723,-0.1314 L -2.3667,-0.1641 L -2.3598,-0.1968 L -2.3516,-0.2294 L -2.3422,-0.2619 L -2.3314,-0.2944 L -2.3194,-0.3269 L -2.3059,-0.3595 L -2.2910,-0.3924 L -2.2745,-0.4257 L -2.2561,-0.4598 L -2.2352,-0.4958 L -2.2102,-0.5364 L -2.1689,-0.5998 L -2.1363,-0.6503 L -2.1148,-0.6857 L -2.0966,-0.7179 L -2.0799,-0.7500"/>
        <g id="arrows19">
          <use xlink:href="#arrow1" transform="translate(-2.3816,0.0000) rotate(-89.07) scale(2.0)"/>
        </g>
      </g>
      <g id="fieldline20">
        <path d="M -1.9830,0.7500 L -2.0016,0.7730 L -2.0206,0.7945 L -2.0400,0.8146 L -2.0597,0.8332 L -2.0798,0.8504 L -2.1002,0.8662 L -2.1211,0.8808 L -2.1424,0.8942 L -2.1643,0.9064 L -2.1867,0.9175 L -2.2099,0.9275 L -2.2339,0.9365 L -2.2587,0.9444 L -2.2844,0.9512 L -2.3111,0.9570 L -2.3387,0.9616 L -2.3674,0.9651 L -2.3969,0.9674 L -2.4273,0.9685 L -2.4584,0.9684 L -2.4903,0.9669 L -2.5227,0.9641 L -2.5556,0.9600 L -2.5889,0.9546 L -2.6225,0.9478 L -2.6561,0.9397 L -2.6898,0.9303 L -2.7235,0.9195 L -2.7569,0.9075 L -2.7902,0.8942 L -2.8230,0.8797 L -2.8555,0.8639 L -2.8874,0.8470 L -2.9188,0.8290 L -2.9495,0.8098 L -2.9795,0.7896 L -3.0088,0.7683 L -3.0373,0.7461 L -3.0650,0.7229 L -3.0918,0.6988 L -3.1176,0.6738 L -3.1425,0.6480 L -3.1663,0.6214 L -3.1892,0.5940 L -3.2109,0.5659 L -3.2316,0.5371 L -3.2512,0.5078 L -3.2697,0.4778 L -3.2870,0.4472 L -3.3032,0.4161 L -3.3181,0.3846 L -3.3319,0.3526 L -3.3444,0.3202 L -3.3557,0.2875 L -3.3658,0.2544 L -3.3747,0.2211 L -3.3823,0.1875 L -3.3886,0.1537 L -3.3937,0.1197 L -3.3975,0.0856 L -3.4001,0.0514 L -3.4013,0.0171 L -3.4013,-0.0171 L -3.4001,-0.0514 L -3.3975,-0.0856 L -3.3937,-0.1197 L -3.3886,-0.1537 L -3.3823,-0.1875 L -3.3747,-0.2211 L -3.3658,-0.2544 L -3.3558,-0.2875 L -3.3444,-0.3202 L -3.3319,-0.3526 L -3.3181,-0.3846 L -3.3032,-0.4161 L -3.2870,-0.4472 L -3.2697,-0.4777 L -3.2512,-0.5077 L -3.2317,-0.5371 L -3.2110,-0.5659 L -3.1892,-0.5940 L -3.1663,-0.6213 L -3.1425,-0.6480 L -3.1176,-0.6738 L -3.0918,-0.6988 L -3.0650,-0.7229 L -3.0374,-0.7461 L -3.0089,-0.7683 L -2.9796,-0.7896 L -2.9495,-0.8098 L -2.9188,-0.8289 L -2.8874,-0.8470 L -2.8555,-0.8639 L -2.8230,-0.8796 L -2.7902,-0.8942 L -2.7570,-0.9075 L -2.7235,-0.9195 L -2.6899,-0.9303 L -2.6562,-0.9397 L -2.6225,-0.9478 L -2.5889,-0.9546 L -2.5556,-0.9600 L -2.5227,-0.9641 L -2.4903,-0.9669 L -2.4584,-0.9684 L -2.4273,-0.9685 L -2.3969,-0.9674 L -2.3673,-0.9651 L -2.3387,-0.9616 L -2.3111,-0.9570 L -2.2844,-0.9512 L -2.2587,-0.9444 L -2.2339,-0.9365 L -2.2099,-0.9275 L -2.1867,-0.9175 L -2.1642,-0.9064 L -2.1424,-0.8942 L -2.1211,-0.8808 L -2.1002,-0.8662 L -2.0797,-0.8504 L -2.0597,-0.8332 L -2.0400,-0.8146 L -2.0206,-0.7945 L -2.0016,-0.7730 L -1.9830,-0.7500"/>
        <g id="arrows20">
          <use xlink:href="#arrow1" transform="translate(-2.9064,0.8357) rotate(-149.09) scale(2.0)"/>
          <use xlink:href="#arrow1" transform="translate(-2.9063,-0.8356) rotate(-29.36) scale(2.0)"/>
        </g>
      </g>
      <g id="fieldline21">
        <path d="M -1.2655,0.7500 L -1.2809,0.8063 L -1.2974,0.8619 L -1.3150,0.9170 L -1.3338,0.9715 L -1.3536,1.0254 L -1.3747,1.0789 L -1.3969,1.1319 L -1.4202,1.1845 L -1.4448,1.2367 L -1.4706,1.2886 L -1.4976,1.3402 L -1.5259,1.3914 L -1.5555,1.4425 L -1.5864,1.4933 L -1.6186,1.5438 L -1.6522,1.5942 L -1.6872,1.6444 L -1.7235,1.6944 L -1.7613,1.7442 L -1.8005,1.7938 L -1.8411,1.8432 L -1.8831,1.8923 L -1.9266,1.9412 L -1.9715,1.9898 L -2.0178,2.0381 L -2.0655,2.0860 L -2.1146,2.1336 L -2.1650,2.1807 L -2.2168,2.2274 L -2.2700,2.2736 L -2.3244,2.3193 L -2.3801,2.3643 L -2.4370,2.4088 L -2.4952,2.4526 L -2.5545,2.4958 L -2.6149,2.5382 L -2.6764,2.5799 L -2.7390,2.6207 L -2.8027,2.6608 L -2.8673,2.7000 L -2.9328,2.7383 L -2.9993,2.7757 L -3.0667,2.8122 L -3.1349,2.8477 L -3.2039,2.8822 L -3.2737,2.9157 L -3.3442,2.9482 L -3.4155,2.9796 L -3.4874,3.0100 M -3.4874,-3.0100 L -3.4155,-2.9796 L -3.3442,-2.9482 L -3.2737,-2.9157 L -3.2039,-2.8822 L -3.1349,-2.8477 L -3.0667,-2.8122 L -2.9993,-2.7757 L -2.9328,-2.7383 L -2.8673,-2.7000 L -2.8027,-2.6608 L -2.7390,-2.6207 L -2.6764,-2.5799 L -2.6149,-2.5382 L -2.5545,-2.4958 L -2.4952,-2.4526 L -2.4370,-2.4088 L -2.3801,-2.3643 L -2.3244,-2.3193 L -2.2700,-2.2736 L -2.2168,-2.2274 L -2.1650,-2.1807 L -2.1146,-2.1336 L -2.0655,-2.0860 L -2.0178,-2.0381 L -1.9715,-1.9898 L -1.9266,-1.9412 L -1.8831,-1.8923 L -1.8411,-1.8432 L -1.8005,-1.7938 L -1.7613,-1.7442 L -1.7235,-1.6944 L -1.6872,-1.6444 L -1.6522,-1.5942 L -1.6186,-1.5438 L -1.5864,-1.4932 L -1.5555,-1.4425 L -1.5259,-1.3914 L -1.4976,-1.3401 L -1.4706,-1.2886 L -1.4448,-1.2367 L -1.4202,-1.1845 L -1.3969,-1.1319 L -1.3747,-1.0789 L -1.3536,-1.0254 L -1.3337,-0.9715 L -1.3150,-0.9170 L -1.2974,-0.8619 L -1.2809,-0.8063 L -1.2655,-0.7500"/>
        <g id="arrows21">
          <use xlink:href="#arrow1" transform="translate(-1.5909,1.4999) rotate(122.27) scale(2.0)"/>
          <use xlink:href="#arrow1" transform="translate(-2.7593,2.6335) rotate(147.81) scale(2.0)"/>
          <use xlink:href="#arrow1" transform="translate(-2.7594,-2.6334) rotate(32.53) scale(2.0)"/>
          <use xlink:href="#arrow1" transform="translate(-1.5909,-1.4999) rotate(58.19) scale(2.0)"/>
        </g>
      </g>
      <g id="fieldline22">
        <path d="M -0.4390,0.7500 L -0.4473,0.8667 L -0.4570,0.9836 L -0.4678,1.1008 L -0.4800,1.2185 L -0.4934,1.3370 L -0.5082,1.4563 L -0.5243,1.5768 L -0.5418,1.6984 L -0.5608,1.8215 L -0.5812,1.9461 L -0.6031,2.0723 L -0.6266,2.2004 L -0.6517,2.3303 L -0.6784,2.4622 L -0.7067,2.5961 L -0.7368,2.7320 L -0.7685,2.8700 L -0.8020,3.0100 M -0.8020,-3.0100 L -0.7685,-2.8700 L -0.7368,-2.7320 L -0.7068,-2.5961 L -0.6784,-2.4622 L -0.6517,-2.3303 L -0.6266,-2.2004 L -0.6031,-2.0723 L -0.5812,-1.9461 L -0.5608,-1.8215 L -0.5418,-1.6984 L -0.5243,-1.5767 L -0.5082,-1.4563 L -0.4934,-1.3370 L -0.4800,-1.2185 L -0.4678,-1.1008 L -0.4570,-0.9836 L -0.4473,-0.8667 L -0.4390,-0.7500"/>
        <g id="arrows22">
          <use xlink:href="#arrow1" transform="translate(-0.5716,1.8878) rotate(99.31) scale(2.0)"/>
          <use xlink:href="#arrow1" transform="translate(-0.5716,-1.8878) rotate(80.69) scale(2.0)"/>
        </g>
      </g>
    </g>
    <g id="symbols">
      <rect style="fill:#e22; stroke:#000; stroke-width:0.01" transform="translate(0,0.75) rotate(0)" height="0.11" width="4.51" y="-0.055" x="-2.255"/>
      <path style="fill:none; stroke:#000; stroke-width:0.02; stroke-linecap:square" d="M 0,-0.02 v 0.04 M -0.02,0 h 0.04" transform="translate(-2.14773,0.75)"/>
      <path style="fill:none; stroke:#000; stroke-width:0.02; stroke-linecap:square" d="M 0,-0.02 v 0.04 M -0.02,0 h 0.04" transform="translate(-1.94318,0.75)"/>
      <path style="fill:none; stroke:#000; stroke-width:0.02; stroke-linecap:square" d="M 0,-0.02 v 0.04 M -0.02,0 h 0.04" transform="translate(-1.73864,0.75)"/>
      <path style="fill:none; stroke:#000; stroke-width:0.02; stroke-linecap:square" d="M 0,-0.02 v 0.04 M -0.02,0 h 0.04" transform="translate(-1.53409,0.75)"/>
      <path style="fill:none; stroke:#000; stroke-width:0.02; stroke-linecap:square" d="M 0,-0.02 v 0.04 M -0.02,0 h 0.04" transform="translate(-1.32955,0.75)"/>
      <path style="fill:none; stroke:#000; stroke-width:0.02; stroke-linecap:square" d="M 0,-0.02 v 0.04 M -0.02,0 h 0.04" transform="translate(-1.125,0.75)"/>
      <path style="fill:none; stroke:#000; stroke-width:0.02; stroke-linecap:square" d="M 0,-0.02 v 0.04 M -0.02,0 h 0.04" transform="translate(-0.920455,0.75)"/>
      <path style="fill:none; stroke:#000; stroke-width:0.02; stroke-linecap:square" d="M 0,-0.02 v 0.04 M -0.02,0 h 0.04" transform="translate(-0.715909,0.75)"/>
      <path style="fill:none; stroke:#000; stroke-width:0.02; stroke-linecap:square" d="M 0,-0.02 v 0.04 M -0.02,0 h 0.04" transform="translate(-0.511364,0.75)"/>
      <path style="fill:none; stroke:#000; stroke-width:0.02; stroke-linecap:square" d="M 0,-0.02 v 0.04 M -0.02,0 h 0.04" transform="translate(-0.306818,0.75)"/>
      <path style="fill:none; stroke:#000; stroke-width:0.02; stroke-linecap:square" d="M 0,-0.02 v 0.04 M -0.02,0 h 0.04" transform="translate(-0.102273,0.75)"/>
      <path style="fill:none; stroke:#000; stroke-width:0.02; stroke-linecap:square" d="M 0,-0.02 v 0.04 M -0.02,0 h 0.04" transform="translate(0.102273,0.75)"/>
      <path style="fill:none; stroke:#000; stroke-width:0.02; stroke-linecap:square" d="M 0,-0.02 v 0.04 M -0.02,0 h 0.04" transform="translate(0.306818,0.75)"/>
      <path style="fill:none; stroke:#000; stroke-width:0.02; stroke-linecap:square" d="M 0,-0.02 v 0.04 M -0.02,0 h 0.04" transform="translate(0.511364,0.75)"/>
      <path style="fill:none; stroke:#000; stroke-width:0.02; stroke-linecap:square" d="M 0,-0.02 v 0.04 M -0.02,0 h 0.04" transform="translate(0.715909,0.75)"/>
      <path style="fill:none; stroke:#000; stroke-width:0.02; stroke-linecap:square" d="M 0,-0.02 v 0.04 M -0.02,0 h 0.04" transform="translate(0.920455,0.75)"/>
      <path style="fill:none; stroke:#000; stroke-width:0.02; stroke-linecap:square" d="M 0,-0.02 v 0.04 M -0.02,0 h 0.04" transform="translate(1.125,0.75)"/>
      <path style="fill:none; stroke:#000; stroke-width:0.02; stroke-linecap:square" d="M 0,-0.02 v 0.04 M -0.02,0 h 0.04" transform="translate(1.32955,0.75)"/>
      <path style="fill:none; stroke:#000; stroke-width:0.02; stroke-linecap:square" d="M 0,-0.02 v 0.04 M -0.02,0 h 0.04" transform="translate(1.53409,0.75)"/>
      <path style="fill:none; stroke:#000; stroke-width:0.02; stroke-linecap:square" d="M 0,-0.02 v 0.04 M -0.02,0 h 0.04" transform="translate(1.73864,0.75)"/>
      <path style="fill:none; stroke:#000; stroke-width:0.02; stroke-linecap:square" d="M 0,-0.02 v 0.04 M -0.02,0 h 0.04" transform="translate(1.94318,0.75)"/>
      <path style="fill:none; stroke:#000; stroke-width:0.02; stroke-linecap:square" d="M 0,-0.02 v 0.04 M -0.02,0 h 0.04" transform="translate(2.14773,0.75)"/>
      <rect style="fill:#45e; stroke:#000; stroke-width:0.01" transform="translate(0,-0.75) rotate(0)" height="0.11" width="4.51" y="-0.055" x="-2.255"/>
      <path style="fill:none; stroke:#000; stroke-width:0.02; stroke-linecap:square" d="M -0.02,0 h 0.04" transform="translate(-2.14773,-0.75)"/>
      <path style="fill:none; stroke:#000; stroke-width:0.02; stroke-linecap:square" d="M -0.02,0 h 0.04" transform="translate(-1.94318,-0.75)"/>
      <path style="fill:none; stroke:#000; stroke-width:0.02; stroke-linecap:square" d="M -0.02,0 h 0.04" transform="translate(-1.73864,-0.75)"/>
      <path style="fill:none; stroke:#000; stroke-width:0.02; stroke-linecap:square" d="M -0.02,0 h 0.04" transform="translate(-1.53409,-0.75)"/>
      <path style="fill:none; stroke:#000; stroke-width:0.02; stroke-linecap:square" d="M -0.02,0 h 0.04" transform="translate(-1.32955,-0.75)"/>
      <path style="fill:none; stroke:#000; stroke-width:0.02; stroke-linecap:square" d="M -0.02,0 h 0.04" transform="translate(-1.125,-0.75)"/>
      <path style="fill:none; stroke:#000; stroke-width:0.02; stroke-linecap:square" d="M -0.02,0 h 0.04" transform="translate(-0.920455,-0.75)"/>
      <path style="fill:none; stroke:#000; stroke-width:0.02; stroke-linecap:square" d="M -0.02,0 h 0.04" transform="translate(-0.715909,-0.75)"/>
      <path style="fill:none; stroke:#000; stroke-width:0.02; stroke-linecap:square" d="M -0.02,0 h 0.04" transform="translate(-0.511364,-0.75)"/>
      <path style="fill:none; stroke:#000; stroke-width:0.02; stroke-linecap:square" d="M -0.02,0 h 0.04" transform="translate(-0.306818,-0.75)"/>
      <path style="fill:none; stroke:#000; stroke-width:0.02; stroke-linecap:square" d="M -0.02,0 h 0.04" transform="translate(-0.102273,-0.75)"/>
      <path style="fill:none; stroke:#000; stroke-width:0.02; stroke-linecap:square" d="M -0.02,0 h 0.04" transform="translate(0.102273,-0.75)"/>
      <path style="fill:none; stroke:#000; stroke-width:0.02; stroke-linecap:square" d="M -0.02,0 h 0.04" transform="translate(0.306818,-0.75)"/>
      <path style="fill:none; stroke:#000; stroke-width:0.02; stroke-linecap:square" d="M -0.02,0 h 0.04" transform="translate(0.511364,-0.75)"/>
      <path style="fill:none; stroke:#000; stroke-width:0.02; stroke-linecap:square" d="M -0.02,0 h 0.04" transform="translate(0.715909,-0.75)"/>
      <path style="fill:none; stroke:#000; stroke-width:0.02; stroke-linecap:square" d="M -0.02,0 h 0.04" transform="translate(0.920455,-0.75)"/>
      <path style="fill:none; stroke:#000; stroke-width:0.02; stroke-linecap:square" d="M -0.02,0 h 0.04" transform="translate(1.125,-0.75)"/>
      <path style="fill:none; stroke:#000; stroke-width:0.02; stroke-linecap:square" d="M -0.02,0 h 0.04" transform="translate(1.32955,-0.75)"/>
      <path style="fill:none; stroke:#000; stroke-width:0.02; stroke-linecap:square" d="M -0.02,0 h 0.04" transform="translate(1.53409,-0.75)"/>
      <path style="fill:none; stroke:#000; stroke-width:0.02; stroke-linecap:square" d="M -0.02,0 h 0.04" transform="translate(1.73864,-0.75)"/>
      <path style="fill:none; stroke:#000; stroke-width:0.02; stroke-linecap:square" d="M -0.02,0 h 0.04" transform="translate(1.94318,-0.75)"/>
      <path style="fill:none; stroke:#000; stroke-width:0.02; stroke-linecap:square" d="M -0.02,0 h 0.04" transform="translate(2.14773,-0.75)"/>
    </g>
  </g>
</svg>
