<?xml version="1.0" encoding="UTF-8" standalone="no"?>
<!-- Created with Inkscape (http://www.inkscape.org/) -->
<svg
   xmlns:dc="http://purl.org/dc/elements/1.1/"
   xmlns:cc="http://web.resource.org/cc/"
   xmlns:rdf="http://www.w3.org/1999/02/22-rdf-syntax-ns#"
   xmlns:svg="http://www.w3.org/2000/svg"
   xmlns="http://www.w3.org/2000/svg"
   xmlns:sodipodi="http://sodipodi.sourceforge.net/DTD/sodipodi-0.dtd"
   xmlns:inkscape="http://www.inkscape.org/namespaces/inkscape"
   version="1.0"
   width="250"
   height="300"
   id="svg2"
   sodipodi:version="0.32"
   inkscape:version="0.44"
   sodipodi:docname="KCL.svg"
   sodipodi:docbase="C:\Documents and Settings\JJB\My Documents\My Pictures\Electronics\Illustrations\circuit analysis">
  <metadata
     id="metadata6376">
    <rdf:RDF>
      <cc:Work
         rdf:about="">
        <dc:format>image/svg+xml</dc:format>
        <dc:type
           rdf:resource="http://purl.org/dc/dcmitype/StillImage" />
      </cc:Work>
    </rdf:RDF>
  </metadata>
  <sodipodi:namedview
     inkscape:window-height="874"
     inkscape:window-width="1327"
     inkscape:pageshadow="2"
     inkscape:pageopacity="0.0"
     guidetolerance="10.0"
     gridtolerance="10000"
     objecttolerance="10.0"
     borderopacity="1.0"
     bordercolor="#666666"
     pagecolor="#ffffff"
     id="base"
     showgrid="true"
     gridspacingx="5px"
     gridspacingy="5px"
     inkscape:grid-points="true"
     width="250px"
     inkscape:zoom="1"
     inkscape:cx="92.833364"
     inkscape:cy="175.10318"
     inkscape:window-x="109"
     inkscape:window-y="-4"
     inkscape:current-layer="svg2"
     showguides="true"
     inkscape:guide-bbox="true"
     height="300px" />
  <defs
     id="defs3">
    <marker
       refX="0"
       refY="0"
       orient="auto"
       style="overflow:visible"
       id="Arrow2Mend">
      <path
         d="M 8.7185878,4.0337352 L -2.2072895,0.016013256 L 8.7185884,-4.0017078 C 6.97309,-1.6296469 6.9831476,1.6157441 8.7185878,4.0337352 z "
         transform="matrix(-0.6,0,0,-0.6,3,0)"
         style="font-size:12px;fill-rule:evenodd;stroke-width:0.625;stroke-linejoin:round"
         id="path3052" />
    </marker>
    <marker
       refX="0"
       refY="0"
       orient="auto"
       style="overflow:visible"
       id="Arrow1Mstart">
      <path
         d="M 0,0 L 5,-5 L -12.5,0 L 5,5 L 0,0 z "
         transform="scale(0.4,0.4)"
         style="fill-rule:evenodd;stroke:black;stroke-width:1pt;marker-start:none"
         id="path3060" />
    </marker>
  </defs>
  <path
     transform="matrix(2,0,0,2,-75.99992,-15)"
     style="fill:black;fill-opacity:1;fill-rule:nonzero;stroke:none;stroke-width:2.5;stroke-linecap:butt;stroke-linejoin:bevel;stroke-miterlimit:4;stroke-dashoffset:0;stroke-opacity:1"
     d="M 105,70 C 105,72.76 102.76,75 100,75 C 97.24,75 95,72.76 95,70 C 95,67.24 97.24,65 100,65 C 102.76,65 105,67.24 105,70 z "
     id="path16355" />
  <path
     style="fill:none;fill-rule:evenodd;stroke:black;stroke-width:2.00000072px;stroke-linecap:butt;stroke-linejoin:miter;stroke-opacity:1"
     d="M 124.00008,125 L 15,15"
     id="path17254" />
  <path
     style="fill:none;fill-rule:evenodd;stroke:black;stroke-width:2.00000072px;stroke-linecap:butt;stroke-linejoin:miter;stroke-opacity:1"
     d="M 233.00016,235 L 124.00008,125"
     id="path17278" />
  <path
     style="fill:none;fill-rule:evenodd;stroke:black;stroke-width:2.00000072px;stroke-linecap:butt;stroke-linejoin:miter;stroke-opacity:1"
     d="M 15,235 L 124.00008,125"
     id="path17280" />
  <path
     style="fill:none;fill-rule:evenodd;stroke:black;stroke-width:2.00000072px;stroke-linecap:butt;stroke-linejoin:miter;stroke-opacity:1"
     d="M 124.00008,125 L 233.00016,15"
     id="path17282" />
  <path
     style="fill:black;fill-rule:evenodd;stroke:black;stroke-width:2px;stroke-linecap:butt;stroke-linejoin:miter;stroke-opacity:1"
     d="M 55,65 L 65,55 L 75,75 L 55,65"
     id="path17284" />
  <path
     style="fill:black;fill-rule:evenodd;stroke:black;stroke-width:2px;stroke-linecap:butt;stroke-linejoin:miter;stroke-opacity:1"
     d="M 173.00008,66 L 183.00008,76 L 193.00008,56 L 173.00008,66"
     id="path17286" />
  <path
     style="fill:black;fill-rule:evenodd;stroke:black;stroke-width:2px;stroke-linecap:butt;stroke-linejoin:miter;stroke-opacity:1"
     d="M 174.00008,185 L 184.00008,175 L 194.00008,195 L 174.00008,185"
     id="path17288" />
  <path
     style="fill:black;fill-rule:evenodd;stroke:black;stroke-width:2px;stroke-linecap:butt;stroke-linejoin:miter;stroke-opacity:1"
     d="M 55,185 L 65,195 L 75,175 L 55,185"
     id="path17290" />
  <path
     style="font-size:40px;font-style:normal;font-variant:normal;font-weight:normal;font-stretch:normal;text-align:start;line-height:125%;writing-mode:lr-tb;text-anchor:start;fill:black;fill-opacity:1;stroke:none;stroke-width:1px;stroke-linecap:butt;stroke-linejoin:miter;stroke-opacity:1;font-family:Verdana"
     d="M 41.296955,156.13281 L 40.418049,159.94141 L 36.277424,159.94141 L 37.15633,156.13281 L 41.296955,156.13281 z M 39.34383,163.59375 L 34.304768,185.41016 L 30.632893,185.41016 L 35.671955,163.59375 L 39.34383,163.59375 z "
     id="text17308" />
  <path
     style="font-size:20px;font-style:normal;font-variant:normal;font-weight:normal;font-stretch:normal;text-align:start;line-height:125%;writing-mode:lr-tb;text-anchor:start;fill:black;fill-opacity:1;stroke:none;stroke-width:1px;stroke-linecap:butt;stroke-linejoin:miter;stroke-opacity:1;font-family:Verdana"
     d="M 51.675861,190 L 43.804768,190 L 43.804768,188.51563 L 46.832111,188.51563 L 46.832111,178.76953 L 43.804768,178.76953 L 43.804768,177.44141 C 44.214921,177.44142 44.654373,177.40724 45.123127,177.33887 C 45.591872,177.27052 45.94669,177.17124 46.18758,177.04102 C 46.487054,176.87827 46.723056,176.67156 46.895588,176.4209 C 47.068108,176.17026 47.167392,175.83335 47.193439,175.41016 L 48.707111,175.41016 L 48.707111,188.51563 L 51.675861,188.51563 L 51.675861,190 z "
     id="text17316" />
  <path
     style="font-size:40px;font-style:normal;font-variant:normal;font-weight:normal;font-stretch:normal;text-align:start;line-height:125%;writing-mode:lr-tb;text-anchor:start;fill:black;fill-opacity:1;stroke:none;stroke-width:1px;stroke-linecap:butt;stroke-linejoin:miter;stroke-opacity:1;font-family:Verdana"
     d="M 206.29695,156.13281 L 205.41805,159.94141 L 201.27742,159.94141 L 202.15633,156.13281 L 206.29695,156.13281 z M 204.34383,163.59375 L 199.30476,185.41016 L 195.63289,185.41016 L 200.67195,163.59375 L 204.34383,163.59375 z "
     id="text17352" />
  <path
     style="font-size:20px;font-style:normal;font-variant:normal;font-weight:normal;font-stretch:normal;text-align:start;line-height:125%;writing-mode:lr-tb;text-anchor:start;fill:black;fill-opacity:1;stroke:none;stroke-width:1px;stroke-linecap:butt;stroke-linejoin:miter;stroke-opacity:1;font-family:Verdana"
     d="M 218.83797,185.9082 L 216.67976,185.9082 L 216.67976,190 L 214.80476,190 L 214.80476,185.9082 L 207.84187,185.9082 L 207.84187,183.66211 L 214.88289,175.45898 L 216.67976,175.45898 L 216.67976,184.3457 L 218.83797,184.3457 L 218.83797,185.9082 z M 214.80476,184.3457 L 214.80476,177.7832 L 209.17,184.3457 L 214.80476,184.3457 z "
     id="text17356" />
  <path
     style="font-size:40px;font-style:normal;font-variant:normal;font-weight:normal;font-stretch:normal;text-align:start;line-height:125%;writing-mode:lr-tb;text-anchor:start;fill:black;fill-opacity:1;stroke:none;stroke-width:1px;stroke-linecap:butt;stroke-linejoin:miter;stroke-opacity:1;font-family:Verdana"
     d="M 207.99617,59.804688 L 207.11726,63.613281 L 202.97664,63.613281 L 203.85555,59.804688 L 207.99617,59.804688 z M 206.04305,67.265625 L 201.00398,89.082031 L 197.33211,89.082031 L 202.37117,67.265625 L 206.04305,67.265625 z "
     id="text17338" />
  <path
     style="font-size:20px;font-style:normal;font-variant:normal;font-weight:normal;font-stretch:normal;text-align:start;line-height:125%;writing-mode:lr-tb;text-anchor:start;fill:black;fill-opacity:1;stroke:none;stroke-width:1px;stroke-linecap:butt;stroke-linejoin:miter;stroke-opacity:1;font-family:Verdana"
     d="M 218.92586,86.669922 C 219.23835,86.949877 219.49551,87.301439 219.69734,87.724609 C 219.89915,88.147792 220.00007,88.694666 220.00008,89.365234 C 220.00007,90.029301 219.87962,90.638024 219.63875,91.191406 C 219.39785,91.744794 219.05931,92.226564 218.62312,92.636719 C 218.13483,93.092448 217.56029,93.429362 216.89949,93.647461 C 216.23868,93.86556 215.51439,93.974609 214.72664,93.974609 C 213.91934,93.974609 213.12507,93.878581 212.34383,93.686523 C 211.56257,93.494466 210.9213,93.284506 210.42,93.056641 L 210.42,91.015625 L 210.56648,91.015625 C 211.11987,91.380211 211.77091,91.682945 212.51961,91.923828 C 213.2683,92.164715 213.99096,92.285158 214.68758,92.285156 C 215.09773,92.285158 215.53392,92.216798 215.99617,92.080078 C 216.4584,91.943361 216.83275,91.741538 217.11922,91.474609 C 217.41869,91.188154 217.64167,90.872399 217.78816,90.527344 C 217.93464,90.182295 218.00788,89.746098 218.00789,89.21875 C 218.00788,88.697922 217.92487,88.266607 217.75887,87.924805 C 217.59284,87.583014 217.36335,87.314459 217.07039,87.119141 C 216.77741,86.917324 216.42259,86.778978 216.00594,86.704102 C 215.58926,86.629239 215.14004,86.591804 214.65828,86.591797 L 213.77937,86.591797 L 213.77937,84.970703 L 214.46297,84.970703 C 215.45254,84.970712 216.24193,84.764006 216.83113,84.350586 C 217.42032,83.937184 217.71491,83.333344 217.71492,82.539063 C 217.71491,82.187511 217.64004,81.879895 217.49031,81.616211 C 217.34056,81.352551 217.13223,81.13608 216.86531,80.966797 C 216.58535,80.797539 216.28588,80.680352 215.96687,80.615234 C 215.64786,80.550143 215.28653,80.517591 214.88289,80.517578 C 214.26439,80.517591 213.60684,80.628268 212.91023,80.849609 C 212.21361,81.070976 211.55606,81.383476 210.93758,81.787109 L 210.83992,81.787109 L 210.83992,79.746094 C 211.30216,79.518243 211.91902,79.308283 212.69051,79.116211 C 213.46199,78.924168 214.20906,78.82814 214.93172,78.828125 C 215.64135,78.82814 216.26634,78.893244 216.80672,79.023438 C 217.34707,79.15366 217.83535,79.361993 218.27156,79.648438 C 218.7403,79.960951 219.09512,80.338555 219.33601,80.78125 C 219.57689,81.223971 219.69733,81.741548 219.69734,82.333984 C 219.69733,83.141287 219.4125,83.846038 218.84285,84.448242 C 218.27318,85.050464 217.60098,85.429696 216.82625,85.585938 L 216.82625,85.722656 C 217.13874,85.774747 217.49681,85.883797 217.90047,86.049805 C 218.3041,86.215828 218.6459,86.422533 218.92586,86.669922 L 218.92586,86.669922 z "
     id="text17342" />
  <path
     style="font-size:40px;font-style:normal;font-variant:normal;font-weight:normal;font-stretch:normal;text-align:start;line-height:125%;writing-mode:lr-tb;text-anchor:start;fill:black;fill-opacity:1;stroke:none;stroke-width:1px;stroke-linecap:butt;stroke-linejoin:miter;stroke-opacity:1;font-family:Verdana"
     d="M 42.291096,59.804688 L 41.412189,63.613281 L 37.271564,63.613281 L 38.150471,59.804688 L 42.291096,59.804688 z M 40.337971,67.265625 L 35.298908,89.082031 L 31.627033,89.082031 L 36.666096,67.265625 L 40.337971,67.265625 z "
     id="text17320" />
  <path
     style="font-size:20px;font-style:normal;font-variant:normal;font-weight:normal;font-stretch:normal;text-align:start;line-height:125%;writing-mode:lr-tb;text-anchor:start;fill:black;fill-opacity:1;stroke:none;stroke-width:1px;stroke-linecap:butt;stroke-linejoin:miter;stroke-opacity:1;font-family:Verdana"
     d="M 54.00008,93.671867 L 44.15633,93.671867 L 44.15633,91.630852 C 44.839922,91.044917 45.525142,90.45898 46.211994,89.873039 C 46.898839,89.287106 47.538487,88.704424 48.130939,88.124992 C 49.380933,86.914062 50.237052,85.952149 50.699299,85.23925 C 51.16153,84.526369 51.392649,83.756513 51.392658,82.92968 C 51.392649,82.174483 51.143626,81.583663 50.645588,81.157219 C 50.147533,80.7308 49.452547,80.517584 48.560627,80.51757 C 47.968174,80.517584 47.326898,80.62175 46.636799,80.83007 C 45.946691,81.038416 45.272864,81.357427 44.615314,81.787102 L 44.517658,81.787102 L 44.517658,79.73632 C 44.979895,79.50847 45.596757,79.300137 46.368244,79.11132 C 47.139724,78.922533 47.886794,78.828132 48.609455,78.828117 C 50.100333,78.828132 51.268952,79.187832 52.115314,79.907219 C 52.961658,80.626633 53.384835,81.601567 53.384846,82.832024 C 53.384835,83.385419 53.314848,83.901369 53.174885,84.379875 C 53.0349,84.8584 52.828195,85.312501 52.554768,85.74218 C 52.300852,86.145833 52.003,86.542968 51.661213,86.933586 C 51.319407,87.324217 50.904369,87.75716 50.416096,88.232414 C 49.719474,88.916013 49.000074,89.578447 48.257893,90.219719 C 47.5157,90.860998 46.822341,91.455073 46.177814,92.001945 L 54.00008,92.001945 L 54.00008,93.671867 z "
     id="text17324" />
  <path
     style="font-size:40px;font-style:normal;font-variant:normal;font-weight:normal;font-stretch:normal;text-align:start;line-height:125%;writing-mode:lr-tb;text-anchor:start;fill:black;fill-opacity:1;stroke:none;stroke-width:1px;stroke-linecap:butt;stroke-linejoin:miter;stroke-opacity:1;font-family:Verdana"
     d="M 39.630859,250.22266 L 38.751953,254.03125 L 34.611328,254.03125 L 35.490234,250.22266 L 39.630859,250.22266 z M 37.677734,257.68359 L 32.638672,279.5 L 28.966797,279.5 L 34.005859,257.68359 L 37.677734,257.68359 z M 81.544922,268.32813 L 70.900391,268.32813 L 70.900391,278.97266 L 67.658203,278.97266 L 67.658203,268.32813 L 57.013672,268.32813 L 57.013672,265.20313 L 67.658203,265.20313 L 67.658203,254.55859 L 70.900391,254.55859 L 70.900391,265.20313 L 81.544922,265.20313 L 81.544922,268.32813 z M 97.443359,250.22266 L 96.564453,254.03125 L 92.423828,254.03125 L 93.302734,250.22266 L 97.443359,250.22266 z M 95.490234,257.68359 L 90.451172,279.5 L 86.779297,279.5 L 91.818359,257.68359 L 95.490234,257.68359 z M 138.67383,264.22656 L 115.50977,264.22656 L 115.50977,261.10156 L 138.67383,261.10156 L 138.67383,264.22656 z M 138.67383,272.42969 L 115.50977,272.42969 L 115.50977,269.30469 L 138.67383,269.30469 L 138.67383,272.42969 z M 155.25586,250.22266 L 154.37695,254.03125 L 150.23633,254.03125 L 151.11523,250.22266 L 155.25586,250.22266 z M 153.30273,257.68359 L 148.26367,279.5 L 144.5918,279.5 L 149.63086,257.68359 L 153.30273,257.68359 z M 197.16992,268.32813 L 186.52539,268.32813 L 186.52539,278.97266 L 183.2832,278.97266 L 183.2832,268.32813 L 172.63867,268.32813 L 172.63867,265.20313 L 183.2832,265.20313 L 183.2832,254.55859 L 186.52539,254.55859 L 186.52539,265.20313 L 197.16992,265.20313 L 197.16992,268.32813 z M 213.06836,250.22266 L 212.18945,254.03125 L 208.04883,254.03125 L 208.92773,250.22266 L 213.06836,250.22266 z M 211.11523,257.68359 L 206.07617,279.5 L 202.4043,279.5 L 207.44336,257.68359 L 211.11523,257.68359 z "
     id="text17376" />
  <path
     style="font-size:20px;font-style:normal;font-variant:normal;font-weight:normal;font-stretch:normal;text-align:start;line-height:125%;writing-mode:lr-tb;text-anchor:start;fill:black;fill-opacity:1;stroke:none;stroke-width:1px;stroke-linecap:butt;stroke-linejoin:miter;stroke-opacity:1;font-family:Verdana"
     d="M 46.837891,284.5 L 38.966797,284.5 L 38.966797,283.01563 L 41.994141,283.01563 L 41.994141,273.26953 L 38.966797,273.26953 L 38.966797,271.94141 C 39.37695,271.94142 39.816403,271.90724 40.285156,271.83887 C 40.753902,271.77052 41.108719,271.67124 41.349609,271.54102 C 41.649083,271.37827 41.885086,271.17156 42.057617,270.9209 C 42.230137,270.67026 42.329421,270.33335 42.355469,269.91016 L 43.869141,269.91016 L 43.869141,283.01563 L 46.837891,283.01563 L 46.837891,284.5 z "
     id="text17380" />
  <path
     style="font-size:20px;font-style:normal;font-variant:normal;font-weight:normal;font-stretch:normal;text-align:start;line-height:125%;writing-mode:lr-tb;text-anchor:start;fill:black;fill-opacity:1;stroke:none;stroke-width:1px;stroke-linecap:butt;stroke-linejoin:miter;stroke-opacity:1;font-family:Verdana"
     d="M 106.0957,284.5 L 96.251945,284.5 L 96.251945,282.45898 C 96.935537,281.87305 97.620758,281.28711 98.30761,280.70117 C 98.994454,280.11524 99.634102,279.53256 100.22655,278.95313 C 101.47655,277.74219 102.33267,276.78028 102.79491,276.06738 C 103.25715,275.3545 103.48826,274.58465 103.48827,273.75781 C 103.48826,273.00262 103.23924,272.4118 102.7412,271.98535 C 102.24315,271.55893 101.54816,271.34572 100.65624,271.3457 C 100.06379,271.34572 99.422514,271.44988 98.732414,271.6582 C 98.042307,271.86655 97.368479,272.18556 96.71093,272.61523 L 96.613274,272.61523 L 96.613274,270.56445 C 97.075511,270.3366 97.692372,270.12827 98.46386,269.93945 C 99.235339,269.75067 99.982409,269.65626 100.70507,269.65625 C 102.19595,269.65626 103.36457,270.01597 104.21093,270.73535 C 105.05727,271.45477 105.48045,272.4297 105.48046,273.66016 C 105.48045,274.21355 105.41046,274.7295 105.2705,275.20801 C 105.13052,275.68653 104.92381,276.14063 104.65038,276.57031 C 104.39647,276.97397 104.09862,277.3711 103.75683,277.76172 C 103.41502,278.15235 102.99998,278.58529 102.51171,279.06055 C 101.81509,279.74415 101.09569,280.40658 100.35351,281.04785 C 99.611316,281.68913 98.917957,282.28321 98.27343,282.83008 L 106.0957,282.83008 L 106.0957,284.5 z "
     id="text17384" />
  <path
     style="font-size:20px;font-style:normal;font-variant:normal;font-weight:normal;font-stretch:normal;text-align:start;line-height:125%;writing-mode:lr-tb;text-anchor:start;fill:black;fill-opacity:1;stroke:none;stroke-width:1px;stroke-linecap:butt;stroke-linejoin:miter;stroke-opacity:1;font-family:Verdana"
     d="M 222.24805,280.4082 L 220.08984,280.4082 L 220.08984,284.5 L 218.21484,284.5 L 218.21484,280.4082 L 211.25195,280.4082 L 211.25195,278.16211 L 218.29297,269.95898 L 220.08984,269.95898 L 220.08984,278.8457 L 222.24805,278.8457 L 222.24805,280.4082 z M 218.21484,278.8457 L 218.21484,272.2832 L 212.58008,278.8457 L 218.21484,278.8457 z "
     id="text17401" />
  <path
     style="font-size:20px;font-style:normal;font-variant:normal;font-weight:normal;font-stretch:normal;text-align:start;line-height:125%;writing-mode:lr-tb;text-anchor:start;fill:black;fill-opacity:1;stroke:none;stroke-width:1px;stroke-linecap:butt;stroke-linejoin:miter;stroke-opacity:1;font-family:Verdana"
     d="M 161.38867,277.49805 C 161.70116,277.778 161.95832,278.12956 162.16016,278.55273 C 162.36197,278.97592 162.46288,279.52279 162.46289,280.19336 C 162.46288,280.85743 162.34244,281.46615 162.10156,282.01953 C 161.86067,282.57292 161.52213,283.05469 161.08594,283.46484 C 160.59765,283.92057 160.0231,284.25749 159.3623,284.47559 C 158.70149,284.69368 157.97721,284.80273 157.18945,284.80273 C 156.38216,284.80273 155.58789,284.70671 154.80664,284.51465 C 154.02539,284.32259 153.38411,284.11263 152.88281,283.88477 L 152.88281,281.84375 L 153.0293,281.84375 C 153.58268,282.20834 154.23372,282.51107 154.98242,282.75195 C 155.73112,282.99284 156.45377,283.11328 157.15039,283.11328 C 157.56054,283.11328 157.99674,283.04492 158.45898,282.9082 C 158.92122,282.77149 159.29556,282.56966 159.58203,282.30273 C 159.8815,282.01628 160.10448,281.70052 160.25098,281.35547 C 160.39745,281.01042 160.47069,280.57422 160.4707,280.04688 C 160.47069,279.52605 160.38769,279.09473 160.22168,278.75293 C 160.05566,278.41114 159.82616,278.14258 159.5332,277.94727 C 159.24023,277.74545 158.88541,277.6071 158.46875,277.53223 C 158.05208,277.45736 157.60286,277.41993 157.12109,277.41992 L 156.24219,277.41992 L 156.24219,275.79883 L 156.92578,275.79883 C 157.91536,275.79884 158.70475,275.59213 159.29395,275.17871 C 159.88313,274.76531 160.17773,274.16147 160.17773,273.36719 C 160.17773,273.01564 160.10286,272.70802 159.95313,272.44434 C 159.80338,272.18068 159.59504,271.96421 159.32813,271.79492 C 159.04817,271.62566 158.74869,271.50848 158.42969,271.44336 C 158.11067,271.37827 157.74934,271.34572 157.3457,271.3457 C 156.72721,271.34572 156.06966,271.45639 155.37305,271.67773 C 154.67643,271.8991 154.01888,272.2116 153.40039,272.61523 L 153.30273,272.61523 L 153.30273,270.57422 C 153.76497,270.34637 154.38183,270.13641 155.15332,269.94434 C 155.9248,269.75229 156.67187,269.65626 157.39453,269.65625 C 158.10416,269.65626 158.72916,269.72137 159.26953,269.85156 C 159.80989,269.98179 160.29817,270.19012 160.73438,270.47656 C 161.20312,270.78908 161.55793,271.16668 161.79883,271.60938 C 162.0397,272.0521 162.16015,272.56967 162.16016,273.16211 C 162.16015,273.96941 161.87531,274.67416 161.30566,275.27637 C 160.73599,275.87859 160.06379,276.25782 159.28906,276.41406 L 159.28906,276.55078 C 159.60155,276.60287 159.95963,276.71192 160.36328,276.87793 C 160.76692,277.04395 161.10871,277.25066 161.38867,277.49805 L 161.38867,277.49805 z "
     id="text17405" />
</svg>
