<?xml version="1.0" encoding="UTF-8" standalone="no"?>
<!-- Created with Inkscape (http://www.inkscape.org/) -->

<svg
   id="svg1384"
   height="204.24500"
   width="169.92300"
   y="0.0000000"
   x="0.0000000"
   version="1.0"
   sodipodi:docname="24-odraz.svg"
   inkscape:version="1.1.1 (3bf5ae0d25, 2021-09-20)"
   xmlns:inkscape="http://www.inkscape.org/namespaces/inkscape"
   xmlns:sodipodi="http://sodipodi.sourceforge.net/DTD/sodipodi-0.dtd"
   xmlns:xlink="http://www.w3.org/1999/xlink"
   xmlns="http://www.w3.org/2000/svg"
   xmlns:svg="http://www.w3.org/2000/svg">
  <sodipodi:namedview
     id="namedview58"
     pagecolor="#505050"
     bordercolor="#eeeeee"
     borderopacity="1"
     inkscape:pageshadow="0"
     inkscape:pageopacity="0"
     inkscape:pagecheckerboard="0"
     showgrid="false"
     inkscape:zoom="3.8635762"
     inkscape:cx="70.012856"
     inkscape:cy="102.62513"
     inkscape:window-width="1920"
     inkscape:window-height="1038"
     inkscape:window-x="0"
     inkscape:window-y="42"
     inkscape:window-maximized="1"
     inkscape:current-layer="svg1384" />
  <defs
     id="defs1386">
    <marker
       style="overflow:visible"
       id="marker7345"
       refX="0.0"
       refY="0.0"
       orient="auto"
       inkscape:stockid="Arrow1Mstart"
       inkscape:isstock="true">
      <path
         transform="scale(0.4) translate(10,0)"
         style="fill-rule:evenodd;fill:context-stroke;stroke:context-stroke;stroke-width:1.0pt"
         d="M 0.0,0.0 L 5.0,-5.0 L -12.5,0.0 L 5.0,5.0 L 0.0,0.0 z "
         id="path7343" />
    </marker>
    <marker
       style="overflow:visible;"
       id="marker7335"
       refX="0.0"
       refY="0.0"
       orient="auto"
       inkscape:stockid="Arrow1Mend"
       inkscape:isstock="true">
      <path
         transform="scale(0.4) rotate(180) translate(10,0)"
         style="fill-rule:evenodd;fill:context-stroke;stroke:context-stroke;stroke-width:1.0pt;"
         d="M 0.0,0.0 L 5.0,-5.0 L -12.5,0.0 L 5.0,5.0 L 0.0,0.0 z "
         id="path7333" />
    </marker>
    <marker
       style="overflow:visible"
       id="Arrow1Mstart"
       refX="0.0"
       refY="0.0"
       orient="auto"
       inkscape:stockid="Arrow1Mstart"
       inkscape:isstock="true">
      <path
         transform="scale(0.4) translate(10,0)"
         style="fill-rule:evenodd;fill:context-stroke;stroke:context-stroke;stroke-width:1.0pt"
         d="M 0.0,0.0 L 5.0,-5.0 L -12.5,0.0 L 5.0,5.0 L 0.0,0.0 z "
         id="path7053" />
    </marker>
    <marker
       style="overflow:visible;"
       id="marker7317"
       refX="0.0"
       refY="0.0"
       orient="auto"
       inkscape:stockid="Arrow1Mend"
       inkscape:isstock="true">
      <path
         transform="scale(0.4) rotate(180) translate(10,0)"
         style="fill-rule:evenodd;fill:context-stroke;stroke:context-stroke;stroke-width:1.0pt;"
         d="M 0.0,0.0 L 5.0,-5.0 L -12.5,0.0 L 5.0,5.0 L 0.0,0.0 z "
         id="path7315" />
    </marker>
    <marker
       style="overflow:visible;"
       id="Arrow1Mend"
       refX="0.0"
       refY="0.0"
       orient="auto"
       inkscape:stockid="Arrow1Mend"
       inkscape:isstock="true">
      <path
         transform="scale(0.4) rotate(180) translate(10,0)"
         style="fill-rule:evenodd;fill:context-stroke;stroke:context-stroke;stroke-width:1.0pt;"
         d="M 0.0,0.0 L 5.0,-5.0 L -12.5,0.0 L 5.0,5.0 L 0.0,0.0 z "
         id="path7056" />
    </marker>
    <marker
       id="ArrowEnd"
       viewBox="0 0 10 10"
       orient="auto"
       markerHeight="3.0000000"
       markerWidth="4.0000000"
       refY="5.0000000"
       refX="0.0000000"
       markerUnits="strokeWidth">
      <path
         id="path1389"
         d="M 0.0000000,0.0000000 L 10.000000,5.0000000 L 0.0000000,10.000000 L 0.0000000,0.0000000 z " />
    </marker>
    <marker
       id="ArrowStart"
       viewBox="0 0 10 10"
       orient="auto"
       markerHeight="3.0000000"
       markerWidth="4.0000000"
       refY="5.0000000"
       refX="10.000000"
       markerUnits="strokeWidth">
      <path
         id="path1392"
         d="M 10.000000,0.0000000 L 0.0000000,5.0000000 L 10.000000,10.000000 L 10.000000,0.0000000 z " />
    </marker>
    <pattern
       id="pattern2262"
       patternTransform="translate(143.1340,15.58280)"
       height="183.42120"
       width="14.275000"
       patternUnits="userSpaceOnUse">
      <path
         transform="translate(-143.1340,-15.58280)"
         id="path2264"
         d="M 143.13400,15.582800 L 157.40900,15.582800 L 157.40900,199.00400 L 143.13400,199.00400 L 143.13400,15.582800 z "
         style="fill-opacity:1.0000000;stroke:none;fill:none" />
    </pattern>
    <pattern
       id="pattern2270"
       patternTransform="translate(143.1340,15.58280)"
       height="183.42120"
       width="14.275000"
       patternUnits="userSpaceOnUse">
      <path
         transform="translate(-143.1340,-15.58280)"
         id="path2272"
         d="M 143.13400,15.582800 L 157.40900,15.582800 L 157.40900,199.00400 L 143.13400,199.00400 L 143.13400,15.582800 z "
         style="fill:none;fill-opacity:1.0000000;stroke:none" />
    </pattern>
    <g
       id="g4876">
      <symbol
         overflow="visible"
         id="symbol5477">
        <path
           style="stroke:none;"
           d=""
           id="path1815" />
      </symbol>
      <symbol
         overflow="visible"
         id="symbol1946">
        <path
           style="stroke:none;"
           d="M 3.890625 -4 C 3.984375 -4.109375 3.984375 -4.125 3.984375 -4.171875 C 3.984375 -4.296875 3.890625 -4.296875 3.71875 -4.296875 L 0.53125 -4.296875 L 0.421875 -2.6875 L 0.671875 -2.6875 C 0.734375 -3.703125 0.921875 -4.078125 2.015625 -4.078125 L 3.15625 -4.078125 L 0.375 -0.3125 C 0.28125 -0.203125 0.28125 -0.1875 0.28125 -0.140625 C 0.28125 0 0.34375 0 0.53125 0 L 3.828125 0 L 4 -1.859375 L 3.75 -1.859375 C 3.65625 -0.6875 3.453125 -0.25 2.296875 -0.25 L 1.109375 -0.25 Z M 3.890625 -4 "
           id="path360" />
      </symbol>
      <symbol
         overflow="visible"
         id="symbol652">
        <path
           style="stroke:none;"
           d="M 1.671875 -3.3125 L 1.671875 -4.40625 L 0.28125 -4.296875 L 0.28125 -3.984375 C 0.984375 -3.984375 1.0625 -3.921875 1.0625 -3.421875 L 1.0625 -0.75 C 1.0625 -0.3125 0.953125 -0.3125 0.28125 -0.3125 L 0.28125 0 C 0.671875 -0.015625 1.140625 -0.03125 1.421875 -0.03125 C 1.8125 -0.03125 2.28125 -0.03125 2.6875 0 L 2.6875 -0.3125 L 2.46875 -0.3125 C 1.734375 -0.3125 1.71875 -0.421875 1.71875 -0.78125 L 1.71875 -2.3125 C 1.71875 -3.296875 2.140625 -4.1875 2.890625 -4.1875 C 2.953125 -4.1875 2.984375 -4.1875 3 -4.171875 C 2.96875 -4.171875 2.765625 -4.046875 2.765625 -3.78125 C 2.765625 -3.515625 2.984375 -3.359375 3.203125 -3.359375 C 3.375 -3.359375 3.625 -3.484375 3.625 -3.796875 C 3.625 -4.109375 3.3125 -4.40625 2.890625 -4.40625 C 2.15625 -4.40625 1.796875 -3.734375 1.671875 -3.3125 Z M 1.671875 -3.3125 "
           id="path4388" />
      </symbol>
      <symbol
         overflow="visible"
         id="symbol846">
        <path
           style="stroke:none;"
           d="M 1.171875 -2.171875 C 1.171875 -3.796875 1.984375 -4.21875 2.515625 -4.21875 C 2.609375 -4.21875 3.234375 -4.203125 3.578125 -3.84375 C 3.171875 -3.8125 3.109375 -3.515625 3.109375 -3.390625 C 3.109375 -3.125 3.296875 -2.9375 3.5625 -2.9375 C 3.828125 -2.9375 4.03125 -3.09375 4.03125 -3.40625 C 4.03125 -4.078125 3.265625 -4.46875 2.5 -4.46875 C 1.25 -4.46875 0.34375 -3.390625 0.34375 -2.15625 C 0.34375 -0.875 1.328125 0.109375 2.484375 0.109375 C 3.8125 0.109375 4.140625 -1.09375 4.140625 -1.1875 C 4.140625 -1.28125 4.03125 -1.28125 4 -1.28125 C 3.921875 -1.28125 3.890625 -1.25 3.875 -1.1875 C 3.59375 -0.265625 2.9375 -0.140625 2.578125 -0.140625 C 2.046875 -0.140625 1.171875 -0.5625 1.171875 -2.171875 Z M 1.171875 -2.171875 "
           id="path5218" />
      </symbol>
      <symbol
         overflow="visible"
         id="symbol3237">
        <path
           style="stroke:none;"
           d="M 3.3125 -0.75 C 3.359375 -0.359375 3.625 0.0625 4.09375 0.0625 C 4.3125 0.0625 4.921875 -0.078125 4.921875 -0.890625 L 4.921875 -1.453125 L 4.671875 -1.453125 L 4.671875 -0.890625 C 4.671875 -0.3125 4.421875 -0.25 4.3125 -0.25 C 3.984375 -0.25 3.9375 -0.703125 3.9375 -0.75 L 3.9375 -2.734375 C 3.9375 -3.15625 3.9375 -3.546875 3.578125 -3.921875 C 3.1875 -4.3125 2.6875 -4.46875 2.21875 -4.46875 C 1.390625 -4.46875 0.703125 -4 0.703125 -3.34375 C 0.703125 -3.046875 0.90625 -2.875 1.171875 -2.875 C 1.453125 -2.875 1.625 -3.078125 1.625 -3.328125 C 1.625 -3.453125 1.578125 -3.78125 1.109375 -3.78125 C 1.390625 -4.140625 1.875 -4.25 2.1875 -4.25 C 2.6875 -4.25 3.25 -3.859375 3.25 -2.96875 L 3.25 -2.609375 C 2.734375 -2.578125 2.046875 -2.546875 1.421875 -2.25 C 0.671875 -1.90625 0.421875 -1.390625 0.421875 -0.953125 C 0.421875 -0.140625 1.390625 0.109375 2.015625 0.109375 C 2.671875 0.109375 3.125 -0.296875 3.3125 -0.75 Z M 3.25 -2.390625 L 3.25 -1.390625 C 3.25 -0.453125 2.53125 -0.109375 2.078125 -0.109375 C 1.59375 -0.109375 1.1875 -0.453125 1.1875 -0.953125 C 1.1875 -1.5 1.609375 -2.328125 3.25 -2.390625 Z M 3.25 -2.390625 "
           id="path6852" />
      </symbol>
      <symbol
         overflow="visible"
         id="symbol6529">
        <path
           style="stroke:none;"
           d="M 3.78125 -0.546875 L 3.78125 0.109375 L 5.25 0 L 5.25 -0.3125 C 4.5625 -0.3125 4.46875 -0.375 4.46875 -0.875 L 4.46875 -6.921875 L 3.046875 -6.8125 L 3.046875 -6.5 C 3.734375 -6.5 3.8125 -6.4375 3.8125 -5.9375 L 3.8125 -3.78125 C 3.53125 -4.140625 3.09375 -4.40625 2.5625 -4.40625 C 1.390625 -4.40625 0.34375 -3.421875 0.34375 -2.140625 C 0.34375 -0.875 1.3125 0.109375 2.453125 0.109375 C 3.09375 0.109375 3.53125 -0.234375 3.78125 -0.546875 Z M 3.78125 -3.21875 L 3.78125 -1.171875 C 3.78125 -1 3.78125 -0.984375 3.671875 -0.8125 C 3.375 -0.328125 2.9375 -0.109375 2.5 -0.109375 C 2.046875 -0.109375 1.6875 -0.375 1.453125 -0.75 C 1.203125 -1.15625 1.171875 -1.71875 1.171875 -2.140625 C 1.171875 -2.5 1.1875 -3.09375 1.46875 -3.546875 C 1.6875 -3.859375 2.0625 -4.1875 2.609375 -4.1875 C 2.953125 -4.1875 3.375 -4.03125 3.671875 -3.59375 C 3.78125 -3.421875 3.78125 -3.40625 3.78125 -3.21875 Z M 3.78125 -3.21875 "
           id="path4020" />
      </symbol>
      <symbol
         overflow="visible"
         id="symbol6706">
        <path
           style="stroke:none;"
           d="M 1.765625 -6.921875 L 0.328125 -6.8125 L 0.328125 -6.5 C 1.03125 -6.5 1.109375 -6.4375 1.109375 -5.9375 L 1.109375 -0.75 C 1.109375 -0.3125 1 -0.3125 0.328125 -0.3125 L 0.328125 0 C 0.65625 -0.015625 1.1875 -0.03125 1.4375 -0.03125 C 1.6875 -0.03125 2.171875 -0.015625 2.546875 0 L 2.546875 -0.3125 C 1.875 -0.3125 1.765625 -0.3125 1.765625 -0.75 Z M 1.765625 -6.921875 "
           id="path4784" />
      </symbol>
      <symbol
         overflow="visible"
         id="symbol2776">
        <path
           style="stroke:none;"
           d="M 4.6875 -2.140625 C 4.6875 -3.40625 3.703125 -4.46875 2.5 -4.46875 C 1.25 -4.46875 0.28125 -3.375 0.28125 -2.140625 C 0.28125 -0.84375 1.3125 0.109375 2.484375 0.109375 C 3.6875 0.109375 4.6875 -0.875 4.6875 -2.140625 Z M 2.5 -0.140625 C 2.0625 -0.140625 1.625 -0.34375 1.359375 -0.8125 C 1.109375 -1.25 1.109375 -1.859375 1.109375 -2.21875 C 1.109375 -2.609375 1.109375 -3.140625 1.34375 -3.578125 C 1.609375 -4.03125 2.078125 -4.25 2.484375 -4.25 C 2.921875 -4.25 3.34375 -4.03125 3.609375 -3.59375 C 3.875 -3.171875 3.875 -2.59375 3.875 -2.21875 C 3.875 -1.859375 3.875 -1.3125 3.65625 -0.875 C 3.421875 -0.421875 2.984375 -0.140625 2.5 -0.140625 Z M 2.5 -0.140625 "
           id="path1885" />
      </symbol>
    </g>
    <g
       id="g7041">
      <symbol
         overflow="visible"
         id="symbol3425">
        <path
           style="stroke:none;"
           d=""
           id="path6095" />
      </symbol>
      <symbol
         overflow="visible"
         id="symbol2816">
        <path
           style="stroke:none;"
           d="M 1.09375 -3.421875 L 1.09375 -0.75 C 1.09375 -0.3125 0.984375 -0.3125 0.3125 -0.3125 L 0.3125 0 C 0.671875 -0.015625 1.171875 -0.03125 1.453125 -0.03125 C 1.703125 -0.03125 2.21875 -0.015625 2.5625 0 L 2.5625 -0.3125 C 1.890625 -0.3125 1.78125 -0.3125 1.78125 -0.75 L 1.78125 -2.59375 C 1.78125 -3.625 2.5 -4.1875 3.125 -4.1875 C 3.765625 -4.1875 3.875 -3.65625 3.875 -3.078125 L 3.875 -0.75 C 3.875 -0.3125 3.765625 -0.3125 3.09375 -0.3125 L 3.09375 0 C 3.4375 -0.015625 3.953125 -0.03125 4.21875 -0.03125 C 4.46875 -0.03125 5 -0.015625 5.328125 0 L 5.328125 -0.3125 C 4.8125 -0.3125 4.5625 -0.3125 4.5625 -0.609375 L 4.5625 -2.515625 C 4.5625 -3.375 4.5625 -3.671875 4.25 -4.03125 C 4.109375 -4.203125 3.78125 -4.40625 3.203125 -4.40625 C 2.46875 -4.40625 2 -3.984375 1.71875 -3.359375 L 1.71875 -4.40625 L 0.3125 -4.296875 L 0.3125 -3.984375 C 1.015625 -3.984375 1.09375 -3.921875 1.09375 -3.421875 Z M 1.09375 -3.421875 "
           id="path4886" />
      </symbol>
      <symbol
         overflow="visible"
         id="symbol434">
        <path
           style="stroke:none;"
           d="M 4.6875 -2.140625 C 4.6875 -3.40625 3.703125 -4.46875 2.5 -4.46875 C 1.25 -4.46875 0.28125 -3.375 0.28125 -2.140625 C 0.28125 -0.84375 1.3125 0.109375 2.484375 0.109375 C 3.6875 0.109375 4.6875 -0.875 4.6875 -2.140625 Z M 2.5 -0.140625 C 2.0625 -0.140625 1.625 -0.34375 1.359375 -0.8125 C 1.109375 -1.25 1.109375 -1.859375 1.109375 -2.21875 C 1.109375 -2.609375 1.109375 -3.140625 1.34375 -3.578125 C 1.609375 -4.03125 2.078125 -4.25 2.484375 -4.25 C 2.921875 -4.25 3.34375 -4.03125 3.609375 -3.59375 C 3.875 -3.171875 3.875 -2.59375 3.875 -2.21875 C 3.875 -1.859375 3.875 -1.3125 3.65625 -0.875 C 3.421875 -0.421875 2.984375 -0.140625 2.5 -0.140625 Z M 2.5 -0.140625 "
           id="path9092" />
      </symbol>
      <symbol
         overflow="visible"
         id="symbol4999">
        <path
           style="stroke:none;"
           d="M 1.671875 -3.3125 L 1.671875 -4.40625 L 0.28125 -4.296875 L 0.28125 -3.984375 C 0.984375 -3.984375 1.0625 -3.921875 1.0625 -3.421875 L 1.0625 -0.75 C 1.0625 -0.3125 0.953125 -0.3125 0.28125 -0.3125 L 0.28125 0 C 0.671875 -0.015625 1.140625 -0.03125 1.421875 -0.03125 C 1.8125 -0.03125 2.28125 -0.03125 2.6875 0 L 2.6875 -0.3125 L 2.46875 -0.3125 C 1.734375 -0.3125 1.71875 -0.421875 1.71875 -0.78125 L 1.71875 -2.3125 C 1.71875 -3.296875 2.140625 -4.1875 2.890625 -4.1875 C 2.953125 -4.1875 2.984375 -4.1875 3 -4.171875 C 2.96875 -4.171875 2.765625 -4.046875 2.765625 -3.78125 C 2.765625 -3.515625 2.984375 -3.359375 3.203125 -3.359375 C 3.375 -3.359375 3.625 -3.484375 3.625 -3.796875 C 3.625 -4.109375 3.3125 -4.40625 2.890625 -4.40625 C 2.15625 -4.40625 1.796875 -3.734375 1.671875 -3.3125 Z M 1.671875 -3.3125 "
           id="path5804" />
      </symbol>
      <symbol
         overflow="visible"
         id="symbol8257">
        <path
           style="stroke:none;"
           d="M 1.09375 -3.421875 L 1.09375 -0.75 C 1.09375 -0.3125 0.984375 -0.3125 0.3125 -0.3125 L 0.3125 0 C 0.671875 -0.015625 1.171875 -0.03125 1.453125 -0.03125 C 1.703125 -0.03125 2.21875 -0.015625 2.5625 0 L 2.5625 -0.3125 C 1.890625 -0.3125 1.78125 -0.3125 1.78125 -0.75 L 1.78125 -2.59375 C 1.78125 -3.625 2.5 -4.1875 3.125 -4.1875 C 3.765625 -4.1875 3.875 -3.65625 3.875 -3.078125 L 3.875 -0.75 C 3.875 -0.3125 3.765625 -0.3125 3.09375 -0.3125 L 3.09375 0 C 3.4375 -0.015625 3.953125 -0.03125 4.21875 -0.03125 C 4.46875 -0.03125 5 -0.015625 5.328125 0 L 5.328125 -0.3125 C 4.671875 -0.3125 4.5625 -0.3125 4.5625 -0.75 L 4.5625 -2.59375 C 4.5625 -3.625 5.265625 -4.1875 5.90625 -4.1875 C 6.53125 -4.1875 6.640625 -3.65625 6.640625 -3.078125 L 6.640625 -0.75 C 6.640625 -0.3125 6.53125 -0.3125 5.859375 -0.3125 L 5.859375 0 C 6.203125 -0.015625 6.71875 -0.03125 6.984375 -0.03125 C 7.25 -0.03125 7.765625 -0.015625 8.109375 0 L 8.109375 -0.3125 C 7.59375 -0.3125 7.34375 -0.3125 7.328125 -0.609375 L 7.328125 -2.515625 C 7.328125 -3.375 7.328125 -3.671875 7.015625 -4.03125 C 6.875 -4.203125 6.546875 -4.40625 5.96875 -4.40625 C 5.140625 -4.40625 4.6875 -3.8125 4.53125 -3.421875 C 4.390625 -4.296875 3.65625 -4.40625 3.203125 -4.40625 C 2.46875 -4.40625 2 -3.984375 1.71875 -3.359375 L 1.71875 -4.40625 L 0.3125 -4.296875 L 0.3125 -3.984375 C 1.015625 -3.984375 1.09375 -3.921875 1.09375 -3.421875 Z M 1.09375 -3.421875 "
           id="path4899" />
      </symbol>
      <symbol
         overflow="visible"
         id="symbol4210">
        <path
           style="stroke:none;"
           d="M 3.734375 -6.296875 C 3.828125 -6.375 3.90625 -6.484375 3.90625 -6.59375 C 3.90625 -6.78125 3.734375 -6.953125 3.546875 -6.953125 C 3.40625 -6.953125 3.296875 -6.84375 3.25 -6.78125 L 2.046875 -5.265625 L 2.21875 -5.078125 Z M 3.734375 -6.296875 "
           id="path9357" />
      </symbol>
      <symbol
         overflow="visible"
         id="symbol4879">
        <path
           style="stroke:none;"
           d="M 3.3125 -0.75 C 3.359375 -0.359375 3.625 0.0625 4.09375 0.0625 C 4.3125 0.0625 4.921875 -0.078125 4.921875 -0.890625 L 4.921875 -1.453125 L 4.671875 -1.453125 L 4.671875 -0.890625 C 4.671875 -0.3125 4.421875 -0.25 4.3125 -0.25 C 3.984375 -0.25 3.9375 -0.703125 3.9375 -0.75 L 3.9375 -2.734375 C 3.9375 -3.15625 3.9375 -3.546875 3.578125 -3.921875 C 3.1875 -4.3125 2.6875 -4.46875 2.21875 -4.46875 C 1.390625 -4.46875 0.703125 -4 0.703125 -3.34375 C 0.703125 -3.046875 0.90625 -2.875 1.171875 -2.875 C 1.453125 -2.875 1.625 -3.078125 1.625 -3.328125 C 1.625 -3.453125 1.578125 -3.78125 1.109375 -3.78125 C 1.390625 -4.140625 1.875 -4.25 2.1875 -4.25 C 2.6875 -4.25 3.25 -3.859375 3.25 -2.96875 L 3.25 -2.609375 C 2.734375 -2.578125 2.046875 -2.546875 1.421875 -2.25 C 0.671875 -1.90625 0.421875 -1.390625 0.421875 -0.953125 C 0.421875 -0.140625 1.390625 0.109375 2.015625 0.109375 C 2.671875 0.109375 3.125 -0.296875 3.3125 -0.75 Z M 3.25 -2.390625 L 3.25 -1.390625 C 3.25 -0.453125 2.53125 -0.109375 2.078125 -0.109375 C 1.59375 -0.109375 1.1875 -0.453125 1.1875 -0.953125 C 1.1875 -1.5 1.609375 -2.328125 3.25 -2.390625 Z M 3.25 -2.390625 "
           id="path8503" />
      </symbol>
      <symbol
         overflow="visible"
         id="symbol3400">
        <path
           style="stroke:none;"
           d="M 1.765625 -6.921875 L 0.328125 -6.8125 L 0.328125 -6.5 C 1.03125 -6.5 1.109375 -6.4375 1.109375 -5.9375 L 1.109375 -0.75 C 1.109375 -0.3125 1 -0.3125 0.328125 -0.3125 L 0.328125 0 C 0.65625 -0.015625 1.1875 -0.03125 1.4375 -0.03125 C 1.6875 -0.03125 2.171875 -0.015625 2.546875 0 L 2.546875 -0.3125 C 1.875 -0.3125 1.765625 -0.3125 1.765625 -0.75 Z M 1.765625 -6.921875 "
           id="path924" />
      </symbol>
    </g>
    <g
       id="g1719">
      <symbol
         overflow="visible"
         id="symbol8222">
        <path
           style="stroke:none;"
           d=""
           id="path1231" />
      </symbol>
      <symbol
         overflow="visible"
         id="symbol1965">
        <path
           style="stroke:none;"
           d="M 4.75 -2.359375 C 4.75 -3.921875 3.828125 -4.40625 3.09375 -4.40625 C 1.71875 -4.40625 0.40625 -2.984375 0.40625 -1.578125 C 0.40625 -0.640625 1 0.109375 2.03125 0.109375 C 2.65625 0.109375 3.375 -0.125 4.125 -0.734375 C 4.25 -0.203125 4.578125 0.109375 5.03125 0.109375 C 5.5625 0.109375 5.875 -0.4375 5.875 -0.59375 C 5.875 -0.671875 5.8125 -0.703125 5.75 -0.703125 C 5.6875 -0.703125 5.65625 -0.671875 5.625 -0.59375 C 5.4375 -0.109375 5.078125 -0.109375 5.0625 -0.109375 C 4.75 -0.109375 4.75 -0.890625 4.75 -1.125 C 4.75 -1.328125 4.75 -1.359375 4.859375 -1.46875 C 5.796875 -2.65625 6 -3.8125 6 -3.8125 C 6 -3.84375 5.984375 -3.921875 5.875 -3.921875 C 5.78125 -3.921875 5.78125 -3.890625 5.734375 -3.703125 C 5.546875 -3.078125 5.21875 -2.328125 4.75 -1.734375 Z M 4.09375 -0.984375 C 3.203125 -0.21875 2.4375 -0.109375 2.046875 -0.109375 C 1.453125 -0.109375 1.140625 -0.5625 1.140625 -1.203125 C 1.140625 -1.6875 1.40625 -2.765625 1.71875 -3.265625 C 2.1875 -4 2.734375 -4.1875 3.078125 -4.1875 C 4.0625 -4.1875 4.0625 -2.875 4.0625 -2.109375 C 4.0625 -1.734375 4.0625 -1.15625 4.09375 -0.984375 Z M 4.09375 -0.984375 "
           id="path2779" />
      </symbol>
    </g>
    <g
       id="g1012">
      <symbol
         overflow="visible"
         id="symbol6443">
        <path
           style="stroke:none;"
           d=""
           id="path8647" />
      </symbol>
      <symbol
         overflow="visible"
         id="symbol4706">
        <path
           style="stroke:none;"
           d="M 4.75 -2.359375 C 4.75 -3.921875 3.828125 -4.40625 3.09375 -4.40625 C 1.71875 -4.40625 0.40625 -2.984375 0.40625 -1.578125 C 0.40625 -0.640625 1 0.109375 2.03125 0.109375 C 2.65625 0.109375 3.375 -0.125 4.125 -0.734375 C 4.25 -0.203125 4.578125 0.109375 5.03125 0.109375 C 5.5625 0.109375 5.875 -0.4375 5.875 -0.59375 C 5.875 -0.671875 5.8125 -0.703125 5.75 -0.703125 C 5.6875 -0.703125 5.65625 -0.671875 5.625 -0.59375 C 5.4375 -0.109375 5.078125 -0.109375 5.0625 -0.109375 C 4.75 -0.109375 4.75 -0.890625 4.75 -1.125 C 4.75 -1.328125 4.75 -1.359375 4.859375 -1.46875 C 5.796875 -2.65625 6 -3.8125 6 -3.8125 C 6 -3.84375 5.984375 -3.921875 5.875 -3.921875 C 5.78125 -3.921875 5.78125 -3.890625 5.734375 -3.703125 C 5.546875 -3.078125 5.21875 -2.328125 4.75 -1.734375 Z M 4.09375 -0.984375 C 3.203125 -0.21875 2.4375 -0.109375 2.046875 -0.109375 C 1.453125 -0.109375 1.140625 -0.5625 1.140625 -1.203125 C 1.140625 -1.6875 1.40625 -2.765625 1.71875 -3.265625 C 2.1875 -4 2.734375 -4.1875 3.078125 -4.1875 C 4.0625 -4.1875 4.0625 -2.875 4.0625 -2.109375 C 4.0625 -1.734375 4.0625 -1.15625 4.09375 -0.984375 Z M 4.09375 -0.984375 "
           id="path5276" />
      </symbol>
      <symbol
         overflow="visible"
         id="symbol2682">
        <path
           style="stroke:none;"
           d=""
           id="path5259" />
      </symbol>
      <symbol
         overflow="visible"
         id="symbol8407">
        <path
           style="stroke:none;"
           d="M 2.015625 -3.296875 C 2.078125 -3.40625 2.078125 -3.46875 2.078125 -3.515625 C 2.078125 -3.734375 1.890625 -3.890625 1.671875 -3.890625 C 1.40625 -3.890625 1.328125 -3.671875 1.296875 -3.5625 L 0.375 -0.546875 C 0.359375 -0.53125 0.328125 -0.453125 0.328125 -0.4375 C 0.328125 -0.359375 0.546875 -0.28125 0.609375 -0.28125 C 0.65625 -0.28125 0.65625 -0.296875 0.703125 -0.40625 Z M 2.015625 -3.296875 "
           id="path2450" />
      </symbol>
    </g>
  </defs>
  <rect
     id="rect2266"
     style="fill:none;stroke:none"
     y="15.582800"
     x="143.13400"
     height="183.42120"
     width="14.275000" />
  <path
     id="path1398"
     style="fill:none;stroke:#000000;stroke-width:0.56692916"
     d="M 143.67300,107.42800 L 11.153200,107.42800" />
  <path
     id="path1400"
     style="fill:none;stroke:#000000;stroke-width:1.0000000"
     d="M 143.13400,15.852200 L 143.13400,199.00400" />
  <path
     id="path1402"
     style="fill:none;stroke:#000000;stroke-width:1;marker-end:url(#marker7335)"
     d="M 143.13400,107.29300 L 28.743900,41.249900" />
  <path
     id="path1404"
     style="fill:none;stroke:#000000;stroke-width:1;marker-end:url(#marker7345)"
     d="M 143.26900,107.29300 L 28.977000,173.28000" />
  <path
     id="path1406"
     style="fill:none;stroke:#000000;stroke-width:1.0000000"
     d="M 125.94600,117.43100 C 124.23700,114.48500 123.25800,111.06400 123.25800,107.41600" />
  <path
     id="path1408"
     style="fill:none;stroke:#000000;stroke-width:1.0000000"
     d="M 121.05900,93.905600 C 118.86700,97.803600 117.61100,102.33100 117.61100,107.15800" />
  <use
     xlink:href="#path4610"
     height="204.24500"
     width="169.92300"
     y="0.0000000"
     x="0.0000000"
     id="use4736"
     transform="translate(0.000000,80.67254)" />
  <use
     xlink:href="#path4610"
     height="204.24500"
     width="169.92300"
     y="0.0000000"
     x="0.0000000"
     id="use4738"
     transform="translate(0.000000,90.75660)" />
  <path
     id="path4610"
     style="fill:none;fill-opacity:0.75000000;fill-rule:evenodd;stroke:#000000;stroke-width:1.0000000px;stroke-linecap:butt;stroke-linejoin:miter;stroke-opacity:1.0000000"
     d="M 143.01681,17.303443 L 152.10088,26.387510" />
  <use
     xlink:href="#path4610"
     height="204.24500"
     width="169.92300"
     y="0.0000000"
     x="0.0000000"
     id="use4722"
     transform="translate(0.000000,10.08407)" />
  <use
     xlink:href="#path4610"
     height="204.24500"
     width="169.92300"
     y="0.0000000"
     x="0.0000000"
     id="use4724"
     transform="translate(0.000000,20.16813)" />
  <use
     xlink:href="#path4610"
     height="204.24500"
     width="169.92300"
     y="0.0000000"
     x="0.0000000"
     id="use4726"
     transform="translate(0.000000,30.25220)" />
  <use
     xlink:href="#path4610"
     height="204.24500"
     width="169.92300"
     y="0.0000000"
     x="0.0000000"
     id="use4728"
     transform="translate(0.000000,40.33627)" />
  <use
     xlink:href="#path4610"
     height="204.24500"
     width="169.92300"
     y="0.0000000"
     x="0.0000000"
     id="use4730"
     transform="translate(0.000000,50.42034)" />
  <use
     xlink:href="#path4610"
     height="204.24500"
     width="169.92300"
     y="0.0000000"
     x="0.0000000"
     id="use4732"
     transform="translate(0.000000,60.50440)" />
  <use
     xlink:href="#path4610"
     height="204.24500"
     width="169.92300"
     y="0.0000000"
     x="0.0000000"
     id="use4734"
     transform="translate(0.000000,70.58847)" />
  <use
     xlink:href="#path4610"
     height="204.24500"
     width="169.92300"
     y="0.0000000"
     x="0.0000000"
     id="use4740"
     transform="translate(0.000000,100.8407)" />
  <use
     xlink:href="#path4610"
     height="204.24500"
     width="169.92300"
     y="0.0000000"
     x="0.0000000"
     id="use4742"
     transform="translate(0.000000,110.9247)" />
  <use
     xlink:href="#path4610"
     height="204.24500"
     width="169.92300"
     y="0.0000000"
     x="0.0000000"
     id="use4744"
     transform="translate(0.000000,121.0088)" />
  <use
     xlink:href="#path4610"
     height="204.24500"
     width="169.92300"
     y="0.0000000"
     x="0.0000000"
     id="use4746"
     transform="translate(0.000000,131.0929)" />
  <use
     xlink:href="#path4610"
     height="204.24500"
     width="169.92300"
     y="0.0000000"
     x="0.0000000"
     id="use4748"
     transform="translate(0.000000,141.1769)" />
  <use
     xlink:href="#path4610"
     height="204.24500"
     width="169.92300"
     y="0.0000000"
     x="0.0000000"
     id="use4750"
     transform="translate(0.000000,151.2610)" />
  <use
     xlink:href="#path4610"
     height="204.24500"
     width="169.92300"
     y="0.0000000"
     x="0.0000000"
     id="use4752"
     transform="translate(0.000000,161.3451)" />
  <use
     xlink:href="#path4610"
     height="204.24500"
     width="169.92300"
     y="0.0000000"
     x="0.0000000"
     id="use4754"
     transform="translate(0.000000,171.4291)" />
  <g
     inkscape:label=""
     transform="translate(84.985, 101.982)"
     id="g3188">
    <g
       id="g4831"
       transform="matrix(1.3297218,0,0,1.3297218,-83.814684,-198.73282)">
      <g
         style="fill:#000000;fill-opacity:1"
         id="g4488">
        <use
           xlink:href="#symbol1946"
           x="91.925003"
           y="81.962997"
           id="use7390"
           width="100%"
           height="100%" />
        <use
           xlink:href="#symbol652"
           x="96.352379"
           y="81.962997"
           id="use8860"
           width="100%"
           height="100%" />
        <use
           xlink:href="#symbol846"
           x="100.25473"
           y="81.962997"
           id="use3245"
           width="100%"
           height="100%" />
        <use
           xlink:href="#symbol3237"
           x="104.68211"
           y="81.962997"
           id="use4578"
           width="100%"
           height="100%" />
        <use
           xlink:href="#symbol6529"
           x="109.66341"
           y="81.962997"
           id="use7873"
           width="100%"
           height="100%" />
        <use
           xlink:href="#symbol6706"
           x="115.19863"
           y="81.962997"
           id="use8370"
           width="100%"
           height="100%" />
        <use
           xlink:href="#symbol2776"
           x="117.96624"
           y="81.962997"
           id="use5212"
           width="100%"
           height="100%" />
      </g>
    </g>
  </g>
  <g
     inkscape:label=""
     transform="matrix(1.2769691,0,0,1.2769691,-105.3835,0.065939)"
     id="g3883">
    <g
       id="g4216">
      <g
         style="fill:#000000;fill-opacity:1"
         id="g8846">
        <use
           xlink:href="#symbol2816"
           x="91.925003"
           y="81.962997"
           id="use4"
           width="100%"
           height="100%" />
        <use
           xlink:href="#symbol434"
           x="97.46022"
           y="81.962997"
           id="use2410"
           width="100%"
           height="100%" />
        <use
           xlink:href="#symbol4999"
           x="102.44152"
           y="81.962997"
           id="use6908"
           width="100%"
           height="100%" />
        <use
           xlink:href="#symbol8257"
           x="106.34387"
           y="81.962997"
           id="use3801"
           width="100%"
           height="100%" />
        <use
           xlink:href="#symbol4210"
           x="114.64571"
           y="81.962997"
           id="use8007"
           width="100%"
           height="100%" />
      </g>
      <g
         style="fill:#000000;fill-opacity:1"
         id="g7502">
        <use
           xlink:href="#symbol4879"
           x="114.64571"
           y="81.962997"
           id="use7981"
           width="100%"
           height="100%" />
        <use
           xlink:href="#symbol3400"
           x="119.62701"
           y="81.962997"
           id="use1699"
           width="100%"
           height="100%" />
        <use
           xlink:href="#symbol4879"
           x="122.39462"
           y="81.962997"
           id="use6108"
           width="100%"
           height="100%" />
      </g>
    </g>
  </g>
  <g
     inkscape:label=""
     transform="translate(13.703769,36.952254)"
     id="g6762">
    <g
       id="g3911">
      <g
         style="fill:#000000;fill-opacity:1"
         id="g8059">
        <use
           xlink:href="#symbol1965"
           x="91.925003"
           y="81.962997"
           id="use781"
           width="100%"
           height="100%"
           transform="matrix(1.728,0,0,1.728,-69.253278,-58.104999)" />
      </g>
    </g>
  </g>
  <g
     inkscape:label=""
     transform="matrix(1.728,0,0,1.728,-53.095628,-34.034814)"
     id="g7011">
    <g
       id="g160"
       transform="translate(-4.6880048,-1.9679961)">
      <g
         style="fill:#000000;fill-opacity:1"
         id="g1511">
        <use
           xlink:href="#symbol4706"
           x="91.925003"
           y="81.962997"
           id="use7966"
           width="100%"
           height="100%" />
      </g>
      <g
         style="fill:#000000;fill-opacity:1"
         id="g2176">
        <use
           xlink:href="#symbol8407"
           x="98.334999"
           y="78.348"
           id="use9231"
           width="100%"
           height="100%" />
      </g>
    </g>
  </g>
</svg>
