<?xml version="1.0" standalone="no"?>
<!DOCTYPE svg PUBLIC "-//W3C//DTD SVG 1.0//EN" 
  "http://www.w3.org/Graphics/SVG/1.0/DTD/svg10.dtd">
<svg 
   xmlns="http://www.w3.org/2000/svg"
   xmlns:xlink="http://www.w3.org/1999/xlink"
   version="1.0"
   width="500"
   height="320"
   id="svg45763">
  <defs
     id="defs45765" />
  <g
     id="layer1">
    <g
       transform="matrix(1.1071035,0,0,1.1071035,-4.2837428,-418.671)"
       id="g45622">
      <g
         id="g44559">
        <path
           d="M 132.1875,495.6875 C 132.61944,505.8429 140.98893,513.93751 151.25,513.9375 C 161.51108,513.9375 169.88056,505.84288 170.3125,495.6875"
           style="opacity:1;fill:none;fill-opacity:1;fill-rule:evenodd;stroke:#babdb6;stroke-width:3;stroke-linecap:butt;stroke-linejoin:miter;stroke-miterlimit:4;stroke-dasharray:none;stroke-dashoffset:0;stroke-opacity:0.53333285"
           id="path30917" />
        <path
           d="M 115.25,495.6875 C 115.68576,515.18702 131.64647,530.87499 151.25,530.875 C 170.85353,530.875 186.81424,515.18702 187.25,495.6875"
           style="opacity:1;fill:none;fill-opacity:1;fill-rule:evenodd;stroke:#babdb6;stroke-width:2.99999976;stroke-linecap:butt;stroke-linejoin:miter;stroke-miterlimit:4;stroke-dasharray:none;stroke-dashoffset:0;stroke-opacity:0.53333285"
           id="path33871" />
        <path
           d="M 98,495.6875 C 98.440323,524.72436 122.10898,548.15623 151.25,548.15625 C 180.39103,548.15625 204.05968,524.72435 204.5,495.6875"
           style="opacity:1;fill:none;fill-opacity:1;fill-rule:evenodd;stroke:#babdb6;stroke-width:3;stroke-linecap:butt;stroke-linejoin:miter;stroke-miterlimit:4;stroke-dasharray:none;stroke-dashoffset:0;stroke-opacity:0.53333285"
           id="path34843" />
        <path
           d="M 80.46875,495.6875 C 80.908633,534.3901 112.44383,565.65626 151.25,565.65625 C 190.05617,565.65625 221.59137,534.39008 222.03125,495.6875"
           style="opacity:1;fill:none;fill-opacity:1;fill-rule:evenodd;stroke:#babdb6;stroke-width:3;stroke-linecap:butt;stroke-linejoin:miter;stroke-miterlimit:4;stroke-dasharray:none;stroke-dashoffset:0;stroke-opacity:0.53333285"
           id="path35814" />
        <path
           d="M 62.59375,495.6875 C 63.032395,544.25699 102.57753,583.53123 151.25,583.53125 C 199.92248,583.53125 239.46761,544.25699 239.90625,495.6875"
           style="opacity:1;fill:none;fill-opacity:1;fill-rule:evenodd;stroke:#babdb6;stroke-width:3;stroke-linecap:butt;stroke-linejoin:miter;stroke-miterlimit:4;stroke-dasharray:none;stroke-dashoffset:0;stroke-opacity:0.53333285"
           id="path36785" />
        <path
           d="M 45.875,495.6875 C 46.313019,553.48594 93.348914,600.25 151.25,600.25 C 209.15109,600.25 256.18699,553.48594 256.625,495.6875"
           style="opacity:1;fill:none;fill-opacity:1;fill-rule:evenodd;stroke:#888a85;stroke-width:3;stroke-linecap:butt;stroke-linejoin:miter;stroke-miterlimit:4;stroke-dasharray:none;stroke-dashoffset:0;stroke-opacity:0.53333285"
           id="path37756" />
      </g>
      <g
         transform="translate(31.125,0.125)"
         id="g44567">
        <path
           d="M 132.1875,495.6875 C 132.61944,505.8429 140.98893,513.93751 151.25,513.9375 C 161.51108,513.9375 169.88056,505.84288 170.3125,495.6875"
           style="opacity:1;fill:none;fill-opacity:1;fill-rule:evenodd;stroke:#babdb6;stroke-width:3;stroke-linecap:butt;stroke-linejoin:miter;stroke-miterlimit:4;stroke-dasharray:none;stroke-dashoffset:0;stroke-opacity:0.53333285"
           id="path44569" />
        <path
           d="M 115.25,495.6875 C 115.68576,515.18702 131.64647,530.87499 151.25,530.875 C 170.85353,530.875 186.81424,515.18702 187.25,495.6875"
           style="opacity:1;fill:none;fill-opacity:1;fill-rule:evenodd;stroke:#babdb6;stroke-width:2.99999976;stroke-linecap:butt;stroke-linejoin:miter;stroke-miterlimit:4;stroke-dasharray:none;stroke-dashoffset:0;stroke-opacity:0.53333285"
           id="path44571" />
        <path
           d="M 98,495.6875 C 98.440323,524.72436 122.10898,548.15623 151.25,548.15625 C 180.39103,548.15625 204.05968,524.72435 204.5,495.6875"
           style="opacity:1;fill:none;fill-opacity:1;fill-rule:evenodd;stroke:#babdb6;stroke-width:3;stroke-linecap:butt;stroke-linejoin:miter;stroke-miterlimit:4;stroke-dasharray:none;stroke-dashoffset:0;stroke-opacity:0.53333285"
           id="path44573" />
        <path
           d="M 80.46875,495.6875 C 80.908633,534.3901 112.44383,565.65626 151.25,565.65625 C 190.05617,565.65625 221.59137,534.39008 222.03125,495.6875"
           style="opacity:1;fill:none;fill-opacity:1;fill-rule:evenodd;stroke:#babdb6;stroke-width:3;stroke-linecap:butt;stroke-linejoin:miter;stroke-miterlimit:4;stroke-dasharray:none;stroke-dashoffset:0;stroke-opacity:0.53333285"
           id="path44575" />
        <path
           d="M 62.59375,495.6875 C 63.032395,544.25699 102.57753,583.53123 151.25,583.53125 C 199.92248,583.53125 239.46761,544.25699 239.90625,495.6875"
           style="opacity:1;fill:none;fill-opacity:1;fill-rule:evenodd;stroke:#babdb6;stroke-width:3;stroke-linecap:butt;stroke-linejoin:miter;stroke-miterlimit:4;stroke-dasharray:none;stroke-dashoffset:0;stroke-opacity:0.53333285"
           id="path44577" />
        <path
           d="M 45.875,495.6875 C 46.313019,553.48594 93.348914,600.25 151.25,600.25 C 209.15109,600.25 256.18699,553.48594 256.625,495.6875"
           style="opacity:1;fill:none;fill-opacity:1;fill-rule:evenodd;stroke:#888a85;stroke-width:3;stroke-linecap:butt;stroke-linejoin:miter;stroke-miterlimit:4;stroke-dasharray:none;stroke-dashoffset:0;stroke-opacity:0.53333285"
           id="path44579" />
      </g>
      <g
         transform="translate(62.75,0.125)"
         id="g44581">
        <path
           d="M 132.1875,495.6875 C 132.61944,505.8429 140.98893,513.93751 151.25,513.9375 C 161.51108,513.9375 169.88056,505.84288 170.3125,495.6875"
           style="opacity:1;fill:none;fill-opacity:1;fill-rule:evenodd;stroke:#babdb6;stroke-width:3;stroke-linecap:butt;stroke-linejoin:miter;stroke-miterlimit:4;stroke-dasharray:none;stroke-dashoffset:0;stroke-opacity:0.53333285"
           id="path44583" />
        <path
           d="M 115.25,495.6875 C 115.68576,515.18702 131.64647,530.87499 151.25,530.875 C 170.85353,530.875 186.81424,515.18702 187.25,495.6875"
           style="opacity:1;fill:none;fill-opacity:1;fill-rule:evenodd;stroke:#babdb6;stroke-width:2.99999976;stroke-linecap:butt;stroke-linejoin:miter;stroke-miterlimit:4;stroke-dasharray:none;stroke-dashoffset:0;stroke-opacity:0.53333285"
           id="path44585" />
        <path
           d="M 98,495.6875 C 98.440323,524.72436 122.10898,548.15623 151.25,548.15625 C 180.39103,548.15625 204.05968,524.72435 204.5,495.6875"
           style="opacity:1;fill:none;fill-opacity:1;fill-rule:evenodd;stroke:#babdb6;stroke-width:3;stroke-linecap:butt;stroke-linejoin:miter;stroke-miterlimit:4;stroke-dasharray:none;stroke-dashoffset:0;stroke-opacity:0.53333285"
           id="path44587" />
        <path
           d="M 80.46875,495.6875 C 80.908633,534.3901 112.44383,565.65626 151.25,565.65625 C 190.05617,565.65625 221.59137,534.39008 222.03125,495.6875"
           style="opacity:1;fill:none;fill-opacity:1;fill-rule:evenodd;stroke:#babdb6;stroke-width:3;stroke-linecap:butt;stroke-linejoin:miter;stroke-miterlimit:4;stroke-dasharray:none;stroke-dashoffset:0;stroke-opacity:0.53333285"
           id="path44589" />
        <path
           d="M 62.59375,495.6875 C 63.032395,544.25699 102.57753,583.53123 151.25,583.53125 C 199.92248,583.53125 239.46761,544.25699 239.90625,495.6875"
           style="opacity:1;fill:none;fill-opacity:1;fill-rule:evenodd;stroke:#babdb6;stroke-width:3;stroke-linecap:butt;stroke-linejoin:miter;stroke-miterlimit:4;stroke-dasharray:none;stroke-dashoffset:0;stroke-opacity:0.53333285"
           id="path44591" />
        <path
           d="M 45.875,495.6875 C 46.313019,553.48594 93.348914,600.25 151.25,600.25 C 209.15109,600.25 256.18699,553.48594 256.625,495.6875"
           style="opacity:1;fill:none;fill-opacity:1;fill-rule:evenodd;stroke:#888a85;stroke-width:3;stroke-linecap:butt;stroke-linejoin:miter;stroke-miterlimit:4;stroke-dasharray:none;stroke-dashoffset:0;stroke-opacity:0.53333285"
           id="path44593" />
      </g>
      <g
         transform="translate(92.75,0.125)"
         id="g44595">
        <path
           d="M 132.1875,495.6875 C 132.61944,505.8429 140.98893,513.93751 151.25,513.9375 C 161.51108,513.9375 169.88056,505.84288 170.3125,495.6875"
           style="opacity:1;fill:none;fill-opacity:1;fill-rule:evenodd;stroke:#babdb6;stroke-width:3;stroke-linecap:butt;stroke-linejoin:miter;stroke-miterlimit:4;stroke-dasharray:none;stroke-dashoffset:0;stroke-opacity:0.53333285"
           id="path44597" />
        <path
           d="M 115.25,495.6875 C 115.68576,515.18702 131.64647,530.87499 151.25,530.875 C 170.85353,530.875 186.81424,515.18702 187.25,495.6875"
           style="opacity:1;fill:none;fill-opacity:1;fill-rule:evenodd;stroke:#babdb6;stroke-width:2.99999976;stroke-linecap:butt;stroke-linejoin:miter;stroke-miterlimit:4;stroke-dasharray:none;stroke-dashoffset:0;stroke-opacity:0.53333285"
           id="path44599" />
        <path
           d="M 98,495.6875 C 98.440323,524.72436 122.10898,548.15623 151.25,548.15625 C 180.39103,548.15625 204.05968,524.72435 204.5,495.6875"
           style="opacity:1;fill:none;fill-opacity:1;fill-rule:evenodd;stroke:#babdb6;stroke-width:3;stroke-linecap:butt;stroke-linejoin:miter;stroke-miterlimit:4;stroke-dasharray:none;stroke-dashoffset:0;stroke-opacity:0.53333285"
           id="path44601" />
        <path
           d="M 80.46875,495.6875 C 80.908633,534.3901 112.44383,565.65626 151.25,565.65625 C 190.05617,565.65625 221.59137,534.39008 222.03125,495.6875"
           style="opacity:1;fill:none;fill-opacity:1;fill-rule:evenodd;stroke:#babdb6;stroke-width:3;stroke-linecap:butt;stroke-linejoin:miter;stroke-miterlimit:4;stroke-dasharray:none;stroke-dashoffset:0;stroke-opacity:0.53333285"
           id="path44603" />
        <path
           d="M 62.59375,495.6875 C 63.032395,544.25699 102.57753,583.53123 151.25,583.53125 C 199.92248,583.53125 239.46761,544.25699 239.90625,495.6875"
           style="opacity:1;fill:none;fill-opacity:1;fill-rule:evenodd;stroke:#babdb6;stroke-width:3;stroke-linecap:butt;stroke-linejoin:miter;stroke-miterlimit:4;stroke-dasharray:none;stroke-dashoffset:0;stroke-opacity:0.53333285"
           id="path44605" />
        <path
           d="M 45.875,495.6875 C 46.313019,553.48594 93.348914,600.25 151.25,600.25 C 209.15109,600.25 256.18699,553.48594 256.625,495.6875"
           style="opacity:1;fill:none;fill-opacity:1;fill-rule:evenodd;stroke:#888a85;stroke-width:3;stroke-linecap:butt;stroke-linejoin:miter;stroke-miterlimit:4;stroke-dasharray:none;stroke-dashoffset:0;stroke-opacity:0.53333285"
           id="path44607" />
      </g>
      <g
         transform="translate(124.75,0.125)"
         id="g44623">
        <path
           d="M 132.1875,495.6875 C 132.61944,505.8429 140.98893,513.93751 151.25,513.9375 C 161.51108,513.9375 169.88056,505.84288 170.3125,495.6875"
           style="opacity:1;fill:none;fill-opacity:1;fill-rule:evenodd;stroke:#babdb6;stroke-width:3;stroke-linecap:butt;stroke-linejoin:miter;stroke-miterlimit:4;stroke-dasharray:none;stroke-dashoffset:0;stroke-opacity:0.53333285"
           id="path44625" />
        <path
           d="M 115.25,495.6875 C 115.68576,515.18702 131.64647,530.87499 151.25,530.875 C 170.85353,530.875 186.81424,515.18702 187.25,495.6875"
           style="opacity:1;fill:none;fill-opacity:1;fill-rule:evenodd;stroke:#babdb6;stroke-width:2.99999976;stroke-linecap:butt;stroke-linejoin:miter;stroke-miterlimit:4;stroke-dasharray:none;stroke-dashoffset:0;stroke-opacity:0.53333285"
           id="path44627" />
        <path
           d="M 98,495.6875 C 98.440323,524.72436 122.10898,548.15623 151.25,548.15625 C 180.39103,548.15625 204.05968,524.72435 204.5,495.6875"
           style="opacity:1;fill:none;fill-opacity:1;fill-rule:evenodd;stroke:#babdb6;stroke-width:3;stroke-linecap:butt;stroke-linejoin:miter;stroke-miterlimit:4;stroke-dasharray:none;stroke-dashoffset:0;stroke-opacity:0.53333285"
           id="path44629" />
        <path
           d="M 80.46875,495.6875 C 80.908633,534.3901 112.44383,565.65626 151.25,565.65625 C 190.05617,565.65625 221.59137,534.39008 222.03125,495.6875"
           style="opacity:1;fill:none;fill-opacity:1;fill-rule:evenodd;stroke:#babdb6;stroke-width:3;stroke-linecap:butt;stroke-linejoin:miter;stroke-miterlimit:4;stroke-dasharray:none;stroke-dashoffset:0;stroke-opacity:0.53333285"
           id="path44631" />
        <path
           d="M 62.59375,495.6875 C 63.032395,544.25699 102.57753,583.53123 151.25,583.53125 C 199.92248,583.53125 239.46761,544.25699 239.90625,495.6875"
           style="opacity:1;fill:none;fill-opacity:1;fill-rule:evenodd;stroke:#babdb6;stroke-width:3;stroke-linecap:butt;stroke-linejoin:miter;stroke-miterlimit:4;stroke-dasharray:none;stroke-dashoffset:0;stroke-opacity:0.53333285"
           id="path44633" />
        <path
           d="M 45.875,495.6875 C 46.313019,553.48594 93.348914,600.25 151.25,600.25 C 209.15109,600.25 256.18699,553.48594 256.625,495.6875"
           style="opacity:1;fill:none;fill-opacity:1;fill-rule:evenodd;stroke:#888a85;stroke-width:3;stroke-linecap:butt;stroke-linejoin:miter;stroke-miterlimit:4;stroke-dasharray:none;stroke-dashoffset:0;stroke-opacity:0.53333285"
           id="path44635" />
      </g>
      <g
         transform="translate(154.75,0.125)"
         id="g44637">
        <path
           d="M 132.1875,495.6875 C 132.61944,505.8429 140.98893,513.93751 151.25,513.9375 C 161.51108,513.9375 169.88056,505.84288 170.3125,495.6875"
           style="opacity:1;fill:none;fill-opacity:1;fill-rule:evenodd;stroke:#babdb6;stroke-width:3;stroke-linecap:butt;stroke-linejoin:miter;stroke-miterlimit:4;stroke-dasharray:none;stroke-dashoffset:0;stroke-opacity:0.53333285"
           id="path44639" />
        <path
           d="M 115.25,495.6875 C 115.68576,515.18702 131.64647,530.87499 151.25,530.875 C 170.85353,530.875 186.81424,515.18702 187.25,495.6875"
           style="opacity:1;fill:none;fill-opacity:1;fill-rule:evenodd;stroke:#babdb6;stroke-width:2.99999976;stroke-linecap:butt;stroke-linejoin:miter;stroke-miterlimit:4;stroke-dasharray:none;stroke-dashoffset:0;stroke-opacity:0.53333285"
           id="path44641" />
        <path
           d="M 98,495.6875 C 98.440323,524.72436 122.10898,548.15623 151.25,548.15625 C 180.39103,548.15625 204.05968,524.72435 204.5,495.6875"
           style="opacity:1;fill:none;fill-opacity:1;fill-rule:evenodd;stroke:#babdb6;stroke-width:3;stroke-linecap:butt;stroke-linejoin:miter;stroke-miterlimit:4;stroke-dasharray:none;stroke-dashoffset:0;stroke-opacity:0.53333285"
           id="path44643" />
        <path
           d="M 80.46875,495.6875 C 80.908633,534.3901 112.44383,565.65626 151.25,565.65625 C 190.05617,565.65625 221.59137,534.39008 222.03125,495.6875"
           style="opacity:1;fill:none;fill-opacity:1;fill-rule:evenodd;stroke:#babdb6;stroke-width:3;stroke-linecap:butt;stroke-linejoin:miter;stroke-miterlimit:4;stroke-dasharray:none;stroke-dashoffset:0;stroke-opacity:0.53333285"
           id="path44645" />
        <path
           d="M 62.59375,495.6875 C 63.032395,544.25699 102.57753,583.53123 151.25,583.53125 C 199.92248,583.53125 239.46761,544.25699 239.90625,495.6875"
           style="opacity:1;fill:none;fill-opacity:1;fill-rule:evenodd;stroke:#babdb6;stroke-width:3;stroke-linecap:butt;stroke-linejoin:miter;stroke-miterlimit:4;stroke-dasharray:none;stroke-dashoffset:0;stroke-opacity:0.53333285"
           id="path44647" />
        <path
           d="M 45.875,495.6875 C 46.313019,553.48594 93.348914,600.25 151.25,600.25 C 209.15109,600.25 256.18699,553.48594 256.625,495.6875"
           style="opacity:1;fill:none;fill-opacity:1;fill-rule:evenodd;stroke:#888a85;stroke-width:3;stroke-linecap:butt;stroke-linejoin:miter;stroke-miterlimit:4;stroke-dasharray:none;stroke-dashoffset:0;stroke-opacity:0.53333285"
           id="path44649" />
      </g>
    </g>
    <g
       transform="matrix(1.1071035,0,0,1.1071035,-4.2837428,-418.671)"
       id="g45695">
      <path
         d="M 14.5,494.86218 L 444,494.86218"
         style="fill:none;fill-opacity:0.75;fill-rule:evenodd;stroke:#000000;stroke-width:2;stroke-linecap:butt;stroke-linejoin:miter;stroke-miterlimit:4;stroke-dasharray:none;stroke-opacity:1"
         id="path25998" />
      <rect
         width="136.5"
         height="12.5"
         x="15"
         y="482.36218"
         style="opacity:1;fill:#2e3436;fill-opacity:0.77777782;fill-rule:evenodd;stroke:#2e3436;stroke-width:2;stroke-linecap:butt;stroke-linejoin:miter;stroke-miterlimit:4;stroke-dasharray:none;stroke-dashoffset:0;stroke-opacity:1"
         id="rect26000" />
      <rect
         width="136.5"
         height="12.5"
         x="307"
         y="482.36218"
         style="opacity:1;fill:#2e3436;fill-opacity:0.77777782;fill-rule:evenodd;stroke:#2e3436;stroke-width:2;stroke-linecap:butt;stroke-linejoin:miter;stroke-miterlimit:4;stroke-dasharray:none;stroke-dashoffset:0;stroke-opacity:1"
         id="rect26002" />
    </g>
    <g
       transform="matrix(1.1071035,0,0,1.1071035,-4.2837428,-418.671)"
       id="g45687">
      <path
         d="M 148.84598 195.34877 A 3.1819806 3.1819806 0 1 1  142.48202,195.34877 A 3.1819806 3.1819806 0 1 1  148.84598 195.34877 z"
         transform="matrix(1.5555555,0,0,1.5555555,-75.267587,191.28618)"
         style="opacity:1;fill:#edd400;fill-opacity:1;fill-rule:evenodd;stroke:none;stroke-width:3;stroke-linecap:butt;stroke-linejoin:miter;stroke-miterlimit:4;stroke-dasharray:none;stroke-dashoffset:0;stroke-opacity:1"
         id="path30871" />
      <path
         d="M 148.84598 195.34877 A 3.1819806 3.1819806 0 1 1  142.48202,195.34877 A 3.1819806 3.1819806 0 1 1  148.84598 195.34877 z"
         transform="matrix(1.5555555,0,0,1.5555555,-43.797917,191.28618)"
         style="opacity:1;fill:#edd400;fill-opacity:1;fill-rule:evenodd;stroke:none;stroke-width:3;stroke-linecap:butt;stroke-linejoin:miter;stroke-miterlimit:4;stroke-dasharray:none;stroke-dashoffset:0;stroke-opacity:1"
         id="path30873" />
      <path
         d="M 148.84598 195.34877 A 3.1819806 3.1819806 0 1 1  142.48202,195.34877 A 3.1819806 3.1819806 0 1 1  148.84598 195.34877 z"
         transform="matrix(1.5555555,0,0,1.5555555,-12.914034,191.28618)"
         style="opacity:1;fill:#edd400;fill-opacity:1;fill-rule:evenodd;stroke:none;stroke-width:3;stroke-linecap:butt;stroke-linejoin:miter;stroke-miterlimit:4;stroke-dasharray:none;stroke-dashoffset:0;stroke-opacity:1"
         id="path30875" />
      <path
         d="M 148.84598 195.34877 A 3.1819806 3.1819806 0 1 1  142.48202,195.34877 A 3.1819806 3.1819806 0 1 1  148.84598 195.34877 z"
         transform="matrix(1.5555555,0,0,1.5555555,18.202083,191.28618)"
         style="opacity:1;fill:#edd400;fill-opacity:1;fill-rule:evenodd;stroke:none;stroke-width:3;stroke-linecap:butt;stroke-linejoin:miter;stroke-miterlimit:4;stroke-dasharray:none;stroke-dashoffset:0;stroke-opacity:1"
         id="path30877" />
      <path
         d="M 148.84598 195.34877 A 3.1819806 3.1819806 0 1 1  142.48202,195.34877 A 3.1819806 3.1819806 0 1 1  148.84598 195.34877 z"
         transform="matrix(1.5555555,0,0,1.5555555,49.3182,191.28618)"
         style="opacity:1;fill:#edd400;fill-opacity:1;fill-rule:evenodd;stroke:none;stroke-width:3;stroke-linecap:butt;stroke-linejoin:miter;stroke-miterlimit:4;stroke-dasharray:none;stroke-dashoffset:0;stroke-opacity:1"
         id="path30879" />
      <path
         d="M 148.84598 195.34877 A 3.1819806 3.1819806 0 1 1  142.48202,195.34877 A 3.1819806 3.1819806 0 1 1  148.84598 195.34877 z"
         transform="matrix(1.5555555,0,0,1.5555555,80.202083,191.28618)"
         style="opacity:1;fill:#edd400;fill-opacity:1;fill-rule:evenodd;stroke:none;stroke-width:3;stroke-linecap:butt;stroke-linejoin:miter;stroke-miterlimit:4;stroke-dasharray:none;stroke-dashoffset:0;stroke-opacity:1"
         id="path30881" />
    </g>
    <g
       transform="matrix(1.1071035,0,0,1.1071035,-5.8494196,-418.671)"
       id="g45666">
      <path
         d="M 62.5,472.36218 L 400,472.36218"
         style="fill:none;fill-opacity:0.75;fill-rule:evenodd;stroke:#204a87;stroke-width:3;stroke-linecap:butt;stroke-linejoin:miter;stroke-miterlimit:4;stroke-dasharray:none;stroke-opacity:1"
         id="path28917" />
      <path
         d="M 62.5,450.36218 L 400,450.36218"
         style="fill:none;fill-opacity:0.75;fill-rule:evenodd;stroke:#204a87;stroke-width:3;stroke-linecap:butt;stroke-linejoin:miter;stroke-miterlimit:4;stroke-dasharray:none;stroke-opacity:1"
         id="path29888" />
      <path
         d="M 62.5,428.36218 L 400,428.36218"
         style="fill:none;fill-opacity:0.75;fill-rule:evenodd;stroke:#204a87;stroke-width:3;stroke-linecap:butt;stroke-linejoin:miter;stroke-miterlimit:4;stroke-dasharray:none;stroke-opacity:1"
         id="path29890" />
      <g
         transform="matrix(0.9321865,0.3619783,-0.3619783,0.9321865,88.949539,-4.3115986)"
         id="g30909">
        <path
           d="M 275.45426,316.49844 L 301.13855,383.36758"
           style="fill:none;fill-opacity:0.75;fill-rule:evenodd;stroke:#204a87;stroke-width:3;stroke-linecap:butt;stroke-linejoin:miter;stroke-miterlimit:4;stroke-dasharray:6, 3;stroke-dashoffset:0;stroke-opacity:1"
           id="path30911" />
        <path
           d="M 295.08587,379.91343 L 303.70623,376.68023 L 303.02501,388.09451 L 295.08587,379.91343 z "
           style="fill:#204a87;fill-opacity:1;fill-rule:evenodd;stroke:none;stroke-width:1px;stroke-linecap:butt;stroke-linejoin:miter;stroke-opacity:1"
           id="path30913" />
      </g>
    </g>
    <g
       transform="matrix(1.1071035,0,0,1.1071035,-4.2837428,-418.671)"
       id="g45674">
      <path
         d="M 39.59375,494.8125 C 39.59375,556.48352 89.641476,606.53125 151.3125,606.53125 C 189.01047,606.53125 306.875,606.1875 306.875,606.1875 C 368.35087,606.1875 418.25,556.28837 418.25,494.8125"
         style="opacity:1;fill:none;fill-opacity:0.77777782;fill-rule:evenodd;stroke:#4e9a06;stroke-width:3;stroke-linecap:butt;stroke-linejoin:miter;stroke-miterlimit:4;stroke-dasharray:none;stroke-dashoffset:0;stroke-opacity:1"
         id="path27942" />
      <g
         transform="matrix(0.9334115,0.3588077,-0.3588077,0.9334115,86.062871,186.01799)"
         id="g30884">
        <path
           d="M 258.59789,272.60062 L 301.13855,383.36758"
           style="fill:none;fill-opacity:0.75;fill-rule:evenodd;stroke:#4e9a06;stroke-width:3;stroke-linecap:butt;stroke-linejoin:miter;stroke-miterlimit:4;stroke-dasharray:6, 3;stroke-dashoffset:0;stroke-opacity:1"
           id="path30886" />
        <path
           d="M 295.08587,379.91343 L 303.70623,376.68023 L 303.02501,388.09451 L 295.08587,379.91343 z "
           style="fill:#4e9a06;fill-opacity:1;fill-rule:evenodd;stroke:none;stroke-width:1px;stroke-linecap:butt;stroke-linejoin:miter;stroke-opacity:1"
           id="path30888" />
      </g>
      <g
         transform="matrix(0.4031981,0.9151127,-0.9151127,0.4031981,257.2703,180.75916)"
         id="g30890">
        <path
           d="M 258.59789,272.60062 L 301.13855,383.36758"
           style="fill:none;fill-opacity:0.75;fill-rule:evenodd;stroke:#4e9a06;stroke-width:3;stroke-linecap:butt;stroke-linejoin:miter;stroke-miterlimit:4;stroke-dasharray:6, 3;stroke-dashoffset:0;stroke-opacity:1"
           id="path30892" />
        <path
           d="M 295.08587,379.91343 L 303.70623,376.68023 L 303.02501,388.09451 L 295.08587,379.91343 z "
           style="fill:#4e9a06;fill-opacity:1;fill-rule:evenodd;stroke:none;stroke-width:1px;stroke-linecap:butt;stroke-linejoin:miter;stroke-opacity:1"
           id="path30894" />
      </g>
      <g
         transform="matrix(-0.4031981,0.9151127,0.9151127,0.4031981,200.60508,180.75916)"
         id="g30896">
        <path
           d="M 258.59789,272.60062 L 301.13855,383.36758"
           style="fill:none;fill-opacity:0.75;fill-rule:evenodd;stroke:#4e9a06;stroke-width:3;stroke-linecap:butt;stroke-linejoin:miter;stroke-miterlimit:4;stroke-dasharray:6, 3;stroke-dashoffset:0;stroke-opacity:1"
           id="path30898" />
        <path
           d="M 295.08587,379.91343 L 303.70623,376.68023 L 303.02501,388.09451 L 295.08587,379.91343 z "
           style="fill:#4e9a06;fill-opacity:1;fill-rule:evenodd;stroke:none;stroke-width:1px;stroke-linecap:butt;stroke-linejoin:miter;stroke-opacity:1"
           id="path30900" />
      </g>
      <path
         d="M 18.721316,496.70414 C 18.721316,567.32712 74.286541,624.63961 142.75647,624.63961 C 187.1243,624.63961 278.67479,624.24597 315.46893,624.24597 C 383.72219,624.24597 439.12242,567.10365 439.12242,496.70414"
         style="opacity:1;fill:none;fill-opacity:0.77777782;fill-rule:evenodd;stroke:#4e9a06;stroke-width:3;stroke-linecap:butt;stroke-linejoin:miter;stroke-miterlimit:4;stroke-dasharray:none;stroke-dashoffset:0;stroke-opacity:1"
         id="path44651" />
    </g>
  </g>
</svg>
