<?xml version="1.0" encoding="UTF-8" standalone="no"?>
<!-- Created with Inkscape (http://www.inkscape.org/) -->
<svg
   xmlns:ns1="http://www.iki.fi/pav/software/textext"
   xmlns:dc="http://purl.org/dc/elements/1.1/"
   xmlns:cc="http://creativecommons.org/ns#"
   xmlns:rdf="http://www.w3.org/1999/02/22-rdf-syntax-ns#"
   xmlns:svg="http://www.w3.org/2000/svg"
   xmlns="http://www.w3.org/2000/svg"
   xmlns:sodipodi="http://sodipodi.sourceforge.net/DTD/sodipodi-0.dtd"
   xmlns:inkscape="http://www.inkscape.org/namespaces/inkscape"
   version="1.0"
   width="1020"
   height="540"
   id="svg2"
   sodipodi:version="0.32"
   inkscape:version="0.46"
   sodipodi:docname="Stimulated_Emission_en.svg"
   inkscape:output_extension="org.inkscape.output.svg.inkscape">
  <sodipodi:namedview
     inkscape:window-height="712"
     inkscape:window-width="1024"
     inkscape:pageshadow="2"
     inkscape:pageopacity="0.0"
     guidetolerance="10.0"
     gridtolerance="10.0"
     objecttolerance="10.0"
     borderopacity="1.0"
     bordercolor="#666666"
     pagecolor="#ffffff"
     id="base"
     showgrid="false"
     inkscape:zoom="0.5"
     inkscape:cx="587.16327"
     inkscape:cy="372.04724"
     inkscape:window-x="-4"
     inkscape:window-y="-4"
     inkscape:current-layer="layer1" />
  <metadata
     id="metadata19247">
    <rdf:RDF>
      <cc:Work
         rdf:about="">
        <dc:format>image/svg+xml</dc:format>
        <dc:type
           rdf:resource="http://purl.org/dc/dcmitype/StillImage" />
      </cc:Work>
    </rdf:RDF>
  </metadata>
  <defs
     id="defs4"><inkscape:perspective
   sodipodi:type="inkscape:persp3d"
   inkscape:vp_x="0 : 372.04724 : 1"
   inkscape:vp_y="0 : 1000 : 0"
   inkscape:vp_z="1052.3622 : 372.04724 : 1"
   inkscape:persp3d-origin="526.18109 : 248.03149 : 1"
   id="perspective19249" />
<marker
   refX="0"
   refY="0"
   orient="auto"
   id="Arrow2Send"
   style="overflow:visible">
  <path
     d="M 8.7185878,4.0337352 L -2.2072895,0.016013256 L 8.7185884,-4.0017078 C 6.97309,-1.6296469 6.9831476,1.6157441 8.7185878,4.0337352 z"
     transform="matrix(-0.3,0,0,-0.3,0.69,0)"
     id="path3878"
     style="font-size:12px;fill-rule:evenodd;stroke-width:0.625;stroke-linejoin:round" />
</marker>
<marker
   refX="0"
   refY="0"
   orient="auto"
   id="Arrow1Lend"
   style="overflow:visible">
  <path
     d="M 0,0 L 5,-5 L -12.5,0 L 5,5 L 0,0 z"
     transform="matrix(-0.8,0,0,-0.8,-10,0)"
     id="path3848"
     style="fill-rule:evenodd;stroke:#000000;stroke-width:1pt;marker-start:none" />
</marker>
<marker
   refX="0"
   refY="0"
   orient="auto"
   id="Arrow1Lstart"
   style="overflow:visible">
  <path
     d="M 0,0 L 5,-5 L -12.5,0 L 5,5 L 0,0 z"
     transform="matrix(0.8,0,0,0.8,10,0)"
     id="path3845"
     style="fill-rule:evenodd;stroke:#000000;stroke-width:1pt;marker-start:none" />
</marker>
<marker
   refX="0"
   refY="0"
   orient="auto"
   id="Arrow2Mend"
   style="overflow:visible">
  <path
     d="M 8.7185878,4.0337352 L -2.2072895,0.016013256 L 8.7185884,-4.0017078 C 6.97309,-1.6296469 6.9831476,1.6157441 8.7185878,4.0337352 z"
     transform="scale(-0.6,-0.6)"
     id="path3872"
     style="font-size:12px;fill-rule:evenodd;stroke-width:0.625;stroke-linejoin:round" />
</marker>
<marker
   refX="0"
   refY="0"
   orient="auto"
   id="Arrow2Mstart"
   style="overflow:visible">
  <path
     d="M 8.7185878,4.0337352 L -2.2072895,0.016013256 L 8.7185884,-4.0017078 C 6.97309,-1.6296469 6.9831476,1.6157441 8.7185878,4.0337352 z"
     transform="scale(0.6,0.6)"
     id="path3869"
     style="font-size:12px;fill-rule:evenodd;stroke-width:0.625;stroke-linejoin:round" />
</marker>
<marker
   refX="0"
   refY="0"
   orient="auto"
   id="Arrow1Mstart"
   style="overflow:visible">
  <path
     d="M 0,0 L 5,-5 L -12.5,0 L 5,5 L 0,0 z"
     transform="matrix(0.4,0,0,0.4,4,0)"
     id="path3851"
     style="fill-rule:evenodd;stroke:#000000;stroke-width:1pt;marker-start:none" />
</marker>
<marker
   refX="0"
   refY="0"
   orient="auto"
   id="Arrow1Mend"
   style="overflow:visible">
  <path
     d="M 0,0 L 5,-5 L -12.5,0 L 5,5 L 0,0 z"
     transform="matrix(-0.4,0,0,-0.4,-4,0)"
     id="path3251"
     style="fill-rule:evenodd;stroke:#000000;stroke-width:1pt;marker-start:none" />
</marker>
<marker
   refX="0"
   refY="0"
   orient="auto"
   id="Arrow2Lend"
   style="overflow:visible">
  <path
     d="M 8.7185878,4.0337352 L -2.2072895,0.016013256 L 8.7185884,-4.0017078 C 6.97309,-1.6296469 6.9831476,1.6157441 8.7185878,4.0337352 z"
     transform="matrix(-1.1,0,0,-1.1,-1.1,0)"
     id="path3263"
     style="font-size:12px;fill-rule:evenodd;stroke-width:0.625;stroke-linejoin:round" />
</marker>
<marker
   refX="0"
   refY="0"
   orient="auto"
   id="Arrow1Mend5"
   style="overflow:visible">
  <path
     d="M 0,0 L 5,-5 L -12.5,0 L 5,5 L 0,0 z"
     transform="matrix(-0.4,0,0,-0.4,-4,0)"
     id="path5586"
     style="fill:#c80000;fill-rule:evenodd;stroke:#c80000;stroke-width:1pt;marker-start:none" />
</marker>














</defs>
  <g
     id="layer1"
     transform="translate(-7.8867242,-64.094482)">
    <path
       d="M 182,168.09448 C 352,168.09448 352,168.09448 352,168.09448"
       id="path2385"
       style="fill:#000000;fill-opacity:1;fill-rule:evenodd;stroke:#000000;stroke-width:5;stroke-linecap:butt;stroke-linejoin:miter;stroke-miterlimit:4;stroke-dasharray:none;stroke-opacity:1" />
    <path
       d="M 182,428.09448 C 352,428.09448 352,428.09448 352,428.09448"
       id="path3157"
       style="fill:#000000;fill-opacity:1;fill-rule:evenodd;stroke:#000000;stroke-width:5;stroke-linecap:butt;stroke-linejoin:miter;stroke-miterlimit:4;stroke-dasharray:none;stroke-opacity:1" />
    <path
       d="M 481.52657,168.3601 C 651.52657,168.3601 651.52657,168.3601 651.52657,168.3601"
       id="path3159"
       style="fill:#000000;fill-opacity:1;fill-rule:evenodd;stroke:#000000;stroke-width:5;stroke-linecap:butt;stroke-linejoin:miter;stroke-miterlimit:4;stroke-dasharray:none;stroke-opacity:1" />
    <path
       d="M 481.52657,428.36009 C 651.52657,428.36009 651.52657,428.36009 651.52657,428.36009"
       id="path3161"
       style="fill:#000000;fill-opacity:1;fill-rule:evenodd;stroke:#000000;stroke-width:5;stroke-linecap:butt;stroke-linejoin:miter;stroke-miterlimit:4;stroke-dasharray:none;stroke-opacity:1" />
    <path
       d="M 783.03907,168.4058 C 953.03907,168.4058 953.03907,168.4058 953.03907,168.4058"
       id="path3167"
       style="fill:#000000;fill-opacity:1;fill-rule:evenodd;stroke:#000000;stroke-width:5;stroke-linecap:butt;stroke-linejoin:miter;stroke-miterlimit:4;stroke-dasharray:none;stroke-opacity:1" />
    <path
       d="M 783.03907,428.40579 C 953.03907,428.40579 953.03907,428.40579 953.03907,428.40579"
       id="path3169"
       style="fill:#000000;fill-opacity:1;fill-rule:evenodd;stroke:#000000;stroke-width:5;stroke-linecap:butt;stroke-linejoin:miter;stroke-miterlimit:4;stroke-dasharray:none;stroke-opacity:1" />
    <g
       transform="translate(4.35517,-226)"
       id="g5627">
      <g
         id="g3231">
        <path
           d="M 29.85517,504.09448 C 39.785057,483.76861 44.75,504.09448 44.75,504.09448 C 44.75,504.09448 34.820114,483.76861 44.75,504.09448 C 54.679886,524.42035 59.64483,504.09448 59.64483,504.09448 L 59.64483,504.09448"
           id="path3223"
           style="fill:none;fill-opacity:1;fill-rule:evenodd;stroke:#c80000;stroke-width:5;stroke-linecap:butt;stroke-linejoin:miter;stroke-miterlimit:4;stroke-dasharray:none;stroke-opacity:1" />
        <path
           d="M 60.21034,504.09448 C 70.140227,483.76861 75.10517,504.09448 75.10517,504.09448 C 75.10517,504.09448 65.175284,483.76861 75.10517,504.09448 C 85.03506,524.42035 90,504.09448 90,504.09448 L 90,504.09448"
           id="path3225"
           style="fill:none;fill-opacity:1;fill-rule:evenodd;stroke:#c80000;stroke-width:5;stroke-linecap:butt;stroke-linejoin:miter;stroke-miterlimit:4;stroke-dasharray:none;stroke-opacity:1" />
        <path
           d="M 90.210345,504.09448 C 100.14023,483.76861 105.10518,504.09448 105.10518,504.09448 C 105.10518,504.09448 95.175289,483.76861 105.10518,504.09448 C 115.03506,524.42035 120,504.09448 120,504.09448 L 120,504.09448"
           id="path3227"
           style="fill:none;fill-opacity:1;fill-rule:evenodd;stroke:#c80000;stroke-width:5;stroke-linecap:butt;stroke-linejoin:miter;stroke-miterlimit:4;stroke-dasharray:none;stroke-opacity:1" />
        <path
           d="M 120.56552,504.09448 C 130.4954,483.76861 135.46034,504.09448 135.46034,504.09448 C 135.46034,504.09448 125.53046,483.76861 135.46034,504.09448 C 145.39023,524.42035 150.35518,504.09448 150.35518,504.09448 L 150.35518,504.09448"
           id="path3229"
           style="fill:none;fill-opacity:1;fill-rule:evenodd;stroke:#c80000;stroke-width:5;stroke-linecap:butt;stroke-linejoin:miter;stroke-miterlimit:4;stroke-dasharray:none;stroke-opacity:1" />
      </g>
      <g
         id="g19251">
        <path
           style="fill:#c80000;fill-opacity:1;fill-rule:evenodd;stroke:none;stroke-width:5;stroke-linecap:butt;stroke-linejoin:miter;stroke-miterlimit:4;stroke-dasharray:none;stroke-opacity:1"
           d="M 148,501.59375 L 148,506.59375 L 188,506.59375 L 188,501.59375 L 148,501.59375 z"
           id="path4017" />
        <path
           style="fill:#c80000;fill-rule:evenodd;stroke:#c80000;stroke-width:2pt;marker-start:none"
           id="path19257"
           d="M 168,504.09448 L 158,514.09448 L 193,504.09448 L 158,494.09448 L 168,504.09448 z" />
      </g>
    </g>
    <g
       transform="translate(435.43448,-226)"
       id="g5635">
      <g
         id="g5637">
        <path
           d="M 29.85517,504.09448 C 39.785057,483.76861 44.75,504.09448 44.75,504.09448 C 44.75,504.09448 34.820114,483.76861 44.75,504.09448 C 54.679886,524.42035 59.64483,504.09448 59.64483,504.09448 L 59.64483,504.09448"
           id="path5639"
           style="fill:none;fill-opacity:1;fill-rule:evenodd;stroke:#c80000;stroke-width:5;stroke-linecap:butt;stroke-linejoin:miter;stroke-miterlimit:4;stroke-dasharray:none;stroke-opacity:1" />
        <path
           d="M 60.21034,504.09448 C 70.140227,483.76861 75.10517,504.09448 75.10517,504.09448 C 75.10517,504.09448 65.175284,483.76861 75.10517,504.09448 C 85.03506,524.42035 90,504.09448 90,504.09448 L 90,504.09448"
           id="path5641"
           style="fill:none;fill-opacity:1;fill-rule:evenodd;stroke:#c80000;stroke-width:5;stroke-linecap:butt;stroke-linejoin:miter;stroke-miterlimit:4;stroke-dasharray:none;stroke-opacity:1" />
        <path
           d="M 90.210345,504.09448 C 100.14023,483.76861 105.10518,504.09448 105.10518,504.09448 C 105.10518,504.09448 95.175289,483.76861 105.10518,504.09448 C 115.03506,524.42035 120,504.09448 120,504.09448 L 120,504.09448"
           id="path5643"
           style="fill:none;fill-opacity:1;fill-rule:evenodd;stroke:#c80000;stroke-width:5;stroke-linecap:butt;stroke-linejoin:miter;stroke-miterlimit:4;stroke-dasharray:none;stroke-opacity:1" />
        <path
           d="M 120.56552,504.09448 C 130.4954,483.76861 135.46034,504.09448 135.46034,504.09448 C 135.46034,504.09448 125.53046,483.76861 135.46034,504.09448 C 145.39023,524.42035 150.35518,504.09448 150.35518,504.09448 L 150.35518,504.09448"
           id="path5645"
           style="fill:none;fill-opacity:1;fill-rule:evenodd;stroke:#c80000;stroke-width:5;stroke-linecap:butt;stroke-linejoin:miter;stroke-miterlimit:4;stroke-dasharray:none;stroke-opacity:1" />
      </g>
      <g
         id="g19259">
        <path
           style="fill:#c80000;fill-opacity:1;fill-rule:evenodd;stroke:none;stroke-width:5;stroke-linecap:butt;stroke-linejoin:miter;stroke-miterlimit:4;stroke-dasharray:none;stroke-opacity:1"
           d="M 148,501.59375 L 148,506.59375 L 188,506.59375 L 188,501.59375 L 148,501.59375 z"
           id="path5647" />
        <path
           style="fill:#c80000;fill-rule:evenodd;stroke:#c80000;stroke-width:2pt;marker-start:none"
           id="path19265"
           d="M 168,504.09448 L 158,514.09448 L 193,504.09448 L 158,494.09448 L 168,504.09448 z" />
      </g>
    </g>
    <g
       transform="translate(828.53966,-266)"
       id="g5649">
      <g
         id="g5651">
        <path
           d="M 29.85517,504.09448 C 39.785057,483.76861 44.75,504.09448 44.75,504.09448 C 44.75,504.09448 34.820114,483.76861 44.75,504.09448 C 54.679886,524.42035 59.64483,504.09448 59.64483,504.09448 L 59.64483,504.09448"
           id="path5653"
           style="fill:none;fill-opacity:1;fill-rule:evenodd;stroke:#c80000;stroke-width:5;stroke-linecap:butt;stroke-linejoin:miter;stroke-miterlimit:4;stroke-dasharray:none;stroke-opacity:1" />
        <path
           d="M 60.21034,504.09448 C 70.140227,483.76861 75.10517,504.09448 75.10517,504.09448 C 75.10517,504.09448 65.175284,483.76861 75.10517,504.09448 C 85.03506,524.42035 90,504.09448 90,504.09448 L 90,504.09448"
           id="path5655"
           style="fill:none;fill-opacity:1;fill-rule:evenodd;stroke:#c80000;stroke-width:5;stroke-linecap:butt;stroke-linejoin:miter;stroke-miterlimit:4;stroke-dasharray:none;stroke-opacity:1" />
        <path
           d="M 90.210345,504.09448 C 100.14023,483.76861 105.10518,504.09448 105.10518,504.09448 C 105.10518,504.09448 95.175289,483.76861 105.10518,504.09448 C 115.03506,524.42035 120,504.09448 120,504.09448 L 120,504.09448"
           id="path5657"
           style="fill:none;fill-opacity:1;fill-rule:evenodd;stroke:#c80000;stroke-width:5;stroke-linecap:butt;stroke-linejoin:miter;stroke-miterlimit:4;stroke-dasharray:none;stroke-opacity:1" />
        <path
           d="M 120.56552,504.09448 C 130.4954,483.76861 135.46034,504.09448 135.46034,504.09448 C 135.46034,504.09448 125.53046,483.76861 135.46034,504.09448 C 145.39023,524.42035 150.35518,504.09448 150.35518,504.09448 L 150.35518,504.09448"
           id="path5659"
           style="fill:none;fill-opacity:1;fill-rule:evenodd;stroke:#c80000;stroke-width:5;stroke-linecap:butt;stroke-linejoin:miter;stroke-miterlimit:4;stroke-dasharray:none;stroke-opacity:1" />
      </g>
      <g
         id="g19267">
        <path
           style="fill:#c80000;fill-opacity:1;fill-rule:evenodd;stroke:none;stroke-width:5;stroke-linecap:butt;stroke-linejoin:miter;stroke-miterlimit:4;stroke-dasharray:none;stroke-opacity:1"
           d="M 148,501.59375 L 148,506.59375 L 188,506.59375 L 188,501.59375 L 148,501.59375 z"
           id="path5661" />
        <path
           style="fill:#c80000;fill-rule:evenodd;stroke:#c80000;stroke-width:2pt;marker-start:none"
           id="path19273"
           d="M 168,504.09448 L 158,514.09448 L 193,504.09448 L 158,494.09448 L 168,504.09448 z" />
      </g>
    </g>
    <g
       transform="translate(828.53966,-166)"
       id="g5663">
      <g
         id="g5665">
        <path
           d="M 29.85517,504.09448 C 39.785057,483.76861 44.75,504.09448 44.75,504.09448 C 44.75,504.09448 34.820114,483.76861 44.75,504.09448 C 54.679886,524.42035 59.64483,504.09448 59.64483,504.09448 L 59.64483,504.09448"
           id="path5667"
           style="fill:none;fill-opacity:1;fill-rule:evenodd;stroke:#c80000;stroke-width:5;stroke-linecap:butt;stroke-linejoin:miter;stroke-miterlimit:4;stroke-dasharray:none;stroke-opacity:1" />
        <path
           d="M 60.21034,504.09448 C 70.140227,483.76861 75.10517,504.09448 75.10517,504.09448 C 75.10517,504.09448 65.175284,483.76861 75.10517,504.09448 C 85.03506,524.42035 90,504.09448 90,504.09448 L 90,504.09448"
           id="path5669"
           style="fill:none;fill-opacity:1;fill-rule:evenodd;stroke:#c80000;stroke-width:5;stroke-linecap:butt;stroke-linejoin:miter;stroke-miterlimit:4;stroke-dasharray:none;stroke-opacity:1" />
        <path
           d="M 90.210345,504.09448 C 100.14023,483.76861 105.10518,504.09448 105.10518,504.09448 C 105.10518,504.09448 95.175289,483.76861 105.10518,504.09448 C 115.03506,524.42035 120,504.09448 120,504.09448 L 120,504.09448"
           id="path5671"
           style="fill:none;fill-opacity:1;fill-rule:evenodd;stroke:#c80000;stroke-width:5;stroke-linecap:butt;stroke-linejoin:miter;stroke-miterlimit:4;stroke-dasharray:none;stroke-opacity:1" />
        <path
           d="M 120.56552,504.09448 C 130.4954,483.76861 135.46034,504.09448 135.46034,504.09448 C 135.46034,504.09448 125.53046,483.76861 135.46034,504.09448 C 145.39023,524.42035 150.35518,504.09448 150.35518,504.09448 L 150.35518,504.09448"
           id="path5673"
           style="fill:none;fill-opacity:1;fill-rule:evenodd;stroke:#c80000;stroke-width:5;stroke-linecap:butt;stroke-linejoin:miter;stroke-miterlimit:4;stroke-dasharray:none;stroke-opacity:1" />
      </g>
      <g
         id="g19275">
        <path
           style="fill:#c80000;fill-opacity:1;fill-rule:evenodd;stroke:none;stroke-width:5;stroke-linecap:butt;stroke-linejoin:miter;stroke-miterlimit:4;stroke-dasharray:none;stroke-opacity:1"
           d="M 148,501.59375 L 148,506.59375 L 188,506.59375 L 188,501.59375 L 148,501.59375 z"
           id="path5675" />
        <path
           style="fill:#c80000;fill-rule:evenodd;stroke:#c80000;stroke-width:2pt;marker-start:none"
           id="path19281"
           d="M 168,504.09448 L 158,514.09448 L 193,504.09448 L 158,494.09448 L 168,504.09448 z" />
      </g>
    </g>
    <g
       transform="matrix(4.0364458,0,0,-5.7903168,-1036.0183,4146.9034)"
       id="g2485"
       xml:space="preserve"
       style="font-style:normal;font-variant:normal;font-weight:normal;font-stretch:normal;letter-spacing:normal;word-spacing:normal;text-anchor:start;fill:none;fill-opacity:1;fill-rule:evenodd;stroke:#000000;stroke-linecap:butt;stroke-linejoin:miter;stroke-miterlimit:10.43299961;stroke-dasharray:none;stroke-dashoffset:0;stroke-opacity:1">


















<path
   d="M 276.81578,678.45848 L 276.81578,678.45848 L 276.81578,678.45848 L 276.81578,678.45848 L 276.81578,678.45848 L 276.81578,678.45848 L 276.81578,678.46848 L 276.81578,678.46848 L 276.81578,678.46848 L 276.81578,678.47848 L 276.81578,678.47848 L 276.81578,678.48848 L 276.80578,678.48848 L 276.80578,678.49848 L 276.80578,678.49848 L 276.80578,678.50848 L 276.80578,678.50848 L 276.79578,678.51848 L 276.79578,678.51848 L 276.79578,678.52848 L 276.78578,678.52848 L 276.78578,678.52848 L 276.78578,678.53848 L 276.77578,678.53848 L 276.77578,678.53848 L 276.77578,678.53848 L 276.76578,678.54848 L 276.76578,678.54848 L 276.76578,678.54848 L 276.75578,678.54848 L 276.75578,678.54848 L 276.75578,678.54848 L 276.74578,678.55848 L 276.74578,678.55848 L 276.74578,678.55848 L 276.73578,678.55848 L 276.73578,678.55848 L 276.72578,678.55848 L 276.72578,678.55848 L 276.71578,678.55848 L 276.71578,678.56848 L 276.70578,678.56848 L 276.70578,678.56848 L 276.69578,678.56848 L 276.69578,678.56848 L 276.68578,678.56848 C 276.45578,678.56848 275.72578,678.48848 275.46578,678.46848 C 275.39578,678.45848 275.27578,678.44848 275.27578,678.26848 C 275.27578,678.14848 275.36578,678.14848 275.51578,678.14848 C 275.99578,678.14848 276.01578,678.07848 276.01578,677.97848 L 275.98578,677.77848 L 274.54578,672.03848 C 274.50578,671.89848 274.50578,671.87848 274.50578,671.81848 C 274.50578,671.58848 274.70578,671.53848 274.79578,671.53848 C 274.95578,671.53848 275.11578,671.65848 275.16578,671.79848 L 275.35578,672.55848 C 275.42578,672.85848 275.49578,673.15848 275.56578,673.45848 C 275.62578,673.67848 275.68578,673.88848 275.73578,674.11848 C 275.75578,674.17848 275.83578,674.50848 275.84578,674.56848 C 275.87578,674.65848 276.18578,675.21848 276.52578,675.48848 C 276.74578,675.64848 277.05578,675.83848 277.48578,675.83848 C 277.91578,675.83848 278.01578,675.49848 278.01578,675.13848 C 278.01578,674.59848 277.64578,673.51848 277.40578,672.90848 C 277.32578,672.67848 277.27578,672.55848 277.27578,672.35848 C 277.27578,671.88848 277.62578,671.53848 278.08578,671.53848 C 279.02578,671.53848 279.39578,672.99848 279.39578,673.07848 C 279.39578,673.17848 279.30578,673.17848 279.27578,673.17848 C 279.17578,673.17848 279.17578,673.14848 279.12578,672.99848 C 278.97578,672.46848 278.65578,671.75848 278.11578,671.75848 C 277.94578,671.75848 277.86578,671.85848 277.86578,672.08848 C 277.86578,672.33848 277.95578,672.57848 278.04578,672.79848 C 278.20578,673.22848 278.65578,674.40848 278.65578,674.98848 C 278.65578,675.63848 278.25578,676.05848 277.51578,676.05848 C 276.88578,676.05848 276.40578,675.74848 276.03578,675.28848 L 276.81578,678.45848 z"
   id="path3379"
   style="font-style:normal;font-variant:normal;font-weight:normal;font-stretch:normal;letter-spacing:normal;word-spacing:normal;text-anchor:start;fill:#c80000;fill-opacity:1;fill-rule:evenodd;stroke:#000000;stroke-width:0;stroke-linecap:butt;stroke-linejoin:miter;stroke-miterlimit:10.43299961;stroke-dasharray:none;stroke-dashoffset:0;stroke-opacity:1" /><path
   d="M 281.92578,675.94848 L 281.92578,675.94848 L 281.92578,675.94848 L 281.92578,675.94848 L 281.92578,675.94848 L 281.92578,675.94848 L 281.92578,675.95848 L 281.92578,675.95848 L 281.92578,675.95848 L 281.92578,675.96848 L 281.92578,675.96848 L 281.92578,675.97848 L 281.91578,675.97848 L 281.91578,675.98848 L 281.91578,675.98848 L 281.91578,675.99848 L 281.91578,675.99848 L 281.90578,676.00848 L 281.90578,676.00848 L 281.90578,676.00848 L 281.89578,676.01848 L 281.89578,676.01848 L 281.89578,676.02848 L 281.88578,676.02848 L 281.88578,676.02848 L 281.88578,676.02848 L 281.87578,676.02848 L 281.87578,676.03848 L 281.87578,676.03848 L 281.86578,676.03848 L 281.86578,676.03848 L 281.86578,676.03848 L 281.85578,676.04848 L 281.85578,676.04848 L 281.85578,676.04848 L 281.84578,676.04848 L 281.84578,676.04848 L 281.83578,676.04848 L 281.83578,676.04848 L 281.82578,676.04848 L 281.82578,676.04848 L 281.81578,676.04848 L 281.81578,676.05848 L 281.80578,676.05848 L 281.80578,676.05848 L 281.79578,676.05848 C 281.56578,676.05848 280.83578,675.97848 280.57578,675.95848 C 280.49578,675.94848 280.39578,675.93848 280.39578,675.75848 C 280.39578,675.63848 280.48578,675.63848 280.62578,675.63848 C 281.10578,675.63848 281.12578,675.56848 281.12578,675.46848 C 281.12578,675.39848 281.00578,674.92848 280.93578,674.65848 L 280.32578,672.21848 C 280.29578,672.06848 280.22578,671.78848 280.22578,671.76848 C 280.22578,671.65848 280.32578,671.64848 280.38578,671.64848 L 280.51578,671.64848 C 281.21578,671.76848 282.30578,672.15848 283.32578,673.11848 C 284.64578,674.33848 284.91578,675.69848 284.91578,675.78848 C 284.91578,675.95848 284.79578,676.05848 284.62578,676.05848 C 284.54578,676.05848 284.31578,676.01848 284.23578,675.72848 C 283.59578,673.46848 282.08578,672.34848 280.94578,671.97848 L 281.92578,675.94848 z"
   id="path3381"
   style="font-style:normal;font-variant:normal;font-weight:normal;font-stretch:normal;letter-spacing:normal;word-spacing:normal;text-anchor:start;fill:#c80000;fill-opacity:1;fill-rule:evenodd;stroke:#000000;stroke-width:0;stroke-linecap:butt;stroke-linejoin:miter;stroke-miterlimit:10.43299961;stroke-dasharray:none;stroke-dashoffset:0;stroke-opacity:1" /></g>    <path
       d="M 294,168.09448 C 294,179.14017 285.04569,188.09448 274,188.09448 C 262.95431,188.09448 254,179.14017 254,168.09448 C 254,157.04879 262.95431,148.09448 274,148.09448 C 285.04569,148.09448 294,157.04879 294,168.09448 z"
       id="path8153"
       style="fill:#00c800;fill-opacity:1;fill-rule:evenodd;stroke:#000000;stroke-width:2;stroke-miterlimit:4;stroke-dasharray:none;stroke-opacity:1" />
    <path
       d="M 588,168.09448 C 588,179.14017 579.04569,188.09448 568,188.09448 C 556.95431,188.09448 548,179.14017 548,168.09448 C 548,157.04879 556.95431,148.09448 568,148.09448 C 579.04569,148.09448 588,157.04879 588,168.09448 z"
       id="path8155"
       style="fill:#ffffff;fill-opacity:1;fill-rule:evenodd;stroke:#000000;stroke-width:2;stroke-miterlimit:4;stroke-dasharray:8, 8;stroke-dashoffset:0;stroke-opacity:1" />
    <path
       d="M 588,430.09448 C 588,441.14017 579.04569,450.09448 568,450.09448 C 556.95431,450.09448 548,441.14017 548,430.09448 C 548,419.04879 556.95431,410.09448 568,410.09448 C 579.04569,410.09448 588,419.04879 588,430.09448 z"
       id="path8157"
       style="fill:#00c800;fill-opacity:1;fill-rule:evenodd;stroke:#000000;stroke-width:2;stroke-miterlimit:4;stroke-dasharray:none;stroke-opacity:1" />
    <path
       d="M 888,428.09448 C 888,439.14017 879.04569,448.09448 868,448.09448 C 856.95431,448.09448 848,439.14017 848,428.09448 C 848,417.04879 856.95431,408.09448 868,408.09448 C 879.04569,408.09448 888,417.04879 888,428.09448 z"
       id="path8159"
       style="fill:#00c800;fill-opacity:1;fill-rule:evenodd;stroke:#000000;stroke-width:2;stroke-miterlimit:4;stroke-dasharray:none;stroke-opacity:1" />
    <g
       transform="matrix(4.0364458,0,0,-5.7903168,-604.18916,4147.221)"
       id="g10992"
       xml:space="preserve"
       style="font-style:normal;font-variant:normal;font-weight:normal;font-stretch:normal;letter-spacing:normal;word-spacing:normal;text-anchor:start;fill:none;fill-opacity:1;fill-rule:evenodd;stroke:#000000;stroke-linecap:butt;stroke-linejoin:miter;stroke-miterlimit:10.43299961;stroke-dasharray:none;stroke-dashoffset:0;stroke-opacity:1">


















<path
   d="M 276.81578,678.45848 L 276.81578,678.45848 L 276.81578,678.45848 L 276.81578,678.45848 L 276.81578,678.45848 L 276.81578,678.45848 L 276.81578,678.46848 L 276.81578,678.46848 L 276.81578,678.46848 L 276.81578,678.47848 L 276.81578,678.47848 L 276.81578,678.48848 L 276.80578,678.48848 L 276.80578,678.49848 L 276.80578,678.49848 L 276.80578,678.50848 L 276.80578,678.50848 L 276.79578,678.51848 L 276.79578,678.51848 L 276.79578,678.52848 L 276.78578,678.52848 L 276.78578,678.52848 L 276.78578,678.53848 L 276.77578,678.53848 L 276.77578,678.53848 L 276.77578,678.53848 L 276.76578,678.54848 L 276.76578,678.54848 L 276.76578,678.54848 L 276.75578,678.54848 L 276.75578,678.54848 L 276.75578,678.54848 L 276.74578,678.55848 L 276.74578,678.55848 L 276.74578,678.55848 L 276.73578,678.55848 L 276.73578,678.55848 L 276.72578,678.55848 L 276.72578,678.55848 L 276.71578,678.55848 L 276.71578,678.56848 L 276.70578,678.56848 L 276.70578,678.56848 L 276.69578,678.56848 L 276.69578,678.56848 L 276.68578,678.56848 C 276.45578,678.56848 275.72578,678.48848 275.46578,678.46848 C 275.39578,678.45848 275.27578,678.44848 275.27578,678.26848 C 275.27578,678.14848 275.36578,678.14848 275.51578,678.14848 C 275.99578,678.14848 276.01578,678.07848 276.01578,677.97848 L 275.98578,677.77848 L 274.54578,672.03848 C 274.50578,671.89848 274.50578,671.87848 274.50578,671.81848 C 274.50578,671.58848 274.70578,671.53848 274.79578,671.53848 C 274.95578,671.53848 275.11578,671.65848 275.16578,671.79848 L 275.35578,672.55848 C 275.42578,672.85848 275.49578,673.15848 275.56578,673.45848 C 275.62578,673.67848 275.68578,673.88848 275.73578,674.11848 C 275.75578,674.17848 275.83578,674.50848 275.84578,674.56848 C 275.87578,674.65848 276.18578,675.21848 276.52578,675.48848 C 276.74578,675.64848 277.05578,675.83848 277.48578,675.83848 C 277.91578,675.83848 278.01578,675.49848 278.01578,675.13848 C 278.01578,674.59848 277.64578,673.51848 277.40578,672.90848 C 277.32578,672.67848 277.27578,672.55848 277.27578,672.35848 C 277.27578,671.88848 277.62578,671.53848 278.08578,671.53848 C 279.02578,671.53848 279.39578,672.99848 279.39578,673.07848 C 279.39578,673.17848 279.30578,673.17848 279.27578,673.17848 C 279.17578,673.17848 279.17578,673.14848 279.12578,672.99848 C 278.97578,672.46848 278.65578,671.75848 278.11578,671.75848 C 277.94578,671.75848 277.86578,671.85848 277.86578,672.08848 C 277.86578,672.33848 277.95578,672.57848 278.04578,672.79848 C 278.20578,673.22848 278.65578,674.40848 278.65578,674.98848 C 278.65578,675.63848 278.25578,676.05848 277.51578,676.05848 C 276.88578,676.05848 276.40578,675.74848 276.03578,675.28848 L 276.81578,678.45848 z"
   id="path10994"
   style="font-style:normal;font-variant:normal;font-weight:normal;font-stretch:normal;letter-spacing:normal;word-spacing:normal;text-anchor:start;fill:#c80000;fill-opacity:1;fill-rule:evenodd;stroke:#000000;stroke-width:0;stroke-linecap:butt;stroke-linejoin:miter;stroke-miterlimit:10.43299961;stroke-dasharray:none;stroke-dashoffset:0;stroke-opacity:1" /><path
   d="M 281.92578,675.94848 L 281.92578,675.94848 L 281.92578,675.94848 L 281.92578,675.94848 L 281.92578,675.94848 L 281.92578,675.94848 L 281.92578,675.95848 L 281.92578,675.95848 L 281.92578,675.95848 L 281.92578,675.96848 L 281.92578,675.96848 L 281.92578,675.97848 L 281.91578,675.97848 L 281.91578,675.98848 L 281.91578,675.98848 L 281.91578,675.99848 L 281.91578,675.99848 L 281.90578,676.00848 L 281.90578,676.00848 L 281.90578,676.00848 L 281.89578,676.01848 L 281.89578,676.01848 L 281.89578,676.02848 L 281.88578,676.02848 L 281.88578,676.02848 L 281.88578,676.02848 L 281.87578,676.02848 L 281.87578,676.03848 L 281.87578,676.03848 L 281.86578,676.03848 L 281.86578,676.03848 L 281.86578,676.03848 L 281.85578,676.04848 L 281.85578,676.04848 L 281.85578,676.04848 L 281.84578,676.04848 L 281.84578,676.04848 L 281.83578,676.04848 L 281.83578,676.04848 L 281.82578,676.04848 L 281.82578,676.04848 L 281.81578,676.04848 L 281.81578,676.05848 L 281.80578,676.05848 L 281.80578,676.05848 L 281.79578,676.05848 C 281.56578,676.05848 280.83578,675.97848 280.57578,675.95848 C 280.49578,675.94848 280.39578,675.93848 280.39578,675.75848 C 280.39578,675.63848 280.48578,675.63848 280.62578,675.63848 C 281.10578,675.63848 281.12578,675.56848 281.12578,675.46848 C 281.12578,675.39848 281.00578,674.92848 280.93578,674.65848 L 280.32578,672.21848 C 280.29578,672.06848 280.22578,671.78848 280.22578,671.76848 C 280.22578,671.65848 280.32578,671.64848 280.38578,671.64848 L 280.51578,671.64848 C 281.21578,671.76848 282.30578,672.15848 283.32578,673.11848 C 284.64578,674.33848 284.91578,675.69848 284.91578,675.78848 C 284.91578,675.95848 284.79578,676.05848 284.62578,676.05848 C 284.54578,676.05848 284.31578,676.01848 284.23578,675.72848 C 283.59578,673.46848 282.08578,672.34848 280.94578,671.97848 L 281.92578,675.94848 z"
   id="path10996"
   style="font-style:normal;font-variant:normal;font-weight:normal;font-stretch:normal;letter-spacing:normal;word-spacing:normal;text-anchor:start;fill:#c80000;fill-opacity:1;fill-rule:evenodd;stroke:#000000;stroke-width:0;stroke-linecap:butt;stroke-linejoin:miter;stroke-miterlimit:10.43299961;stroke-dasharray:none;stroke-dashoffset:0;stroke-opacity:1" /></g>    <g
       transform="matrix(4.0364458,0,0,-5.7903168,-204.18916,4111.152)"
       id="g10998"
       xml:space="preserve"
       style="font-style:normal;font-variant:normal;font-weight:normal;font-stretch:normal;letter-spacing:normal;word-spacing:normal;text-anchor:start;fill:none;fill-opacity:1;fill-rule:evenodd;stroke:#000000;stroke-linecap:butt;stroke-linejoin:miter;stroke-miterlimit:10.43299961;stroke-dasharray:none;stroke-dashoffset:0;stroke-opacity:1">


















<path
   d="M 276.81578,678.45848 L 276.81578,678.45848 L 276.81578,678.45848 L 276.81578,678.45848 L 276.81578,678.45848 L 276.81578,678.45848 L 276.81578,678.46848 L 276.81578,678.46848 L 276.81578,678.46848 L 276.81578,678.47848 L 276.81578,678.47848 L 276.81578,678.48848 L 276.80578,678.48848 L 276.80578,678.49848 L 276.80578,678.49848 L 276.80578,678.50848 L 276.80578,678.50848 L 276.79578,678.51848 L 276.79578,678.51848 L 276.79578,678.52848 L 276.78578,678.52848 L 276.78578,678.52848 L 276.78578,678.53848 L 276.77578,678.53848 L 276.77578,678.53848 L 276.77578,678.53848 L 276.76578,678.54848 L 276.76578,678.54848 L 276.76578,678.54848 L 276.75578,678.54848 L 276.75578,678.54848 L 276.75578,678.54848 L 276.74578,678.55848 L 276.74578,678.55848 L 276.74578,678.55848 L 276.73578,678.55848 L 276.73578,678.55848 L 276.72578,678.55848 L 276.72578,678.55848 L 276.71578,678.55848 L 276.71578,678.56848 L 276.70578,678.56848 L 276.70578,678.56848 L 276.69578,678.56848 L 276.69578,678.56848 L 276.68578,678.56848 C 276.45578,678.56848 275.72578,678.48848 275.46578,678.46848 C 275.39578,678.45848 275.27578,678.44848 275.27578,678.26848 C 275.27578,678.14848 275.36578,678.14848 275.51578,678.14848 C 275.99578,678.14848 276.01578,678.07848 276.01578,677.97848 L 275.98578,677.77848 L 274.54578,672.03848 C 274.50578,671.89848 274.50578,671.87848 274.50578,671.81848 C 274.50578,671.58848 274.70578,671.53848 274.79578,671.53848 C 274.95578,671.53848 275.11578,671.65848 275.16578,671.79848 L 275.35578,672.55848 C 275.42578,672.85848 275.49578,673.15848 275.56578,673.45848 C 275.62578,673.67848 275.68578,673.88848 275.73578,674.11848 C 275.75578,674.17848 275.83578,674.50848 275.84578,674.56848 C 275.87578,674.65848 276.18578,675.21848 276.52578,675.48848 C 276.74578,675.64848 277.05578,675.83848 277.48578,675.83848 C 277.91578,675.83848 278.01578,675.49848 278.01578,675.13848 C 278.01578,674.59848 277.64578,673.51848 277.40578,672.90848 C 277.32578,672.67848 277.27578,672.55848 277.27578,672.35848 C 277.27578,671.88848 277.62578,671.53848 278.08578,671.53848 C 279.02578,671.53848 279.39578,672.99848 279.39578,673.07848 C 279.39578,673.17848 279.30578,673.17848 279.27578,673.17848 C 279.17578,673.17848 279.17578,673.14848 279.12578,672.99848 C 278.97578,672.46848 278.65578,671.75848 278.11578,671.75848 C 277.94578,671.75848 277.86578,671.85848 277.86578,672.08848 C 277.86578,672.33848 277.95578,672.57848 278.04578,672.79848 C 278.20578,673.22848 278.65578,674.40848 278.65578,674.98848 C 278.65578,675.63848 278.25578,676.05848 277.51578,676.05848 C 276.88578,676.05848 276.40578,675.74848 276.03578,675.28848 L 276.81578,678.45848 z"
   id="path11000"
   style="font-style:normal;font-variant:normal;font-weight:normal;font-stretch:normal;letter-spacing:normal;word-spacing:normal;text-anchor:start;fill:#c80000;fill-opacity:1;fill-rule:evenodd;stroke:#000000;stroke-width:0;stroke-linecap:butt;stroke-linejoin:miter;stroke-miterlimit:10.43299961;stroke-dasharray:none;stroke-dashoffset:0;stroke-opacity:1" /><path
   d="M 281.92578,675.94848 L 281.92578,675.94848 L 281.92578,675.94848 L 281.92578,675.94848 L 281.92578,675.94848 L 281.92578,675.94848 L 281.92578,675.95848 L 281.92578,675.95848 L 281.92578,675.95848 L 281.92578,675.96848 L 281.92578,675.96848 L 281.92578,675.97848 L 281.91578,675.97848 L 281.91578,675.98848 L 281.91578,675.98848 L 281.91578,675.99848 L 281.91578,675.99848 L 281.90578,676.00848 L 281.90578,676.00848 L 281.90578,676.00848 L 281.89578,676.01848 L 281.89578,676.01848 L 281.89578,676.02848 L 281.88578,676.02848 L 281.88578,676.02848 L 281.88578,676.02848 L 281.87578,676.02848 L 281.87578,676.03848 L 281.87578,676.03848 L 281.86578,676.03848 L 281.86578,676.03848 L 281.86578,676.03848 L 281.85578,676.04848 L 281.85578,676.04848 L 281.85578,676.04848 L 281.84578,676.04848 L 281.84578,676.04848 L 281.83578,676.04848 L 281.83578,676.04848 L 281.82578,676.04848 L 281.82578,676.04848 L 281.81578,676.04848 L 281.81578,676.05848 L 281.80578,676.05848 L 281.80578,676.05848 L 281.79578,676.05848 C 281.56578,676.05848 280.83578,675.97848 280.57578,675.95848 C 280.49578,675.94848 280.39578,675.93848 280.39578,675.75848 C 280.39578,675.63848 280.48578,675.63848 280.62578,675.63848 C 281.10578,675.63848 281.12578,675.56848 281.12578,675.46848 C 281.12578,675.39848 281.00578,674.92848 280.93578,674.65848 L 280.32578,672.21848 C 280.29578,672.06848 280.22578,671.78848 280.22578,671.76848 C 280.22578,671.65848 280.32578,671.64848 280.38578,671.64848 L 280.51578,671.64848 C 281.21578,671.76848 282.30578,672.15848 283.32578,673.11848 C 284.64578,674.33848 284.91578,675.69848 284.91578,675.78848 C 284.91578,675.95848 284.79578,676.05848 284.62578,676.05848 C 284.54578,676.05848 284.31578,676.01848 284.23578,675.72848 C 283.59578,673.46848 282.08578,672.34848 280.94578,671.97848 L 281.92578,675.94848 z"
   id="path11002"
   style="font-style:normal;font-variant:normal;font-weight:normal;font-stretch:normal;letter-spacing:normal;word-spacing:normal;text-anchor:start;fill:#c80000;fill-opacity:1;fill-rule:evenodd;stroke:#000000;stroke-width:0;stroke-linecap:butt;stroke-linejoin:miter;stroke-miterlimit:10.43299961;stroke-dasharray:none;stroke-dashoffset:0;stroke-opacity:1" /></g>    <g
       transform="matrix(4.0364458,0,0,-5.7903168,-209.0374,4210.868)"
       id="g11004"
       xml:space="preserve"
       style="font-style:normal;font-variant:normal;font-weight:normal;font-stretch:normal;letter-spacing:normal;word-spacing:normal;text-anchor:start;fill:none;fill-opacity:1;fill-rule:evenodd;stroke:#000000;stroke-linecap:butt;stroke-linejoin:miter;stroke-miterlimit:10.43299961;stroke-dasharray:none;stroke-dashoffset:0;stroke-opacity:1">


















<path
   d="M 276.81578,678.45848 L 276.81578,678.45848 L 276.81578,678.45848 L 276.81578,678.45848 L 276.81578,678.45848 L 276.81578,678.45848 L 276.81578,678.46848 L 276.81578,678.46848 L 276.81578,678.46848 L 276.81578,678.47848 L 276.81578,678.47848 L 276.81578,678.48848 L 276.80578,678.48848 L 276.80578,678.49848 L 276.80578,678.49848 L 276.80578,678.50848 L 276.80578,678.50848 L 276.79578,678.51848 L 276.79578,678.51848 L 276.79578,678.52848 L 276.78578,678.52848 L 276.78578,678.52848 L 276.78578,678.53848 L 276.77578,678.53848 L 276.77578,678.53848 L 276.77578,678.53848 L 276.76578,678.54848 L 276.76578,678.54848 L 276.76578,678.54848 L 276.75578,678.54848 L 276.75578,678.54848 L 276.75578,678.54848 L 276.74578,678.55848 L 276.74578,678.55848 L 276.74578,678.55848 L 276.73578,678.55848 L 276.73578,678.55848 L 276.72578,678.55848 L 276.72578,678.55848 L 276.71578,678.55848 L 276.71578,678.56848 L 276.70578,678.56848 L 276.70578,678.56848 L 276.69578,678.56848 L 276.69578,678.56848 L 276.68578,678.56848 C 276.45578,678.56848 275.72578,678.48848 275.46578,678.46848 C 275.39578,678.45848 275.27578,678.44848 275.27578,678.26848 C 275.27578,678.14848 275.36578,678.14848 275.51578,678.14848 C 275.99578,678.14848 276.01578,678.07848 276.01578,677.97848 L 275.98578,677.77848 L 274.54578,672.03848 C 274.50578,671.89848 274.50578,671.87848 274.50578,671.81848 C 274.50578,671.58848 274.70578,671.53848 274.79578,671.53848 C 274.95578,671.53848 275.11578,671.65848 275.16578,671.79848 L 275.35578,672.55848 C 275.42578,672.85848 275.49578,673.15848 275.56578,673.45848 C 275.62578,673.67848 275.68578,673.88848 275.73578,674.11848 C 275.75578,674.17848 275.83578,674.50848 275.84578,674.56848 C 275.87578,674.65848 276.18578,675.21848 276.52578,675.48848 C 276.74578,675.64848 277.05578,675.83848 277.48578,675.83848 C 277.91578,675.83848 278.01578,675.49848 278.01578,675.13848 C 278.01578,674.59848 277.64578,673.51848 277.40578,672.90848 C 277.32578,672.67848 277.27578,672.55848 277.27578,672.35848 C 277.27578,671.88848 277.62578,671.53848 278.08578,671.53848 C 279.02578,671.53848 279.39578,672.99848 279.39578,673.07848 C 279.39578,673.17848 279.30578,673.17848 279.27578,673.17848 C 279.17578,673.17848 279.17578,673.14848 279.12578,672.99848 C 278.97578,672.46848 278.65578,671.75848 278.11578,671.75848 C 277.94578,671.75848 277.86578,671.85848 277.86578,672.08848 C 277.86578,672.33848 277.95578,672.57848 278.04578,672.79848 C 278.20578,673.22848 278.65578,674.40848 278.65578,674.98848 C 278.65578,675.63848 278.25578,676.05848 277.51578,676.05848 C 276.88578,676.05848 276.40578,675.74848 276.03578,675.28848 L 276.81578,678.45848 z"
   id="path11006"
   style="font-style:normal;font-variant:normal;font-weight:normal;font-stretch:normal;letter-spacing:normal;word-spacing:normal;text-anchor:start;fill:#c80000;fill-opacity:1;fill-rule:evenodd;stroke:#000000;stroke-width:0;stroke-linecap:butt;stroke-linejoin:miter;stroke-miterlimit:10.43299961;stroke-dasharray:none;stroke-dashoffset:0;stroke-opacity:1" /><path
   d="M 281.92578,675.94848 L 281.92578,675.94848 L 281.92578,675.94848 L 281.92578,675.94848 L 281.92578,675.94848 L 281.92578,675.94848 L 281.92578,675.95848 L 281.92578,675.95848 L 281.92578,675.95848 L 281.92578,675.96848 L 281.92578,675.96848 L 281.92578,675.97848 L 281.91578,675.97848 L 281.91578,675.98848 L 281.91578,675.98848 L 281.91578,675.99848 L 281.91578,675.99848 L 281.90578,676.00848 L 281.90578,676.00848 L 281.90578,676.00848 L 281.89578,676.01848 L 281.89578,676.01848 L 281.89578,676.02848 L 281.88578,676.02848 L 281.88578,676.02848 L 281.88578,676.02848 L 281.87578,676.02848 L 281.87578,676.03848 L 281.87578,676.03848 L 281.86578,676.03848 L 281.86578,676.03848 L 281.86578,676.03848 L 281.85578,676.04848 L 281.85578,676.04848 L 281.85578,676.04848 L 281.84578,676.04848 L 281.84578,676.04848 L 281.83578,676.04848 L 281.83578,676.04848 L 281.82578,676.04848 L 281.82578,676.04848 L 281.81578,676.04848 L 281.81578,676.05848 L 281.80578,676.05848 L 281.80578,676.05848 L 281.79578,676.05848 C 281.56578,676.05848 280.83578,675.97848 280.57578,675.95848 C 280.49578,675.94848 280.39578,675.93848 280.39578,675.75848 C 280.39578,675.63848 280.48578,675.63848 280.62578,675.63848 C 281.10578,675.63848 281.12578,675.56848 281.12578,675.46848 C 281.12578,675.39848 281.00578,674.92848 280.93578,674.65848 L 280.32578,672.21848 C 280.29578,672.06848 280.22578,671.78848 280.22578,671.76848 C 280.22578,671.65848 280.32578,671.64848 280.38578,671.64848 L 280.51578,671.64848 C 281.21578,671.76848 282.30578,672.15848 283.32578,673.11848 C 284.64578,674.33848 284.91578,675.69848 284.91578,675.78848 C 284.91578,675.95848 284.79578,676.05848 284.62578,676.05848 C 284.54578,676.05848 284.31578,676.01848 284.23578,675.72848 C 283.59578,673.46848 282.08578,672.34848 280.94578,671.97848 L 281.92578,675.94848 z"
   id="path11008"
   style="font-style:normal;font-variant:normal;font-weight:normal;font-stretch:normal;letter-spacing:normal;word-spacing:normal;text-anchor:start;fill:#c80000;fill-opacity:1;fill-rule:evenodd;stroke:#000000;stroke-width:0;stroke-linecap:butt;stroke-linejoin:miter;stroke-miterlimit:10.43299961;stroke-dasharray:none;stroke-dashoffset:0;stroke-opacity:1" /></g>    <text
       x="514.44952"
       y="89.729897"
       transform="scale(1.0185644,0.9817739)"
       id="text11086"
       xml:space="preserve"
       style="font-size:28px;font-style:normal;font-variant:normal;font-weight:bold;font-stretch:normal;text-align:start;line-height:125%;writing-mode:lr-tb;text-anchor:start;fill:#000000;fill-opacity:1;stroke:none;stroke-width:1px;stroke-linecap:butt;stroke-linejoin:miter;stroke-opacity:1;font-family:Helvetica;-inkscape-font-specification:Helvetica Bold"
       sodipodi:linespacing="125%"><tspan
         x="514.44952"
         y="89.729897"
         id="tspan11088"><tspan
           x="514.44952"
           y="89.729897"
           id="tspan11090"
           style="font-size:28px;font-style:normal;font-variant:normal;font-weight:bold;font-stretch:normal;text-align:start;line-height:125%;writing-mode:lr-tb;text-anchor:start;font-family:Helvetica;-inkscape-font-specification:Helvetica Bold">During </tspan></tspan><tspan
         x="499.14761"
         y="124.09199"
         id="tspan11092"><tspan
           x="499.14761"
           y="124.09199"
           id="tspan11094"
           style="font-size:28px;font-style:normal;font-variant:normal;font-weight:bold;font-stretch:normal;text-align:start;line-height:125%;writing-mode:lr-tb;text-anchor:start;font-family:Helvetica;-inkscape-font-specification:Helvetica Bold">emission </tspan></tspan></text>
    <text
       x="831.11133"
       y="88.479248"
       id="text11110"
       xml:space="preserve"
       style="font-size:28px;font-style:normal;font-variant:normal;font-weight:bold;font-stretch:normal;text-align:start;line-height:125%;writing-mode:lr-tb;text-anchor:start;fill:#000000;fill-opacity:1;stroke:none;stroke-width:1px;stroke-linecap:butt;stroke-linejoin:miter;stroke-opacity:1;font-family:Helvetica;-inkscape-font-specification:Helvetica Bold"
       sodipodi:linespacing="125%"><tspan
         x="831.11133"
         y="88.479248"
         id="tspan11112"><tspan
           x="831.11133"
           y="88.479248"
           id="tspan11114"
           style="font-size:28px;font-style:normal;font-variant:normal;font-weight:bold;font-stretch:normal;text-align:start;line-height:125%;writing-mode:lr-tb;text-anchor:start;font-family:Helvetica;-inkscape-font-specification:Helvetica Bold">After </tspan></tspan><tspan
         x="803.11133"
         y="123.47925"
         id="tspan11116"><tspan
           x="803.11133"
           y="123.47925"
           id="tspan11118"
           style="font-size:28px;font-style:normal;font-variant:normal;font-weight:bold;font-stretch:normal;text-align:start;line-height:125%;writing-mode:lr-tb;text-anchor:start;font-family:Helvetica;-inkscape-font-specification:Helvetica Bold">emission </tspan></tspan></text>
    <text
       x="815.1582"
       y="488.13745"
       id="text11124"
       xml:space="preserve"
       style="font-size:28px;font-style:italic;font-variant:normal;font-weight:bold;font-stretch:normal;text-align:start;line-height:125%;writing-mode:lr-tb;text-anchor:start;fill:#000000;fill-opacity:1;stroke:none;stroke-width:1px;stroke-linecap:butt;stroke-linejoin:miter;stroke-opacity:1;font-family:Helvetica;-inkscape-font-specification:Helvetica Bold Italic"
       sodipodi:linespacing="125%"><tspan
         x="815.1582"
         y="488.13745"
         id="tspan11126"><tspan
           x="815.1582"
           y="488.13745"
           id="tspan11128"
           style="font-size:28px;font-style:italic;font-variant:normal;font-weight:bold;font-stretch:normal;text-align:start;line-height:125%;writing-mode:lr-tb;text-anchor:start;font-family:Helvetica;-inkscape-font-specification:Helvetica Bold Italic">Atom in </tspan></tspan><tspan
         x="782.42773"
         y="523.13745"
         id="tspan11130"><tspan
           x="782.42773"
           y="523.13745"
           id="tspan11132"
           style="font-size:28px;font-style:italic;font-variant:normal;font-weight:bold;font-stretch:normal;text-align:start;line-height:125%;writing-mode:lr-tb;text-anchor:start;font-family:Helvetica;-inkscape-font-specification:Helvetica Bold Italic">ground state</tspan></tspan></text>
    <text
       x="20.823801"
       y="288.42844"
       transform="scale(0.6688375,1.4951314)"
       id="text11144"
       xml:space="preserve"
       style="font-size:36px;font-style:normal;font-variant:normal;font-weight:bold;font-stretch:normal;text-align:start;line-height:125%;writing-mode:lr-tb;text-anchor:start;fill:#000000;fill-opacity:1;stroke:none;stroke-width:1px;stroke-linecap:butt;stroke-linejoin:miter;stroke-opacity:1;font-family:Helvetica;-inkscape-font-specification:Helvetica Bold"
       sodipodi:linespacing="125%"><tspan
         x="20.823801"
         y="288.42844"
         id="tspan11146"><tspan
           x="20.823801"
           y="288.42844"
           id="tspan11148"
           style="font-size:36px;font-style:normal;font-variant:normal;font-weight:bold;font-stretch:normal;text-align:start;line-height:125%;writing-mode:lr-tb;text-anchor:start;font-family:Helvetica;-inkscape-font-specification:Helvetica Bold">Ground level</tspan></tspan></text>
    <text
       x="15.210945"
       y="116.61506"
       transform="scale(0.6666667,1.5)"
       id="text11150"
       xml:space="preserve"
       style="font-size:36px;font-style:normal;font-variant:normal;font-weight:bold;font-stretch:normal;text-align:start;line-height:125%;writing-mode:lr-tb;text-anchor:start;fill:#000000;fill-opacity:1;stroke:none;stroke-width:1px;stroke-linecap:butt;stroke-linejoin:miter;stroke-opacity:1;font-family:Helvetica;-inkscape-font-specification:Helvetica Bold"
       sodipodi:linespacing="125%"><tspan
         x="15.210945"
         y="116.61506"
         id="tspan11152"><tspan
           x="15.210945"
           y="116.61506"
           id="tspan11154"
           style="font-size:36px;font-style:normal;font-variant:normal;font-weight:bold;font-stretch:normal;text-align:start;line-height:125%;writing-mode:lr-tb;text-anchor:start;font-family:Helvetica;-inkscape-font-specification:Helvetica Bold">Excited level</tspan></tspan></text>
    <text
       x="41.80621"
       y="231.4447"
       transform="scale(0.6936767,1.4415937)"
       id="text11156"
       xml:space="preserve"
       style="font-size:28.83187294px;font-style:italic;font-variant:normal;font-weight:normal;font-stretch:normal;text-align:start;line-height:125%;writing-mode:lr-tb;text-anchor:start;fill:#c80000;fill-opacity:1;stroke:#c80000;stroke-width:1px;stroke-linecap:butt;stroke-linejoin:miter;stroke-opacity:1;font-family:Arial;-inkscape-font-specification:Arial Italic"
       sodipodi:linespacing="125%"><tspan
         x="41.80621"
         y="231.4447"
         id="tspan11158"
         style="stroke-width:1"><tspan
           x="41.80621"
           y="231.4447"
           id="tspan11160"
           style="font-size:31.71506119px;fill:#c80000;fill-opacity:1;stroke:#c80000;stroke-width:1;stroke-opacity:1">Incident photon </tspan></tspan></text>
    <text
       x="225.12387"
       y="90.554741"
       transform="scale(1.0185644,0.9817739)"
       id="text11222"
       xml:space="preserve"
       style="font-size:28px;font-style:normal;font-variant:normal;font-weight:bold;font-stretch:normal;text-align:start;line-height:125%;writing-mode:lr-tb;text-anchor:start;fill:#000000;fill-opacity:1;stroke:none;stroke-width:1px;stroke-linecap:butt;stroke-linejoin:miter;stroke-opacity:1;font-family:Helvetica;-inkscape-font-specification:Helvetica Bold"
       sodipodi:linespacing="125%"><tspan
         x="225.12387"
         y="90.554741"
         id="tspan11224"><tspan
           x="225.12387"
           y="90.554741"
           id="tspan11226"
           style="font-size:28px;font-style:normal;font-variant:normal;font-weight:bold;font-stretch:normal;text-align:start;line-height:125%;writing-mode:lr-tb;text-anchor:start;font-family:Helvetica;-inkscape-font-specification:Helvetica Bold">Before </tspan></tspan><tspan
         x="209.82211"
         y="124.9168"
         id="tspan11228"><tspan
           x="209.82211"
           y="124.9168"
           id="tspan11230"
           style="font-size:28px;font-style:normal;font-variant:normal;font-weight:bold;font-stretch:normal;text-align:start;line-height:125%;writing-mode:lr-tb;text-anchor:start;font-family:Helvetica;-inkscape-font-specification:Helvetica Bold">emission </tspan></tspan></text>
    <text
       x="224"
       y="488.09448"
       id="text11252"
       xml:space="preserve"
       style="font-size:28px;font-style:italic;font-variant:normal;font-weight:bold;font-stretch:normal;text-align:start;line-height:125%;writing-mode:lr-tb;text-anchor:start;fill:#000000;fill-opacity:1;stroke:none;stroke-width:1px;stroke-linecap:butt;stroke-linejoin:miter;stroke-opacity:1;font-family:Helvetica;-inkscape-font-specification:Helvetica Bold Italic"
       sodipodi:linespacing="125%"><tspan
         x="224"
         y="488.09448"
         id="tspan11254"><tspan
           x="224"
           y="488.09448"
           id="tspan11256"
           style="font-size:28px;font-style:italic;font-variant:normal;font-weight:bold;font-stretch:normal;text-align:start;line-height:125%;writing-mode:lr-tb;text-anchor:start;font-family:Helvetica;-inkscape-font-specification:Helvetica Bold Italic">Atom in </tspan></tspan><tspan
         x="191.26953"
         y="523.09448"
         id="tspan11258"><tspan
           x="191.26953"
           y="523.09448"
           id="tspan11260"
           style="font-size:28px;font-style:italic;font-variant:normal;font-weight:bold;font-stretch:normal;text-align:start;line-height:125%;writing-mode:lr-tb;text-anchor:start;font-family:Helvetica;-inkscape-font-specification:Helvetica Bold Italic">excited state</tspan></tspan></text>
    <g
       id="g18058"
       transform="translate(4,4)">
      <path
         d="M 299,164.09375 L 299,424.09375 L 301,424.09375 L 301,164.09375 L 299,164.09375 z"
         id="path15231"
         style="fill:#000000;fill-opacity:1;fill-rule:evenodd;stroke:none;stroke-width:2;stroke-linecap:butt;stroke-linejoin:miter;stroke-miterlimit:4;stroke-dasharray:none;stroke-opacity:1" />
      <path
         style="fill:#000000;fill-opacity:1;fill-rule:evenodd;stroke:none;stroke-width:0.8pt;stroke-opacity:1"
         d="M 300,160.28125 L 299.53125,161.96875 L 295.53125,175.96875 L 295,177.8125 L 296.34375,176.4375 L 300,172.78125 L 303.65625,176.4375 L 305,177.8125 L 304.46875,175.96875 L 300.46875,161.96875 L 300,160.28125 z M 300,163.875 L 303.03125,174.4375 L 300.34375,171.75 L 300,171.375 L 299.65625,171.75 L 296.96875,174.4375 L 300,163.875 z"
         id="path18064" />
      <path
         style="fill:#000000;fill-opacity:1;fill-rule:evenodd;stroke:none;stroke-width:0.8pt;stroke-opacity:1"
         d="M 295,410.375 L 295.53125,412.21875 L 299.53125,426.21875 L 300,427.90625 L 300.46875,426.21875 L 304.46875,412.21875 L 305,410.375 L 303.65625,411.75 L 300,415.40625 L 296.34375,411.75 L 295,410.375 z M 296.96875,413.75 L 299.65625,416.4375 L 300,416.8125 L 300.34375,416.4375 L 303.03125,413.75 L 300,424.3125 L 296.96875,413.75 z"
         id="path18066" />
    </g>
    <g
       id="g18050"
       transform="translate(4,4)">
      <path
         d="M 561.5,184.09375 L 561.5,404.09375 L 566.5,404.09375 L 566.5,184.09375 L 561.5,184.09375 z"
         id="path16359"
         style="fill:#000000;fill-opacity:1;fill-rule:evenodd;stroke:none;stroke-width:5;stroke-linecap:butt;stroke-linejoin:miter;stroke-miterlimit:4;stroke-dasharray:none;stroke-opacity:1" />
      <path
         d="M 576.10121,377.93872 L 564.04804,410.71635 L 551.99488,377.93871 C 559.11106,383.17521 568.84723,383.14504 576.10121,377.93872 z"
         id="path18056"
         style="font-size:12px;fill-rule:evenodd;stroke-width:0.625;stroke-linejoin:round" />
    </g>
    <g
       xml:space="preserve"
       transform="matrix(5.5967555,0,0,-5.5967555,-950.5098,4548.9386)"
       style="font-style:normal;font-variant:normal;font-weight:normal;font-stretch:normal;letter-spacing:normal;word-spacing:normal;text-anchor:start;fill:none;fill-opacity:1;fill-rule:evenodd;stroke:#000000;stroke-linecap:butt;stroke-linejoin:miter;stroke-miterlimit:10.43299961;stroke-dasharray:none;stroke-dashoffset:0;stroke-opacity:1"
       ns1:text="$E_2-E_1=\\Delta E = h\\nu$"
       ns1:preamble=""
       id="g19455">
<path
   d="M 230.49,709.44 L 230.49,709.45 L 230.49,709.45 L 230.49,709.46 L 230.5,709.47 L 230.5,709.48 L 230.51,709.49 L 230.51,709.5 L 230.51,709.51 L 230.52,709.52 L 230.52,709.53 L 230.52,709.53 L 230.52,709.54 L 230.53,709.54 L 230.53,709.55 L 230.53,709.55 L 230.53,709.56 L 230.53,709.56 L 230.53,709.56 L 230.53,709.57 L 230.53,709.57 L 230.53,709.57 L 230.54,709.58 L 230.54,709.58 L 230.54,709.58 L 230.54,709.58 C 230.54,709.59 230.54,709.69 230.42,709.69 C 230.33,709.69 230.31,709.63 230.29,709.57 C 229.64,708.1 229.27,707.43 227.57,707.43 L 226.11,707.43 C 225.97,707.43 225.95,707.43 225.89,707.44 C 225.79,707.45 225.76,707.46 225.76,707.54 C 225.76,707.57 225.76,707.59 225.81,707.77 L 226.49,710.49 L 227.48,710.49 C 228.32,710.49 228.32,710.28 228.32,710.03 C 228.32,709.96 228.32,709.84 228.26,709.54 C 228.24,709.49 228.23,709.46 228.23,709.43 C 228.23,709.38 228.26,709.32 228.35,709.32 C 228.43,709.32 228.46,709.37 228.5,709.52 L 229.07,711.85 C 229.07,711.91 229.02,711.97 228.95,711.97 C 228.86,711.97 228.84,711.91 228.81,711.78 C 228.6,711.03 228.42,710.8 227.51,710.8 L 226.57,710.8 L 227.17,713.2 C 227.26,713.55 227.27,713.59 227.71,713.59 L 229.11,713.59 C 230.33,713.59 230.63,713.3 230.63,712.48 C 230.63,712.24 230.63,712.22 230.59,711.96 C 230.59,711.9 230.58,711.83 230.58,711.78 C 230.58,711.72 230.61,711.66 230.7,711.66 C 230.8,711.66 230.82,711.72 230.84,711.91 L 231.03,713.63 C 231.06,713.9 231.01,713.9 230.76,713.9 L 225.73,713.9 C 225.54,713.9 225.43,713.9 225.43,713.7 C 225.43,713.59 225.52,713.59 225.71,713.59 C 226.08,713.59 226.36,713.59 226.36,713.41 C 226.36,713.37 226.36,713.35 226.31,713.17 L 225,707.9 C 224.9,707.51 224.88,707.43 224.09,707.43 C 223.92,707.43 223.81,707.43 223.81,707.24 C 223.81,707.12 223.9,707.12 224.09,707.12 L 229.26,707.12 C 229.49,707.12 229.5,707.13 229.57,707.29 L 230.49,709.44 z"
   style="fill:#000000;stroke-width:0"
   id="path19457" />
<path
   d="M 234.3,706.9 L 234.07,706.9 C 234.05,706.75 233.98,706.33 233.89,706.27 C 233.83,706.22 233.29,706.22 233.2,706.22 L 231.91,706.22 C 232.65,706.87 232.89,707.07 233.31,707.39 C 233.82,707.81 234.3,708.24 234.3,708.9 C 234.3,709.74 233.57,710.26 232.67,710.26 C 231.81,710.26 231.22,709.65 231.22,709.01 C 231.22,708.66 231.52,708.62 231.59,708.62 C 231.76,708.62 231.96,708.74 231.96,708.99 C 231.96,709.12 231.91,709.36 231.55,709.36 C 231.77,709.86 232.24,710.01 232.57,710.01 C 233.26,710.01 233.63,709.47 233.63,708.9 C 233.63,708.29 233.2,707.81 232.97,707.56 L 231.29,705.9 C 231.22,705.84 231.22,705.83 231.22,705.63 L 234.1,705.63 L 234.3,706.9 z"
   style="fill:#000000;stroke-width:0"
   id="path19459" />
<path
   d="M 244.06,709.41 L 244.08,709.41 L 244.11,709.41 L 244.14,709.42 L 244.15,709.42 L 244.17,709.42 L 244.18,709.42 L 244.2,709.42 L 244.21,709.42 L 244.22,709.42 L 244.24,709.43 L 244.25,709.43 L 244.26,709.43 L 244.27,709.44 L 244.29,709.44 L 244.3,709.45 L 244.31,709.46 L 244.32,709.46 L 244.33,709.47 L 244.34,709.48 L 244.35,709.49 L 244.35,709.49 L 244.36,709.5 L 244.36,709.5 L 244.36,709.51 L 244.37,709.51 L 244.37,709.52 L 244.37,709.53 L 244.37,709.53 L 244.38,709.54 L 244.38,709.55 L 244.38,709.55 L 244.38,709.56 L 244.38,709.57 L 244.38,709.58 L 244.39,709.59 L 244.39,709.59 L 244.39,709.6 L 244.39,709.61 C 244.39,709.81 244.2,709.81 244.06,709.81 L 238.63,709.81 C 238.49,709.81 238.3,709.81 238.3,709.61 C 238.3,709.41 238.49,709.41 238.63,709.41 L 244.06,709.41 z"
   style="fill:#000000;stroke-width:0"
   id="path19461" />
<path
   d="M 254.49,709.44 L 254.49,709.45 L 254.49,709.45 L 254.49,709.46 L 254.5,709.47 L 254.5,709.48 L 254.51,709.49 L 254.51,709.5 L 254.51,709.51 L 254.52,709.52 L 254.52,709.53 L 254.52,709.53 L 254.52,709.54 L 254.53,709.54 L 254.53,709.55 L 254.53,709.55 L 254.53,709.56 L 254.53,709.56 L 254.53,709.56 L 254.53,709.57 L 254.53,709.57 L 254.53,709.57 L 254.54,709.58 L 254.54,709.58 L 254.54,709.58 L 254.54,709.58 C 254.54,709.59 254.54,709.69 254.42,709.69 C 254.33,709.69 254.31,709.63 254.29,709.57 C 253.64,708.1 253.27,707.43 251.57,707.43 L 250.11,707.43 C 249.97,707.43 249.95,707.43 249.89,707.44 C 249.79,707.45 249.76,707.46 249.76,707.54 C 249.76,707.57 249.76,707.59 249.81,707.77 L 250.49,710.49 L 251.48,710.49 C 252.32,710.49 252.32,710.28 252.32,710.03 C 252.32,709.96 252.32,709.84 252.26,709.54 C 252.24,709.49 252.23,709.46 252.23,709.43 C 252.23,709.38 252.26,709.32 252.35,709.32 C 252.43,709.32 252.46,709.37 252.5,709.52 L 253.07,711.85 C 253.07,711.91 253.02,711.97 252.95,711.97 C 252.86,711.97 252.84,711.91 252.81,711.78 C 252.6,711.03 252.42,710.8 251.51,710.8 L 250.57,710.8 L 251.17,713.2 C 251.26,713.55 251.27,713.59 251.71,713.59 L 253.11,713.59 C 254.33,713.59 254.63,713.3 254.63,712.48 C 254.63,712.24 254.63,712.22 254.59,711.96 C 254.59,711.9 254.58,711.83 254.58,711.78 C 254.58,711.72 254.61,711.66 254.7,711.66 C 254.8,711.66 254.82,711.72 254.84,711.91 L 255.03,713.63 C 255.06,713.9 255.01,713.9 254.76,713.9 L 249.73,713.9 C 249.54,713.9 249.43,713.9 249.43,713.7 C 249.43,713.59 249.52,713.59 249.71,713.59 C 250.08,713.59 250.36,713.59 250.36,713.41 C 250.36,713.37 250.36,713.35 250.31,713.17 L 249,707.9 C 248.9,707.51 248.88,707.43 248.09,707.43 C 247.92,707.43 247.81,707.43 247.81,707.24 C 247.81,707.12 247.9,707.12 248.09,707.12 L 253.26,707.12 C 253.49,707.12 253.5,707.13 253.57,707.29 L 254.49,709.44 z"
   style="fill:#000000;stroke-width:0"
   id="path19463" />
<path
   d="M 257.13,710.07 L 257.13,710.07 L 257.13,710.08 L 257.13,710.09 L 257.13,710.1 L 257.13,710.11 L 257.13,710.11 L 257.13,710.12 L 257.13,710.13 L 257.12,710.13 L 257.12,710.14 L 257.12,710.15 L 257.12,710.15 L 257.12,710.16 L 257.12,710.16 L 257.12,710.17 L 257.12,710.18 L 257.12,710.18 L 257.12,710.19 L 257.12,710.19 L 257.11,710.2 L 257.11,710.21 L 257.11,710.22 L 257.1,710.22 L 257.1,710.23 L 257.09,710.23 L 257.09,710.24 L 257.08,710.24 L 257.08,710.25 L 257.07,710.25 L 257.06,710.25 L 257.05,710.25 L 257.04,710.26 L 257.04,710.26 L 257.03,710.26 L 257.03,710.26 L 257.02,710.26 L 257.01,710.26 L 257.01,710.26 L 257,710.26 L 257,710.26 L 256.99,710.26 L 256.98,710.26 L 256.97,710.26 L 256.97,710.26 L 256.96,710.26 L 256.95,710.26 L 256.94,710.26 L 256.93,710.26 L 256.93,710.26 L 256.92,710.26 C 256.47,709.82 255.84,709.81 255.55,709.81 L 255.55,709.56 C 255.72,709.56 256.18,709.56 256.56,709.76 L 256.56,706.2 C 256.56,705.97 256.56,705.88 255.86,705.88 L 255.6,705.88 L 255.6,705.63 C 255.73,705.64 256.58,705.66 256.84,705.66 C 257.06,705.66 257.93,705.64 258.09,705.63 L 258.09,705.88 L 257.82,705.88 C 257.13,705.88 257.13,705.97 257.13,706.2 L 257.13,710.07 z"
   style="fill:#000000;stroke-width:0"
   id="path19465" />
<path
   d="M 268.86,710.38 L 268.89,710.38 L 268.92,710.38 L 268.95,710.38 L 268.97,710.38 L 268.98,710.38 L 269,710.38 L 269.01,710.39 L 269.02,710.39 L 269.04,710.39 L 269.05,710.39 L 269.06,710.4 L 269.08,710.4 L 269.09,710.41 L 269.1,710.41 L 269.11,710.42 L 269.12,710.42 L 269.14,710.43 L 269.15,710.44 L 269.15,710.44 L 269.16,710.45 L 269.17,710.46 L 269.17,710.47 L 269.18,710.48 L 269.18,710.48 L 269.18,710.49 L 269.19,710.49 L 269.19,710.5 L 269.19,710.51 L 269.19,710.51 L 269.2,710.52 L 269.2,710.53 L 269.2,710.54 L 269.2,710.54 L 269.2,710.55 L 269.2,710.56 L 269.2,710.57 L 269.2,710.58 C 269.2,710.78 269.01,710.78 268.88,710.78 L 262.91,710.78 C 262.77,710.78 262.58,710.78 262.58,710.58 C 262.58,710.38 262.77,710.38 262.92,710.38 L 268.86,710.38 z"
   style="fill:#000000;stroke-width:0"
   id="path19467" />
<path
   d="M 268.88,708.45 L 268.89,708.45 L 268.9,708.45 L 268.93,708.45 L 268.96,708.45 L 268.97,708.45 L 268.98,708.45 L 269,708.45 L 269.01,708.45 L 269.03,708.46 L 269.04,708.46 L 269.05,708.46 L 269.07,708.46 L 269.08,708.47 L 269.09,708.47 L 269.1,708.48 L 269.11,708.48 L 269.13,708.49 L 269.14,708.5 L 269.15,708.5 L 269.15,708.51 L 269.16,708.52 L 269.17,708.53 L 269.17,708.53 L 269.17,708.54 L 269.18,708.54 L 269.18,708.55 L 269.18,708.55 L 269.19,708.56 L 269.19,708.57 L 269.19,708.57 L 269.19,708.58 L 269.2,708.59 L 269.2,708.6 L 269.2,708.6 L 269.2,708.61 L 269.2,708.62 L 269.2,708.63 L 269.2,708.64 L 269.2,708.65 C 269.2,708.85 269.01,708.85 268.86,708.85 L 262.92,708.85 C 262.77,708.85 262.58,708.85 262.58,708.65 C 262.58,708.45 262.77,708.45 262.91,708.45 L 268.88,708.45 z"
   style="fill:#000000;stroke-width:0"
   id="path19469" />
<path
   d="M 276.95,714.08 L 276.94,714.09 L 276.93,714.1 L 276.93,714.11 L 276.92,714.12 L 276.92,714.13 L 276.91,714.14 L 276.91,714.15 L 276.9,714.16 L 276.89,714.17 L 276.89,714.18 L 276.88,714.18 L 276.88,714.19 L 276.87,714.2 L 276.87,714.2 L 276.86,714.21 L 276.85,714.21 L 276.85,714.22 L 276.84,714.22 L 276.83,714.23 L 276.82,714.23 L 276.82,714.24 L 276.81,714.24 L 276.8,714.24 L 276.79,714.25 L 276.78,714.25 L 276.77,714.25 L 276.76,714.25 L 276.74,714.25 L 276.73,714.25 L 276.72,714.26 L 276.7,714.26 L 276.69,714.26 C 276.52,714.26 276.5,714.21 276.43,714.08 L 276.37,713.26 L 279.05,707.88 L 273.68,707.88 L 276.37,713.26 L 276.43,714.08 L 273.06,707.32 C 273.01,707.23 273.01,707.21 273.01,707.2 C 273.01,707.12 273.07,707.12 273.23,707.12 L 280.14,707.12 C 280.3,707.12 280.36,707.12 280.36,707.2 C 280.36,707.21 280.36,707.23 280.31,707.32 L 276.95,714.08 z"
   style="fill:#000000;stroke-width:0"
   id="path19471" />
<path
   d="M 287.9,709.44 L 287.9,709.45 L 287.9,709.45 L 287.91,709.46 L 287.91,709.47 L 287.92,709.48 L 287.92,709.49 L 287.92,709.5 L 287.93,709.51 L 287.93,709.52 L 287.93,709.53 L 287.94,709.53 L 287.94,709.54 L 287.94,709.54 L 287.94,709.55 L 287.94,709.55 L 287.94,709.56 L 287.94,709.56 L 287.95,709.56 L 287.95,709.57 L 287.95,709.57 L 287.95,709.57 L 287.95,709.58 L 287.95,709.58 L 287.95,709.58 L 287.95,709.58 C 287.95,709.59 287.95,709.69 287.83,709.69 C 287.74,709.69 287.72,709.63 287.7,709.57 C 287.05,708.1 286.68,707.43 284.98,707.43 L 283.52,707.43 C 283.39,707.43 283.37,707.43 283.31,707.44 C 283.21,707.45 283.18,707.46 283.18,707.54 C 283.18,707.57 283.18,707.59 283.23,707.77 L 283.9,710.49 L 284.89,710.49 C 285.74,710.49 285.74,710.28 285.74,710.03 C 285.74,709.96 285.74,709.84 285.67,709.54 C 285.65,709.49 285.64,709.46 285.64,709.43 C 285.64,709.38 285.68,709.32 285.77,709.32 C 285.85,709.32 285.88,709.37 285.92,709.52 L 286.48,711.85 C 286.48,711.91 286.43,711.97 286.36,711.97 C 286.27,711.97 286.26,711.91 286.23,711.78 C 286.02,711.03 285.84,710.8 284.92,710.8 L 283.98,710.8 L 284.58,713.2 C 284.67,713.55 284.68,713.59 285.12,713.59 L 286.52,713.59 C 287.74,713.59 288.04,713.3 288.04,712.48 C 288.04,712.24 288.04,712.22 288,711.96 C 288,711.9 287.99,711.83 287.99,711.78 C 287.99,711.72 288.02,711.66 288.11,711.66 C 288.22,711.66 288.23,711.72 288.25,711.91 L 288.45,713.63 C 288.48,713.9 288.43,713.9 288.18,713.9 L 283.15,713.9 C 282.95,713.9 282.85,713.9 282.85,713.7 C 282.85,713.59 282.94,713.59 283.13,713.59 C 283.49,713.59 283.77,713.59 283.77,713.41 C 283.77,713.37 283.77,713.35 283.72,713.17 L 282.41,707.9 C 282.31,707.51 282.29,707.43 281.5,707.43 C 281.33,707.43 281.22,707.43 281.22,707.24 C 281.22,707.12 281.31,707.12 281.5,707.12 L 286.67,707.12 C 286.9,707.12 286.91,707.13 286.98,707.29 L 287.9,709.44 z"
   style="fill:#000000;stroke-width:0"
   id="path19473" />
<path
   d="M 298.39,710.38 L 298.41,710.38 L 298.44,710.38 L 298.47,710.38 L 298.49,710.38 L 298.5,710.38 L 298.52,710.38 L 298.53,710.39 L 298.54,710.39 L 298.56,710.39 L 298.57,710.39 L 298.58,710.4 L 298.6,710.4 L 298.61,710.41 L 298.62,710.41 L 298.63,710.42 L 298.64,710.42 L 298.66,710.43 L 298.67,710.44 L 298.67,710.44 L 298.68,710.45 L 298.69,710.46 L 298.69,710.47 L 298.7,710.48 L 298.7,710.48 L 298.7,710.49 L 298.71,710.49 L 298.71,710.5 L 298.71,710.51 L 298.71,710.51 L 298.72,710.52 L 298.72,710.53 L 298.72,710.54 L 298.72,710.54 L 298.72,710.55 L 298.72,710.56 L 298.72,710.57 L 298.72,710.58 C 298.72,710.78 298.53,710.78 298.39,710.78 L 292.43,710.78 C 292.29,710.78 292.1,710.78 292.1,710.58 C 292.1,710.38 292.29,710.38 292.44,710.38 L 298.39,710.38 z"
   style="fill:#000000;stroke-width:0"
   id="path19475" />
<path
   d="M 298.39,708.45 L 298.41,708.45 L 298.42,708.45 L 298.45,708.45 L 298.48,708.45 L 298.49,708.45 L 298.5,708.45 L 298.52,708.45 L 298.53,708.45 L 298.55,708.46 L 298.56,708.46 L 298.57,708.46 L 298.59,708.46 L 298.6,708.47 L 298.61,708.47 L 298.62,708.48 L 298.63,708.48 L 298.65,708.49 L 298.66,708.5 L 298.67,708.5 L 298.67,708.51 L 298.68,708.52 L 298.69,708.53 L 298.69,708.53 L 298.69,708.54 L 298.7,708.54 L 298.7,708.55 L 298.7,708.55 L 298.71,708.56 L 298.71,708.57 L 298.71,708.57 L 298.71,708.58 L 298.72,708.59 L 298.72,708.6 L 298.72,708.6 L 298.72,708.61 L 298.72,708.62 L 298.72,708.63 L 298.72,708.64 L 298.72,708.65 C 298.72,708.85 298.53,708.85 298.39,708.85 L 292.44,708.85 C 292.29,708.85 292.1,708.85 292.1,708.65 C 292.1,708.45 292.29,708.45 292.43,708.45 L 298.39,708.45 z"
   style="fill:#000000;stroke-width:0"
   id="path19477" />
<path
   d="M 304.91,713.93 L 304.91,713.93 L 304.91,713.93 L 304.91,713.93 L 304.91,713.93 L 304.91,713.93 L 304.91,713.94 L 304.91,713.94 L 304.91,713.94 L 304.91,713.95 L 304.91,713.95 L 304.91,713.96 L 304.91,713.96 L 304.91,713.97 L 304.91,713.97 L 304.9,713.98 L 304.9,713.98 L 304.9,713.99 L 304.89,713.99 L 304.89,714 L 304.89,714 L 304.88,714 L 304.88,714.01 L 304.88,714.01 L 304.87,714.01 L 304.87,714.01 L 304.87,714.02 L 304.87,714.02 L 304.86,714.02 L 304.86,714.02 L 304.86,714.02 L 304.85,714.02 L 304.85,714.03 L 304.84,714.03 L 304.84,714.03 L 304.84,714.03 L 304.83,714.03 L 304.83,714.03 L 304.82,714.03 L 304.82,714.03 L 304.81,714.04 L 304.81,714.04 L 304.8,714.04 L 304.8,714.04 L 304.79,714.04 L 304.79,714.04 C 304.56,714.04 303.83,713.96 303.57,713.94 C 303.49,713.93 303.38,713.92 303.38,713.74 C 303.38,713.62 303.47,713.62 303.62,713.62 C 304.1,713.62 304.12,713.55 304.12,713.45 L 304.09,713.25 L 302.64,707.51 C 302.6,707.37 302.6,707.35 302.6,707.29 C 302.6,707.06 302.8,707.01 302.89,707.01 C 303.05,707.01 303.21,707.13 303.26,707.27 L 303.45,708.03 C 303.52,708.33 303.6,708.63 303.67,708.93 C 303.73,709.15 303.79,709.36 303.84,709.59 C 303.86,709.65 303.94,709.98 303.95,710.04 C 303.98,710.13 304.29,710.69 304.63,710.96 C 304.85,711.12 305.15,711.31 305.58,711.31 C 306.01,711.31 306.12,710.97 306.12,710.61 C 306.12,710.07 305.74,708.99 305.5,708.38 C 305.42,708.15 305.37,708.03 305.37,707.83 C 305.37,707.36 305.72,707.01 306.19,707.01 C 307.13,707.01 307.49,708.47 307.49,708.55 C 307.49,708.65 307.4,708.65 307.38,708.65 C 307.28,708.65 307.28,708.62 307.23,708.47 C 307.08,707.94 306.76,707.23 306.21,707.23 C 306.04,707.23 305.97,707.33 305.97,707.56 C 305.97,707.81 306.06,708.05 306.15,708.27 C 306.31,708.7 306.76,709.88 306.76,710.46 C 306.76,711.11 306.36,711.53 305.61,711.53 C 304.98,711.53 304.51,711.22 304.14,710.76 L 304.91,713.93 z"
   style="fill:#000000;stroke-width:0"
   id="path19479" />
<path
   d="M 310.02,711.42 L 310.02,711.42 L 310.02,711.42 L 310.02,711.42 L 310.02,711.42 L 310.02,711.42 L 310.02,711.43 L 310.02,711.43 L 310.02,711.43 L 310.02,711.44 L 310.02,711.44 L 310.02,711.45 L 310.02,711.45 L 310.02,711.46 L 310.02,711.46 L 310.01,711.47 L 310.01,711.47 L 310.01,711.48 L 310,711.48 L 310,711.48 L 310,711.49 L 309.99,711.49 L 309.99,711.5 L 309.99,711.5 L 309.98,711.5 L 309.98,711.5 L 309.98,711.5 L 309.98,711.51 L 309.97,711.51 L 309.97,711.51 L 309.97,711.51 L 309.96,711.51 L 309.96,711.52 L 309.95,711.52 L 309.95,711.52 L 309.95,711.52 L 309.94,711.52 L 309.94,711.52 L 309.93,711.52 L 309.93,711.52 L 309.92,711.52 L 309.92,711.52 L 309.91,711.53 L 309.91,711.53 L 309.9,711.53 L 309.89,711.53 C 309.67,711.53 308.94,711.45 308.68,711.43 C 308.6,711.42 308.49,711.41 308.49,711.23 C 308.49,711.11 308.58,711.11 308.73,711.11 C 309.21,711.11 309.23,711.04 309.23,710.94 C 309.23,710.87 309.11,710.4 309.04,710.13 L 308.43,707.69 C 308.39,707.54 308.32,707.26 308.32,707.24 C 308.32,707.13 308.42,707.12 308.48,707.12 L 308.62,707.12 C 309.32,707.24 310.4,707.63 311.43,708.59 C 312.74,709.81 313.01,711.17 313.01,711.26 C 313.01,711.43 312.89,711.53 312.72,711.53 C 312.64,711.53 312.42,711.49 312.34,711.2 C 311.7,708.94 310.18,707.82 309.05,707.45 L 310.02,711.42 z"
   style="fill:#000000;stroke-width:0"
   id="path19481" />
</g>    <g
       id="g19776"
       ns1:preamble=""
       ns1:text="$E_2$"
       style="font-style:normal;font-variant:normal;font-weight:normal;font-stretch:normal;letter-spacing:normal;word-spacing:normal;text-anchor:start;fill:none;fill-opacity:1;fill-rule:evenodd;stroke:#000000;stroke-linecap:butt;stroke-linejoin:miter;stroke-miterlimit:10.43299961;stroke-dasharray:none;stroke-dashoffset:0;stroke-opacity:1"
       transform="matrix(5.7664442,0,0,-5.7664442,-926.7779,4260.7645)"
       xml:space="preserve">
<path
   id="path19778"
   style="fill:#000000;stroke-width:0"
   d="M 230.49,709.44 L 230.49,709.45 L 230.49,709.45 L 230.49,709.46 L 230.5,709.47 L 230.5,709.48 L 230.51,709.49 L 230.51,709.5 L 230.51,709.51 L 230.52,709.52 L 230.52,709.53 L 230.52,709.53 L 230.52,709.54 L 230.53,709.54 L 230.53,709.55 L 230.53,709.55 L 230.53,709.56 L 230.53,709.56 L 230.53,709.56 L 230.53,709.57 L 230.53,709.57 L 230.53,709.57 L 230.54,709.58 L 230.54,709.58 L 230.54,709.58 L 230.54,709.58 C 230.54,709.59 230.54,709.69 230.42,709.69 C 230.33,709.69 230.31,709.63 230.29,709.57 C 229.64,708.1 229.27,707.43 227.57,707.43 L 226.11,707.43 C 225.97,707.43 225.95,707.43 225.89,707.44 C 225.79,707.45 225.76,707.46 225.76,707.54 C 225.76,707.57 225.76,707.59 225.81,707.77 L 226.49,710.49 L 227.48,710.49 C 228.32,710.49 228.32,710.28 228.32,710.03 C 228.32,709.96 228.32,709.84 228.26,709.54 C 228.24,709.49 228.23,709.46 228.23,709.43 C 228.23,709.38 228.26,709.32 228.35,709.32 C 228.43,709.32 228.46,709.37 228.5,709.52 L 229.07,711.85 C 229.07,711.91 229.02,711.97 228.95,711.97 C 228.86,711.97 228.84,711.91 228.81,711.78 C 228.6,711.03 228.42,710.8 227.51,710.8 L 226.57,710.8 L 227.17,713.2 C 227.26,713.55 227.27,713.59 227.71,713.59 L 229.11,713.59 C 230.33,713.59 230.63,713.3 230.63,712.48 C 230.63,712.24 230.63,712.22 230.59,711.96 C 230.59,711.9 230.58,711.83 230.58,711.78 C 230.58,711.72 230.61,711.66 230.7,711.66 C 230.8,711.66 230.82,711.72 230.84,711.91 L 231.03,713.63 C 231.06,713.9 231.01,713.9 230.76,713.9 L 225.73,713.9 C 225.54,713.9 225.43,713.9 225.43,713.7 C 225.43,713.59 225.52,713.59 225.71,713.59 C 226.08,713.59 226.36,713.59 226.36,713.41 C 226.36,713.37 226.36,713.35 226.31,713.17 L 225,707.9 C 224.9,707.51 224.88,707.43 224.09,707.43 C 223.92,707.43 223.81,707.43 223.81,707.24 C 223.81,707.12 223.9,707.12 224.09,707.12 L 229.26,707.12 C 229.49,707.12 229.5,707.13 229.57,707.29 L 230.49,709.44 z" />
<path
   id="path19780"
   style="fill:#000000;stroke-width:0"
   d="M 234.3,706.9 L 234.07,706.9 C 234.05,706.75 233.98,706.33 233.89,706.27 C 233.83,706.22 233.29,706.22 233.2,706.22 L 231.91,706.22 C 232.65,706.87 232.89,707.07 233.31,707.39 C 233.82,707.81 234.3,708.24 234.3,708.9 C 234.3,709.74 233.57,710.26 232.67,710.26 C 231.81,710.26 231.22,709.65 231.22,709.01 C 231.22,708.66 231.52,708.62 231.59,708.62 C 231.76,708.62 231.96,708.74 231.96,708.99 C 231.96,709.12 231.91,709.36 231.55,709.36 C 231.77,709.86 232.24,710.01 232.57,710.01 C 233.26,710.01 233.63,709.47 233.63,708.9 C 233.63,708.29 233.2,707.81 232.97,707.56 L 231.29,705.9 C 231.22,705.84 231.22,705.83 231.22,705.63 L 234.1,705.63 L 234.3,706.9 z" />
</g>    <path
       id="path19928"
       style="font-style:normal;font-variant:normal;font-weight:normal;font-stretch:normal;letter-spacing:normal;word-spacing:normal;text-anchor:start;fill:#000000;fill-opacity:1;fill-rule:evenodd;stroke:#000000;stroke-width:0;stroke-linecap:butt;stroke-linejoin:miter;stroke-miterlimit:10.43299961;stroke-dasharray:none;stroke-dashoffset:0;stroke-opacity:1"
       d="M 397.25643,432.87358 L 397.25643,432.81761 L 397.25643,432.81761 L 397.25643,432.76164 L 397.31239,432.70568 L 397.31239,432.64971 L 397.36836,432.59374 L 397.36836,432.53777 L 397.36836,432.48181 L 397.42433,432.42584 L 397.42433,432.36987 L 397.42433,432.36987 L 397.42433,432.3139 L 397.4803,432.3139 L 397.4803,432.25793 L 397.4803,432.25793 L 397.4803,432.20197 L 397.4803,432.20197 L 397.4803,432.20197 L 397.4803,432.146 L 397.4803,432.146 L 397.4803,432.146 L 397.53626,432.09003 L 397.53626,432.09003 L 397.53626,432.09003 L 397.53626,432.09003 C 397.53626,432.03406 397.53626,431.47439 396.86465,431.47439 C 396.36095,431.47439 396.24901,431.81019 396.13708,432.146 C 392.49919,440.37323 390.42839,444.12306 380.9139,444.12306 L 372.74264,444.12306 C 371.95909,444.12306 371.84716,444.12306 371.51135,444.06709 C 370.95168,444.01112 370.78377,443.95515 370.78377,443.50741 C 370.78377,443.33951 370.78377,443.22758 371.06361,442.22016 L 374.86941,426.99698 L 380.41019,426.99698 C 385.11147,426.99698 385.11147,428.1723 385.11147,429.57149 C 385.11147,429.96327 385.11147,430.63488 384.77566,432.3139 C 384.66373,432.59374 384.60776,432.76164 384.60776,432.92955 C 384.60776,433.20938 384.77566,433.54519 385.27937,433.54519 C 385.72711,433.54519 385.89501,433.26535 386.11888,432.42584 L 389.30903,419.3854 C 389.30903,419.04959 389.0292,418.71379 388.63742,418.71379 C 388.13372,418.71379 388.02178,419.04959 387.85388,419.77717 C 386.67856,423.97474 385.67114,425.26199 380.5781,425.26199 L 375.31715,425.26199 L 378.6752,411.82978 C 379.17891,409.87091 379.23487,409.64704 381.69745,409.64704 L 389.5329,409.64704 C 396.36095,409.64704 398.03997,411.2701 398.03997,415.85944 C 398.03997,417.20266 398.03997,417.3146 397.8161,418.76975 C 397.8161,419.10556 397.76014,419.49733 397.76014,419.77717 C 397.76014,420.11298 397.92804,420.44878 398.43175,420.44878 C 398.99142,420.44878 399.10336,420.11298 399.21529,419.04959 L 400.27868,409.42317 C 400.44658,407.91205 400.16674,407.91205 398.76755,407.91205 L 370.61587,407.91205 C 369.55249,407.91205 368.93684,407.91205 368.93684,409.0314 C 368.93684,409.64704 369.44055,409.64704 370.50394,409.64704 C 372.57474,409.64704 374.14183,409.64704 374.14183,410.65446 C 374.14183,410.87833 374.14183,410.99026 373.86199,411.99768 L 366.53024,441.49258 C 365.97056,443.67532 365.85863,444.12306 361.43719,444.12306 C 360.48574,444.12306 359.8701,444.12306 359.8701,445.18644 C 359.8701,445.85805 360.37381,445.85805 361.43719,445.85805 L 390.37242,445.85805 C 391.65967,445.85805 391.71564,445.80208 392.10741,444.9066 L 397.25643,432.87358 z" />
    <path
       id="path19930"
       style="font-style:normal;font-variant:normal;font-weight:normal;font-stretch:normal;letter-spacing:normal;word-spacing:normal;text-anchor:start;fill:#000000;fill-opacity:1;fill-rule:evenodd;stroke:#000000;stroke-width:0;stroke-linecap:butt;stroke-linejoin:miter;stroke-miterlimit:10.43299961;stroke-dasharray:none;stroke-dashoffset:0;stroke-opacity:1"
       d="M 412.03186,429.34762 L 412.03186,429.34762 L 412.03186,429.29165 L 412.03186,429.23569 L 412.03186,429.17972 L 412.03186,429.12375 L 412.03186,429.12375 L 412.03186,429.06778 L 412.03186,429.01182 L 411.97589,429.01182 L 411.97589,428.95585 L 411.97589,428.89988 L 411.97589,428.89988 L 411.97589,428.84391 L 411.97589,428.84391 L 411.97589,428.78795 L 411.97589,428.73198 L 411.97589,428.73198 L 411.97589,428.67601 L 411.97589,428.67601 L 411.91993,428.62004 L 411.91993,428.56408 L 411.91993,428.50811 L 411.86396,428.50811 L 411.86396,428.45214 L 411.80799,428.45214 L 411.80799,428.39617 L 411.75202,428.39617 L 411.75202,428.34021 L 411.69606,428.34021 L 411.64009,428.34021 L 411.58412,428.34021 L 411.52815,428.28424 L 411.52815,428.28424 L 411.47219,428.28424 L 411.47219,428.28424 L 411.41622,428.28424 L 411.36025,428.28424 L 411.36025,428.28424 L 411.30428,428.28424 L 411.30428,428.28424 L 411.24832,428.28424 L 411.19235,428.28424 L 411.13638,428.28424 L 411.13638,428.28424 L 411.08041,428.28424 L 411.02445,428.28424 L 410.96848,428.28424 L 410.91251,428.28424 L 410.91251,428.28424 L 410.85654,428.28424 C 408.338,430.74681 404.81205,430.80278 403.18899,430.80278 L 403.18899,432.20197 C 404.14044,432.20197 406.71494,432.20197 408.84171,431.08262 L 408.84171,451.00707 C 408.84171,452.29432 408.84171,452.79803 404.92398,452.79803 L 403.46883,452.79803 L 403.46883,454.19722 C 404.1964,454.14125 408.95365,454.02931 410.4088,454.02931 C 411.64009,454.02931 416.50927,454.14125 417.40475,454.19722 L 417.40475,452.79803 L 415.89362,452.79803 C 412.03186,452.79803 412.03186,452.29432 412.03186,451.00707 L 412.03186,429.34762 z" />
    <path
       id="path19936"
       style="font-style:normal;font-variant:normal;font-weight:normal;font-stretch:normal;letter-spacing:normal;word-spacing:normal;text-anchor:start;fill:#000000;fill-opacity:1;fill-rule:evenodd;stroke:#000000;stroke-width:0;stroke-linecap:butt;stroke-linejoin:miter;stroke-miterlimit:10.43299961;stroke-dasharray:none;stroke-dashoffset:0;stroke-opacity:1"
       d="M 338.95956,296.90463 L 338.90359,296.84867 L 338.84762,296.7927 L 338.84762,296.73673 L 338.79165,296.68076 L 338.79165,296.62479 L 338.73569,296.56883 L 338.73569,296.51286 L 338.67972,296.45689 L 338.62375,296.40092 L 338.62375,296.34496 L 338.56778,296.34496 L 338.56778,296.28899 L 338.51182,296.23302 L 338.51182,296.23302 L 338.45585,296.17705 L 338.39988,296.17705 L 338.39988,296.12109 L 338.34391,296.12109 L 338.28795,296.06512 L 338.23198,296.06512 L 338.23198,296.00915 L 338.17601,296.00915 L 338.12004,296.00915 L 338.06407,295.95318 L 338.00811,295.95318 L 337.95214,295.95318 L 337.89617,295.95318 L 337.78424,295.95318 L 337.72827,295.95318 L 337.6723,295.89722 L 337.56037,295.89722 L 337.5044,295.89722 C 336.55295,295.89722 336.44102,296.17705 336.04924,296.90463 L 335.71344,301.49397 L 350.71274,331.60452 L 320.65817,331.60452 L 335.71344,301.49397 L 336.04924,296.90463 L 317.18818,334.7387 C 316.90834,335.24241 316.90834,335.35434 316.90834,335.41031 C 316.90834,335.85805 317.24414,335.85805 318.13963,335.85805 L 356.81321,335.85805 C 357.70869,335.85805 358.04449,335.85805 358.04449,335.41031 C 358.04449,335.35434 358.04449,335.24241 357.76465,334.7387 L 338.95956,296.90463 z" />
    <path
       id="path19938"
       style="font-style:normal;font-variant:normal;font-weight:normal;font-stretch:normal;letter-spacing:normal;word-spacing:normal;text-anchor:start;fill:#000000;fill-opacity:1;fill-rule:evenodd;stroke:#000000;stroke-width:0;stroke-linecap:butt;stroke-linejoin:miter;stroke-miterlimit:10.43299961;stroke-dasharray:none;stroke-dashoffset:0;stroke-opacity:1"
       d="M 400.24403,322.87358 L 400.24403,322.81761 L 400.24403,322.81761 L 400.3,322.76164 L 400.3,322.70568 L 400.35596,322.64971 L 400.35596,322.59374 L 400.35596,322.53777 L 400.41193,322.48181 L 400.41193,322.42584 L 400.41193,322.36987 L 400.4679,322.36987 L 400.4679,322.3139 L 400.4679,322.3139 L 400.4679,322.25793 L 400.4679,322.25793 L 400.4679,322.20197 L 400.4679,322.20197 L 400.52387,322.20197 L 400.52387,322.146 L 400.52387,322.146 L 400.52387,322.146 L 400.52387,322.09003 L 400.52387,322.09003 L 400.52387,322.09003 L 400.52387,322.09003 C 400.52387,322.03406 400.52387,321.47439 399.85226,321.47439 C 399.34855,321.47439 399.23661,321.81019 399.12468,322.146 C 395.48679,330.37323 393.41599,334.12306 383.9015,334.12306 L 375.73024,334.12306 C 375.00266,334.12306 374.89073,334.12306 374.55492,334.06709 C 373.99525,334.01112 373.82734,333.95515 373.82734,333.50741 C 373.82734,333.33951 373.82734,333.22758 374.10718,332.22016 L 377.85701,316.99698 L 383.39779,316.99698 C 388.15504,316.99698 388.15504,318.1723 388.15504,319.57149 C 388.15504,319.96327 388.15504,320.63488 387.76326,322.3139 C 387.65133,322.59374 387.59536,322.76164 387.59536,322.92955 C 387.59536,323.20938 387.81923,323.54519 388.32294,323.54519 C 388.77068,323.54519 388.93858,323.26535 389.16245,322.42584 L 392.29664,309.3854 C 392.29664,309.04959 392.0168,308.71379 391.62502,308.71379 C 391.12132,308.71379 391.06535,309.04959 390.89745,309.77717 C 389.72213,313.97474 388.71471,315.26199 383.5657,315.26199 L 378.30475,315.26199 L 381.6628,301.82978 C 382.16651,299.87091 382.22248,299.64704 384.68505,299.64704 L 392.52051,299.64704 C 399.34855,299.64704 401.02757,301.2701 401.02757,305.85944 C 401.02757,307.20266 401.02757,307.3146 400.8037,308.76975 C 400.8037,309.10556 400.74774,309.49733 400.74774,309.77717 C 400.74774,310.11298 400.91564,310.44878 401.41935,310.44878 C 402.03499,310.44878 402.09096,310.11298 402.20289,309.04959 L 403.32224,299.42317 C 403.49015,297.91205 403.21031,297.91205 401.81112,297.91205 L 373.65944,297.91205 C 372.54009,297.91205 371.98041,297.91205 371.98041,299.0314 C 371.98041,299.64704 372.48412,299.64704 373.5475,299.64704 C 375.56234,299.64704 377.12943,299.64704 377.12943,300.65446 C 377.12943,300.87833 377.12943,300.99026 376.84959,301.99768 L 369.51784,331.49258 C 368.95817,333.67532 368.84623,334.12306 364.42479,334.12306 C 363.47334,334.12306 362.8577,334.12306 362.8577,335.18644 C 362.8577,335.85805 363.36141,335.85805 364.42479,335.85805 L 393.36002,335.85805 C 394.64727,335.85805 394.70324,335.80208 395.09501,334.9066 L 400.24403,322.87358 z" />
  </g>
</svg>
