<?xml version="1.0" encoding="UTF-8" standalone="no"?>
<svg
   xml:space="preserve"
   enable-background="new 0 0 400 400"
   viewBox="0 0 391.05762 373.82529"
   height="373.82529"
   width="391.05762"
   y="0px"
   x="0px"
   id="Layer_1"
   version="1.1"
   sodipodi:docname="14-cmyk.src.svg"
   inkscape:version="1.1.1 (3bf5ae0d25, 2021-09-20, custom)"
   xmlns:inkscape="http://www.inkscape.org/namespaces/inkscape"
   xmlns:sodipodi="http://sodipodi.sourceforge.net/DTD/sodipodi-0.dtd"
   xmlns="http://www.w3.org/2000/svg"
   xmlns:svg="http://www.w3.org/2000/svg"
   xmlns:rdf="http://www.w3.org/1999/02/22-rdf-syntax-ns#"
   xmlns:cc="http://creativecommons.org/ns#"
   xmlns:dc="http://purl.org/dc/elements/1.1/"><sodipodi:namedview
     id="namedview20"
     pagecolor="#505050"
     bordercolor="#eeeeee"
     borderopacity="1"
     inkscape:pageshadow="0"
     inkscape:pageopacity="0"
     inkscape:pagecheckerboard="0"
     showgrid="false"
     inkscape:zoom="1.9375"
     inkscape:cx="195.87097"
     inkscape:cy="186.83871"
     inkscape:window-width="1920"
     inkscape:window-height="1057"
     inkscape:window-x="0"
     inkscape:window-y="23"
     inkscape:window-maximized="1"
     inkscape:current-layer="Layer_1" /><metadata
     id="metadata37"><rdf:RDF><cc:Work
         rdf:about=""><dc:format>image/svg+xml</dc:format><dc:type
           rdf:resource="http://purl.org/dc/dcmitype/StillImage" /><dc:title /></cc:Work></rdf:RDF></metadata><defs
     id="defs35" /><path
     style="fill:#00ffff;fill-opacity:1"
     id="path5"
     d="m 326.24759,130.80202 c 33.588,19.571 58.1,53.892 63.646,95.401 9.537,71.352 -40.576,136.922 -111.928,146.459 -29.826,3.986 -58.65,-2.455 -82.789,-16.51"
     fill="#00AEEF" /><path
     style="fill:#ff00ff;fill-opacity:1"
     id="path7"
     d="m 195.17559,356.14802 c -14.242,8.166 -30.276,13.758 -47.555,16.068 -71.350001,9.538 -136.922001,-40.575 -146.4570009,-111.923 -7.151,-53.51 19.2469999,-103.776 62.9949999,-129.585 0.456,-0.27 0.915,-0.536 1.375,-0.8"
     fill="#EC008C" /><path
     style="fill:#ffff00;fill-opacity:1"
     id="path9"
     d="M 65.534589,129.91502 C 65.671589,65.721024 113.22659,9.904024 178.62559,1.164024 c 71.349,-9.537 136.919,40.576 146.456,111.925996 0.797,5.951 1.178,11.864 1.166,17.706"
     fill="#FFF200" /><path
     style="fill:#00ff00;fill-opacity:1"
     id="path11"
     d="m 194.50759,131.15202 c 14.58,-8.604 31.094,-14.489 48.932,-16.874 29.838,-3.989 58.666,2.457 82.809,16.523 v -0.006 c -0.102,47.232 -25.875,89.929 -65.531,112.677"
     fill="#00A651" /><path
     style="fill:#ff0000;fill-opacity:1"
     id="path13"
     d="m 130.34659,243.02302 c -33.583001,-19.568 -58.100001,-53.893 -63.649001,-95.401 -0.794,-5.952 -1.172,-11.865 -1.162,-17.707 l -0.001,-0.007 c 14.242,-8.169 30.276,-13.765 47.555001,-16.074 29.836,-3.987 58.659,2.454 82.802,16.516"
     fill="#ED1C24" /><path
     style="fill:#0000ff;fill-opacity:1"
     id="path15"
     d="m 260.70859,243.46902 c -0.096,47.236 -25.867,89.932 -65.533,112.68 l 0.002,0.004 c -33.593,-19.568 -58.117,-53.896 -63.667,-95.414 -0.796,-5.955 -1.174,-11.867 -1.164,-17.711"
     fill="#2E3192" /><path
     style="fill:#000000;fill-opacity:1"
     id="path17"
     d="m 260.71659,243.47302 c -14.248,8.168 -30.279,13.766 -47.559,16.076 -29.838,3.984 -58.669,-2.455 -82.812,-16.525 v 0.004 c 0.101,-46.682 25.278,-88.937 64.161,-111.875 l 1.383,-0.803 c 33.59,19.57 58.111,53.895 63.66,95.408 0.793,5.955 1.174,11.867 1.158,17.711 z"
     fill="#363639" /><g
     id="g19"
     transform="translate(-4.0004109,-13.290976)"><g
       id="g21"><path
         id="path23"
         d="M 197.539,93.029 V 76.503 L 184.785,52.671 h 10.479 l 4.071,9.7 c 1.258,2.935 2.156,5.09 3.114,7.725 h 0.119 c 0.898,-2.515 1.857,-4.85 3.055,-7.725 l 4.072,-9.7 h 10.238 L 206.64,76.203 v 16.826 z" /></g><g
       id="g25"><path
         id="path27"
         d="m 97.101,302.891 c -0.18,-4.852 -0.359,-10.66 -0.359,-16.588 h -0.119 c -1.316,5.15 -2.994,10.898 -4.551,15.629 l -4.91,15.748 h -7.125 l -4.312,-15.568 c -1.317,-4.791 -2.635,-10.479 -3.652,-15.809 h -0.12 c -0.18,5.449 -0.419,11.678 -0.658,16.705 l -0.778,15.33 h -8.443 l 2.575,-40.357 h 12.154 l 3.953,13.531 c 1.316,4.611 2.514,9.641 3.412,14.371 h 0.24 c 1.078,-4.67 2.455,-9.939 3.832,-14.49 l 4.252,-13.412 h 11.975 l 2.156,40.357 h -8.861 z" /></g><g
       id="g29"><path
         id="path31"
         d="m 344.645,306.506 c -1.617,0.779 -5.449,1.736 -10.301,1.736 -13.949,0 -21.137,-8.742 -21.137,-20.297 0,-13.773 9.82,-21.379 22.035,-21.379 4.73,0 8.324,0.959 9.941,1.797 l -1.918,7.186 c -1.797,-0.779 -4.371,-1.498 -7.664,-1.498 -7.184,0 -12.813,4.371 -12.813,13.414 0,8.084 4.789,13.172 12.875,13.172 2.813,0 5.805,-0.537 7.664,-1.316 z" /></g></g></svg>
