<?xml version="1.0" encoding="UTF-8" standalone="no"?>
<svg
   width="359.99994"
   height="343.923"
   viewBox="-10 -11 17.999997 17.19615"
   version="1.1"
   id="svg29"
   sodipodi:docname="14-rgb.src.svg"
   inkscape:version="1.1.1 (3bf5ae0d25, 2021-09-20, custom)"
   xmlns:inkscape="http://www.inkscape.org/namespaces/inkscape"
   xmlns:sodipodi="http://sodipodi.sourceforge.net/DTD/sodipodi-0.dtd"
   xmlns:xlink="http://www.w3.org/1999/xlink"
   xmlns="http://www.w3.org/2000/svg"
   xmlns:svg="http://www.w3.org/2000/svg">
  <sodipodi:namedview
     id="namedview31"
     pagecolor="#505050"
     bordercolor="#eeeeee"
     borderopacity="1"
     inkscape:pageshadow="0"
     inkscape:pageopacity="0"
     inkscape:pagecheckerboard="0"
     showgrid="false"
     inkscape:zoom="2.1153185"
     inkscape:cx="198.78803"
     inkscape:cy="178.69649"
     inkscape:window-width="1920"
     inkscape:window-height="1057"
     inkscape:window-x="0"
     inkscape:window-y="23"
     inkscape:window-maximized="1"
     inkscape:current-layer="svg29" />
  <defs
     id="defs5">
    <path
       id="a"
       d="m -6,-3.4641 a 6,6 0 0 1 12,0 z" />
    <path
       id="b"
       d="m 0,-3.4641 a 6,6 0 0 0 -6,0 6,6 0 0 0 3,5.1961 z" />
    <path
       id="c"
       d="m 0,-3.4641 a 6,6 0 0 1 3,5.1961 6,6 0 0 1 -6,0 6,6 0 0 1 3,-5.1961 z" />
  </defs>
  <use
     xlink:href="#a"
     fill="#ff0000"
     id="use9"
     x="0"
     y="0"
     width="100%"
     height="100%"
     transform="translate(-1.0000014,-1.5359)" />
  <use
     xlink:href="#a"
     fill="#0000ff"
     transform="rotate(120,-0.05662456,-1.0566255)"
     id="use11"
     x="0"
     y="0"
     width="100%"
     height="100%" />
  <use
     xlink:href="#a"
     fill="#00ff00"
     transform="rotate(-120,-0.94337684,-0.47927446)"
     id="use13"
     x="0"
     y="0"
     width="100%"
     height="100%" />
  <use
     xlink:href="#b"
     fill="#ffff00"
     id="use15"
     x="0"
     y="0"
     width="100%"
     height="100%"
     transform="translate(-1.0000014,-1.5359)" />
  <use
     xlink:href="#b"
     fill="#ff00ff"
     transform="rotate(120,-0.05662456,-1.0566255)"
     id="use17"
     x="0"
     y="0"
     width="100%"
     height="100%" />
  <use
     xlink:href="#b"
     fill="#00ffff"
     transform="rotate(-120,-0.94337684,-0.47927446)"
     id="use19"
     x="0"
     y="0"
     width="100%"
     height="100%" />
  <use
     xlink:href="#c"
     fill="#ffffff"
     id="use21"
     x="0"
     y="0"
     width="100%"
     height="100%"
     transform="translate(-1.0000014,-1.5359)" />
  <path
     stroke="#000000"
     stroke-width="0.4"
     fill="none"
     d="m -1.6111268,-6.2801752 v -2.56 h 0.64000004 a 0.64,0.64 0 0 1 0,1.28 h -0.64000004 0.64000004 l 0.768,1.28"
     id="path23" />
  <path
     stroke="#000000"
     stroke-width="0.4"
     fill="none"
     d="m -6.3600014,0.8241 a 0.64,0.64 0 0 0 -1.28,0 v 1.28 a 0.64,0.64 0 0 0 1.28,0 v -0.64 h -0.64"
     id="path25" />
  <path
     stroke="#ffffff"
     stroke-width="0.4"
     fill="none"
     d="m 4.3599986,2.7441 v -2.56 h 0.64 a 0.64,0.64 0 0 1 0,1.28 h -0.64 0.64 a 0.64,0.64 0 0 1 0,1.28 h -0.8"
     id="path27" />
</svg>
