<svg id="Layer_1" data-name="Layer 1" xmlns="http://www.w3.org/2000/svg" viewBox="0 0 271.15 396.9"><defs><style>.cls-1{fill:#abddf3;}.cls-2,.cls-5{fill:none;stroke-miterlimit:10;stroke-width:0.9px;}.cls-2{stroke:#000;opacity:0;}.cls-3{fill:#3d4752;}.cls-4{fill:#d6d6d6;}.cls-5{stroke:#3d4752;}.cls-6{fill:#fff;}</style></defs><title>algorithm-flowchart</title><path class="cls-1" d="M43.78.45c6,0,10.8,6,10.8,13.5s-4.81,13.5-10.8,13.5H11.38c-6,0-10.8-6-10.8-13.5S5.39.45,11.38.45Z" transform="translate(0.13)"/><path class="cls-2" d="M43.78.45c6,0,10.8,6,10.8,13.5s-4.81,13.5-10.8,13.5H11.38c-6,0-10.8-6-10.8-13.5S5.39.45,11.38.45Z" transform="translate(0.13)"/><path class="cls-3" d="M19.48,12.27c0-1.43,1.6-1.93,2.91-1.46a1.65,1.65,0,0,1,.7.48l-.57.55a1.38,1.38,0,0,0-1.12-.53c-.76,0-1.33.58-1,1.32s1.61.61,2.21,1.12a1.44,1.44,0,0,1,.55,1.17c0,1.54-1.67,2.07-3,1.53a2,2,0,0,1-.83-.62l.62-.53a1.6,1.6,0,0,0,1.28.67c.8,0,1.45-.68,1-1.42s-1.68-.61-2.27-1.17a1.44,1.44,0,0,1-.47-1.12" transform="translate(0.13)"/><path class="cls-3" d="M25.42,16.58c-.75,0-1.13-.43-1.12-1.2V13.3h-.74v-.62h.74v-1.1h.75v1.1h1v.62h-1v2c0,.44.13.64.54.65a1.09,1.09,0,0,0,.45-.1l0,.62a1.94,1.94,0,0,1-.65.11" transform="translate(0.13)"/><path class="cls-3" d="M28.14,16a1.09,1.09,0,0,0,1.11-1.33c-.83,0-1.9,0-1.9.73,0,.44.35.59.79.6m-1.56-.58c0-1.24,1.4-1.26,2.67-1.3,0-.65-.35-.95-.95-.95a1.6,1.6,0,0,0-1.09.45l-.4-.49a2.26,2.26,0,0,1,1.57-.58A1.42,1.42,0,0,1,30,14.08,23.93,23.93,0,0,0,30,16.52h-.69a2.56,2.56,0,0,1-.06-.55h0a1.47,1.47,0,0,1-1.29.65C27.18,16.61,26.58,16.25,26.58,15.43Z" transform="translate(0.13)"/><path class="cls-3" d="M31.25,16.52c0-1.28,0-2.61,0-3.84h.72c0,.16,0,.48,0,.65h0a1.3,1.3,0,0,1,1.47-.72l0,.7A1.1,1.1,0,0,0,32,14.5v2h-.76" transform="translate(0.13)"/><path class="cls-3" d="M35.31,16.58c-.75,0-1.13-.43-1.12-1.2V13.3h-.74v-.62h.74v-1.1h.75v1.1h1v.62h-1v2c0,.44.13.64.54.65a1.09,1.09,0,0,0,.45-.1l0,.62a1.94,1.94,0,0,1-.65.11" transform="translate(0.13)"/><rect class="cls-4" x="99.7" y="0.45" width="54" height="27"/><rect class="cls-2" x="99.7" y="0.45" width="54" height="27"/><path class="cls-3" d="M115.2,12.27c0-1.43,1.6-1.93,2.91-1.46a1.65,1.65,0,0,1,.7.48l-.57.55a1.38,1.38,0,0,0-1.12-.53c-.76,0-1.33.58-1,1.32s1.61.61,2.21,1.12a1.44,1.44,0,0,1,.55,1.17c0,1.54-1.67,2.07-3,1.53a2,2,0,0,1-.83-.62l.62-.53a1.6,1.6,0,0,0,1.28.67c.8,0,1.45-.68,1-1.42s-1.68-.61-2.27-1.17a1.44,1.44,0,0,1-.47-1.12" transform="translate(0.13)"/><path class="cls-3" d="M126.18,14.4v.66h-4.26V14.4h4.26m0-1.34v.66h-4.26v-.66Z" transform="translate(0.13)"/><polyline class="cls-3" points="131.98 16.52 131.19 16.52 131.19 14.13 131.19 11.74 130.11 12.64 129.65 12.1 131.27 10.78 131.98 10.78 131.98 13.65 131.98 16.52"/><path class="cls-3" d="M136,10.63a1.63,1.63,0,0,1,1.74,2.14,2.64,2.64,0,0,1-.85,1.22L135,15.81h2.81v.7h-3.74v-.75l2.28-2.27a1.75,1.75,0,0,0,.63-1.22.94.94,0,0,0-1-1,1.08,1.08,0,0,0-1.08,1l-.77-.13A1.76,1.76,0,0,1,136,10.63" transform="translate(0.13)"/><polygon class="cls-4" points="106.9 54.45 153.7 54.45 146.5 81.45 99.7 81.45 106.9 54.45"/><polygon class="cls-2" points="106.9 54.45 153.7 54.45 146.5 81.45 99.7 81.45 106.9 54.45"/><path class="cls-3" d="M115.56,66.57c1.3,0,1.9.87,1.84,2.25h-3A1.2,1.2,0,0,0,115.6,70a1.28,1.28,0,0,0,1.12-.58l.53.43a1.92,1.92,0,0,1-1.65.79,2,2,0,0,1,0-4m1.08,1.68a1.07,1.07,0,0,0-1.54-1,1.12,1.12,0,0,0-.75,1Z" transform="translate(0.13)"/><path class="cls-3" d="M118.46,70.52c0-1.28,0-2.61,0-3.84h.72c0,.16,0,.45,0,.63h0a1.34,1.34,0,0,1,1.25-.74c1,0,1.43.61,1.43,1.56v2.38h-.76V68.38c0-.68-.19-1.17-.87-1.17s-1,.57-1,1.26v2h-.76" transform="translate(0.13)"/><path class="cls-3" d="M124.4,70.58c-.75,0-1.13-.43-1.12-1.2V67.3h-.74v-.62h.74v-1.1H124v1.1h1v.62h-1v2c0,.44.13.64.54.65a1.09,1.09,0,0,0,.45-.1l0,.62a1.94,1.94,0,0,1-.65.11" transform="translate(0.13)"/><path class="cls-3" d="M127.58,66.57c1.3,0,1.9.87,1.84,2.25h-3A1.2,1.2,0,0,0,127.62,70a1.28,1.28,0,0,0,1.12-.58l.53.43a1.92,1.92,0,0,1-1.65.79,2,2,0,0,1,0-4m1.08,1.68a1.07,1.07,0,0,0-1.54-1,1.12,1.12,0,0,0-.75,1Z" transform="translate(0.13)"/><path class="cls-3" d="M130.48,70.52c0-1.28,0-2.61,0-3.84h.72c0,.16,0,.48,0,.65h0a1.3,1.3,0,0,1,1.47-.72l0,.7a1.1,1.1,0,0,0-1.43,1.19v2h-.76" transform="translate(0.13)"/><path class="cls-3" d="M137.46,70a1.4,1.4,0,1,0-1.31-1.4,1.25,1.25,0,0,0,1.31,1.4m0,.63a1.62,1.62,0,0,1-1.3-.62h0v2.45h-.74V68.62a1.92,1.92,0,0,1,2.07-2.07,2,2,0,0,1,0,4.07Z" transform="translate(0.13)"/><polygon class="cls-4" points="126.7 101.7 158.2 128.75 126.7 155.79 95.2 128.75 126.7 101.7"/><polygon class="cls-2" points="126.7 101.7 158.2 128.75 126.7 155.79 95.2 128.75 126.7 101.7"/><polyline class="cls-3" points="109.62 131.49 108.81 131.49 108.81 128.62 108.81 125.75 109.62 125.75 109.62 128.62 109.62 131.49"/><path class="cls-3" d="M110.7,129.17c-.5-1.26.95-2,2.14-1.47a1.3,1.3,0,0,1,.6.47l-.53.45a1,1,0,0,0-.89-.48c-.38,0-.71.12-.71.5,0,.59.92.51,1.39.73a1.08,1.08,0,0,1,.78,1c.06,1.56-2.45,1.51-3.08.55l.54-.46a1.24,1.24,0,0,0,1,.53c.42,0,.76-.14.76-.56,0-.73-1.27-.51-1.76-.95a.84.84,0,0,1-.26-.3" transform="translate(0.13)"/><path class="cls-3" d="M118.47,131a1.4,1.4,0,1,0-1.31-1.4,1.25,1.25,0,0,0,1.31,1.4m0,.63a1.62,1.62,0,0,1-1.3-.62h0v2.45h-.74v-3.84a1.92,1.92,0,0,1,2.07-2.07,2,2,0,0,1,0,4.07Z" transform="translate(0.13)"/><path class="cls-3" d="M125.41,127.55c1.3,0,1.9.87,1.84,2.25h-3a1.2,1.2,0,0,0,1.25,1.17,1.28,1.28,0,0,0,1.12-.58l.53.43a1.92,1.92,0,0,1-1.65.79,2,2,0,0,1,0-4m1.08,1.68a1.07,1.07,0,0,0-1.54-1,1.12,1.12,0,0,0-.75,1Z" transform="translate(0.13)"/><path class="cls-3" d="M130.13,131.49h-.83l-1.56-3.84h.84c.38,1,.74,2,1.14,3l1.13-3h.81" transform="translate(0.13)"/><path class="cls-3" d="M134.13,127.55c1.3,0,1.9.87,1.84,2.25h-3a1.2,1.2,0,0,0,1.25,1.17,1.28,1.28,0,0,0,1.12-.58l.53.43a1.92,1.92,0,0,1-1.65.79,2,2,0,0,1,0-4m1.08,1.68a1.07,1.07,0,0,0-1.54-1,1.12,1.12,0,0,0-.75,1Z" transform="translate(0.13)"/><path class="cls-3" d="M137,131.49c0-1.28,0-2.61,0-3.84h.72c0,.16,0,.45,0,.63h0a1.34,1.34,0,0,1,1.25-.74c1,0,1.43.61,1.43,1.56v2.38h-.76v-2.13c0-.68-.19-1.17-.87-1.17s-1,.57-1,1.26v2H137" transform="translate(0.13)"/><path class="cls-3" d="M143.2,130.48a.53.53,0,0,1,.54.53.54.54,0,0,1-1.09,0,.54.54,0,0,1,.54-.53m0-4.84a1.5,1.5,0,0,1,1.59,2c-.15.67-.83.9-1.17,1.4a1.76,1.76,0,0,0-.12.87h-.76a1.93,1.93,0,0,1,.89-1.88,1,1,0,0,0,.41-.8.83.83,0,0,0-.88-.85.93.93,0,0,0-.93.89l-.78-.09A1.65,1.65,0,0,1,143.25,125.63Z" transform="translate(0.13)"/><rect class="cls-4" x="0.7" y="115.2" width="54" height="27"/><rect class="cls-2" x="0.7" y="115.2" width="54" height="27"/><path class="cls-3" d="M13.22,130.74a1.4,1.4,0,0,0,0-2.8,1.4,1.4,0,0,0,0,2.8m0,.63a1.62,1.62,0,0,1-1.3-.62h0v2.45h-.74v-3.84a1.92,1.92,0,0,1,2.07-2.07,2,2,0,0,1,0,4.07Z" transform="translate(0.13)"/><path class="cls-3" d="M22.55,129.15v.66H18.29v-.66h4.26m0-1.34v.66H18.29v-.66Z" transform="translate(0.13)"/><path class="cls-3" d="M27.84,130.74a1.4,1.4,0,1,0-1.31-1.4,1.25,1.25,0,0,0,1.31,1.4m0,.63a1.62,1.62,0,0,1-1.3-.62h0v2.45h-.74v-3.84a1.92,1.92,0,0,1,2.07-2.07,2,2,0,0,1,0,4.07Z" transform="translate(0.13)"/><polyline class="cls-3" points="35.5 128.48 37.3 128.48 37.3 128.81 37.3 129.14 35.5 129.14 35.5 130.04 35.5 130.94 34.84 130.94 34.84 130.04 34.84 129.14 33.04 129.14 33.04 128.81 33.04 128.48 34.84 128.48 34.84 127.58 34.84 126.68 35.5 126.68 35.5 127.58 35.5 128.48"/><polyline class="cls-3" points="42.97 131.26 42.18 131.26 42.18 128.88 42.18 126.49 41.1 127.39 40.63 126.85 42.26 125.53 42.97 125.53 42.97 128.4 42.97 131.26"/><polygon class="cls-4" points="126.7 184.95 158.2 211.95 126.7 238.95 95.2 211.95 126.7 184.95"/><polygon class="cls-2" points="126.7 184.95 158.2 211.95 126.7 238.95 95.2 211.95 126.7 184.95"/><polyline class="cls-3" points="125.28 208.98 124.47 208.98 124.47 206.11 124.47 203.25 125.28 203.25 125.28 206.11 125.28 208.98"/><path class="cls-3" d="M126.36,206.66c-.5-1.26.95-2,2.14-1.47a1.3,1.3,0,0,1,.6.47l-.53.45a1,1,0,0,0-.89-.48c-.38,0-.71.12-.71.5,0,.59.92.51,1.39.73a1.08,1.08,0,0,1,.78,1c.06,1.56-2.45,1.51-3.08.55l.54-.46a1.24,1.24,0,0,0,1,.53c.42,0,.76-.14.76-.56,0-.73-1.27-.51-1.76-.95a.84.84,0,0,1-.26-.3" transform="translate(0.13)"/><path class="cls-3" d="M112.62,219.52a1.4,1.4,0,1,0-1.31-1.4,1.25,1.25,0,0,0,1.31,1.4m0,.63a1.62,1.62,0,0,1-1.3-.62h0V222h-.74v-3.84a1.92,1.92,0,0,1,2.07-2.07,2,2,0,0,1,0,4.07Z" transform="translate(0.13)"/><path class="cls-3" d="M119.79,219.52a1.39,1.39,0,0,0,0-2.78,1.39,1.39,0,0,0,0,2.78m.13.64a1.59,1.59,0,0,1-1.35-.68h0V222h-.76v-5.78h.75v.6h0a1.54,1.54,0,0,1,1.39-.7,2,2,0,0,1,0,4Z" transform="translate(0.13)"/><path class="cls-3" d="M122.92,220.05c0-1.28,0-2.61,0-3.84h.72c0,.16,0,.48,0,.65h0a1.3,1.3,0,0,1,1.47-.72l0,.7a1.1,1.1,0,0,0-1.43,1.19v2h-.76" transform="translate(0.13)"/><path class="cls-3" d="M126.24,214.33a.5.5,0,0,1,.51.49.51.51,0,1,1-.51-.49m.38,5.72h-.76v-3.84h.76v3.84Z" transform="translate(0.13)"/><path class="cls-3" d="M128.69,216.84a1.34,1.34,0,0,1,1.22-.74,1.2,1.2,0,0,1,1.19.77,1.41,1.41,0,0,1,1.3-.77c1,0,1.43.61,1.43,1.56v2.38h-.76v-2.13c0-.66-.19-1.17-.85-1.17-1.39,0-.87,2-1,3.3h-.76v-2.28c0-.61-.21-1-.81-1s-1,.58-1,1.26v2h-.76c0-1.28,0-2.61,0-3.84h.72c0,.16,0,.45,0,.63h0" transform="translate(0.13)"/><path class="cls-3" d="M136.87,216.11c1.3,0,1.9.87,1.84,2.25h-3a1.2,1.2,0,0,0,1.25,1.17,1.28,1.28,0,0,0,1.12-.58l.53.43a1.92,1.92,0,0,1-1.65.79,2,2,0,0,1,0-4m1.08,1.68a1.07,1.07,0,0,0-1.54-1,1.12,1.12,0,0,0-.75,1Z" transform="translate(0.13)"/><path class="cls-3" d="M141.22,219a.53.53,0,0,1,.54.53.54.54,0,0,1-1.09,0,.54.54,0,0,1,.54-.53m0-4.84a1.5,1.5,0,0,1,1.59,2c-.15.67-.83.9-1.17,1.4a1.76,1.76,0,0,0-.12.87h-.76a1.93,1.93,0,0,1,.89-1.88,1,1,0,0,0,.41-.8.83.83,0,0,0-.88-.85.93.93,0,0,0-.93.89l-.78-.09A1.65,1.65,0,0,1,141.26,214.19Z" transform="translate(0.13)"/><polygon class="cls-4" points="126.7 265.95 158.2 292.95 126.7 319.95 95.2 292.95 126.7 265.95"/><polygon class="cls-2" points="126.7 265.95 158.2 292.95 126.7 319.95 95.2 292.95 126.7 265.95"/><polyline class="cls-3" points="112.63 295.51 111.83 295.51 111.83 292.65 111.83 289.78 112.63 289.78 112.63 292.65 112.63 295.51"/><path class="cls-3" d="M113.72,293.2c-.5-1.26.95-2,2.14-1.47a1.3,1.3,0,0,1,.6.47l-.53.45a1,1,0,0,0-.89-.48c-.38,0-.71.12-.71.5,0,.59.92.51,1.39.73a1.08,1.08,0,0,1,.78,1c.06,1.56-2.45,1.51-3.08.55l.54-.46a1.24,1.24,0,0,0,1,.53c.42,0,.76-.14.76-.56,0-.73-1.27-.51-1.76-.95a.84.84,0,0,1-.26-.3" transform="translate(0.13)"/><path class="cls-3" d="M121.53,295a1.4,1.4,0,1,0-1.31-1.4,1.25,1.25,0,0,0,1.31,1.4m0,.63a1.62,1.62,0,0,1-1.3-.62h0v2.45h-.74v-3.84a1.92,1.92,0,0,1,2.07-2.07,2,2,0,0,1,0,4.07Z" transform="translate(0.13)"/><polyline class="cls-3" points="130.93 291.63 127.81 293.06 130.92 294.49 130.92 294.83 130.92 295.18 126.8 293.3 126.8 293.06 126.8 292.82 130.93 290.95 130.93 291.29 130.93 291.63"/><path class="cls-3" d="M134,291.27c0-1.43,1.6-1.93,2.91-1.46a1.65,1.65,0,0,1,.7.48l-.57.55a1.38,1.38,0,0,0-1.12-.53c-.76,0-1.33.58-1,1.32s1.61.61,2.21,1.12a1.44,1.44,0,0,1,.55,1.17c0,1.54-1.67,2.07-3,1.53a2,2,0,0,1-.83-.62l.62-.53a1.6,1.6,0,0,0,1.28.67c.8,0,1.45-.68,1-1.42s-1.68-.61-2.27-1.17a1.44,1.44,0,0,1-.47-1.12" transform="translate(0.13)"/><path class="cls-3" d="M140.17,294.5a.53.53,0,0,1,.54.53.54.54,0,0,1-1.09,0,.54.54,0,0,1,.54-.53m0-4.84a1.5,1.5,0,0,1,1.59,2c-.15.67-.83.9-1.17,1.4a1.76,1.76,0,0,0-.12.87h-.76a1.93,1.93,0,0,1,.89-1.88,1,1,0,0,0,.41-.8.83.83,0,0,0-.88-.85.93.93,0,0,0-.93.89l-.78-.09A1.65,1.65,0,0,1,140.22,289.66Z" transform="translate(0.13)"/><rect class="cls-4" x="0.7" y="279.45" width="54" height="27"/><rect class="cls-2" x="0.7" y="279.45" width="54" height="27"/><path class="cls-3" d="M13,291.27c0-1.43,1.6-1.93,2.91-1.46a1.65,1.65,0,0,1,.7.48l-.57.55a1.38,1.38,0,0,0-1.12-.53c-.76,0-1.33.58-1,1.32s1.61.61,2.21,1.12a1.44,1.44,0,0,1,.55,1.17c0,1.54-1.67,2.07-3,1.53a2,2,0,0,1-.83-.62l.62-.53a1.6,1.6,0,0,0,1.28.67c.8,0,1.45-.68,1-1.42s-1.68-.61-2.27-1.17a1.44,1.44,0,0,1-.47-1.12" transform="translate(0.13)"/><path class="cls-3" d="M23.94,293.4v.66H19.68v-.66h4.26m0-1.34v.66H19.68v-.66Z" transform="translate(0.13)"/><path class="cls-3" d="M27,291.27c0-1.43,1.6-1.93,2.91-1.46a1.65,1.65,0,0,1,.7.48l-.57.55a1.38,1.38,0,0,0-1.12-.53c-.76,0-1.33.58-1,1.32s1.61.61,2.21,1.12a1.44,1.44,0,0,1,.55,1.17c0,1.54-1.67,2.07-3,1.53a2,2,0,0,1-.83-.62l.62-.53a1.6,1.6,0,0,0,1.28.67c.8,0,1.45-.68,1-1.42s-1.68-.61-2.27-1.17a1.44,1.44,0,0,1-.47-1.12" transform="translate(0.13)"/><polyline class="cls-3" points="35.56 293.86 33.68 293.86 33.68 293.54 33.68 293.21 35.56 293.21 35.56 293.54 35.56 293.86"/><polyline class="cls-3" points="40.99 295.51 40.2 295.51 40.2 293.13 40.2 290.74 39.12 291.64 38.66 291.1 40.28 289.78 40.99 289.78 40.99 292.65 40.99 295.51"/><polygon class="cls-4" points="27.7 324.45 54.7 346.95 27.7 369.45 0.7 346.95 27.7 324.45"/><polygon class="cls-2" points="27.7 324.45 54.7 346.95 27.7 369.45 0.7 346.95 27.7 324.45"/><path class="cls-3" d="M22.8,341.11c0-1.46-.95-2.13-2.4-2.17h-1v4.33h1c1.44,0,2.4-.72,2.4-2.16m-2.24-2.87c1.84.09,3.09,1,3.09,2.87a2.67,2.67,0,0,1-2,2.69,12,12,0,0,1-3.07.18v-5.73Z" transform="translate(0.13)"/><path class="cls-3" d="M26.54,343.45a1.39,1.39,0,1,0-1.28-1.39,1.24,1.24,0,0,0,1.28,1.39m0-3.41a2,2,0,1,1,0,4,2,2,0,1,1,0-4Z" transform="translate(0.13)"/><path class="cls-3" d="M31.4,340c1.3,0,1.9.87,1.84,2.25h-3a1.2,1.2,0,0,0,1.25,1.17,1.28,1.28,0,0,0,1.12-.58l.53.43a1.92,1.92,0,0,1-1.65.79,2,2,0,0,1,0-4m1.08,1.68a1.07,1.07,0,0,0-1.54-1,1.12,1.12,0,0,0-.75,1Z" transform="translate(0.13)"/><path class="cls-3" d="M34.17,341.66c-.5-1.26.95-2,2.14-1.47a1.3,1.3,0,0,1,.6.47l-.53.45a1,1,0,0,0-.89-.48c-.38,0-.71.12-.71.5,0,.59.92.51,1.39.73a1.08,1.08,0,0,1,.78,1c.06,1.56-2.45,1.51-3.08.55l.54-.46a1.24,1.24,0,0,0,1,.53c.42,0,.76-.14.76-.56,0-.73-1.27-.51-1.76-.95a.84.84,0,0,1-.26-.3" transform="translate(0.13)"/><path class="cls-3" d="M16.6,350.81c0-1.43,1.6-1.93,2.91-1.46a1.65,1.65,0,0,1,.7.48l-.57.55a1.38,1.38,0,0,0-1.12-.53c-.76,0-1.33.58-1,1.32s1.61.61,2.21,1.12a1.44,1.44,0,0,1,.55,1.17c0,1.54-1.67,2.07-3,1.53a2,2,0,0,1-.83-.62l.62-.53a1.6,1.6,0,0,0,1.28.67c.8,0,1.45-.68,1-1.42s-1.68-.61-2.27-1.17a1.44,1.44,0,0,1-.47-1.12" transform="translate(0.13)"/><path class="cls-3" d="M27.54,352.94v.66H23.28v-.66h4.26m0-1.34v.66H23.28v-.66Z" transform="translate(0.13)"/><path class="cls-3" d="M33.12,350.06a.85.85,0,0,0-1.15,0c-.68.71-.72,2.57-.36,3.66a1,1,0,0,0,.94.81c1.22,0,1.21-1.83,1.1-3.13a2.3,2.3,0,0,0-.53-1.34m-2.41,3.3c-.32-1.88,0-4.2,1.85-4.2,1.53,0,2,1.43,2,3A3.17,3.17,0,0,1,33.43,355a1.79,1.79,0,0,1-1.76,0A2.3,2.3,0,0,1,30.71,353.37Z" transform="translate(0.13)"/><path class="cls-3" d="M37.06,354a.53.53,0,0,1,.54.53.54.54,0,0,1-1.09,0,.54.54,0,0,1,.54-.53m0-4.84a1.5,1.5,0,0,1,1.59,2c-.15.67-.83.9-1.17,1.4a1.76,1.76,0,0,0-.12.87h-.76a1.93,1.93,0,0,1,.89-1.88,1,1,0,0,0,.41-.8.83.83,0,0,0-.88-.85.93.93,0,0,0-.93.89l-.78-.09A1.65,1.65,0,0,1,37.11,349.19Z" transform="translate(0.13)"/><polygon class="cls-4" points="106.9 369.45 153.7 369.45 146.5 396.45 99.7 396.45 106.9 369.45"/><polygon class="cls-2" points="106.9 369.45 153.7 369.45 146.5 396.45 99.7 396.45 106.9 369.45"/><path class="cls-3" d="M113,385a1.39,1.39,0,1,0-1.28-1.39A1.24,1.24,0,0,0,113,385m0-3.41a2,2,0,1,1-2.07,2A1.9,1.9,0,0,1,113,381.57Z" transform="translate(0.13)"/><path class="cls-3" d="M119.5,381.68c0,1.28,0,2.61,0,3.84h-.72c0-.16,0-.49,0-.63a1.41,1.41,0,0,1-1.26.74,1.36,1.36,0,0,1-1.43-1.56v-2.38h.76v2.12c0,.68.19,1.18.87,1.18s1-.57,1-1.26v-2h.76" transform="translate(0.13)"/><path class="cls-3" d="M122,385.58c-.75,0-1.13-.43-1.12-1.2V382.3h-.74v-.62h.74v-1.1h.75v1.1h1v.62h-1v2c0,.44.13.64.54.65a1.09,1.09,0,0,0,.45-.1l0,.62a1.94,1.94,0,0,1-.65.11" transform="translate(0.13)"/><path class="cls-3" d="M125.5,385a1.39,1.39,0,0,0,0-2.78,1.39,1.39,0,0,0,0,2.78m.13.64a1.59,1.59,0,0,1-1.35-.68h0v2.52h-.76v-5.78h.75v.6h0a1.54,1.54,0,0,1,1.39-.7,2,2,0,0,1,0,4Z" transform="translate(0.13)"/><path class="cls-3" d="M132,381.68c0,1.28,0,2.61,0,3.84h-.72c0-.16,0-.49,0-.63a1.41,1.41,0,0,1-1.26.74,1.36,1.36,0,0,1-1.43-1.56v-2.38h.76v2.12c0,.68.19,1.18.87,1.18s1-.57,1-1.26v-2H132" transform="translate(0.13)"/><path class="cls-3" d="M134.56,385.58c-.75,0-1.13-.43-1.12-1.2V382.3h-.74v-.62h.74v-1.1h.75v1.1h1v.62h-1v2c0,.44.13.64.54.65a1.09,1.09,0,0,0,.45-.1l0,.62a1.94,1.94,0,0,1-.65.11" transform="translate(0.13)"/><path class="cls-3" d="M140.07,385a1.4,1.4,0,1,0-1.31-1.4,1.25,1.25,0,0,0,1.31,1.4m0,.63a1.62,1.62,0,0,1-1.3-.62h0v2.45H138v-3.84a1.92,1.92,0,0,1,2.07-2.07,2,2,0,0,1,0,4.07Z" transform="translate(0.13)"/><path class="cls-1" d="M241.78,369.45c6,0,10.8,6,10.8,13.5s-4.82,13.5-10.8,13.5h-32.4c-6,0-10.8-6-10.8-13.5s4.82-13.5,10.8-13.5Z" transform="translate(0.13)"/><path class="cls-2" d="M241.78,369.45c6,0,10.8,6,10.8,13.5s-4.82,13.5-10.8,13.5h-32.4c-6,0-10.8-6-10.8-13.5s4.82-13.5,10.8-13.5Z" transform="translate(0.13)"/><path class="cls-3" d="M217.39,381.27c0-1.43,1.6-1.93,2.91-1.46a1.65,1.65,0,0,1,.7.48l-.57.55a1.38,1.38,0,0,0-1.12-.53c-.76,0-1.33.58-1,1.32s1.61.61,2.21,1.12a1.44,1.44,0,0,1,.55,1.17c0,1.54-1.67,2.07-3,1.53a2,2,0,0,1-.83-.62l.62-.53a1.6,1.6,0,0,0,1.28.67c.8,0,1.45-.68,1-1.42s-1.68-.61-2.27-1.17a1.44,1.44,0,0,1-.47-1.12" transform="translate(0.13)"/><path class="cls-3" d="M223.33,385.58c-.75,0-1.13-.43-1.12-1.2V382.3h-.74v-.62h.74v-1.1H223v1.1h1v.62h-1v2c0,.44.13.64.54.65a1.09,1.09,0,0,0,.45-.1l0,.62a1.94,1.94,0,0,1-.65.11" transform="translate(0.13)"/><path class="cls-3" d="M226.59,385a1.39,1.39,0,1,0-1.28-1.39,1.24,1.24,0,0,0,1.28,1.39m0-3.41a2,2,0,1,1-2.07,2A1.9,1.9,0,0,1,226.59,381.57Z" transform="translate(0.13)"/><path class="cls-3" d="M231.72,385a1.39,1.39,0,0,0,0-2.78,1.39,1.39,0,0,0,0,2.78m.13.64a1.59,1.59,0,0,1-1.35-.68h0v2.52h-.76v-5.78h.75v.6h0a1.54,1.54,0,0,1,1.39-.7,2,2,0,0,1,0,4Z" transform="translate(0.13)"/><rect class="cls-4" x="198.7" y="279.45" width="54" height="27"/><rect class="cls-2" x="198.7" y="279.45" width="54" height="27"/><path class="cls-3" d="M210.82,291.27c0-1.43,1.6-1.93,2.91-1.46a1.65,1.65,0,0,1,.7.48l-.57.55a1.38,1.38,0,0,0-1.12-.53c-.76,0-1.33.58-1,1.32s1.61.61,2.21,1.12a1.44,1.44,0,0,1,.55,1.17c0,1.54-1.67,2.07-3,1.53a2,2,0,0,1-.83-.62l.62-.53a1.6,1.6,0,0,0,1.28.67c.8,0,1.45-.68,1-1.42s-1.68-.61-2.27-1.17a1.44,1.44,0,0,1-.47-1.12" transform="translate(0.13)"/><path class="cls-3" d="M221.76,293.4v.66H217.5v-.66h4.26m0-1.34v.66H217.5v-.66Z" transform="translate(0.13)"/><path class="cls-3" d="M224.86,291.27c0-1.43,1.6-1.93,2.91-1.46a1.65,1.65,0,0,1,.7.48l-.57.55a1.38,1.38,0,0,0-1.12-.53c-.76,0-1.33.58-1,1.32s1.61.61,2.21,1.12a1.44,1.44,0,0,1,.55,1.17c0,1.54-1.67,2.07-3,1.53a2,2,0,0,1-.83-.62l.62-.53a1.6,1.6,0,0,0,1.28.67c.8,0,1.45-.68,1-1.42s-1.68-.61-2.27-1.17a1.44,1.44,0,0,1-.47-1.12" transform="translate(0.13)"/><polyline class="cls-3" points="233.34 293.86 231.46 293.86 231.46 293.54 231.46 293.21 233.34 293.21 233.34 293.54 233.34 293.86"/><path class="cls-3" d="M238.31,295a1.4,1.4,0,1,0-1.31-1.4,1.25,1.25,0,0,0,1.31,1.4m0,.63A1.62,1.62,0,0,1,237,295h0v2.45h-.74v-3.84a1.92,1.92,0,0,1,2.07-2.07,2,2,0,0,1,0,4.07Z" transform="translate(0.13)"/><rect class="cls-4" x="198.7" y="198.45" width="54" height="27"/><rect class="cls-2" x="198.7" y="198.45" width="54" height="27"/><path class="cls-3" d="M211.22,214a1.4,1.4,0,1,0-1.31-1.4,1.25,1.25,0,0,0,1.31,1.4m0,.63A1.62,1.62,0,0,1,210,214h0v2.45h-.74v-3.84a1.92,1.92,0,0,1,2.07-2.07,2,2,0,0,1,0,4.07Z" transform="translate(0.13)"/><path class="cls-3" d="M220.55,212.4v.66h-4.26v-.66h4.26m0-1.34v.66h-4.26v-.66Z" transform="translate(0.13)"/><path class="cls-3" d="M225.84,214a1.4,1.4,0,1,0-1.31-1.4,1.25,1.25,0,0,0,1.31,1.4m0,.63a1.62,1.62,0,0,1-1.3-.62h0v2.45h-.74v-3.84a1.92,1.92,0,0,1,2.07-2.07,2,2,0,0,1,0,4.07Z" transform="translate(0.13)"/><polyline class="cls-3" points="233.5 211.73 235.3 211.73 235.3 212.06 235.3 212.39 233.5 212.39 233.5 213.29 233.5 214.19 232.84 214.19 232.84 213.29 232.84 212.39 231.04 212.39 231.04 212.06 231.04 211.73 232.84 211.73 232.84 210.83 232.84 209.93 233.5 209.93 233.5 210.83 233.5 211.73"/><path class="cls-3" d="M240.16,208.63a1.63,1.63,0,0,1,1.74,2.14,2.64,2.64,0,0,1-.85,1.22l-1.86,1.81H242v.7h-3.74v-.75l2.28-2.27a1.75,1.75,0,0,0,.63-1.22.94.94,0,0,0-1-1,1.08,1.08,0,0,0-1.08,1l-.77-.13a1.76,1.76,0,0,1,1.85-1.52" transform="translate(0.13)"/><line class="cls-5" x1="54.7" y1="13.95" x2="99.7" y2="13.95"/><polygon class="cls-3" points="54.7 14.4 54.66 14.4 54.7 13.95 54.7 13.5 54.7 14.4"/><polygon class="cls-3" points="99.7 13.95 93.27 16.02 93.27 11.88 99.7 13.95"/><path class="cls-3" d="M93.59,15.44l4.54-1.49-4.54-1.48Zm6-2v1l-6.88,2.2v-5.4Z" transform="translate(0.13)"/><line class="cls-5" x1="126.7" y1="27.45" x2="126.7" y2="54"/><polygon class="cls-3" points="126.7 54 124.63 47.56 128.77 47.56 126.7 54"/><path class="cls-3" d="M125.09,48l1.48,4.55L128.06,48Zm1.8,6.43h-.63l-2.38-7.33h5.4Z" transform="translate(0.13)"/><path class="cls-5" d="M95.08,128.75h-20s0,0,0,0H55" transform="translate(0.13)"/><polygon class="cls-3" points="95.2 128.75 95.74 129.19 95.2 129.19 95.2 128.29 95.74 128.29 95.2 128.75"/><polygon class="cls-3" points="61.59 130.77 55.15 128.7 61.59 126.63 61.59 130.77"/><path class="cls-3" d="M56.47,128.7,61,130.19v-3Zm5.44,2.7L54.58,129v-.63L61.91,126Z" transform="translate(0.13)"/><rect class="cls-6" x="68.88" y="123.17" width="12.55" height="11.07"/><polyline class="cls-3" points="71.81 131.26 71 131.26 71 130.03 71 128.79 68.85 125.53 69.84 125.53 71.43 128.12 73.03 125.53 73.96 125.53 71.81 128.79 71.81 130.03 71.81 131.26"/><path class="cls-3" d="M75.44,127.32c1.3,0,1.9.87,1.84,2.25h-3a1.2,1.2,0,0,0,1.25,1.17,1.28,1.28,0,0,0,1.12-.58l.53.43a1.92,1.92,0,0,1-1.65.79,2,2,0,0,1,0-4M76.52,129A1.07,1.07,0,0,0,75,128a1.12,1.12,0,0,0-.75,1Z" transform="translate(0.13)"/><path class="cls-3" d="M78.21,128.95c-.5-1.26.95-2,2.14-1.47a1.3,1.3,0,0,1,.6.47l-.53.45a1,1,0,0,0-.89-.48c-.38,0-.71.12-.71.5,0,.59.92.51,1.39.73a1.08,1.08,0,0,1,.78,1c.06,1.56-2.45,1.51-3.08.55l.54-.46a1.24,1.24,0,0,0,1,.53c.42,0,.76-.14.76-.56,0-.73-1.27-.51-1.76-.95a.84.84,0,0,1-.26-.3" transform="translate(0.13)"/><line class="cls-5" x1="126.7" y1="155.79" x2="126.7" y2="184.23"/><path class="cls-3" d="M127,155.79h-.45l.45-.36Zm-.45,0h-.45v-.36Z" transform="translate(0.13)"/><polygon class="cls-3" points="126.7 184.23 124.63 177.84 128.77 177.84 126.7 184.23"/><path class="cls-3" d="M125.09,178.29l1.48,4.5,1.49-4.5Zm1.66,6.84-.18-.18-.18.18-2.52-7.74h5.4Z" transform="translate(0.13)"/><rect class="cls-6" x="121.08" y="160.6" width="11.21" height="11.02"/><path class="cls-3" d="M122.69,163c1,1.52,2,3.08,3,4.58V163h.8v5.73h-1c-1-1.56-2-3.14-3-4.68v4.68h-.8V163h1" transform="translate(0.13)"/><path class="cls-3" d="M129.68,168.17a1.39,1.39,0,1,0-1.28-1.39,1.24,1.24,0,0,0,1.28,1.39m0-3.41a2,2,0,1,1-2.07,2A1.9,1.9,0,0,1,129.68,164.76Z" transform="translate(0.13)"/><line class="cls-5" x1="126.7" y1="81.9" x2="126.7" y2="100.98"/><rect class="cls-3" x="126.25" y="81.45" width="0.9" height="0.45"/><polygon class="cls-3" points="126.7 100.98 124.63 94.59 128.77 94.59 126.7 100.98"/><path class="cls-3" d="M125.09,95l1.48,4.5,1.49-4.5Zm1.66,6.84-.18-.18-.18.18-2.52-7.74h5.4Z" transform="translate(0.13)"/><line class="cls-5" x1="158.2" y1="211.95" x2="198.7" y2="211.95"/><polygon class="cls-3" points="158.2 212.4 157.66 212.4 158.2 211.95 157.66 211.5 158.2 211.5 158.2 212.4"/><polygon class="cls-3" points="198.7 211.95 192.27 214.02 192.27 209.88 198.7 211.95"/><path class="cls-3" d="M192.59,213.44l4.54-1.49-4.54-1.48Zm6-2v1l-6.88,2.2v-5.4Z" transform="translate(0.13)"/><rect class="cls-6" x="172.83" y="206.42" width="11.21" height="11.02"/><path class="cls-3" d="M174.44,208.78c1,1.52,2,3.08,3,4.58v-4.58h.8v5.73h-1c-1-1.56-2-3.14-3-4.68v4.68h-.8v-5.73h1" transform="translate(0.13)"/><path class="cls-3" d="M181.43,214a1.39,1.39,0,1,0-1.28-1.39,1.24,1.24,0,0,0,1.28,1.39m0-3.41a2,2,0,1,1-2.07,2A1.9,1.9,0,0,1,181.43,210.57Z" transform="translate(0.13)"/><path class="cls-5" d="M225.58,198.45V131a2.23,2.23,0,0,0-2.25-2.25H158.08" transform="translate(0.13)"/><polygon class="cls-3" points="164.64 130.81 158.2 128.75 164.64 126.67 164.64 130.81"/><path class="cls-3" d="M159.52,128.75l4.54,1.48v-2.92Zm5.44,2.7-7.29-2.34.4-.36-.4-.36L165,126Z" transform="translate(0.13)"/><line class="cls-5" x1="126.7" y1="238.95" x2="126.7" y2="265.23"/><path class="cls-3" d="M127,239h-.45l.45-.4Zm-.45,0h-.45v-.4Z" transform="translate(0.13)"/><polygon class="cls-3" points="126.7 265.23 124.63 258.84 128.77 258.84 126.7 265.23"/><path class="cls-3" d="M125.09,259.29l1.48,4.5,1.49-4.5Zm1.66,6.84-.18-.18-.18.18-2.52-7.74h5.4Z" transform="translate(0.13)"/><rect class="cls-6" x="120.4" y="243.45" width="12.56" height="11.07"/><polyline class="cls-3" points="123.33 251.55 122.53 251.55 122.53 250.31 122.53 249.07 120.38 245.81 121.37 245.81 122.95 248.41 124.55 245.81 125.48 245.81 123.33 249.07 123.33 250.31 123.33 251.55"/><path class="cls-3" d="M127,247.61c1.3,0,1.9.87,1.84,2.25h-3A1.2,1.2,0,0,0,127,251a1.28,1.28,0,0,0,1.12-.58l.53.43a1.92,1.92,0,0,1-1.65.79,2,2,0,0,1,0-4m1.08,1.68a1.07,1.07,0,0,0-1.54-1,1.12,1.12,0,0,0-.75,1Z" transform="translate(0.13)"/><path class="cls-3" d="M129.74,249.23c-.5-1.26.95-2,2.14-1.47a1.3,1.3,0,0,1,.6.47l-.53.45a1,1,0,0,0-.89-.48c-.38,0-.71.12-.71.5,0,.59.92.51,1.39.73a1.08,1.08,0,0,1,.78,1c.06,1.56-2.45,1.51-3.08.55l.54-.46a1.24,1.24,0,0,0,1,.53c.42,0,.76-.14.76-.56,0-.73-1.27-.51-1.76-.95a.84.84,0,0,1-.26-.3" transform="translate(0.13)"/><line class="cls-5" x1="158.2" y1="292.95" x2="198.25" y2="292.95"/><polygon class="cls-3" points="158.2 293.4 157.66 293.4 158.2 292.95 157.66 292.5 158.2 292.5 158.2 293.4"/><polygon class="cls-3" points="198.25 292.95 191.82 295.02 191.82 290.88 198.25 292.95"/><path class="cls-3" d="M192.14,294.44l4.54-1.49-4.54-1.48Zm6.43-1.8v.63l-7.33,2.39v-5.4Z" transform="translate(0.13)"/><rect class="cls-6" x="171.93" y="287.42" width="12.55" height="11.02"/><polyline class="cls-3" points="174.86 295.51 174.05 295.51 174.05 294.28 174.05 293.04 171.9 289.78 172.89 289.78 174.48 292.37 176.07 289.78 177.01 289.78 174.86 293.04 174.86 294.28 174.86 295.51"/><path class="cls-3" d="M178.49,291.57c1.3,0,1.9.87,1.84,2.25h-3a1.2,1.2,0,0,0,1.25,1.17,1.28,1.28,0,0,0,1.12-.58l.53.43a1.92,1.92,0,0,1-1.65.79,2,2,0,0,1,0-4m1.08,1.68a1.07,1.07,0,0,0-1.54-1,1.12,1.12,0,0,0-.75,1Z" transform="translate(0.13)"/><path class="cls-3" d="M181.26,293.2c-.5-1.26.95-2,2.14-1.47a1.3,1.3,0,0,1,.6.47l-.53.45a1,1,0,0,0-.89-.48c-.38,0-.71.12-.71.5,0,.59.92.51,1.39.73a1.08,1.08,0,0,1,.78,1c.06,1.56-2.45,1.51-3.08.55l.54-.46a1.24,1.24,0,0,0,1,.53c.42,0,.76-.14.76-.56,0-.73-1.27-.51-1.76-.95a.84.84,0,0,1-.26-.3" transform="translate(0.13)"/><line class="cls-5" x1="225.7" y1="279.45" x2="225.7" y2="225.45"/><polygon class="cls-3" points="227.77 231.88 223.63 231.88 225.7 225.45 227.77 231.88"/><path class="cls-3" d="M224.09,231.44h3l-1.49-4.54Zm4.18.9h-5.4l2.2-6.88h1Z" transform="translate(0.13)"/><path class="cls-5" d="M27.58,324.45V308.12h0v15.75" transform="translate(0.13)"/><polygon class="cls-3" points="28.15 324.81 27.7 324.45 27.25 324.81 27.25 324.45 28.15 324.45 28.15 324.81"/><polygon class="cls-3" points="27.7 323.87 25.63 317.43 29.77 317.43 27.7 323.87"/><path class="cls-3" d="M26.09,317.88l1.49,4.54,1.49-4.54Zm1.71,6.75-.22-.18-.22.18L24.88,317h5.4Z" transform="translate(0.13)"/><line class="cls-5" x1="27.7" y1="306.45" x2="27.7" y2="324.45"/><polygon class="cls-3" points="27.7 324.45 25.63 318.01 29.77 318.01 27.7 324.45"/><path class="cls-3" d="M26.09,318.47,27.58,323l1.49-4.54Zm1.85,6.3-.36-.32-.36.32-2.34-7.2h5.4Z" transform="translate(0.13)"/><path class="cls-5" d="M54.58,347H268.33a2.23,2.23,0,0,0,2.25-2.25V214.2a2.23,2.23,0,0,0-2.25-2.25H252.58" transform="translate(0.13)"/><polygon class="cls-3" points="54.7 347.4 54.16 347.4 54.7 346.95 54.16 346.5 54.7 346.5 54.7 347.4"/><polygon class="cls-3" points="259.14 214.02 252.7 211.95 259.14 209.88 259.14 214.02"/><path class="cls-3" d="M254,212l4.55,1.49v-3Zm5.45,2.7-6.89-2.2v-1l6.89-2.21Z" transform="translate(0.13)"/><rect class="cls-6" x="233.58" y="341.41" width="11.21" height="11.03"/><path class="cls-3" d="M235.19,343.78c1,1.52,2,3.08,3,4.58v-4.58h.8v5.73h-1c-1-1.56-2-3.14-3-4.68v4.68h-.8v-5.73h1" transform="translate(0.13)"/><path class="cls-3" d="M242.18,349a1.39,1.39,0,1,0-1.28-1.39,1.24,1.24,0,0,0,1.28,1.39m0-3.41a2,2,0,1,1-2.07,2A1.9,1.9,0,0,1,242.18,345.57Z" transform="translate(0.13)"/><path class="cls-5" d="M27.58,369.45V380.7A2.23,2.23,0,0,0,29.83,383h73.35" transform="translate(0.13)"/><path class="cls-3" d="M28,369.45h-.45l.45-.36Zm-.45,0h-.45v-.36Z" transform="translate(0.13)"/><polygon class="cls-3" points="103.3 382.95 96.87 385.02 96.87 380.88 103.3 382.95"/><path class="cls-3" d="M97.19,384.43l4.54-1.48-4.54-1.48Zm6.12-1.93-.27,1-6.75,2.16v-5.4Z" transform="translate(0.13)"/><rect class="cls-6" x="52.45" y="377.41" width="12.56" height="11.03"/><polyline class="cls-3" points="55.38 385.51 54.58 385.51 54.58 384.28 54.58 383.04 52.43 379.78 53.42 379.78 55 382.37 56.6 379.78 57.53 379.78 55.38 383.04 55.38 384.28 55.38 385.51"/><path class="cls-3" d="M59,381.57c1.3,0,1.9.87,1.84,2.25h-3A1.2,1.2,0,0,0,59.06,385a1.28,1.28,0,0,0,1.12-.58l.53.43a1.92,1.92,0,0,1-1.65.79,2,2,0,0,1,0-4m1.08,1.68a1.07,1.07,0,0,0-1.54-1,1.12,1.12,0,0,0-.75,1Z" transform="translate(0.13)"/><path class="cls-3" d="M61.79,383.2c-.5-1.26.95-2,2.14-1.47a1.3,1.3,0,0,1,.6.47l-.53.45a1,1,0,0,0-.89-.48c-.38,0-.71.12-.71.5,0,.59.92.51,1.39.73a1.08,1.08,0,0,1,.78,1c.06,1.56-2.45,1.51-3.08.55l.54-.46a1.24,1.24,0,0,0,1,.53c.42,0,.76-.14.76-.56,0-.73-1.27-.51-1.76-.95a.84.84,0,0,1-.26-.3" transform="translate(0.13)"/><line class="cls-5" x1="150.1" y1="382.95" x2="198.25" y2="382.95"/><polygon class="cls-3" points="150.1 383.4 149.97 383.4 150.1 382.95 150.1 383.4"/><polygon class="cls-3" points="198.25 382.95 191.82 385.02 191.82 380.88 198.25 382.95"/><path class="cls-3" d="M192.14,384.43l4.54-1.48-4.54-1.48Zm6.48-1.8,0,.32v.32l-7.33,2.39v-5.4Z" transform="translate(0.13)"/><line class="cls-5" x1="95.2" y1="292.95" x2="54.7" y2="292.95"/><polygon class="cls-3" points="95.2 292.95 95.74 293.4 95.2 293.4 95.2 292.5 95.74 292.5 95.2 292.95"/><polygon class="cls-3" points="61.14 295.02 54.7 292.95 61.14 290.88 61.14 295.02"/><path class="cls-3" d="M56,293l4.54,1.49v-3Zm5.44,2.7-6.89-2.21v-1l6.89-2.2Z" transform="translate(0.13)"/><rect class="cls-6" x="69.33" y="287.42" width="11.2" height="11.02"/><path class="cls-3" d="M70.94,289.78c1,1.52,2,3.08,3,4.58v-4.58h.8v5.73h-1c-1-1.56-2-3.14-3-4.68v4.68h-.8v-5.73h1" transform="translate(0.13)"/><path class="cls-3" d="M77.93,295a1.39,1.39,0,1,0-1.28-1.39A1.24,1.24,0,0,0,77.93,295m0-3.41a2,2,0,1,1-2.07,2A1.9,1.9,0,0,1,77.93,291.57Z" transform="translate(0.13)"/></svg>