<?xml version="1.0" encoding="UTF-8"?>
<!DOCTYPE svg PUBLIC "-//W3C//DTD SVG 1.1//EN" "http://www.w3.org/Graphics/SVG/1.1/DTD/svg11.dtd">
<!-- Creator: CorelDRAW -->
<svg xmlns="http://www.w3.org/2000/svg" xml:space="preserve" width="155mm" height="207mm" style="shape-rendering:geometricPrecision; text-rendering:geometricPrecision; image-rendering:optimizeQuality; fill-rule:evenodd; clip-rule:evenodd"
viewBox="0 0 155 207"
 xmlns:xlink="http://www.w3.org/1999/xlink">
 <defs>
  <style type="text/css">
   <![CDATA[
    .str0 {stroke:#1F1A17;stroke-width:1.0583}
    .fil2 {fill:none}
    .fil3 {fill:#1F1A17;fill-rule:nonzero}
    .fil0 {fill:#0093DD;fill-opacity:0.501961}
    .fil1 {fill:#838281;fill-opacity:0.501961}
   ]]>
  </style>
 </defs>
 <g id="Warstwa_x0020_1">
  <metadata id="CorelCorpID_0Corel-Layer"/>
  <g id="_149707184">
   <path id="_55546288" class="fil0" d="M2.4824 50.3863l11.6686 -0.0048c2.9534,-0.1388 3.9355,-2.5347 3.9355,-3.8186l0.3061 -6.3366c0.2118,10.16 20.3963,9.97 22.9177,0l0 6.3366c0,1.582 1.3386,3.8256 3.8979,3.8256l12.091 0c3.0405,0 4.2989,-2.7899 4.2998,-4.3719l0.0188 -31.1881c2.0018,6.6467 8.9887,6.6467 11.9878,0l0.0149 31.7344c0,1.469 0.798,3.8608 3.6005,3.8608l11.7265 -0.0352 0.0767 155.241 -86.5418 0 0 -155.243z"/>
   <path id="_55109328" class="fil1" d="M93.9083 49.6349l14.1466 0.096c2.391,0.1578 4.2627,4.1689 4.2675,6.508l-0.0048 11.4238c3.1515,-10.3191 18.8817,-10.02 22.1663,0l0 -11.08c-0.0001,-2.6829 1.9921,-6.6764 4.5793,-6.662l13.381 -0.1898 0.0733 155.898 -58.6092 0 0 -155.994z"/>
   <line id="_55577392" class="fil2 str0" x1="18.3926" y1="1.3709" x2="18.3926" y2= "155.582" />
   <line id="_55567824" class="fil2 str0" x1="41.3103" y1="1.3709" x2="41.3103" y2= "155.582" />
   <line id="_54567240" class="fil2 str0" x1="61.5981" y1="1.3709" x2="61.5981" y2= "155.207" />
   <line id="_55108400" class="fil2 str0" x1="73.6205" y1="1.3709" x2="73.6205" y2= "155.207" />
   <line id="_55506192" class="fil2 str0" x1="112.318" y1="1.3709" x2="112.318" y2= "156.334" />
   <line id="_54085800" class="fil2 str0" x1="134.484" y1="1.3709" x2="134.484" y2= "156.334" />
   <path id="_54046136" class="fil3" d="M29.3626 169.651c1.5526,0.0499 2.4224,0.0748 2.6126,0.0748 0.1995,0 1.0725,-0.0249 2.6219,-0.0748l0.0718 0.0655 0 0.4551 -0.0718 0.0655c-0.4208,0.0125 -0.7451,0.0312 -0.9727,0.053 -0.2307,0.025 -0.3959,0.0717 -0.4988,0.1372 -0.1029,0.0686 -0.1715,0.2245 -0.2058,0.4708 -0.0343,0.2463 -0.0498,0.5892 -0.0498,1.0288l-0.0188 2.1013 0 1.2783c1.3344,0.0374 2.5971,0.053 3.7911,0.053 1.6306,0 2.8746,-0.0156 3.7257,-0.053l0 -1.2783 -0.0187 -1.7833c-0.0063,-0.6921 -0.025,-1.1411 -0.053,-1.3406 -0.0312,-0.2026 -0.0749,-0.3367 -0.1279,-0.4022 -0.0561,-0.0686 -0.1652,-0.1216 -0.3304,-0.1652 -0.1653,-0.0437 -0.5706,-0.0748 -1.2222,-0.0998l-0.0654 -0.0655 0 -0.4551 0.0654 -0.0655c1.5589,0.0499 2.4318,0.0748 2.6189,0.0748 0.2089,0 1.0818,-0.0249 2.622,-0.0748l0.0748 0.0655 0 0.4551 -0.0748 0.0655c-0.424,0.0125 -0.7514,0.0312 -0.9821,0.053 -0.2276,0.025 -0.3928,0.0717 -0.4957,0.1372 -0.106,0.0686 -0.1715,0.2245 -0.2027,0.4708 -0.0311,0.2463 -0.0467,0.5892 -0.053,1.0288l-0.0187 2.1013 0 4.2276 0.0187 1.7802c0.0063,0.689 0.0219,1.1348 0.053,1.3344 0.0312,0.2026 0.0749,0.3367 0.1341,0.4021 0.0561,0.0686 0.1652,0.1248 0.3274,0.1684 0.1621,0.0468 0.5674,0.0811 1.219,0.106l0.0748 0.0561 0 0.4552 -0.0748 0.0717c-1.5589,-0.0468 -2.4318,-0.0717 -2.622,-0.0717 -0.1933,0 -1.0663,0.0249 -2.6189,0.0717l-0.0654 -0.0717 0 -0.4552 0.0654 -0.0561c0.5706,-0.0249 0.9509,-0.0561 1.1411,-0.0904 0.1871,-0.0374 0.3118,-0.0842 0.3741,-0.1434 0.0593,-0.0561 0.1123,-0.1809 0.1559,-0.3679 0.0406,-0.1902 0.0624,-0.6111 0.0624,-1.2627l0.0187 -1.9267 0 -2.0826c-1.802,-0.0374 -3.0647,-0.053 -3.7911,-0.053 -0.742,0 -1.9829,0.0156 -3.7257,0.053l0 2.0826 0.0094 1.7802c0.0062,0.689 0.0249,1.1348 0.0561,1.3344 0.0281,0.2026 0.0717,0.3367 0.131,0.4021 0.0592,0.0686 0.1683,0.1248 0.3336,0.1684 0.1652,0.0468 0.5705,0.0811 1.2158,0.106l0.0718 0.0561 0 0.4552 -0.0718 0.0717c-1.5526,-0.0468 -2.4286,-0.0717 -2.6219,-0.0717 -0.1902,0 -1.06,0.0249 -2.6126,0.0717l-0.0749 -0.0717 0 -0.4552 0.0749 -0.0561c0.5643,-0.0249 0.9446,-0.0561 1.1317,-0.0904 0.1902,-0.0374 0.3149,-0.0842 0.3803,-0.1434 0.0624,-0.0561 0.1154,-0.1809 0.1559,-0.3679 0.0374,-0.1902 0.0624,-0.6111 0.0686,-1.2627l0.0062 -1.9267 0 -4.2276 -0.0155 -1.7833c-0.0063,-0.6921 -0.025,-1.1411 -0.053,-1.3406 -0.025,-0.2026 -0.0686,-0.3367 -0.1279,-0.4022 -0.0561,-0.0686 -0.1683,-0.1216 -0.3304,-0.1652 -0.1653,-0.0437 -0.5706,-0.0748 -1.2159,-0.0998l-0.0749 -0.0655 0 -0.4551 0.0749 -0.0655z"/>
   <path id="_540461361" class="fil3" d="M51.0617 176.264c0,-0.9135 0.1309,-1.7646 0.3928,-2.5565 0.2619,-0.7919 0.7077,-1.5245 1.3375,-2.1949 0.6298,-0.6734 1.3905,-1.194 2.279,-1.5619 0.8886,-0.371 1.8925,-0.555 3.0148,-0.555 2.0764,0 3.7288,0.5643 4.9571,1.6961 1.2315,1.1286 1.8457,2.6718 1.8457,4.6266 0,1.3749 -0.3024,2.6126 -0.9041,3.7069 -0.6017,1.0975 -1.4653,1.9486 -2.5877,2.5565 -1.1255,0.6111 -2.3881,0.9135 -3.788,0.9135 -0.9914,0 -1.9049,-0.1652 -2.7404,-0.4957 -0.8324,-0.3336 -1.5433,-0.8262 -2.1325,-1.484 -0.5861,-0.6579 -1.0133,-1.4186 -1.2783,-2.2853 -0.265,-0.8636 -0.3959,-1.6524 -0.3959,-2.3663zm1.8987 -0.6017c0,0.742 0.1216,1.5432 0.3616,2.3975 0.2401,0.8573 0.5986,1.59 1.0756,2.2011 0.4801,0.611 1.032,1.0662 1.6555,1.3655 0.6235,0.2993 1.3344,0.449 2.1325,0.449 0.9447,0 1.7833,-0.2183 2.5191,-0.6485 0.7389,-0.4334 1.2969,-1.1037 1.6804,-2.014 0.3835,-0.9104 0.5768,-1.933 0.5768,-3.0647 0,-1.2315 -0.2182,-2.3414 -0.6578,-3.3359 -0.4396,-0.9915 -1.0632,-1.7117 -1.8738,-2.1637 -0.8074,-0.449 -1.7053,-0.6766 -2.6936,-0.6766 -1.4778,0 -2.6438,0.4646 -3.4981,1.3905 -0.8511,0.926 -1.2782,2.2915 -1.2782,4.0998z"/>
   <path id="_5404613612" class="fil3" d="M44.6652 187.605l-0.0707 -0.0623 0 -0.2785 2.0411 -2.1616c0.8397,-0.8896 1.3843,-1.5797 1.6295,-2.0661 0.2495,-0.4863 0.37,-0.9436 0.37,-1.3634 0,-0.4947 -0.1496,-0.9062 -0.4489,-1.2346 -0.2993,-0.3326 -0.7067,-0.4947 -1.218,-0.4947 -0.3284,0 -0.6153,0.0499 -0.8564,0.1496 -0.2452,0.104 -0.4073,0.2162 -0.4905,0.3451 -0.0831,0.1247 -0.2037,0.478 -0.3658,1.0558l-0.054 0.0499 -0.2495 0 -0.0582 -0.054c0.0915,-0.5488 0.158,-1.0892 0.1913,-1.6254 0.3824,-0.3741 0.7399,-0.6111 1.0725,-0.715 0.3284,-0.1039 0.6734,-0.158 1.035,-0.158 0.4324,0 0.8439,0.0832 1.2388,0.2453 0.3908,0.1621 0.7109,0.424 0.9478,0.7898 0.2411,0.3617 0.3617,0.7815 0.3617,1.2637 0,0.3575 -0.0707,0.715 -0.2121,1.0725 -0.1413,0.3617 -0.345,0.7067 -0.6152,1.0434 -0.2702,0.3326 -0.636,0.7358 -1.1057,1.2014l-1.8998 1.9371 2.4069 0c0.74,0 1.3552,-0.0291 1.8457,-0.079l0.0416 0.0458c-0.025,0.1413 -0.0374,0.32 -0.0374,0.5445 0,0.2037 0.0124,0.3617 0.0374,0.4822l-0.0416 0.0665c-0.2951,-0.0166 -0.7441,-0.0332 -1.3468,-0.0457 -0.607,-0.0125 -1.006,-0.0166 -1.2014,-0.0166 -0.3908,0 -0.9228,0.0041 -1.588,0.0166 -0.6651,0.0083 -1.1182,0.025 -1.3593,0.0457z"/>
   <path id="_55621624" class="fil3" d="M112.031 170.429c1.5526,0.0499 2.4224,0.0748 2.6126,0.0748 0.1995,0 1.0725,-0.0249 2.6219,-0.0748l0.0718 0.0655 0 0.4551 -0.0718 0.0655c-0.4208,0.0125 -0.7451,0.0312 -0.9727,0.053 -0.2307,0.025 -0.3959,0.0717 -0.4988,0.1372 -0.1029,0.0686 -0.1715,0.2245 -0.2058,0.4708 -0.0343,0.2463 -0.0498,0.5892 -0.0498,1.0288l-0.0188 2.1013 0 1.2783c1.3344,0.0374 2.5971,0.053 3.7911,0.053 1.6306,0 2.8746,-0.0156 3.7257,-0.053l0 -1.2783 -0.0187 -1.7833c-0.0063,-0.6921 -0.025,-1.1411 -0.053,-1.3406 -0.0312,-0.2026 -0.0749,-0.3367 -0.1279,-0.4022 -0.0561,-0.0686 -0.1652,-0.1216 -0.3304,-0.1652 -0.1653,-0.0437 -0.5706,-0.0748 -1.2222,-0.0998l-0.0654 -0.0655 0 -0.4551 0.0654 -0.0655c1.5589,0.0499 2.4318,0.0748 2.6189,0.0748 0.2089,0 1.0818,-0.0249 2.622,-0.0748l0.0748 0.0655 0 0.4551 -0.0748 0.0655c-0.424,0.0125 -0.7514,0.0312 -0.9821,0.053 -0.2276,0.025 -0.3928,0.0717 -0.4957,0.1372 -0.106,0.0686 -0.1715,0.2245 -0.2027,0.4708 -0.0311,0.2463 -0.0467,0.5892 -0.053,1.0288l-0.0187 2.1013 0 4.2276 0.0187 1.7802c0.0063,0.689 0.0219,1.1348 0.053,1.3344 0.0312,0.2026 0.0749,0.3367 0.1341,0.4021 0.0561,0.0686 0.1652,0.1248 0.3274,0.1684 0.1621,0.0468 0.5674,0.0811 1.219,0.106l0.0748 0.0561 0 0.4552 -0.0748 0.0717c-1.5589,-0.0468 -2.4318,-0.0717 -2.622,-0.0717 -0.1933,0 -1.0663,0.0249 -2.6189,0.0717l-0.0654 -0.0717 0 -0.4552 0.0654 -0.0561c0.5706,-0.0249 0.9509,-0.0561 1.1411,-0.0904 0.1871,-0.0374 0.3118,-0.0842 0.3741,-0.1434 0.0593,-0.0561 0.1123,-0.1809 0.1559,-0.3679 0.0406,-0.1902 0.0624,-0.6111 0.0624,-1.2627l0.0187 -1.9267 0 -2.0826c-1.802,-0.0374 -3.0647,-0.053 -3.7911,-0.053 -0.742,0 -1.9829,0.0156 -3.7257,0.053l0 2.0826 0.0094 1.7802c0.0062,0.689 0.0249,1.1348 0.0561,1.3344 0.0281,0.2026 0.0717,0.3367 0.131,0.4021 0.0592,0.0686 0.1683,0.1248 0.3336,0.1684 0.1652,0.0468 0.5705,0.0811 1.2158,0.106l0.0718 0.0561 0 0.4552 -0.0718 0.0717c-1.5526,-0.0468 -2.4286,-0.0717 -2.6219,-0.0717 -0.1902,0 -1.06,0.0249 -2.6126,0.0717l-0.0749 -0.0717 0 -0.4552 0.0749 -0.0561c0.5643,-0.0249 0.9446,-0.0561 1.1317,-0.0904 0.1902,-0.0374 0.3149,-0.0842 0.3803,-0.1434 0.0624,-0.0561 0.1154,-0.1809 0.1559,-0.3679 0.0374,-0.1902 0.0624,-0.6111 0.0686,-1.2627l0.0062 -1.9267 0 -4.2276 -0.0155 -1.7833c-0.0063,-0.6921 -0.025,-1.1411 -0.053,-1.3406 -0.025,-0.2026 -0.0686,-0.3367 -0.1279,-0.4022 -0.0561,-0.0686 -0.1683,-0.1216 -0.3304,-0.1652 -0.1653,-0.0437 -0.5706,-0.0748 -1.2159,-0.0998l-0.0749 -0.0655 0 -0.4551 0.0749 -0.0655z"/>
   <path id="_556216241" class="fil3" d="M137.123 175.265l0.0748 0.1652c-0.2493,0.3833 -0.4051,0.6326 -0.4674,0.7479l-1.6952 0c0.1683,0.3365 0.2555,0.6856 0.2555,1.0501 0,0.4332 -0.0997,0.8508 -0.2991,1.259 -0.1964,0.4082 -0.4706,0.7572 -0.8258,1.0408 -0.3522,0.2867 -0.751,0.5142 -1.1998,0.6856 -0.4487,0.1714 -0.9566,0.2555 -1.53,0.2555l-0.4207 0c-0.3584,0.2867 -0.589,0.4986 -0.6918,0.6388 -0.1028,0.1402 -0.1558,0.2836 -0.1558,0.4301 0,0.2679 0.1246,0.4549 0.3708,0.564 0.2462,0.1122 0.7541,0.1651 1.5269,0.1651l2.0474 -0.028c0.645,0 1.1374,0.0779 1.4833,0.2306 0.3428,0.1527 0.6201,0.4238 0.8351,0.8164 0.2119,0.3927 0.3179,0.8071 0.3179,1.2465 0,0.67 -0.215,1.3369 -0.6513,2.0037 -0.4363,0.6669 -1.0626,1.1717 -1.8853,1.5207 -0.8227,0.3459 -1.6983,0.5204 -2.6301,0.5204 -0.5297,0 -1.0252,-0.0592 -1.4926,-0.1745 -0.4643,-0.1153 -0.8726,-0.2898 -1.2216,-0.5235 -0.3521,-0.2368 -0.6326,-0.5422 -0.8445,-0.9193 -0.215,-0.377 -0.3209,-0.7697 -0.3209,-1.1779 0,-0.2243 0.0342,-0.4612 0.0997,-0.7074 0.0685,-0.2461 0.1963,-0.511 0.3833,-0.7977l1.6547 -0.9224c-0.5298,-0.1652 -0.8632,-0.3272 -1.0003,-0.4892 -0.1371,-0.1621 -0.2057,-0.3553 -0.2057,-0.5797 0,-0.2306 0.0748,-0.5048 0.2275,-0.8226l1.4708 -1.0564c-0.8663,-0.2275 -1.449,-0.5641 -1.7481,-1.0159 -0.3023,-0.4487 -0.4519,-0.9411 -0.4519,-1.4771 0,-0.4923 0.106,-0.9629 0.3179,-1.4116 0.215,-0.4456 0.5359,-0.804 0.9629,-1.072 0.43,-0.268 0.9099,-0.4799 1.4428,-0.6357 0.5328,-0.1558 1.019,-0.2306 1.4583,-0.2306 0.7604,0 1.4834,0.2462 2.172,0.7385 1.1001,0 1.9819,-0.0124 2.6363,-0.0374zm-7.4196 2.1191c0,0.3708 0.0716,0.7697 0.2181,1.1966 0.1465,0.4238 0.3802,0.7479 0.7074,0.966 0.3241,0.2181 0.6918,0.3303 1.1,0.3303 0.5422,0 1.0096,-0.1776 1.4023,-0.5297 0.3926,-0.3553 0.589,-0.9037 0.589,-1.6547 0,-0.6326 -0.1808,-1.1998 -0.5392,-1.7046 -0.3583,-0.5079 -0.8663,-0.7604 -1.5238,-0.7604 -0.5547,0 -1.019,0.1839 -1.3929,0.5454 -0.374,0.3615 -0.5609,0.8974 -0.5609,1.6111zm2.6737 6.1264c-0.9785,0 -1.5457,0.0125 -1.6921,0.0343 -0.1496,0.0249 -0.3615,0.1277 -0.6357,0.3116 -0.2743,0.1839 -0.4986,0.43 -0.67,0.7448 -0.1745,0.3116 -0.2618,0.6637 -0.2618,1.0533 0,0.6886 0.2556,1.2495 0.7666,1.6796 0.5111,0.4331 1.1935,0.6482 2.0442,0.6482 0.642,0 1.2309,-0.134 1.7732,-0.402 0.5422,-0.268 0.941,-0.6264 1.1997,-1.0751 0.2586,-0.4519 0.3895,-0.885 0.3895,-1.2964 0,-0.4144 -0.1091,-0.7697 -0.3241,-1.0657 -0.2181,-0.2929 -0.4986,-0.4737 -0.8413,-0.5391 -0.3428,-0.0623 -0.9256,-0.0935 -1.7482,-0.0935z"/>
  </g>
 </g>
</svg>
