<?xml version="1.0" encoding="UTF-8" standalone="no"?>
<svg
   id="svg2"
   viewBox="0 0 375.37 305.25851"
   version="1.1"
   sodipodi:docname="12-napeti.src.svg"
   width="375.37"
   height="305.25851"
   inkscape:version="1.1.2 (0a00cf5339, 2022-02-04, custom)"
   xmlns:inkscape="http://www.inkscape.org/namespaces/inkscape"
   xmlns:sodipodi="http://sodipodi.sourceforge.net/DTD/sodipodi-0.dtd"
   xmlns="http://www.w3.org/2000/svg"
   xmlns:svg="http://www.w3.org/2000/svg">
  <sodipodi:namedview
     id="namedview122"
     pagecolor="#505050"
     bordercolor="#eeeeee"
     borderopacity="1"
     inkscape:pageshadow="0"
     inkscape:pageopacity="0"
     inkscape:pagecheckerboard="0"
     showgrid="false"
     inkscape:zoom="1.7468329"
     inkscape:cx="151.98935"
     inkscape:cy="167.15967"
     inkscape:window-width="1920"
     inkscape:window-height="1080"
     inkscape:window-x="1400"
     inkscape:window-y="0"
     inkscape:window-maximized="1"
     inkscape:current-layer="svg2" />
  <defs
     id="defs4">
    <style
       id="style2">.cls-1{fill:#67b8ff;stroke:#597cc8;stroke-linejoin:round;stroke-width:16.4px;}.cls-2,.cls-4{fill:none;stroke-miterlimit:10;stroke-width:2px;}.cls-2{stroke:red;}.cls-3{fill:red;}.cls-4{stroke:#000;}</style>
  </defs>
  <title
     id="title6">Tension</title>
  <path
     id="rect2384"
     class="cls-1"
     d="m 9.0499981,305.23152 -0.85,-258.259994 C 126.01,-4.9584738 247.53,-4.9684738 366.86,47.841526 l 0.31,257.389994" />
  <g
     id="use3214"
     transform="translate(36.919998,-43.768474)">
    <path
       id="path3177"
       d="m 91.81,57.55 a 8.49,8.49 0 1 1 -8.69,-8.27 8.49,8.49 0 0 1 8.69,8.27 z" />
  </g>
  <line
     class="cls-2"
     x1="78.829994"
     y1="22.391531"
     x2="102.56"
     y2="16.961527"
     id="line11" />
  <polygon
     class="cls-3"
     points="28.14,69.31 49.35,72.8 42.94,65.92 45.73,56.95 "
     id="polygon13"
     transform="translate(36.919998,-43.768474)" />
  <line
     class="cls-2"
     x1="138.08"
     y1="10.291528"
     x2="162.37999"
     y2="8.7315264"
     id="line15" />
  <polygon
     class="cls-3"
     points="139.55,51.59 120.22,60.99 124.41,52.57 119.17,44.76 "
     id="polygon17"
     transform="translate(36.919998,-43.768474)" />
  <line
     class="cls-4"
     x1="134.95"
     y1="26.28153"
     x2="153.01999"
     y2="42.601528"
     id="line19" />
  <polygon
     points="126.58,95.83 106.36,88.53 115.31,85.66 117.26,76.46 "
     id="polygon21"
     transform="translate(36.919998,-43.768474)" />
  <line
     class="cls-4"
     x1="121.23999"
     y1="31.051525"
     x2="121.23999"
     y2="55.401524"
     id="line23" />
  <polygon
     points="84.32,113.29 76.19,93.39 84.32,98.11 92.44,93.39 "
     id="polygon25"
     transform="translate(36.919998,-43.768474)" />
  <line
     class="cls-4"
     x1="108.12"
     y1="28.35153"
     x2="93.989998"
     y2="48.171528"
     id="line27" />
  <polygon
     points="48.87,103.44 53.8,82.52 57.68,91.08 67.04,91.96 "
     id="polygon29"
     transform="translate(36.919998,-43.768474)" />
  <g
     id="use3214-2"
     data-name="use3214"
     transform="translate(36.919998,-43.768474)">
    <path
       id="path3177-2"
       data-name="path3177"
       d="m 99.37,214.72 a 8.49,8.49 0 1 1 -8.57,-8.4 8.49,8.49 0 0 1 8.57,8.4 z" />
  </g>
  <line
     class="cls-4"
     x1="86"
     y1="171.1815"
     x2="110.34"
     y2="171.1815"
     id="line33" />
  <polygon
     points="34.96,214.95 54.86,223.08 50.14,214.95 54.86,206.82 "
     id="polygon35"
     transform="translate(36.919998,-43.768474)" />
  <line
     class="cls-4"
     x1="145.67999"
     y1="170.92151"
     x2="170.01999"
     y2="171.2715"
     id="line37" />
  <polygon
     points="147.22,215.24 127.21,223.09 132.05,215.02 127.44,206.83 "
     id="polygon39"
     transform="translate(36.919998,-43.768474)" />
  <line
     class="cls-4"
     x1="142.22"
     y1="184.62151"
     x2="160.04999"
     y2="201.20151"
     id="line41" />
  <polygon
     points="133.47,254.59 113.36,246.99 122.35,244.25 124.43,235.08 "
     id="polygon43"
     transform="translate(36.919998,-43.768474)" />
  <line
     class="cls-4"
     x1="128.39"
     y1="188.11151"
     x2="128.03999"
     y2="212.45151"
     id="line45" />
  <polygon
     points="90.92,270.34 83.07,250.33 91.14,255.17 99.33,250.56 "
     id="polygon47"
     transform="translate(36.919998,-43.768474)" />
  <line
     class="cls-4"
     x1="114.35999"
     y1="185.1315"
     x2="99.949997"
     y2="204.75151"
     id="line49" />
  <polygon
     points="54.66,259.9 59.9,239.05 63.65,247.67 73,248.68 "
     id="polygon51"
     transform="translate(36.919998,-43.768474)" />
  <line
     class="cls-4"
     x1="114.19999"
     y1="158.1615"
     x2="96.369995"
     y2="141.58151"
     id="line53" />
  <polygon
     points="49.11,175.74 69.22,183.33 60.23,186.07 58.15,195.24 "
     id="polygon55"
     transform="translate(36.919998,-43.768474)" />
  <line
     class="cls-4"
     x1="128.03"
     y1="154.67151"
     x2="128.37999"
     y2="130.33153"
     id="line57" />
  <polygon
     points="91.66,159.98 99.51,180 91.44,175.16 83.25,179.76 "
     id="polygon59"
     transform="translate(36.919998,-43.768474)" />
  <line
     class="cls-4"
     x1="144.06"
     y1="158.6515"
     x2="158.47"
     y2="139.03151"
     id="line61" />
  <polygon
     points="129.92,171.42 124.69,192.27 120.93,183.65 111.58,182.65 "
     id="polygon63"
     transform="translate(36.919998,-43.768474)" />
  <g
     id="use3214-3"
     data-name="use3214"
     transform="translate(36.919998,-43.768474)">
    <path
       id="path3177-3"
       data-name="path3177"
       d="m 237.37,214.2 a 8.49,8.49 0 1 1 -8.57,-8.4 8.49,8.49 0 0 1 8.57,8.4 z" />
  </g>
  <line
     class="cls-4"
     x1="223.99002"
     y1="170.67151"
     x2="248.34001"
     y2="170.67151"
     id="line67" />
  <polygon
     points="172.95,214.44 192.85,222.57 188.13,214.44 192.85,206.31 "
     id="polygon69"
     transform="translate(36.919998,-43.768474)" />
  <line
     class="cls-4"
     x1="283.67001"
     y1="170.4115"
     x2="308.01001"
     y2="170.76151"
     id="line71" />
  <polygon
     points="285.21,214.73 265.2,222.57 270.04,214.51 265.44,206.32 "
     id="polygon73"
     transform="translate(36.919998,-43.768474)" />
  <line
     class="cls-4"
     x1="280.20999"
     y1="184.11151"
     x2="298.04001"
     y2="200.69151"
     id="line75" />
  <polygon
     points="271.46,254.07 251.35,246.48 260.35,243.74 262.42,234.57 "
     id="polygon77"
     transform="translate(36.919998,-43.768474)" />
  <line
     class="cls-4"
     x1="266.38"
     y1="187.6015"
     x2="266.03"
     y2="211.94151"
     id="line79" />
  <polygon
     points="228.91,269.83 221.07,249.82 229.13,254.66 237.32,250.05 "
     id="polygon81"
     transform="translate(36.919998,-43.768474)" />
  <line
     class="cls-4"
     x1="252.35001"
     y1="184.62151"
     x2="237.94002"
     y2="204.2415"
     id="line83" />
  <polygon
     points="192.66,259.39 197.89,238.54 201.64,247.16 210.99,248.17 "
     id="polygon85"
     transform="translate(36.919998,-43.768474)" />
  <line
     class="cls-4"
     x1="252.20001"
     y1="157.6515"
     x2="234.37001"
     y2="141.0715"
     id="line87" />
  <polygon
     points="187.1,175.23 207.21,182.82 198.22,185.56 196.14,194.73 "
     id="polygon89"
     transform="translate(36.919998,-43.768474)" />
  <line
     class="cls-4"
     x1="266.02002"
     y1="154.1615"
     x2="266.37"
     y2="129.82152"
     id="line91" />
  <polygon
     points="229.66,159.47 237.5,179.48 229.44,174.65 221.24,179.25 "
     id="polygon93"
     transform="translate(36.919998,-43.768474)" />
  <line
     class="cls-4"
     x1="282.05002"
     y1="158.14151"
     x2="296.47"
     y2="138.5215"
     id="line95" />
  <polygon
     points="267.91,170.91 262.68,191.76 258.92,183.14 249.57,182.13 "
     id="polygon97"
     transform="translate(36.919998,-43.768474)" />
  <g
     id="use3214-4"
     data-name="use3214"
     transform="translate(36.919998,-43.768474)">
    <path
       id="path3177-4"
       data-name="path3177"
       d="m 230.82,60.83 a 8.49,8.49 0 1 1 -5.73,-10.54 8.49,8.49 0 0 1 5.73,10.54 z" />
  </g>
  <line
     class="cls-2"
     x1="217.60001"
     y1="9.9315271"
     x2="241.85001"
     y2="12.051526"
     id="line101" />
  <polygon
     class="cls-3"
     points="166.61,52.46 185.72,62.3 181.73,53.79 187.14,46.1 "
     id="polygon103"
     transform="translate(36.919998,-43.768474)" />
  <line
     class="cls-2"
     x1="277.61002"
     y1="16.821527"
     x2="300.78"
     y2="24.311529"
     id="line105" />
  <polygon
     class="cls-3"
     points="277.3,72.41 255.86,74.04 262.86,67.75 260.86,58.56 "
     id="polygon107"
     transform="translate(36.919998,-43.768474)" />
  <line
     class="cls-4"
     x1="269.81"
     y1="30.881527"
     x2="281.99002"
     y2="51.951527"
     id="line109" />
  <polygon
     points="252.13,107.95 235.14,94.79 244.54,94.81 249.22,86.66 "
     id="polygon111"
     transform="translate(36.919998,-43.768474)" />
  <line
     class="cls-4"
     x1="255.29001"
     y1="31.201527"
     x2="247.81001"
     y2="54.371525"
     id="line113" />
  <polygon
     points="206.55,111.58 204.93,90.14 211.22,97.13 220.4,95.14 "
     id="polygon115"
     transform="translate(36.919998,-43.768474)" />
  <line
     class="cls-4"
     x1="243.64001"
     y1="24.60153"
     x2="224.10001"
     y2="39.121525"
     id="line117" />
  <polygon
     points="175.85,91.31 186.97,72.92 188.03,82.26 196.67,85.97 "
     id="polygon119"
     transform="translate(36.919998,-43.768474)" />
</svg>
