<svg id="svg2" xmlns="http://www.w3.org/2000/svg" viewBox="0 0 300 304"><defs><style>.cls-1{fill:#67b8ff;stroke:#597cc8;stroke-linejoin:round;stroke-width:16.4px;}.cls-2,.cls-4{fill:none;stroke-miterlimit:10;stroke-width:2px;}.cls-2{stroke:red;}.cls-3{fill:red;}.cls-4{stroke:#000;}</style></defs><title>Tension</title><path id="rect2384" class="cls-1" d="M-27.87,349L-28.72,90.74c117.81-51.93,239.33-51.94,358.66.87L330.25,349"/><g id="use3214"><path id="path3177" d="M91.81,57.55a8.49,8.49,0,1,1-8.69-8.27A8.49,8.49,0,0,1,91.81,57.55Z"/></g><line class="cls-2" x1="41.91" y1="66.16" x2="65.64" y2="60.73"/><polygon class="cls-3" points="28.14 69.31 49.35 72.8 42.94 65.92 45.73 56.95 28.14 69.31"/><line class="cls-2" x1="101.16" y1="54.06" x2="125.46" y2="52.5"/><polygon class="cls-3" points="139.55 51.59 120.22 60.99 124.41 52.57 119.17 44.76 139.55 51.59"/><line class="cls-4" x1="98.03" y1="70.05" x2="116.1" y2="86.37"/><polygon points="126.58 95.83 106.36 88.53 115.31 85.66 117.26 76.46 126.58 95.83"/><line class="cls-4" x1="84.32" y1="74.82" x2="84.32" y2="99.17"/><polygon points="84.32 113.29 76.19 93.39 84.32 98.11 92.44 93.39 84.32 113.29"/><line class="cls-4" x1="71.2" y1="72.12" x2="57.07" y2="91.94"/><polygon points="48.87 103.44 53.8 82.52 57.68 91.08 67.04 91.96 48.87 103.44"/><g id="use3214-2" data-name="use3214"><path id="path3177-2" data-name="path3177" d="M99.37,214.72a8.49,8.49,0,1,1-8.57-8.4A8.49,8.49,0,0,1,99.37,214.72Z"/></g><line class="cls-4" x1="49.08" y1="214.95" x2="73.42" y2="214.95"/><polygon points="34.96 214.95 54.86 223.08 50.14 214.95 54.86 206.82 34.96 214.95"/><line class="cls-4" x1="108.76" y1="214.69" x2="133.1" y2="215.04"/><polygon points="147.22 215.24 127.21 223.09 132.05 215.02 127.44 206.83 147.22 215.24"/><line class="cls-4" x1="105.3" y1="228.39" x2="123.13" y2="244.97"/><polygon points="133.47 254.59 113.36 246.99 122.35 244.25 124.43 235.08 133.47 254.59"/><line class="cls-4" x1="91.47" y1="231.88" x2="91.12" y2="256.22"/><polygon points="90.92 270.34 83.07 250.33 91.14 255.17 99.33 250.56 90.92 270.34"/><line class="cls-4" x1="77.44" y1="228.9" x2="63.03" y2="248.52"/><polygon points="54.66 259.9 59.9 239.05 63.65 247.67 73 248.68 54.66 259.9"/><line class="cls-4" x1="77.28" y1="201.93" x2="59.45" y2="185.35"/><polygon points="49.11 175.74 69.22 183.33 60.23 186.07 58.15 195.24 49.11 175.74"/><line class="cls-4" x1="91.11" y1="198.44" x2="91.46" y2="174.1"/><polygon points="91.66 159.98 99.51 180 91.44 175.16 83.25 179.76 91.66 159.98"/><line class="cls-4" x1="107.14" y1="202.42" x2="121.55" y2="182.8"/><polygon points="129.92 171.42 124.69 192.27 120.93 183.65 111.58 182.65 129.92 171.42"/><g id="use3214-3" data-name="use3214"><path id="path3177-3" data-name="path3177" d="M237.37,214.2a8.49,8.49,0,1,1-8.57-8.4A8.49,8.49,0,0,1,237.37,214.2Z"/></g><line class="cls-4" x1="187.07" y1="214.44" x2="211.42" y2="214.44"/><polygon points="172.95 214.44 192.85 222.57 188.13 214.44 192.85 206.31 172.95 214.44"/><line class="cls-4" x1="246.75" y1="214.18" x2="271.09" y2="214.53"/><polygon points="285.21 214.73 265.2 222.57 270.04 214.51 265.44 206.32 285.21 214.73"/><line class="cls-4" x1="243.29" y1="227.88" x2="261.12" y2="244.46"/><polygon points="271.46 254.07 251.35 246.48 260.35 243.74 262.42 234.57 271.46 254.07"/><line class="cls-4" x1="229.46" y1="231.37" x2="229.11" y2="255.71"/><polygon points="228.91 269.83 221.07 249.82 229.13 254.66 237.32 250.05 228.91 269.83"/><line class="cls-4" x1="215.43" y1="228.39" x2="201.02" y2="248.01"/><polygon points="192.66 259.39 197.89 238.54 201.64 247.16 210.99 248.17 192.66 259.39"/><line class="cls-4" x1="215.28" y1="201.42" x2="197.45" y2="184.84"/><polygon points="187.1 175.23 207.21 182.82 198.22 185.56 196.14 194.73 187.1 175.23"/><line class="cls-4" x1="229.1" y1="197.93" x2="229.45" y2="173.59"/><polygon points="229.66 159.47 237.5 179.48 229.44 174.65 221.24 179.25 229.66 159.47"/><line class="cls-4" x1="245.13" y1="201.91" x2="259.55" y2="182.29"/><polygon points="267.91 170.91 262.68 191.76 258.92 183.14 249.57 182.13 267.91 170.91"/><g id="use3214-4" data-name="use3214"><path id="path3177-4" data-name="path3177" d="M230.82,60.83a8.49,8.49,0,1,1-5.73-10.54A8.49,8.49,0,0,1,230.82,60.83Z"/></g><line class="cls-2" x1="180.68" y1="53.7" x2="204.93" y2="55.82"/><polygon class="cls-3" points="166.61 52.46 185.72 62.3 181.73 53.79 187.14 46.1 166.61 52.46"/><line class="cls-2" x1="240.69" y1="60.59" x2="263.86" y2="68.08"/><polygon class="cls-3" points="277.3 72.41 255.86 74.04 262.86 67.75 260.86 58.56 277.3 72.41"/><line class="cls-4" x1="232.89" y1="74.65" x2="245.07" y2="95.72"/><polygon points="252.13 107.95 235.14 94.79 244.54 94.81 249.22 86.66 252.13 107.95"/><line class="cls-4" x1="218.37" y1="74.97" x2="210.89" y2="98.14"/><polygon points="206.55 111.58 204.93 90.14 211.22 97.13 220.4 95.14 206.55 111.58"/><line class="cls-4" x1="206.72" y1="68.37" x2="187.18" y2="82.89"/><polygon points="175.85 91.31 186.97 72.92 188.03 82.26 196.67 85.97 175.85 91.31"/></svg>