<?xml version="1.0" encoding="UTF-8" standalone="no"?>
<!-- Generator: Adobe Illustrator 26.0.3, SVG Export Plug-In . SVG Version: 6.00 Build 0)  -->

<svg
   version="1.1"
   id="Layer_1"
   x="0px"
   y="0px"
   viewBox="0 0 595.3 440.99999"
   xml:space="preserve"
   sodipodi:docname="13-phase_1.src.svg"
   width="595.29999"
   height="441"
   inkscape:version="1.1.2 (0a00cf5339, 2022-02-04, custom)"
   xmlns:inkscape="http://www.inkscape.org/namespaces/inkscape"
   xmlns:sodipodi="http://sodipodi.sourceforge.net/DTD/sodipodi-0.dtd"
   xmlns="http://www.w3.org/2000/svg"
   xmlns:svg="http://www.w3.org/2000/svg"><defs
   id="defs353">
	

		
		
		
		
		
		
		
	
			
			
			
		
			
			
			
			
			
		
			
			
		
			
			
			
		
			
		
			
				<radialGradient
   id="S_00000169544969654819543160000001821217498436132778_"
   cx="0.63800001"
   cy="839.82532"
   r="0.80000001"
   fx="0.138"
   fy="839.32532"
   gradientTransform="matrix(507.3372,0,0,-405.8697,-22.6485,341086.29)"
   gradientUnits="userSpaceOnUse">
				<stop
   offset="0"
   style="stop-color:#0099FF;stop-opacity:0"
   id="stop8" />
				<stop
   offset="1"
   style="stop-color:#0099FF;stop-opacity:0.5"
   id="stop10" />
			</radialGradient>
			
			
				<radialGradient
   id="L_00000113347374076277715120000009577564720085804448_"
   cx="0.70740002"
   cy="838.92853"
   r="0.5"
   fx="0.70740002"
   fy="839.17853"
   gradientTransform="matrix(337.4333,0,0,-257.9951,147.2553,216645.82)"
   gradientUnits="userSpaceOnUse">
				<stop
   offset="0"
   style="stop-color:#00CC00;stop-opacity:0"
   id="stop14" />
				<stop
   offset="0.3"
   style="stop-color:#00CC00;stop-opacity:0"
   id="stop16" />
				<stop
   offset="1"
   style="stop-color:#00CC00;stop-opacity:0.5"
   id="stop18" />
			</radialGradient>
			
			
				<radialGradient
   id="G_00000013900831263417735730000011461866982865163144_"
   cx="0.69230002"
   cy="838.83893"
   r="0.80000001"
   fx="1.1923"
   fy="838.33893"
   gradientTransform="matrix(363.9298,0,0,-248.9334,120.7588,209120.16)"
   gradientUnits="userSpaceOnUse">
				<stop
   offset="0"
   style="stop-color:#FF9900;stop-opacity:0"
   id="stop22" />
				<stop
   offset="0.15"
   style="stop-color:#FF9900;stop-opacity:0"
   id="stop24" />
				<stop
   offset="1"
   style="stop-color:#FF9900;stop-opacity:0.5"
   id="stop26" />
			</radialGradient>
			
		
				
				
				
			
				
				
				
			
				
				
				
			
				
				
				
			
				
			
				
				
				
				
				
				
				
				
				
				
			
					
					
					
					
					
					
					
					
					
					
					
					
					
					
					
					
				
					
					
					
					
					
					
					
					
					
					
					
					
					
					
					
					
				
					
					
					
					
					
					
					
					
					
					
					
					
					
				
					
					
					
				
					
					
					
					
					
					
					
					
					
					
					
					
					
				
					
					
					
					
					
					
					
					
					
					
					
					
					
				
					
					
				
					
					
					
					
					
					
					
					
					
					
					
					
					
				
					
					
					
					
					
					
					
					
					
					
					
					
					
					
					
				
					
					
					
					
					
					
					
					
					
					
					
					
					
					
					
				</defs><sodipodi:namedview
   id="namedview351"
   pagecolor="#505050"
   bordercolor="#eeeeee"
   borderopacity="1"
   inkscape:pageshadow="0"
   inkscape:pageopacity="0"
   inkscape:pagecheckerboard="0"
   showgrid="false"
   inkscape:zoom="1.2615208"
   inkscape:cx="346.80364"
   inkscape:cy="250.88766"
   inkscape:window-width="1920"
   inkscape:window-height="1035"
   inkscape:window-x="1400"
   inkscape:window-y="45"
   inkscape:window-maximized="1"
   inkscape:current-layer="Layer_1" />
<style
   type="text/css"
   id="style2">
	.st0{fill:#FFFFFF;}
	.st1{fill:url(#S_00000069383451797360257670000005705621403159890348_);}
	.st2{fill:url(#L_00000063610893404975281020000008091500572445884550_);}
	.st3{fill:url(#G_00000031929948178568249160000017809191961242971321_);}
	.st4{fill:none;stroke:#000000;stroke-width:0.6764;stroke-miterlimit:2.7058;stroke-opacity:0.4;}
	.st5{fill:none;stroke:#000000;stroke-width:0.6764;stroke-miterlimit:2.7058;}
	.st6{font-family:'HelveticaNeue-MediumExt';}
	.st7{font-size:10.8232px;}
	.st8{font-size:8.1174px;}
	.st9{fill:#FF0000;}
	.st10{fill:none;stroke:#FF0000;stroke-width:0.6764;stroke-miterlimit:2.7058;}
	.st11{fill:none;stroke:#000000;stroke-width:1.3529;stroke-miterlimit:2.7058;}
	.st12{font-size:13.529px;}
	.st13{font-size:9.4703px;}
	.st14{fill:#0000FF;}
	.st15{font-size:21.6464px;}
	.st16{fill:#009900;}
	.st17{fill:#996600;}
	.st18{fill:none;stroke:#996600;stroke-width:0.75;stroke-miterlimit:2.7058;}
	.st19{fill:none;stroke:#996600;stroke-width:0.75;stroke-miterlimit:2.7058;stroke-dasharray:4.0152,4.0152;}
</style>
<desc
   id="desc4">
	Phase diagram of water as a log-lin chart with pressure from 1 Pa to 1 TPa and temperature from 0 K to 650 K, compiled from data in http://www.lsbu.ac.uk/water/phase.html and http://ergodic.ugr.es/termo/lecciones/water1.html by CMG Lee. Note that the phases of Ice X and XI (hexagonal) differ from the diagram in https://chem331001fall09.pbworks.com/w/page/15647320/LECTURE-10 . This is a simplified version the diagram.
	</desc>
<path
   id="S"
   style="fill:url(#S_00000169544969654819543160000001821217498436132778_)"
   d="M 554.7,23.700006 H 47.4 V 429.60001 h 143.4 c 12.6,-38.3 26.4,-69.7 41.4,-94.2 v -75.1 c -0.1,-87.7 -2.1,-101.3 -14.9,-112.2 l 3.4,-7.5 11.4,-8.7 55.5,-18.4 c 30.4,-1.8 131.9,-15.400004 199.6,-26.200004 4.5,-0.9 27.1,-4.2 67.6,-10" /><path
   id="L"
   style="fill:url(#L_00000113347374076277715120000009577564720085804448_)"
   d="m 554.7,180.60001 -69.7,0.6 c -75.3,16.8 -137.1,43.1 -185.2,79.1 -28.5,22.7 -51,47.7 -67.6,75.1 v -75.1 c -0.1,-87.7 -2.1,-101.3 -14.9,-112.2 l 3.4,-7.5 11.4,-8.7 55.5,-18.4 c 30.4,-1.8 131.9,-15.400004 199.6,-26.200004 4.5,-0.9 27.1,-4.2 67.6,-10" /><path
   id="G"
   style="fill:url(#G_00000013900831263417735730000011461866982865163144_)"
   d="m 554.7,180.60001 -69.7,0.6 c -75.3,16.8 -137.1,43.1 -185.2,79.1 -28.5,22.7 -51,47.7 -67.6,75.1 -15,24.5 -28.7,55.9 -41.4,94.2 h 363.9" /><line
   class="st4"
   x1="554.70001"
   y1="20.300007"
   x2="554.70001"
   y2="429.60001"
   id="line33" /><rect
   x="47.400002"
   y="23.700016"
   class="st5"
   width="507.29999"
   height="405.89999"
   id="rect35" /><text
   transform="rotate(-90)"
   class="st6 st7"
   id="text38"
   x="-254.3941"
   y="10.147">Pressure</text><text
   class="st6 st7"
   id="text40"
   x="260.2803"
   y="10.169006">Temperature</text><text
   class="st6 st8"
   id="text43"
   x="27.729"
   y="433.62662">1 Pa</text><text
   class="st6 st8"
   id="text45"
   x="22.398399"
   y="399.80432">10 Pa</text><text
   class="st6 st8"
   id="text47"
   x="17.068399"
   y="365.98151">100 Pa</text><text
   class="st6 st8"
   id="text49"
   x="23.292"
   y="332.1593">1 kPa</text><text
   class="st6 st8"
   id="text51"
   x="17.961399"
   y="298.33652">10 kPa</text><text
   class="st6 st8"
   id="text53"
   x="12.6309"
   y="264.51422">100 kPa</text><text
   class="st6 st8"
   id="text55"
   x="19.6875"
   y="230.69202">1 MPa</text><text
   class="st6 st8"
   id="text57"
   x="14.3574"
   y="196.86922">10 MPa</text><text
   class="st6 st8"
   id="text59"
   x="9.0269003"
   y="163.04651">100 MPa</text><text
   class="st6 st8"
   id="text61"
   x="21.042999"
   y="129.22421">1 GPa</text><text
   class="st6 st8"
   id="text63"
   x="15.7129"
   y="95.401917">10 GPa</text><text
   class="st6 st8"
   id="text65"
   x="10.3823"
   y="61.579205">100 GPa</text><text
   class="st6 st8"
   id="text67"
   x="22.836901"
   y="27.756908">1 TPa</text><line
   class="st5"
   x1="47.400002"
   y1="429.60001"
   x2="44"
   y2="429.60001"
   id="line70" /><line
   class="st5"
   x1="47.400002"
   y1="395.69998"
   x2="44"
   y2="395.69998"
   id="line72" /><line
   class="st5"
   x1="47.400002"
   y1="361.89999"
   x2="44"
   y2="361.89999"
   id="line74" /><line
   class="st5"
   x1="47.400002"
   y1="328.10001"
   x2="44"
   y2="328.10001"
   id="line76" /><line
   class="st5"
   x1="47.400002"
   y1="294.30002"
   x2="44"
   y2="294.30002"
   id="line78" /><line
   class="st5"
   x1="47.400002"
   y1="260.5"
   x2="44"
   y2="260.5"
   id="line80" /><line
   class="st5"
   x1="47.400002"
   y1="226.60001"
   x2="44"
   y2="226.60001"
   id="line82" /><line
   class="st5"
   x1="47.400002"
   y1="192.80002"
   x2="44"
   y2="192.80002"
   id="line84" /><line
   class="st5"
   x1="47.400002"
   y1="159"
   x2="44"
   y2="159"
   id="line86" /><line
   class="st5"
   x1="47.400002"
   y1="125.20001"
   x2="44"
   y2="125.20001"
   id="line88" /><line
   class="st5"
   x1="47.400002"
   y1="91.300018"
   x2="44"
   y2="91.300018"
   id="line90" /><line
   class="st5"
   x1="47.400002"
   y1="57.500004"
   x2="44"
   y2="57.500004"
   id="line92" /><line
   class="st5"
   x1="47.400002"
   y1="23.700016"
   x2="44"
   y2="23.700016"
   id="line94" /><text
   class="st9 st6 st8"
   id="text97"
   x="558.07031"
   y="433.62662">10 µbar</text><text
   class="st9 st6 st8"
   id="text99"
   x="558.07031"
   y="399.80432">100 µbar</text><text
   class="st9 st6 st8"
   id="text101"
   x="558.07031"
   y="365.98151">1 mbar</text><text
   class="st9 st6 st8"
   id="text103"
   x="558.07031"
   y="332.1593">10 mbar</text><text
   class="st9 st6 st8"
   id="text105"
   x="558.07031"
   y="298.33652">100 mbar</text><text
   class="st9 st6 st8"
   id="text107"
   x="558.07031"
   y="264.51422">1 bar</text><text
   class="st9 st6 st8"
   id="text109"
   x="558.07031"
   y="230.69202">10 bar</text><text
   class="st9 st6 st8"
   id="text111"
   x="558.07031"
   y="196.86922">100 bar</text><text
   class="st9 st6 st8"
   id="text113"
   x="558.07031"
   y="163.04651">1 kbar</text><text
   class="st9 st6 st8"
   id="text115"
   x="558.07031"
   y="129.22421">10 kbar</text><text
   class="st9 st6 st8"
   id="text117"
   x="558.07031"
   y="95.401917">100 kbar</text><text
   class="st9 st6 st8"
   id="text119"
   x="558.07031"
   y="61.579205">1 Mbar</text><text
   class="st9 st6 st8"
   id="text121"
   x="558.07031"
   y="27.756908">10 Mbar</text><line
   class="st10"
   x1="554.70001"
   y1="429.60001"
   x2="558.09998"
   y2="429.60001"
   id="line124" /><line
   class="st10"
   x1="554.70001"
   y1="395.69998"
   x2="558.09998"
   y2="395.69998"
   id="line126" /><line
   class="st10"
   x1="554.70001"
   y1="361.89999"
   x2="558.09998"
   y2="361.89999"
   id="line128" /><line
   class="st10"
   x1="554.70001"
   y1="328.10001"
   x2="558.09998"
   y2="328.10001"
   id="line130" /><line
   class="st10"
   x1="554.70001"
   y1="294.30002"
   x2="558.09998"
   y2="294.30002"
   id="line132" /><line
   class="st10"
   x1="554.70001"
   y1="260.5"
   x2="558.09998"
   y2="260.5"
   id="line134" /><line
   class="st10"
   x1="554.70001"
   y1="226.60001"
   x2="558.09998"
   y2="226.60001"
   id="line136" /><line
   class="st10"
   x1="554.70001"
   y1="192.80002"
   x2="558.09998"
   y2="192.80002"
   id="line138" /><line
   class="st10"
   x1="554.70001"
   y1="159"
   x2="558.09998"
   y2="159"
   id="line140" /><line
   class="st10"
   x1="554.70001"
   y1="125.20001"
   x2="558.09998"
   y2="125.20001"
   id="line142" /><line
   class="st10"
   x1="554.70001"
   y1="91.300018"
   x2="558.09998"
   y2="91.300018"
   id="line144" /><line
   class="st10"
   x1="554.70001"
   y1="57.500004"
   x2="558.09998"
   y2="57.500004"
   id="line146" /><line
   class="st10"
   x1="554.70001"
   y1="23.700016"
   x2="558.09998"
   y2="23.700016"
   id="line148" /><text
   class="st6 st8"
   id="text151"
   x="40.625999"
   y="19.639206">0 K</text><text
   class="st6 st8"
   id="text153"
   x="71.783699"
   y="19.639206">50 K</text><text
   class="st6 st8"
   id="text155"
   x="103.915"
   y="19.639206">100 K</text><text
   class="st6 st8"
   id="text157"
   x="137.7373"
   y="19.639206">150 K</text><text
   class="st6 st8"
   id="text159"
   x="170.58591"
   y="19.639206">200 K</text><text
   class="st6 st8"
   id="text161"
   x="204.4082"
   y="19.639206">250 K</text><text
   class="st6 st8"
   id="text163"
   x="238.2305"
   y="19.639206">300 K</text><text
   class="st6 st8"
   id="text165"
   x="272.05319"
   y="19.639206">350 K</text><text
   class="st6 st8"
   id="text167"
   x="305.87601"
   y="19.639206">400 K</text><text
   class="st6 st8"
   id="text169"
   x="339.69821"
   y="19.639206">450 K</text><text
   class="st6 st8"
   id="text171"
   x="373.52051"
   y="19.639206">500 K</text><text
   class="st6 st8"
   id="text173"
   x="407.34381"
   y="19.639206">550 K</text><text
   class="st6 st8"
   id="text175"
   x="441.16599"
   y="19.639206">600 K</text><text
   class="st6 st8"
   id="text177"
   x="474.98831"
   y="19.639206">650 K</text><text
   class="st6 st8"
   id="text179"
   x="509.10739"
   y="19.639206">700 K</text><text
   class="st6 st8"
   id="text181"
   x="542.92969"
   y="19.639206">750 K</text><line
   class="st5"
   x1="47.400002"
   y1="23.700016"
   x2="47.400002"
   y2="20.300007"
   id="line184" /><line
   class="st5"
   x1="81.199997"
   y1="23.700016"
   x2="81.199997"
   y2="20.300007"
   id="line186" /><line
   class="st5"
   x1="115"
   y1="23.700016"
   x2="115"
   y2="20.300007"
   id="line188" /><line
   class="st5"
   x1="148.8"
   y1="23.700016"
   x2="148.8"
   y2="20.300007"
   id="line190" /><line
   class="st5"
   x1="182.60001"
   y1="23.700016"
   x2="182.60001"
   y2="20.300007"
   id="line192" /><line
   class="st5"
   x1="216.5"
   y1="23.700016"
   x2="216.5"
   y2="20.300007"
   id="line194" /><line
   class="st5"
   x1="250.3"
   y1="23.700016"
   x2="250.3"
   y2="20.300007"
   id="line196" /><line
   class="st5"
   x1="284.10001"
   y1="23.700016"
   x2="284.10001"
   y2="20.300007"
   id="line198" /><line
   class="st5"
   x1="317.89999"
   y1="23.700016"
   x2="317.89999"
   y2="20.300007"
   id="line200" /><line
   class="st5"
   x1="351.79999"
   y1="23.700016"
   x2="351.79999"
   y2="20.300007"
   id="line202" /><line
   class="st5"
   x1="385.60001"
   y1="23.700016"
   x2="385.60001"
   y2="20.300007"
   id="line204" /><line
   class="st5"
   x1="419.39999"
   y1="23.700016"
   x2="419.39999"
   y2="20.300007"
   id="line206" /><line
   class="st5"
   x1="453.20001"
   y1="23.700016"
   x2="453.20001"
   y2="20.300007"
   id="line208" /><line
   class="st5"
   x1="487"
   y1="23.700016"
   x2="487"
   y2="20.300007"
   id="line210" /><line
   class="st5"
   x1="520.90002"
   y1="23.700016"
   x2="520.90002"
   y2="20.300007"
   id="line212" /><line
   class="st5"
   x1="554.70001"
   y1="23.700016"
   x2="554.70001"
   y2="20.300007"
   id="line214" /><text
   class="st9 st6 st8"
   id="text217"
   x="47.833"
   y="440.3912">-250 °C</text><text
   class="st9 st6 st8"
   id="text219"
   x="81.6558"
   y="440.3912">-200 °C</text><text
   class="st9 st6 st8"
   id="text221"
   x="116.4521"
   y="440.3912">-150 °C</text><text
   class="st9 st6 st8"
   id="text223"
   x="150.2744"
   y="440.3912">-100 °C</text><text
   class="st9 st6 st8"
   id="text225"
   x="185.7881"
   y="440.3912">-50 °C</text><text
   class="st9 st6 st8"
   id="text227"
   x="223.8896"
   y="440.3912">0 °C</text><text
   class="st9 st6 st8"
   id="text229"
   x="255.04739"
   y="440.3912">50 °C</text><text
   class="st9 st6 st8"
   id="text231"
   x="287.17871"
   y="440.3912">100 °C</text><text
   class="st9 st6 st8"
   id="text233"
   x="321.00101"
   y="440.3912">150 °C</text><text
   class="st9 st6 st8"
   id="text235"
   x="353.84961"
   y="440.3912">200 °C</text><text
   class="st9 st6 st8"
   id="text237"
   x="387.67191"
   y="440.3912">250 °C</text><text
   class="st9 st6 st8"
   id="text239"
   x="421.49411"
   y="440.3912">300 °C</text><text
   class="st9 st6 st8"
   id="text241"
   x="455.31641"
   y="440.3912">350 °C</text><text
   class="st9 st6 st8"
   id="text243"
   x="489.13959"
   y="440.3912">400 °C</text><text
   class="st9 st6 st8"
   id="text245"
   x="522.96191"
   y="440.3912">450 °C</text><line
   class="st10"
   x1="63"
   y1="429.60001"
   x2="63"
   y2="433.00003"
   id="line248" /><line
   class="st10"
   x1="96.800003"
   y1="429.60001"
   x2="96.800003"
   y2="433.00003"
   id="line250" /><line
   class="st10"
   x1="130.7"
   y1="429.60001"
   x2="130.7"
   y2="433.00003"
   id="line252" /><line
   class="st10"
   x1="164.5"
   y1="429.60001"
   x2="164.5"
   y2="433.00003"
   id="line254" /><line
   class="st10"
   x1="198.3"
   y1="429.60001"
   x2="198.3"
   y2="433.00003"
   id="line256" /><line
   class="st10"
   x1="232.10001"
   y1="429.60001"
   x2="232.10001"
   y2="433.00003"
   id="line258" /><line
   class="st10"
   x1="265.89999"
   y1="429.60001"
   x2="265.89999"
   y2="433.00003"
   id="line260" /><line
   class="st10"
   x1="299.79999"
   y1="429.60001"
   x2="299.79999"
   y2="433.00003"
   id="line262" /><line
   class="st10"
   x1="333.60001"
   y1="429.60001"
   x2="333.60001"
   y2="433.00003"
   id="line264" /><line
   class="st10"
   x1="367.39999"
   y1="429.60001"
   x2="367.39999"
   y2="433.00003"
   id="line266" /><line
   class="st10"
   x1="401.20001"
   y1="429.60001"
   x2="401.20001"
   y2="433.00003"
   id="line268" /><line
   class="st10"
   x1="435.10001"
   y1="429.60001"
   x2="435.10001"
   y2="433.00003"
   id="line270" /><line
   class="st10"
   x1="468.89999"
   y1="429.60001"
   x2="468.89999"
   y2="433.00003"
   id="line272" /><line
   class="st10"
   x1="502.70001"
   y1="429.60001"
   x2="502.70001"
   y2="433.00003"
   id="line274" /><line
   class="st10"
   x1="536.5"
   y1="429.60001"
   x2="536.5"
   y2="433.00003"
   id="line276" /><path
   id="GL"
   class="st11"
   d="m 485,181.20001 c -75.3,16.8 -137.1,43.1 -185.2,79.1 -28.5,22.7 -51,47.7 -67.6,75.1" /><path
   id="GS"
   class="st11"
   d="m 232.1,335.30001 c -15,24.5 -28.7,55.9 -41.4,94.2" /><path
   id="SL"
   class="st11"
   d="m 232.1,335.30001 v -75.1 c -0.1,-87.7 -2.1,-101.3 -14.9,-112.2 l 3.4,-7.5 11.4,-8.7 55.5,-18.4 c 30.4,-1.8 131.9,-15.400004 199.6,-26.200004 4.5,-0.9 27.1,-4.2 67.6,-10" /><line
   class="st10"
   x1="47.400002"
   y1="260.30002"
   x2="554.70001"
   y2="260.30002"
   id="line286" /><line
   class="st10"
   x1="232.10001"
   y1="429.60001"
   x2="232.10001"
   y2="23.700016"
   id="line288" /><line
   class="st10"
   x1="299.79999"
   y1="429.60001"
   x2="299.79999"
   y2="23.700016"
   id="line290" /><circle
   class="st10"
   cx="232.14999"
   cy="260.21402"
   id="ellipse292"
   r="3.4000001" /><text
   class="st9 st6 st12"
   id="text294"
   x="66.5718"
   y="273.79111">Freezing point at 1 atm</text><text
   class="st9 st6 st13"
   id="text296"
   x="108.0615"
   y="288.67291">273.15 K, 101.325 kPa</text><circle
   class="st10"
   cx="299.75"
   cy="260.21402"
   id="ellipse300"
   r="3.4000001" /><text
   class="st9 st6 st12"
   id="text302"
   x="303.15091"
   y="273.79111">Boiling point at 1 atm</text><text
   class="st9 st6 st13"
   id="text304"
   x="303.15091"
   y="288.67291">373.15 K, 101.325 kPa</text><circle
   class="st5"
   cx="485"
   cy="181.216"
   id="ellipse309"
   r="3.4000001" /><text
   class="st6 st12"
   id="text311"
   x="382.87109"
   y="164.95171">Critical point</text><text
   class="st6 st13"
   id="text313"
   x="374.2861"
   y="176.45122">647 K, 22.064 MPa</text><circle
   class="st5"
   cx="232.16"
   cy="335.27502"
   id="ellipse317"
   r="3.4000001" /><text
   class="st6 st12"
   id="text319"
   x="235.5127"
   y="348.85071">Solid/Liquid/Gas triple point</text><text
   class="st6 st13"
   id="text321"
   x="235.5127"
   y="358.99722">273.16 K, 611.657 Pa</text><text
   class="st14 st6 st15"
   id="text326"
   x="78.999001"
   y="186.04601">Solid</text><text
   class="st16 st6 st15"
   id="text330"
   x="282.07471"
   y="186.04601">Liquid</text><text
   class="st17 st6 st15"
   id="text332"
   x="361.12701"
   y="382.2164">Vapor</text>
<g
   id="g346"
   transform="translate(0,-200.39999)">
	<g
   id="g344">
		<line
   class="st18"
   x1="485"
   y1="630"
   x2="485"
   y2="628"
   id="line338" />
		<line
   class="st19"
   x1="485"
   y1="624"
   x2="485"
   y2="385"
   id="line340" />
		<line
   class="st18"
   x1="485"
   y1="383"
   x2="485"
   y2="381"
   id="line342" />
	</g>
</g>
<text
   class="st17 st6 st15"
   id="text348"
   x="497.2691"
   y="338.7037">Gas</text>
</svg>
