<?xml version='1.0' encoding='utf-8'?>
<svg xmlns:xlink="http://www.w3.org/1999/xlink" xmlns="http://www.w3.org/2000/svg" version="1.1" baseProfile="full" width="220" height="165">
  <title>VFPt_charges_plus_minus_thumb</title>
  <desc>VFPt_charges_plus_minus_thumb
created with VectorFieldPlot 2.5
https://commons.wikimedia.org/wiki/User:Geek3/VectorFieldPlot

about: https://commons.wikimedia.org/wiki/File:VFPt_charges_plus_minus_thumb.svg
rights: Creative Commons Attribution ShareAlike 4.0
  </desc>
  <defs>
    <clipPath id="image_clip">
      <rect x="-3.66666666667" y="-2.75" width="7.33333333333" height="5.5"/>
    </clipPath>
    <radialGradient id="white_spot" cx="0.65" cy="0.7" r="0.75">
      <stop stop-color="#ffffff" offset="0" stop-opacity="0.7"/>
      <stop stop-color="#ffffff" offset="0.1" stop-opacity="0.5"/>
      <stop stop-color="#ffffff" offset="0.6" stop-opacity="0"/>
      <stop stop-color="#000000" offset="0.6" stop-opacity="0"/>
      <stop stop-color="#000000" offset="0.75" stop-opacity="0.05"/>
      <stop stop-color="#000000" offset="0.85" stop-opacity="0.15"/>
      <stop stop-color="#000000" offset="1" stop-opacity="0.5"/>
    </radialGradient>
    <path id="arrow1" stroke="none" fill="#000000" transform="scale(0.0333333333333)" d="M 0.3,0 L -2.2,2.25 L 3.8,0 L -2.2,-2.25 L 0.3,0 Z"/>
  </defs>
  <rect id="background" x="0" y="0" width="220" height="165" fill="#ffffff"/>
  <g id="image" transform="translate(110.0,82.5) scale(30.0,-30.0)" clip-path="url(#image_clip)">
    <g id="fieldlines" fill="none" stroke="#000000" stroke-width="0.0333333333333" stroke-linejoin="round" stroke-linecap="round">
      <g id="fieldline1">
        <path d="M -1.0000,0.0000 L -0.6768,0.0631 L -0.5047,0.0933 L -0.3710,0.1132 L -0.2558,0.1266 L -0.1501,0.1351 L -0.0496,0.1391 L 0.0493,0.1391 L 0.1500,0.1351 L 0.2558,0.1266 L 0.3710,0.1132 L 0.5047,0.0933 L 0.6768,0.0631 L 1.0000,0.0000"/>
        <g id="arrows1">
          <use xlink:href="#arrow1" transform="translate(-0.0000,0.1385) rotate(-1.17) scale(1.4)"/>
        </g>
      </g>
      <g id="fieldline2">
        <path d="M -1.0000,0.0000 L -0.7932,0.1366 L -0.6754,0.2103 L -0.5808,0.2650 L -0.4982,0.3083 L -0.4229,0.3434 L -0.3519,0.3720 L -0.2843,0.3948 L -0.2191,0.4125 L -0.1554,0.4255 L -0.0928,0.4340 L -0.0309,0.4382 L 0.0309,0.4382 L 0.0929,0.4340 L 0.1554,0.4255 L 0.2191,0.4125 L 0.2843,0.3948 L 0.3519,0.3720 L 0.4229,0.3434 L 0.4982,0.3083 L 0.5808,0.2650 L 0.6754,0.2103 L 0.7932,0.1366 L 1.0000,0.0000"/>
        <g id="arrows2">
          <use xlink:href="#arrow1" transform="translate(-0.0001,0.4363) rotate(-3.31) scale(1.4)"/>
        </g>
      </g>
      <g id="fieldline3">
        <path d="M -1.0000,0.0000 L -0.8745,0.1855 L -0.7977,0.2927 L -0.7327,0.3769 L -0.6732,0.4477 L -0.6163,0.5092 L -0.5612,0.5629 L -0.5070,0.6099 L -0.4534,0.6511 L -0.4000,0.6869 L -0.3468,0.7178 L -0.2936,0.7438 L -0.2403,0.7653 L -0.1870,0.7823 L -0.1336,0.7950 L -0.0802,0.8034 L -0.0267,0.8076 L 0.0267,0.8076 L 0.0802,0.8034 L 0.1336,0.7950 L 0.1870,0.7823 L 0.2403,0.7653 L 0.2936,0.7438 L 0.3468,0.7178 L 0.4000,0.6870 L 0.4534,0.6511 L 0.5070,0.6099 L 0.5612,0.5629 L 0.6163,0.5092 L 0.6732,0.4477 L 0.7327,0.3769 L 0.7977,0.2927 L 0.8745,0.1855 L 1.0000,0.0000"/>
        <g id="arrows3">
          <use xlink:href="#arrow1" transform="translate(-0.2923,0.7408) rotate(20.29) scale(1.4)"/>
          <use xlink:href="#arrow1" transform="translate(0.2920,0.7412) rotate(-27.31) scale(1.4)"/>
        </g>
      </g>
      <g id="fieldline4">
        <path d="M -1.0000,0.0000 L -0.9558,0.2152 L -0.9250,0.3473 L -0.8957,0.4564 L -0.8658,0.5523 L -0.8343,0.6394 L -0.8012,0.7193 L -0.7662,0.7929 L -0.7293,0.8611 L -0.6904,0.9241 L -0.6496,0.9824 L -0.6070,1.0361 L -0.5627,1.0853 L -0.5168,1.1300 L -0.4694,1.1704 L -0.4206,1.2065 L -0.3707,1.2383 L -0.3196,1.2658 L -0.2677,1.2891 L -0.2151,1.3081 L -0.1618,1.3229 L -0.1081,1.3334 L -0.0541,1.3398 L -0.0000,1.3419 L 0.0541,1.3398 L 0.1081,1.3334 L 0.1618,1.3229 L 0.2151,1.3081 L 0.2677,1.2891 L 0.3197,1.2658 L 0.3707,1.2383 L 0.4206,1.2065 L 0.4694,1.1704 L 0.5168,1.1300 L 0.5627,1.0853 L 0.6071,1.0361 L 0.6496,0.9824 L 0.6904,0.9241 L 0.7293,0.8611 L 0.7662,0.7929 L 0.8012,0.7193 L 0.8343,0.6394 L 0.8658,0.5523 L 0.8957,0.4564 L 0.9250,0.3473 L 0.9558,0.2152 L 1.0000,0.0000"/>
        <g id="arrows4">
          <use xlink:href="#arrow1" transform="translate(-0.6550,0.9712) rotate(51.36) scale(1.4)"/>
          <use xlink:href="#arrow1" transform="translate(0.6551,0.9715) rotate(-56.09) scale(1.4)"/>
        </g>
      </g>
      <g id="fieldline5">
        <path d="M -1.0000,0.0000 L -1.0432,0.2242 L -1.0675,0.3703 L -1.0845,0.4963 L -1.0961,0.6125 L -1.1027,0.7216 L -1.1049,0.8255 L -1.1028,0.9252 L -1.0965,1.0212 L -1.0863,1.1138 L -1.0722,1.2033 L -1.0543,1.2896 L -1.0327,1.3728 L -1.0076,1.4529 L -0.9790,1.5297 L -0.9472,1.6033 L -0.9122,1.6735 L -0.8742,1.7402 L -0.8334,1.8033 L -0.7899,1.8628 L -0.7440,1.9186 L -0.6956,1.9705 L -0.6452,2.0185 L -0.5927,2.0626 L -0.5385,2.1026 L -0.4827,2.1385 L -0.4254,2.1703 L -0.3669,2.1979 L -0.3074,2.2213 L -0.2470,2.2405 L -0.1858,2.2554 L -0.1242,2.2661 L -0.0622,2.2725 L 0.0000,2.2746 L 0.0622,2.2725 L 0.1242,2.2661 L 0.1858,2.2554 L 0.2470,2.2405 L 0.3074,2.2213 L 0.3669,2.1979 L 0.4254,2.1703 L 0.4827,2.1385 L 0.5385,2.1026 L 0.5927,2.0626 L 0.6452,2.0185 L 0.6956,1.9705 L 0.7440,1.9186 L 0.7899,1.8628 L 0.8334,1.8033 L 0.8742,1.7402 L 0.9122,1.6735 L 0.9472,1.6033 L 0.9790,1.5297 L 1.0076,1.4528 L 1.0327,1.3728 L 1.0543,1.2896 L 1.0722,1.2033 L 1.0863,1.1138 L 1.0965,1.0212 L 1.1028,0.9252 L 1.1049,0.8255 L 1.1027,0.7216 L 1.0961,0.6125 L 1.0845,0.4963 L 1.0675,0.3703 L 1.0432,0.2242 L 1.0000,0.0000"/>
        <g id="arrows5">
          <use xlink:href="#arrow1" transform="translate(-1.0941,1.0315) rotate(83.22) scale(1.4)"/>
          <use xlink:href="#arrow1" transform="translate(-0.0002,2.2718) rotate(-3.08) scale(1.4)"/>
          <use xlink:href="#arrow1" transform="translate(1.0941,1.0315) rotate(-86.01) scale(1.4)"/>
        </g>
      </g>
      <g id="fieldline6">
        <path d="M -1.0000,0.0000 L -1.1322,0.2001 L -1.2206,0.3403 L -1.2957,0.4663 L -1.3625,0.5859 L -1.4230,0.7020 L -1.4780,0.8162 L -1.5282,0.9292 L -1.5738,1.0416 L -1.6151,1.1535 L -1.6521,1.2652 L -1.6849,1.3767 L -1.7135,1.4879 L -1.7381,1.5988 L -1.7585,1.7093 L -1.7749,1.8193 L -1.7872,1.9288 L -1.7955,2.0375 L -1.7999,2.1454 L -1.8002,2.2523 L -1.7967,2.3581 L -1.7893,2.4625 L -1.7781,2.5656 L -1.7631,2.6670 L -1.7444,2.7667 M 1.7444,2.7667 L 1.7631,2.6670 L 1.7781,2.5656 L 1.7893,2.4625 L 1.7967,2.3581 L 1.8002,2.2523 L 1.7999,2.1454 L 1.7955,2.0375 L 1.7872,1.9288 L 1.7749,1.8193 L 1.7585,1.7093 L 1.7381,1.5988 L 1.7135,1.4879 L 1.6849,1.3767 L 1.6521,1.2652 L 1.6151,1.1535 L 1.5738,1.0416 L 1.5282,0.9292 L 1.4780,0.8162 L 1.4230,0.7020 L 1.3625,0.5859 L 1.2957,0.4663 L 1.2206,0.3403 L 1.1322,0.2001 L 1.0000,0.0000"/>
        <g id="arrows6">
          <use xlink:href="#arrow1" transform="translate(-1.5152,0.9015) rotate(112.80) scale(1.4)"/>
          <use xlink:href="#arrow1" transform="translate(-1.7984,2.1340) rotate(90.57) scale(1.4)"/>
          <use xlink:href="#arrow1" transform="translate(1.7985,2.1341) rotate(-92.49) scale(1.4)"/>
          <use xlink:href="#arrow1" transform="translate(1.5155,0.9014) rotate(-114.36) scale(1.4)"/>
        </g>
      </g>
      <g id="fieldline7">
        <path d="M -1.0000,0.0000 L -1.2420,0.1633 L -1.4125,0.2830 L -1.5669,0.3961 L -1.7124,0.5076 L -1.8519,0.6198 L -1.9871,0.7336 L -2.1186,0.8497 L -2.2468,0.9685 L -2.3721,1.0900 L -2.4944,1.2144 L -2.6138,1.3418 L -2.7303,1.4720 L -2.8439,1.6052 L -2.9546,1.7413 L -3.0622,1.8801 L -3.1667,2.0216 L -3.2681,2.1658 L -3.3662,2.3125 L -3.4610,2.4616 L -3.5524,2.6130 L -3.6403,2.7667 M 3.6403,2.7667 L 3.5524,2.6130 L 3.4610,2.4616 L 3.3662,2.3125 L 3.2681,2.1658 L 3.1667,2.0216 L 3.0622,1.8801 L 2.9546,1.7413 L 2.8439,1.6052 L 2.7303,1.4720 L 2.6138,1.3418 L 2.4944,1.2144 L 2.3721,1.0900 L 2.2468,0.9685 L 2.1186,0.8497 L 1.9871,0.7336 L 1.8519,0.6198 L 1.7124,0.5076 L 1.5669,0.3961 L 1.4125,0.2830 L 1.2420,0.1633 L 1.0000,0.0000"/>
        <g id="arrows7">
          <use xlink:href="#arrow1" transform="translate(-1.8407,0.6114) rotate(140.26) scale(1.4)"/>
          <use xlink:href="#arrow1" transform="translate(-3.1319,1.9750) rotate(125.84) scale(1.4)"/>
          <use xlink:href="#arrow1" transform="translate(3.1321,1.9748) rotate(-126.57) scale(1.4)"/>
          <use xlink:href="#arrow1" transform="translate(1.8408,0.6113) rotate(-141.07) scale(1.4)"/>
        </g>
      </g>
      <g id="fieldline8">
        <path d="M -1.0000,0.0000 L -1.4332,0.0877 L -1.7685,0.1595 L -2.0878,0.2322 L -2.4033,0.3083 L -2.7193,0.3888 L -3.0374,0.4743 L -3.3587,0.5650 L -3.6833,0.6610 M 3.6833,0.6610 L 3.3587,0.5650 L 3.0374,0.4743 L 2.7193,0.3888 L 2.4033,0.3083 L 2.0878,0.2322 L 1.7685,0.1595 L 1.4332,0.0877 L 1.0000,0.0000"/>
        <g id="arrows8">
          <use xlink:href="#arrow1" transform="translate(-2.0172,0.2163) rotate(166.91) scale(1.4)"/>
          <use xlink:href="#arrow1" transform="translate(-3.1312,0.5008) rotate(164.24) scale(1.4)"/>
          <use xlink:href="#arrow1" transform="translate(3.1312,0.5009) rotate(-164.39) scale(1.4)"/>
          <use xlink:href="#arrow1" transform="translate(2.0172,0.2161) rotate(-167.18) scale(1.4)"/>
        </g>
      </g>
      <g id="fieldline9">
        <path d="M -1.0000,0.0000 L -1.4332,-0.0877 L -1.7685,-0.1595 L -2.0878,-0.2322 L -2.4033,-0.3083 L -2.7193,-0.3888 L -3.0374,-0.4743 L -3.3587,-0.5650 L -3.6833,-0.6610 M 3.6833,-0.6610 L 3.3587,-0.5650 L 3.0374,-0.4743 L 2.7193,-0.3888 L 2.4033,-0.3083 L 2.0878,-0.2322 L 1.7685,-0.1595 L 1.4332,-0.0877 L 1.0000,0.0000"/>
        <g id="arrows9">
          <use xlink:href="#arrow1" transform="translate(-2.0172,-0.2163) rotate(-166.91) scale(1.4)"/>
          <use xlink:href="#arrow1" transform="translate(-3.1312,-0.5008) rotate(-164.24) scale(1.4)"/>
          <use xlink:href="#arrow1" transform="translate(3.1312,-0.5009) rotate(164.39) scale(1.4)"/>
          <use xlink:href="#arrow1" transform="translate(2.0172,-0.2161) rotate(167.18) scale(1.4)"/>
        </g>
      </g>
      <g id="fieldline10">
        <path d="M -1.0000,0.0000 L -1.2420,-0.1633 L -1.4125,-0.2830 L -1.5669,-0.3961 L -1.7124,-0.5076 L -1.8519,-0.6198 L -1.9871,-0.7336 L -2.1186,-0.8497 L -2.2468,-0.9685 L -2.3721,-1.0900 L -2.4944,-1.2144 L -2.6138,-1.3418 L -2.7303,-1.4720 L -2.8439,-1.6052 L -2.9546,-1.7413 L -3.0622,-1.8801 L -3.1667,-2.0216 L -3.2681,-2.1658 L -3.3662,-2.3125 L -3.4610,-2.4616 L -3.5524,-2.6130 L -3.6403,-2.7667 M 3.6403,-2.7667 L 3.5524,-2.6130 L 3.4610,-2.4616 L 3.3662,-2.3125 L 3.2681,-2.1658 L 3.1667,-2.0216 L 3.0622,-1.8801 L 2.9546,-1.7413 L 2.8439,-1.6052 L 2.7303,-1.4720 L 2.6138,-1.3418 L 2.4944,-1.2144 L 2.3721,-1.0900 L 2.2468,-0.9685 L 2.1186,-0.8497 L 1.9871,-0.7336 L 1.8519,-0.6198 L 1.7124,-0.5076 L 1.5669,-0.3961 L 1.4125,-0.2830 L 1.2420,-0.1633 L 1.0000,0.0000"/>
        <g id="arrows10">
          <use xlink:href="#arrow1" transform="translate(-1.8407,-0.6114) rotate(-140.26) scale(1.4)"/>
          <use xlink:href="#arrow1" transform="translate(-3.1319,-1.9750) rotate(-125.84) scale(1.4)"/>
          <use xlink:href="#arrow1" transform="translate(3.1321,-1.9748) rotate(126.57) scale(1.4)"/>
          <use xlink:href="#arrow1" transform="translate(1.8408,-0.6113) rotate(141.07) scale(1.4)"/>
        </g>
      </g>
      <g id="fieldline11">
        <path d="M -1.0000,0.0000 L -1.1322,-0.2001 L -1.2206,-0.3403 L -1.2957,-0.4663 L -1.3625,-0.5859 L -1.4230,-0.7020 L -1.4780,-0.8162 L -1.5282,-0.9292 L -1.5738,-1.0416 L -1.6151,-1.1535 L -1.6521,-1.2652 L -1.6849,-1.3767 L -1.7135,-1.4879 L -1.7381,-1.5988 L -1.7585,-1.7093 L -1.7749,-1.8193 L -1.7872,-1.9288 L -1.7955,-2.0375 L -1.7999,-2.1454 L -1.8002,-2.2523 L -1.7967,-2.3581 L -1.7893,-2.4625 L -1.7781,-2.5656 L -1.7631,-2.6670 L -1.7444,-2.7667 M 1.7444,-2.7667 L 1.7631,-2.6670 L 1.7781,-2.5656 L 1.7893,-2.4625 L 1.7967,-2.3581 L 1.8002,-2.2523 L 1.7999,-2.1454 L 1.7955,-2.0375 L 1.7872,-1.9288 L 1.7749,-1.8193 L 1.7585,-1.7093 L 1.7381,-1.5988 L 1.7135,-1.4879 L 1.6849,-1.3767 L 1.6521,-1.2652 L 1.6151,-1.1535 L 1.5738,-1.0416 L 1.5282,-0.9292 L 1.4780,-0.8162 L 1.4230,-0.7020 L 1.3625,-0.5859 L 1.2957,-0.4663 L 1.2206,-0.3403 L 1.1322,-0.2001 L 1.0000,0.0000"/>
        <g id="arrows11">
          <use xlink:href="#arrow1" transform="translate(-1.5152,-0.9015) rotate(-112.80) scale(1.4)"/>
          <use xlink:href="#arrow1" transform="translate(-1.7984,-2.1340) rotate(-90.57) scale(1.4)"/>
          <use xlink:href="#arrow1" transform="translate(1.7985,-2.1341) rotate(92.49) scale(1.4)"/>
          <use xlink:href="#arrow1" transform="translate(1.5155,-0.9014) rotate(114.36) scale(1.4)"/>
        </g>
      </g>
      <g id="fieldline12">
        <path d="M -1.0000,0.0000 L -1.0432,-0.2242 L -1.0675,-0.3703 L -1.0845,-0.4963 L -1.0961,-0.6125 L -1.1027,-0.7216 L -1.1049,-0.8255 L -1.1028,-0.9252 L -1.0965,-1.0212 L -1.0863,-1.1138 L -1.0722,-1.2033 L -1.0543,-1.2896 L -1.0327,-1.3728 L -1.0076,-1.4529 L -0.9790,-1.5297 L -0.9472,-1.6033 L -0.9122,-1.6735 L -0.8742,-1.7402 L -0.8334,-1.8033 L -0.7899,-1.8628 L -0.7440,-1.9186 L -0.6956,-1.9705 L -0.6452,-2.0185 L -0.5927,-2.0626 L -0.5385,-2.1026 L -0.4827,-2.1385 L -0.4254,-2.1703 L -0.3669,-2.1979 L -0.3074,-2.2213 L -0.2470,-2.2405 L -0.1858,-2.2554 L -0.1242,-2.2661 L -0.0622,-2.2725 L 0.0000,-2.2746 L 0.0622,-2.2725 L 0.1242,-2.2661 L 0.1858,-2.2554 L 0.2470,-2.2405 L 0.3074,-2.2213 L 0.3669,-2.1979 L 0.4254,-2.1703 L 0.4827,-2.1385 L 0.5385,-2.1026 L 0.5927,-2.0626 L 0.6452,-2.0185 L 0.6956,-1.9705 L 0.7440,-1.9186 L 0.7899,-1.8628 L 0.8334,-1.8033 L 0.8742,-1.7402 L 0.9122,-1.6735 L 0.9472,-1.6033 L 0.9790,-1.5297 L 1.0076,-1.4528 L 1.0327,-1.3728 L 1.0543,-1.2896 L 1.0722,-1.2033 L 1.0863,-1.1138 L 1.0965,-1.0212 L 1.1028,-0.9252 L 1.1049,-0.8255 L 1.1027,-0.7216 L 1.0961,-0.6125 L 1.0845,-0.4963 L 1.0675,-0.3703 L 1.0432,-0.2242 L 1.0000,0.0000"/>
        <g id="arrows12">
          <use xlink:href="#arrow1" transform="translate(-1.0941,-1.0315) rotate(-83.22) scale(1.4)"/>
          <use xlink:href="#arrow1" transform="translate(-0.0002,-2.2718) rotate(3.08) scale(1.4)"/>
          <use xlink:href="#arrow1" transform="translate(1.0941,-1.0315) rotate(86.01) scale(1.4)"/>
        </g>
      </g>
      <g id="fieldline13">
        <path d="M -1.0000,0.0000 L -0.9558,-0.2152 L -0.9250,-0.3473 L -0.8957,-0.4564 L -0.8658,-0.5523 L -0.8343,-0.6394 L -0.8012,-0.7193 L -0.7662,-0.7929 L -0.7293,-0.8611 L -0.6904,-0.9241 L -0.6496,-0.9824 L -0.6070,-1.0361 L -0.5627,-1.0853 L -0.5168,-1.1300 L -0.4694,-1.1704 L -0.4206,-1.2065 L -0.3707,-1.2383 L -0.3196,-1.2658 L -0.2677,-1.2891 L -0.2151,-1.3081 L -0.1618,-1.3229 L -0.1081,-1.3334 L -0.0541,-1.3398 L -0.0000,-1.3419 L 0.0541,-1.3398 L 0.1081,-1.3334 L 0.1618,-1.3229 L 0.2151,-1.3081 L 0.2677,-1.2891 L 0.3197,-1.2658 L 0.3707,-1.2383 L 0.4206,-1.2065 L 0.4694,-1.1704 L 0.5168,-1.1300 L 0.5627,-1.0853 L 0.6071,-1.0361 L 0.6496,-0.9824 L 0.6904,-0.9241 L 0.7293,-0.8611 L 0.7662,-0.7929 L 0.8012,-0.7193 L 0.8343,-0.6394 L 0.8658,-0.5523 L 0.8957,-0.4564 L 0.9250,-0.3473 L 0.9558,-0.2152 L 1.0000,0.0000"/>
        <g id="arrows13">
          <use xlink:href="#arrow1" transform="translate(-0.6550,-0.9712) rotate(-51.36) scale(1.4)"/>
          <use xlink:href="#arrow1" transform="translate(0.6551,-0.9715) rotate(56.09) scale(1.4)"/>
        </g>
      </g>
      <g id="fieldline14">
        <path d="M -1.0000,0.0000 L -0.8745,-0.1855 L -0.7977,-0.2927 L -0.7327,-0.3769 L -0.6732,-0.4477 L -0.6163,-0.5092 L -0.5612,-0.5629 L -0.5070,-0.6099 L -0.4534,-0.6511 L -0.4000,-0.6869 L -0.3468,-0.7178 L -0.2936,-0.7438 L -0.2403,-0.7653 L -0.1870,-0.7823 L -0.1336,-0.7950 L -0.0802,-0.8034 L -0.0267,-0.8076 L 0.0267,-0.8076 L 0.0802,-0.8034 L 0.1336,-0.7950 L 0.1870,-0.7823 L 0.2403,-0.7653 L 0.2936,-0.7438 L 0.3468,-0.7178 L 0.4000,-0.6870 L 0.4534,-0.6511 L 0.5070,-0.6099 L 0.5612,-0.5629 L 0.6163,-0.5092 L 0.6732,-0.4477 L 0.7327,-0.3769 L 0.7977,-0.2927 L 0.8745,-0.1855 L 1.0000,0.0000"/>
        <g id="arrows14">
          <use xlink:href="#arrow1" transform="translate(-0.2923,-0.7408) rotate(-20.29) scale(1.4)"/>
          <use xlink:href="#arrow1" transform="translate(0.2920,-0.7412) rotate(27.31) scale(1.4)"/>
        </g>
      </g>
      <g id="fieldline15">
        <path d="M -1.0000,0.0000 L -0.7932,-0.1366 L -0.6754,-0.2103 L -0.5808,-0.2650 L -0.4982,-0.3083 L -0.4229,-0.3434 L -0.3519,-0.3720 L -0.2843,-0.3948 L -0.2191,-0.4125 L -0.1554,-0.4255 L -0.0928,-0.4340 L -0.0309,-0.4382 L 0.0309,-0.4382 L 0.0929,-0.4340 L 0.1554,-0.4255 L 0.2191,-0.4125 L 0.2843,-0.3948 L 0.3519,-0.3720 L 0.4229,-0.3434 L 0.4982,-0.3083 L 0.5808,-0.2650 L 0.6754,-0.2103 L 0.7932,-0.1366 L 1.0000,0.0000"/>
        <g id="arrows15">
          <use xlink:href="#arrow1" transform="translate(-0.0001,-0.4363) rotate(3.31) scale(1.4)"/>
        </g>
      </g>
      <g id="fieldline16">
        <path d="M -1.0000,0.0000 L -0.6768,-0.0631 L -0.5047,-0.0933 L -0.3710,-0.1132 L -0.2558,-0.1266 L -0.1501,-0.1351 L -0.0496,-0.1391 L 0.0493,-0.1391 L 0.1500,-0.1351 L 0.2558,-0.1266 L 0.3710,-0.1132 L 0.5047,-0.0933 L 0.6768,-0.0631 L 1.0000,0.0000"/>
        <g id="arrows16">
          <use xlink:href="#arrow1" transform="translate(-0.0000,-0.1385) rotate(1.17) scale(1.4)"/>
        </g>
      </g>
    </g>
    <g id="symbols">
      <g id="charge1" transform="translate(-1,0) scale(0.0261904761905,0.0261904761905)">
        <circle style="fill:#ff0000; stroke:none" cx="0" cy="0" r="14"/>
        <circle cx="0" cy="0" r="14" style="fill:url(#white_spot); stroke:#000000; stroke-width:2"/>
        <path d="M 2,2 V 8 H -2 V 2 H -8 V -2 H -2 V -8 H 2 V -2 H 8 V 2 H 2 Z" style="fill:#000000; stroke:none"/>
      </g>
      <g id="charge2" transform="translate(1,0) scale(0.0261904761905,0.0261904761905)">
        <circle style="fill:#0000ff; stroke:none" cx="0" cy="0" r="14"/>
        <circle cx="0" cy="0" r="14" style="fill:url(#white_spot); stroke:#000000; stroke-width:2"/>
        <path d="M 8,2 H -8 V -2 H 8 V 2 Z" style="fill:#000000; stroke:none"/>
      </g>
    </g>
  </g>
</svg>
