<?xml version="1.0" encoding="UTF-8" standalone="no"?>
<svg
   xmlns:dc="http://purl.org/dc/elements/1.1/"
   xmlns:cc="http://creativecommons.org/ns#"
   xmlns:rdf="http://www.w3.org/1999/02/22-rdf-syntax-ns#"
   xmlns:svg="http://www.w3.org/2000/svg"
   xmlns="http://www.w3.org/2000/svg"
   xmlns:sodipodi="http://sodipodi.sourceforge.net/DTD/sodipodi-0.dtd"
   xmlns:inkscape="http://www.inkscape.org/namespaces/inkscape"
   version="1.1"
   id="body"
   width="8in"
   height="8in"
   viewBox="0 0 1 1"
   preserveAspectRatio="none"
   inkscape:version="0.48.2 r9819"
   sodipodi:docname="transistor0.svg">
  <metadata
     id="metadata55">
    <rdf:RDF>
      <cc:Work
         rdf:about="">
        <dc:format>image/svg+xml</dc:format>
        <dc:type
           rdf:resource="http://purl.org/dc/dcmitype/StillImage" />
        <dc:title>SVG drawing</dc:title>
      </cc:Work>
    </rdf:RDF>
  </metadata>
  <defs
     id="defs53" />
  <sodipodi:namedview
     pagecolor="#ffffff"
     bordercolor="#666666"
     borderopacity="1"
     objecttolerance="10"
     gridtolerance="10"
     guidetolerance="10"
     inkscape:pageopacity="0"
     inkscape:pageshadow="2"
     inkscape:window-width="640"
     inkscape:window-height="480"
     id="namedview51"
     showgrid="false"
     inkscape:zoom="0.32777778"
     inkscape:cx="360"
     inkscape:cy="360"
     inkscape:window-x="0"
     inkscape:window-y="31"
     inkscape:window-maximized="0"
     inkscape:current-layer="body" />
  <title
     id="title3">SVG drawing</title>
  <desc
     id="desc5">This was produced by version 4.4 of GNU libplot, a free library for exporting 2-D vector graphics.</desc>
  <rect
     id="background"
     x="0"
     y="0"
     width="1"
     height="1"
     stroke="none"
     fill="white" />
  <g
     id="content"
     transform="translate(-0.03125,1.1875) scale(1,-1) scale(0.0017361) "
     xml:space="preserve"
     stroke="black"
     stroke-linecap="butt"
     stroke-linejoin="miter"
     stroke-miterlimit="10.433"
     stroke-dasharray="none"
     stroke-dashoffset="0"
     stroke-opacity="1"
     fill="none"
     fill-rule="evenodd"
     fill-opacity="1"
     font-style="normal"
     font-variant="normal"
     font-weight="normal"
     font-stretch="normal"
     font-size-adjust="none"
     letter-spacing="normal"
     word-spacing="normal"
     text-anchor="start">
<line
   x1="264.96"
   y1="324"
   x2="149.76"
   y2="324"
   stroke-width="2.4"
   id="line9" />
<line
   x1="264.96"
   y1="358.56"
   x2="264.96"
   y2="289.44"
   stroke-width="6.4"
   id="line11" />
<polyline
   points="264.96,347.04 311.04,370.08 311.04,439.2 "
   stroke-width="2.4"
   id="polyline13" />
<polyline
   points="264.96,300.96 311.04,277.92 311.04,185.76 "
   stroke-width="2.4"
   id="polyline15" />
<polygon
   points="311.04,277.92 288.47,282.55 293.81,293.22 "
   stroke-width="0"
   fill="black"
   fill-rule="nonzero"
   id="polygon17" />
<text
   transform="translate(207.36,329.76) scale(1,-1) scale(1.04) "
   font-family="Times-Roman,Times,serif"
   font-size="20px"
   stroke="none"
   fill="black"
   id="text19">base</text>

<text
   transform="translate(316.8,381.6) scale(1,-1) scale(1.04) "
   font-family="Times-Roman,Times,serif"
   font-size="20px"
   stroke="none"
   fill="black"
   id="text21">collector</text>

<text
   transform="translate(316.8,254.88) scale(1,-1) scale(1.04) "
   font-family="Times-Roman,Times,serif"
   font-size="20px"
   stroke="none"
   fill="black"
   id="text23">emitter</text>

<line
   x1="288"
   y1="185.76"
   x2="334.08"
   y2="185.76"
   stroke-width="2.4"
   id="line25" />
<line
   x1="296.06"
   y1="174.24"
   x2="326.02"
   y2="174.24"
   stroke-width="2.4"
   id="line27" />
<line
   x1="304.13"
   y1="162.72"
   x2="317.95"
   y2="162.72"
   stroke-width="2.4"
   id="line29" />
<line
   x1="311.04"
   y1="439.2"
   x2="426.24"
   y2="439.2"
   stroke-width="2.4"
   id="line31" />
<path
   d="M315.84,439.2 L315.83,439.45 L315.82,439.69 L315.78,439.93 L315.74,440.17 L315.69,440.4 L315.62,440.63 L315.55,440.85 L315.46,441.07 L315.37,441.28 L315.26,441.49 L315.14,441.69 L315.02,441.88 L314.89,442.07 L314.74,442.25 L314.59,442.43 L314.43,442.59 L314.27,442.75 L314.09,442.9 L313.91,443.05 L313.72,443.18 L313.53,443.3 L313.33,443.42 L313.12,443.53 L312.91,443.62 L312.69,443.71 L312.47,443.78 L312.24,443.85 L312.01,443.9 L311.77,443.94 L311.53,443.98 L311.29,443.99 L311.04,444 C308.39,444,306.24,441.85,306.24,439.2 C306.24,436.55,308.39,434.4,311.04,434.4 C313.69,434.4,315.84,436.55,315.84,439.2 Z "
   stroke-width="2.4"
   id="path33" />
<path
   d="M315.84,439.2 L315.83,439.45 L315.82,439.69 L315.78,439.93 L315.74,440.17 L315.69,440.4 L315.62,440.63 L315.55,440.85 L315.46,441.07 L315.37,441.28 L315.26,441.49 L315.14,441.69 L315.02,441.88 L314.89,442.07 L314.74,442.25 L314.59,442.43 L314.43,442.59 L314.27,442.75 L314.09,442.9 L313.91,443.05 L313.72,443.18 L313.53,443.3 L313.33,443.42 L313.12,443.53 L312.91,443.62 L312.69,443.71 L312.47,443.78 L312.24,443.85 L312.01,443.9 L311.77,443.94 L311.53,443.98 L311.29,443.99 L311.04,444 C308.39,444,306.24,441.85,306.24,439.2 C306.24,436.55,308.39,434.4,311.04,434.4 C313.69,434.4,315.84,436.55,315.84,439.2 Z "
   stroke-width="0"
   fill="black"
   fill-rule="nonzero"
   id="path35" />
<text
   transform="translate(434.3,427.68) scale(1,-1) scale(1.44) "
   font-family="Times-Roman,Times,serif"
   font-size="20px"
   stroke="none"
   fill="black"
   id="text37">V</text>

<text
   transform="translate(451.58,421.92) scale(1,-1) scale(0.72) "
   font-family="Times-Roman,Times,serif"
   font-size="20px"
   stroke="none"
   fill="black"
   id="text39">OUT</text>

<text
   transform="translate(105.98,312.48) scale(1,-1) scale(1.44) "
   font-family="Times-Roman,Times,serif"
   font-size="20px"
   stroke="none"
   fill="black"
   id="text41">V</text>

<text
   transform="translate(123.26,306.72) scale(1,-1) scale(0.72) "
   font-family="Times-Roman,Times,serif"
   font-size="20px"
   stroke="none"
   fill="black"
   id="text43">IN</text>

<text
   transform="translate(299.52,623.52) scale(1,-1) scale(1.44) "
   font-family="Times-Roman,Times,serif"
   font-size="20px"
   stroke="none"
   fill="black"
   id="text45">V</text>

<text
   transform="translate(316.8,617.76) scale(1,-1) scale(0.72) "
   font-family="Times-Roman,Times,serif"
   font-size="20px"
   stroke="none"
   fill="black"
   id="text47">CC</text>

<polyline
   points="311.04,439.2 311.04,496.8 322.56,502.56 299.52,514.08 322.56,525.6 299.52,537.12 322.56,548.64 299.52,560.16 311.04,565.92 311.04,612 "
   stroke-width="2.4"
   id="polyline49" />
</g></svg>
