<?xml version="1.0" encoding="UTF-8" standalone="no"?>
<!-- Created with Inkscape (http://www.inkscape.org/) -->

<svg
   width="243.8817mm"
   height="238.29851mm"
   viewBox="0 0 243.8817 238.29851"
   version="1.1"
   id="svg24413"
   inkscape:version="1.1.1 (3bf5ae0d25, 2021-09-20, custom)"
   sodipodi:docname="19-elektrolyza.svg"
   xmlns:inkscape="http://www.inkscape.org/namespaces/inkscape"
   xmlns:sodipodi="http://sodipodi.sourceforge.net/DTD/sodipodi-0.dtd"
   xmlns="http://www.w3.org/2000/svg"
   xmlns:svg="http://www.w3.org/2000/svg">
  <sodipodi:namedview
     id="namedview24415"
     pagecolor="#505050"
     bordercolor="#eeeeee"
     borderopacity="1"
     inkscape:pageshadow="0"
     inkscape:pageopacity="0"
     inkscape:pagecheckerboard="0"
     inkscape:document-units="mm"
     showgrid="false"
     inkscape:zoom="0.66903058"
     inkscape:cx="455.13614"
     inkscape:cy="416.27394"
     inkscape:window-width="1920"
     inkscape:window-height="1057"
     inkscape:window-x="1400"
     inkscape:window-y="23"
     inkscape:window-maximized="1"
     inkscape:current-layer="layer1" />
  <defs
     id="defs24410">
    <clipPath
       id="clip25">
      <rect
         x="0"
         y="0"
         width="138"
         height="135"
         id="rect2308" />
    </clipPath>
    <clipPath
       id="clip26">
      <path
         d="m 5,75 h 128 v 59.76172 H 5 Z m 0,0"
         id="path2299" />
    </clipPath>
    <clipPath
       id="clip27">
      <path
         d="m 126,0.566406 h 11.96875 V 12 H 126 Z m 0,0"
         id="path2302" />
    </clipPath>
    <clipPath
       id="clip28">
      <path
         d="M 0.628906,5 H 12 V 7 H 0.628906 Z m 0,0"
         id="path2305" />
    </clipPath>
    <clipPath
       id="clipPath24391">
      <rect
         x="0"
         y="0"
         width="138"
         height="135"
         id="rect24389" />
    </clipPath>
    <clipPath
       id="clipPath24395">
      <path
         d="m 5,75 h 128 v 59.76172 H 5 Z m 0,0"
         id="path24393" />
    </clipPath>
    <clipPath
       id="clipPath24399">
      <path
         d="m 126,0.566406 h 11.96875 V 12 H 126 Z m 0,0"
         id="path24397" />
    </clipPath>
    <clipPath
       id="clipPath24403">
      <path
         d="M 0.628906,5 H 12 V 7 H 0.628906 Z m 0,0"
         id="path24401" />
    </clipPath>
  </defs>
  <g
     inkscape:label="Layer 1"
     inkscape:groupmode="layer"
     id="layer1"
     transform="translate(15.326845,-38.397958)">
    <path
       style="fill:#ffffff;fill-opacity:1;fill-rule:nonzero;stroke:none;stroke-width:1.77577"
       d="M 216.15926,173.71781 V 274.43079 H -3.7497639 V 173.71781"
       id="path24585" />
    <g
       clip-path="url(#clip26)"
       clip-rule="nonzero"
       id="g24589"
       transform="matrix(1.7757534,0,0,1.7757783,-16.443627,37.392147)">
      <path
         style="fill:none;stroke:#000000;stroke-width:14.1732;stroke-linecap:round;stroke-linejoin:round;stroke-miterlimit:4;stroke-opacity:1"
         d="M 724.05733,423.25954 V 738.27201 H 36.21105 V 423.25954"
         transform="matrix(0.18004,0,0,0.18004,0.629,0.565883)"
         id="path24587" />
    </g>
    <path
       style="fill:none;stroke:#000000;stroke-width:4.5313;stroke-linecap:round;stroke-linejoin:round;stroke-miterlimit:4;stroke-opacity:1"
       d="M 171.8556,171.63683 V 70.923836 h -56.67151 m -16.446527,0 H 40.560831 V 171.63683"
       id="path24591" />
    <path
       style="fill:#ffffff;fill-opacity:1;fill-rule:nonzero;stroke:#000000;stroke-width:4.5313;stroke-linecap:round;stroke-linejoin:round;stroke-miterlimit:4;stroke-opacity:1"
       d="m 19.473761,140.37342 h 38.664253 v 66.07144 H 19.473761 Z m 0,0"
       id="path24593" />
    <path
       style="fill:#ffffff;fill-opacity:1;fill-rule:nonzero;stroke:#000000;stroke-width:4.5313;stroke-linecap:round;stroke-linejoin:round;stroke-miterlimit:4;stroke-opacity:1"
       d="m 154.27148,140.37342 h 38.66425 v 66.07144 h -38.66425 z m 0,0"
       id="path24595" />
    <path
       style="fill:none;stroke:#000000;stroke-width:4.5313;stroke-linecap:round;stroke-linejoin:miter;stroke-miterlimit:4;stroke-opacity:1"
       d="M 112.77018,50.849218 V 86.468834"
       id="path24597" />
    <path
       style="fill:none;stroke:#000000;stroke-width:4.5313;stroke-linecap:round;stroke-linejoin:miter;stroke-miterlimit:4;stroke-opacity:1"
       d="M 99.639315,58.382403 V 78.93565"
       id="path24599" />
    <path
       style="fill:#000000;fill-opacity:1;fill-rule:evenodd;stroke:none;stroke-width:1.77577"
       d="m 34.685586,173.40567 0.0069,0.26359 0.02081,0.24972 0.02775,0.25665 0.04162,0.24278 0.05549,0.24279 0.06244,0.24278 0.0763,0.22891 0.09017,0.22197 0.09712,0.22197 0.104042,0.21504 0.117927,0.2081 0.124854,0.19422 0.131796,0.19423 0.145665,0.18729 0.145665,0.17342 0.166477,0.17342 0.159534,0.15954 0.17342,0.15261 0.180349,0.14567 0.187287,0.13179 0.187287,0.12486 0.201159,0.11793 0.201159,0.10404 0.208097,0.0971 0.208095,0.0902 0.215033,0.0763 0.228905,0.0624 0.22197,0.0555 0.228907,0.0347 0.221969,0.0347 0.235841,0.0139 0.235842,0.007 c 2.205819,0 3.537634,-1.87983 3.537634,-3.45445 0,-0.1318 0,-0.22891 -0.180349,-0.22891 -0.145665,0 -0.145665,0.0832 -0.159534,0.21504 -0.110984,1.94225 -1.553784,3.05212 -3.038204,3.05212 -0.81851,0 -3.475204,-0.45782 -3.475204,-4.49494 0,-4.051 2.64282,-4.51575 3.461332,-4.51575 1.484418,0 2.691377,1.23472 2.954964,3.21166 0.02775,0.18729 0.02775,0.22891 0.221969,0.22891 0.215033,0 0.215033,-0.0416 0.215033,-0.32602 v -3.20473 c 0,-0.23584 0,-0.32602 -0.152608,-0.32602 -0.04855,0 -0.104041,0 -0.215031,0.15954 l -0.672846,1.00581 c -0.506366,-0.4925 -1.193082,-1.16535 -2.497153,-1.16535 -2.531835,0 -4.709907,2.15035 -4.709907,4.91807 z m 0,0"
       id="path24601" />
    <path
       style="fill:#000000;fill-opacity:1;fill-rule:evenodd;stroke:none;stroke-width:1.77577"
       d="m 165.98035,173.92591 0.007,0.2636 0.0208,0.25665 0.0277,0.24972 0.0416,0.24972 0.0554,0.24278 0.0694,0.23585 0.0764,0.22891 0.0833,0.2289 0.0971,0.21504 0.11098,0.21504 0.11099,0.20809 0.12483,0.20117 0.13176,0.18729 0.14561,0.18729 0.14562,0.18035 0.32602,0.32602 0.1735,0.15261 0.18036,0.14567 0.18729,0.13874 0.18727,0.11793 0.20117,0.11793 0.20116,0.11098 0.20808,0.0902 0.21505,0.0902 0.2081,0.0763 0.22889,0.0624 0.22197,0.0555 0.22891,0.0416 0.2289,0.0278 0.22891,0.0208 h 0.23584 c 2.21277,0 3.53764,-1.87983 3.53764,-3.44751 0,-0.13874 0,-0.22891 -0.18035,-0.22891 -0.14561,0 -0.14561,0.0763 -0.15946,0.21504 -0.11099,1.93532 -1.55378,3.04518 -3.03126,3.04518 -0.82545,0 -3.48213,-0.45782 -3.48213,-4.49494 0,-4.05099 2.64282,-4.50881 3.46826,-4.50881 1.47748,0 2.68444,1.22778 2.94803,3.21166 0.0346,0.18729 0.0346,0.22891 0.22197,0.22891 0.21503,0 0.21503,-0.0416 0.21503,-0.32602 v -3.21166 c 0,-0.23585 0,-0.32602 -0.15254,-0.32602 -0.0485,0 -0.10406,0 -0.21503,0.15953 l -0.67285,1.00581 c -0.50635,-0.4925 -1.19307,-1.16535 -2.49715,-1.16535 -2.53183,0 -4.7099,2.15729 -4.7099,4.91807 z m 0,0"
       id="path24603" />
    <path
       style="fill:#000000;fill-opacity:1;fill-rule:evenodd;stroke:none;stroke-width:1.77577"
       d="m 180.30431,177.48441 v 1.22084 l 1.94916,-0.14566 v -0.42314 c -0.94337,0 -1.06128,-0.0902 -1.06128,-0.75609 v -4.80709 l -1.98386,0.14567 v 0.42313 c 0.9503,0 1.05436,0.0902 1.05436,0.7561 v 2.41394 c 0,1.1723 -0.65204,2.09487 -1.63704,2.09487 -1.13758,0 -1.19307,-0.63817 -1.19307,-1.33877 v -4.49494 l -1.9908,0.14567 v 0.42313 c 1.05436,0 1.05436,0.0347 1.05436,1.24166 v 2.03243 c 0,1.06131 0,2.28909 2.06015,2.28909 0.75608,0 1.35263,-0.37457 1.74802,-1.22084 z m 0,0"
       id="path24605" />
    <path
       style="fill:#000000;fill-opacity:1;fill-rule:evenodd;stroke:none;stroke-width:1.77577"
       d="m 86.397466,172.80218 0.0069,0.26359 0.01385,0.25666 0.03468,0.24972 0.04162,0.24971 0.05549,0.24279 0.06244,0.23584 0.0763,0.22891 0.09017,0.22891 0.09712,0.21503 0.104041,0.21504 0.117928,0.2081 0.124853,0.20116 0.131796,0.18729 0.145665,0.18729 0.145665,0.18035 0.159534,0.16648 0.166477,0.15954 0.17342,0.15261 0.180349,0.14567 0.180349,0.13179 0.194225,0.12486 0.194221,0.11793 0.201161,0.11098 0.215033,0.0902 0.208096,0.0902 0.215033,0.0763 0.221969,0.0624 0.228905,0.0555 0.221969,0.0347 0.228905,0.0347 0.235844,0.0208 h 0.235841 c 2.20582,0 3.530698,-1.87983 3.530698,-3.44751 0,-0.13874 0,-0.22891 -0.17342,-0.22891 -0.145665,0 -0.145665,0.0763 -0.159533,0.21504 -0.110985,1.93532 -1.553784,3.04518 -3.038204,3.04518 -0.818512,0 -3.475205,-0.45782 -3.475205,-4.49494 0,-4.05099 2.64282,-4.51574 3.461333,-4.51574 1.484418,0 2.691374,1.23472 2.954963,3.21859 0.02775,0.18036 0.02775,0.22891 0.215033,0.22891 0.215033,0 0.215033,-0.0485 0.215033,-0.32602 v -3.21166 c 0,-0.23585 0,-0.32602 -0.145665,-0.32602 -0.04855,0 -0.104041,0 -0.215033,0.15953 l -0.672843,1.00581 c -0.506367,-0.4925 -1.193085,-1.16535 -2.497153,-1.16535 -2.531836,0 -4.709909,2.15729 -4.709909,4.91807 z m 0,0"
       id="path24607" />
    <path
       style="fill:#000000;fill-opacity:1;fill-rule:evenodd;stroke:none;stroke-width:1.77577"
       d="m 100.72142,176.36067 v 1.22085 l 1.94916,-0.14567 v -0.42313 c -0.9503,0 -1.06129,-0.0902 -1.06129,-0.7561 v -4.80708 l -1.990785,0.14566 v 0.42314 c 0.950305,0 1.061295,0.0902 1.061295,0.75609 v 2.41395 c 0,1.17229 -0.65204,2.09487 -1.637028,2.09487 -1.137592,0 -1.193084,-0.63818 -1.193084,-1.33877 v -4.49494 l -1.997723,0.14566 v 0.42314 c 1.061292,0 1.061292,0.0347 1.061292,1.24166 v 2.03243 c 0,1.06131 0,2.28909 2.060151,2.28909 0.756082,0 1.352622,-0.37458 1.748012,-1.22085 z m 0,0"
       id="path24609" />
    <path
       style="fill:#000000;fill-opacity:1;fill-rule:evenodd;stroke:none;stroke-width:1.77577"
       d="m 107.6857,172.17788 -1.73414,-0.4162 c -0.83932,-0.2081 -1.36649,-0.93644 -1.36649,-1.72028 0,-0.95032 0.72833,-1.77578 1.78962,-1.77578 2.26131,0 2.55958,2.21972 2.63589,2.83015 0.0138,0.0832 0.0138,0.15953 0.16647,0.15953 0.17342,0 0.17342,-0.0694 0.17342,-0.32602 v -2.71916 c 0,-0.23584 0,-0.32602 -0.14566,-0.32602 -0.0971,0 -0.11099,0.0139 -0.20116,0.18035 l -0.47863,0.76997 c -0.40232,-0.39538 -0.95724,-0.95031 -2.1642,-0.95031 -1.50523,0 -2.64282,1.1931 -2.64282,2.62898 0,1.12373 0.7214,2.10874 1.77575,2.47638 0.14567,0.0555 0.83932,0.21503 1.78269,0.44394 0.36764,0.10405 0.77689,0.19423 1.15147,0.69367 0.2844,0.35376 0.42313,0.79771 0.42313,1.24165 0,0.97113 -0.67285,1.94226 -1.81044,1.94226 -0.40232,0 -1.42893,-0.0694 -2.14339,-0.72835 -0.78383,-0.73528 -0.82545,-1.60236 -0.83932,-2.08792 -0.0139,-0.13874 -0.12485,-0.13874 -0.15953,-0.13874 -0.18035,0 -0.18035,0.0971 -0.18035,0.33989 v 2.71222 c 0,0.22891 0,0.31909 0.1526,0.31909 0.0902,0 0.10405,-0.0208 0.20117,-0.17342 0,-0.007 0.0416,-0.0555 0.48555,-0.76997 0.41619,0.45782 1.2902,0.94338 2.49022,0.94338 1.58847,0 2.67057,-1.31796 2.67057,-2.80933 0,-1.35958 -0.88788,-2.46944 -2.03241,-2.73997 z m 0,0"
       id="path24611" />
    <path
       style="fill:#000000;fill-opacity:1;fill-rule:evenodd;stroke:none;stroke-width:1.77577"
       d="m 120.26164,172.8438 -0.007,-0.26359 -0.0139,-0.24972 -0.0277,-0.24972 -0.0416,-0.24278 -0.0555,-0.24278 -0.0624,-0.23585 -0.0694,-0.22891 -0.0832,-0.22891 -0.0902,-0.22197 -0.0971,-0.21504 -0.11099,-0.20116 -0.11793,-0.20116 -0.13179,-0.20116 -0.1318,-0.18036 -0.14566,-0.18035 -0.14567,-0.17342 -0.15953,-0.16648 -0.15954,-0.15261 -0.17342,-0.14567 -0.17342,-0.13874 -0.18728,-0.12485 -0.18729,-0.11793 -0.19422,-0.11099 -0.20116,-0.0971 -0.20116,-0.0902 -0.21503,-0.0763 -0.2081,-0.0694 -0.22197,-0.0555 -0.21503,-0.0416 -0.22891,-0.0277 -0.22197,-0.0208 -0.23584,-0.007 v 0.3399 c 1.18615,0 3.12144,0.96419 3.12144,4.42557 0,3.59317 -1.85205,4.73078 -3.10757,4.73078 -1.29713,0 -3.10756,-1.1931 -3.10756,-4.73078 0,-3.503 1.97691,-4.42557 3.09369,-4.42557 v -0.3399 c -2.42085,0 -4.48794,2.16423 -4.48794,4.95969 0,2.77466 2.0879,4.88339 4.48794,4.88339 2.46941,0 4.51569,-2.15035 4.51569,-4.88339 z m 0,0"
       id="path24613" />
    <path
       style="fill:#000000;fill-opacity:1;fill-rule:evenodd;stroke:none;stroke-width:1.77577"
       d="m 126.01203,177.9006 v -0.33989 h -1.05436 v -4.22441 c 0,-0.20116 0,-0.27053 -0.20116,-0.27053 -0.11792,0 -0.1526,0 -0.24971,0.13874 l -3.13532,4.35621 v 0.33988 h 2.78849 l 0.0624,-0.33989 h -2.50409 l 2.50409,-3.46832 v 3.46832 l -0.0624,0.33989 v 0.77691 c 0,0.32602 0,0.43701 -0.76995,0.43701 h -0.25666 v 0.33989 c 0.47169,-0.0138 1.08211,-0.0347 1.422,-0.0347 0.35376,0 0.95724,0.0208 1.42892,0.0347 v -0.33989 h -0.25665 c -0.76996,0 -0.76996,-0.11099 -0.76996,-0.43701 v -0.77691 z m 0,0"
       id="path24615" />
    <path
       style="fill:none;stroke:#000000;stroke-width:2.26565;stroke-linecap:butt;stroke-linejoin:miter;stroke-miterlimit:4;stroke-opacity:1"
       d="m 97.669337,187.51478 c 0,15.98895 -21.801534,44.08231 -21.801534,44.08231"
       id="path24617" />
    <path
       style="fill:#000000;fill-opacity:1;fill-rule:evenodd;stroke:#000000;stroke-width:1.20835;stroke-linecap:butt;stroke-linejoin:miter;stroke-miterlimit:4;stroke-opacity:1"
       d="m 81.424043,224.43832 -0.804644,-6.36089 -6.138819,15.30915 13.297326,-9.75291 z m 0,0"
       id="path24619" />
    <path
       style="fill:none;stroke:#000000;stroke-width:2.26565;stroke-linecap:butt;stroke-linejoin:miter;stroke-miterlimit:4;stroke-opacity:1"
       d="m 114.74709,187.51478 c 0,15.98895 21.80153,44.08231 21.80153,44.08231"
       id="path24621" />
    <path
       style="fill:#000000;fill-opacity:1;fill-rule:evenodd;stroke:#000000;stroke-width:1.20835;stroke-linecap:butt;stroke-linejoin:miter;stroke-miterlimit:4;stroke-opacity:1"
       d="m 130.99226,224.43849 -6.3608,-0.80465 13.30426,9.7529 -6.14576,-15.30914 z m 0,0"
       id="path24623" />
    <path
       style="fill:none;stroke:#000000;stroke-width:2.26565;stroke-linecap:butt;stroke-linejoin:miter;stroke-miterlimit:4;stroke-opacity:1"
       d="m 173.19435,195.79019 c -5.81282,-0.48557 -17.68123,38.51219 -17.68123,38.51219"
       id="path24625" />
    <path
       style="fill:#000000;fill-opacity:1;fill-rule:evenodd;stroke:#000000;stroke-width:1.20835;stroke-linecap:butt;stroke-linejoin:miter;stroke-miterlimit:4;stroke-opacity:1"
       d="m 158.14901,225.63851 -3.01739,-5.66029 -0.27746,16.49531 8.94813,-13.85246 z m 0,0"
       id="path24627" />
    <path
       style="fill:none;stroke:#000000;stroke-width:2.26565;stroke-linecap:butt;stroke-linejoin:miter;stroke-miterlimit:4;stroke-opacity:1"
       d="m 33.679788,195.79019 c 5.812816,-0.48557 17.681232,38.51219 17.681232,38.51219"
       id="path24629" />
    <path
       style="fill:#000000;fill-opacity:1;fill-rule:evenodd;stroke:#000000;stroke-width:1.20835;stroke-linecap:butt;stroke-linejoin:miter;stroke-miterlimit:4;stroke-opacity:1"
       d="m 48.725119,225.63852 -5.653277,-3.01743 8.948131,13.85246 -0.27746,-16.49532 z m 0,0"
       id="path24631" />
    <path
       style="fill:#000000;fill-opacity:1;fill-rule:evenodd;stroke:none;stroke-width:1.77577"
       d="m 37.855582,247.20451 0.0069,0.26359 0.02081,0.25666 0.02775,0.24973 0.04162,0.24971 0.05549,0.24278 0.06936,0.23584 0.0763,0.22892 0.08323,0.22891 0.09712,0.21503 0.110985,0.21503 0.117928,0.2081 0.124853,0.20116 0.131796,0.1873 0.13874,0.18729 0.152608,0.18034 0.159534,0.1664 0.159533,0.15946 0.173421,0.15254 0.180349,0.14561 0.187287,0.13869 0.187287,0.12484 0.402318,0.22197 0.208097,0.0902 0.215033,0.0902 0.215033,0.0764 0.221969,0.0625 0.221969,0.0554 0.228906,0.0416 0.228905,0.0277 0.228905,0.0208 H 42.5655 c 2.212754,0 3.537633,-1.87982 3.537633,-3.44749 0,-0.13869 0,-0.22892 -0.17342,-0.22892 -0.145665,0 -0.145665,0.0764 -0.159534,0.21503 -0.110984,1.93533 -1.56072,3.04519 -3.038202,3.04519 -0.825448,0 -3.482142,-0.45783 -3.482142,-4.49494 0,-4.05099 2.64282,-4.50882 3.468268,-4.50882 1.477484,0 2.68444,1.22779 2.948028,3.21167 0.03468,0.18729 0.03468,0.2289 0.221969,0.2289 0.215033,0 0.215033,-0.0416 0.215033,-0.32602 v -3.21165 c 0,-0.23586 0,-0.32603 -0.145665,-0.32603 -0.05549,0 -0.110985,0 -0.221969,0.15946 l -0.672844,1.0058 c -0.506368,-0.49249 -1.193084,-1.16535 -2.497153,-1.16535 -2.531835,0 -4.709909,2.1573 -4.709909,4.91807 z m 0,0"
       id="path24633" />
    <path
       style="fill:#000000;fill-opacity:1;fill-rule:evenodd;stroke:none;stroke-width:1.77577"
       d="m 52.17953,250.76301 v 1.22085 l 1.949168,-0.14562 v -0.42313 c -0.943369,0 -1.054353,-0.0902 -1.054353,-0.75609 v -4.80709 l -1.990787,0.14562 v 0.42313 c 0.950305,0 1.054354,0.0902 1.054354,0.75609 v 2.41394 c 0,1.1723 -0.645099,2.09487 -1.637023,2.09487 -1.137592,0 -1.193084,-0.63124 -1.193084,-1.33876 v -4.49494 l -1.990786,0.14561 v 0.42314 c 1.061289,0 1.061289,0.0416 1.061289,1.24166 v 2.03243 c 0,1.06129 0,2.28908 2.053215,2.28908 0.76302,0 1.352625,-0.37458 1.748007,-1.22084 z m 0,0"
       id="path24635" />
    <path
       style="fill:#000000;fill-opacity:1;fill-rule:evenodd;stroke:none;stroke-width:1.77577"
       d="m 59.206242,244.20788 h -0.326016 c -0.02775,0.20811 -0.124854,0.76304 -0.24278,0.86015 -0.0763,0.0554 -0.804638,0.0554 -0.936432,0.0554 h -1.748008 c 0.991925,-0.88095 1.324879,-1.14454 1.893676,-1.58849 0.70059,-0.56187 1.35956,-1.14454 1.35956,-2.04632 0,-1.14454 -1.005798,-1.84514 -2.219692,-1.84514 -1.172274,0 -1.969975,0.81853 -1.969975,1.69255 0,0.48555 0.409254,0.52718 0.506367,0.52718 0.221969,0 0.499431,-0.15947 0.499431,-0.49944 0,-0.16639 -0.06936,-0.49944 -0.561859,-0.49944 0.298269,-0.67284 0.936431,-0.88095 1.387307,-0.88095 0.950305,0 1.435862,0.73528 1.435862,1.50524 0,0.82547 -0.582669,1.47752 -0.887877,1.81741 l -2.28212,2.2544 c -0.09712,0.0833 -0.09712,0.10406 -0.09712,0.36764 h 3.898338 z m 0,0"
       id="path24637" />
    <path
       style="fill:#000000;fill-opacity:1;fill-rule:evenodd;stroke:none;stroke-width:1.77577"
       d="m 64.193612,243.79169 h 2.892535 c 0.124854,0 0.346828,0 0.346828,-0.22891 0,-0.23584 -0.215033,-0.23584 -0.346828,-0.23584 h -2.892535 v -2.90646 c 0,-0.13176 0,-0.35377 -0.235841,-0.35377 -0.235844,0 -0.235844,0.21505 -0.235844,0.35377 v 2.90646 h -2.906409 c -0.117928,0 -0.353762,0 -0.353762,0.22891 0,0.23584 0.221969,0.23584 0.353762,0.23584 h 2.906409 v 2.90646 c 0,0.12483 0,0.35377 0.228907,0.35377 0.242778,0 0.242778,-0.22198 0.242778,-0.35377 z m 0,0"
       id="path24639" />
    <path
       style="fill:#000000;fill-opacity:1;fill-rule:evenodd;stroke:none;stroke-width:1.77577"
       d="m 143.21464,245.72008 -1.73414,-0.42313 c -0.84625,-0.20118 -1.37343,-0.93646 -1.37343,-1.72029 0,-0.95032 0.73527,-1.77577 1.78963,-1.77577 2.26131,0 2.55958,2.21972 2.64282,2.83707 0.007,0.0764 0.007,0.15946 0.15953,0.15946 0.18035,0 0.18035,-0.0694 0.18035,-0.32603 v -2.71916 c 0,-0.23584 0,-0.32602 -0.15261,-0.32602 -0.0902,0 -0.11098,0.007 -0.20116,0.1735 l -0.47168,0.76998 c -0.40926,-0.38846 -0.96418,-0.94339 -2.17114,-0.94339 -1.50523,0 -2.63588,1.1931 -2.63588,2.62899 0,1.11679 0.71446,2.10874 1.76881,2.47638 0.14567,0.0554 0.83932,0.21503 1.78963,0.44394 0.3607,0.0971 0.76996,0.19422 1.15147,0.69366 0.28439,0.35377 0.41619,0.79771 0.41619,1.24165 0,0.9642 -0.67285,1.94226 -1.81044,1.94226 -0.39538,0 -1.42199,-0.0694 -2.14339,-0.73528 -0.78383,-0.72835 -0.82545,-1.59543 -0.83932,-2.081 -0.0138,-0.13868 -0.11793,-0.13868 -0.15953,-0.13868 -0.17342,0 -0.17342,0.0971 -0.17342,0.3399 v 2.71222 c 0,0.22891 0,0.31908 0.14566,0.31908 0.0971,0 0.10404,-0.0277 0.20116,-0.17349 0,-0.0142 0.0416,-0.0554 0.48556,-0.76996 0.42313,0.45781 1.2902,0.94338 2.49715,0.94338 1.58153,0 2.66363,-1.3249 2.66363,-2.81627 0,-1.35265 -0.88787,-2.46251 -2.02547,-2.73303 z m 0,0"
       id="path24641" />
    <path
       style="fill:#000000;fill-opacity:1;fill-rule:evenodd;stroke:none;stroke-width:1.77577"
       d="m 155.78364,246.37906 -0.007,-0.25666 -0.0139,-0.24973 -0.0277,-0.24971 -0.0416,-0.24972 -0.0486,-0.24277 -0.0624,-0.22892 -0.0763,-0.23584 -0.0763,-0.22197 -0.0902,-0.22197 -0.10404,-0.21505 -0.11099,-0.20808 -0.11792,-0.20118 -0.12486,-0.19422 -0.13179,-0.18729 -0.14567,-0.17349 -0.15261,-0.1735 -0.15261,-0.16639 -0.16647,-0.15254 -0.17342,-0.14561 -0.17342,-0.13869 -0.18035,-0.13176 -0.19422,-0.11791 -0.19423,-0.10406 -0.20116,-0.10406 -0.20116,-0.0902 -0.20809,-0.0764 -0.21504,-0.0625 -0.21503,-0.0554 -0.22197,-0.0416 -0.22197,-0.0346 -0.2289,-0.0142 -0.22891,-0.007 v 0.33988 c 1.17921,0 3.11451,0.95727 3.11451,4.42558 0,3.58623 -1.85206,4.72385 -3.10064,4.72385 -1.30406,0 -3.1145,-1.18617 -3.1145,-4.72385 0,-3.50299 1.97691,-4.42558 3.10063,-4.42558 v -0.33988 c -2.42779,0 -4.49487,2.16423 -4.49487,4.95275 0,2.7816 2.08789,4.89033 4.49487,4.89033 2.46247,0 4.50875,-2.15036 4.50875,-4.89033 z m 0,0"
       id="path24643" />
    <path
       style="fill:#000000;fill-opacity:1;fill-rule:evenodd;stroke:none;stroke-width:1.77577"
       d="m 161.56871,251.44279 v -0.33988 h -1.05435 v -4.23136 c 0,-0.19422 0,-0.26358 -0.2081,-0.26358 -0.11098,0 -0.1526,0 -0.24277,0.13176 l -3.13532,4.36314 v 0.33989 h 2.78849 l 0.0624,-0.33989 h -2.50408 l 2.50408,-3.46832 v 3.46832 l -0.0624,0.33989 v 0.7769 c 0,0.32603 0,0.43702 -0.76996,0.43702 h -0.25665 v 0.33988 c 0.47169,-0.0142 1.0821,-0.0416 1.41506,-0.0416 0.35376,0 0.95724,0.0277 1.43586,0.0416 v -0.33988 h -0.25665 c -0.76996,0 -0.76996,-0.11099 -0.76996,-0.43702 v -0.7769 z m 0,0"
       id="path24645" />
    <path
       style="fill:#000000;fill-opacity:1;fill-rule:evenodd;stroke:none;stroke-width:1.77577"
       d="m 167.40929,243.34081 h -0.31909 c -0.0277,0.2081 -0.12484,0.76997 -0.24972,0.86707 -0.0764,0.0554 -0.80463,0.0554 -0.93643,0.0554 h -1.74107 c 0.99193,-0.88095 1.32489,-1.14455 1.89368,-1.58849 0.70059,-0.56186 1.35263,-1.15147 1.35263,-2.05324 0,-1.14455 -0.99887,-1.84514 -2.2197,-1.84514 -1.16533,0 -1.96998,0.82545 -1.96998,1.69254 0,0.48555 0.40926,0.53412 0.50637,0.53412 0.2289,0 0.49943,-0.15946 0.49943,-0.49944 0,-0.17349 -0.0625,-0.50638 -0.55492,-0.50638 0.29133,-0.66591 0.93643,-0.88094 1.38036,-0.88094 0.95032,0 1.4428,0.74222 1.4428,1.50524 0,0.82547 -0.5896,1.4775 -0.8948,1.8174 l -2.28213,2.26135 c -0.0971,0.0833 -0.0971,0.10406 -0.0971,0.36764 h 3.90527 z m 0,0"
       id="path24647" />
    <path
       style="fill:#000000;fill-opacity:1;fill-rule:evenodd;stroke:none;stroke-width:1.77577"
       d="m 169.32376,242.41824 h 5.23014 v 0.26359 h -5.23014 z m 0,0"
       id="path24649" />
    <path
       style="fill:#000000;fill-opacity:1;fill-rule:evenodd;stroke:none;stroke-width:1.77577"
       d="m 6.2665933,223.98761 1.4358636,-1.39427 c 2.1087071,-1.86595 2.9202831,-2.59431 2.9202831,-3.95388 0,-1.54688 -1.2138942,-2.62898 -2.8647908,-2.62898 -1.5399103,0 -2.5387716,1.24858 -2.5387716,2.45556 0,0.75609 0.6797797,0.75609 0.714462,0.75609 0.2358431,0 0.7075276,-0.15946 0.7075276,-0.71447 0,-0.35377 -0.2427792,-0.70754 -0.7144637,-0.70754 -0.1109846,0 -0.1387396,0 -0.1734201,0.0142 0.3052076,-0.88095 1.0404814,-1.38038 1.8243096,-1.38038 1.2277666,0 1.8173717,1.10291 1.8173717,2.20585 0,1.08211 -0.6797797,2.15729 -1.4219896,2.99663 l -2.6012017,2.8995 c -0.1526082,0.14562 -0.1526082,0.1735 -0.1526082,0.49944 h 5.0289888 l 0.374574,-2.35846 h -0.339892 c -0.06243,0.40926 -0.159534,1.00582 -0.2913336,1.20698 -0.097116,0.10406 -0.9919251,0.10406 -1.2901967,0.10406 z m 0,0"
       id="path24651" />
    <path
       style="fill:#000000;fill-opacity:1;fill-rule:evenodd;stroke:none;stroke-width:1.77577"
       d="m 15.082932,221.90661 0.01385,-0.28441 c 0.0763,-2.01854 1.22083,-2.35844 1.678641,-2.35844 1.394245,0 1.532974,1.83127 1.532974,2.35844 h -3.211615 l -0.01385,0.28441 h 3.780412 c 0.298272,0 0.339892,0 0.339892,-0.28441 0,-1.33876 -0.735274,-2.65672 -2.427789,-2.65672 -1.567657,0 -2.816233,1.39427 -2.816233,3.09374 0,1.81046 1.421989,3.12843 2.98271,3.12843 1.650896,0 2.261312,-1.50526 2.261312,-1.76191 0,-0.13869 -0.110985,-0.16639 -0.180351,-0.16639 -0.117928,0 -0.145665,0.0833 -0.17342,0.18729 -0.471685,1.40119 -1.692515,1.40119 -1.831246,1.40119 -0.67978,0 -1.213894,-0.40926 -1.526038,-0.9087 -0.409256,-0.65205 -0.409256,-1.54686 -0.409256,-2.03243 z m 0,0"
       id="path24653" />
    <path
       style="fill:#000000;fill-opacity:1;fill-rule:evenodd;stroke:none;stroke-width:1.77577"
       d="m 20.895751,216.47523 h 5.230147 v 0.26358 h -5.230147 z m 0,0"
       id="path24655" />
    <path
       style="fill:#000000;fill-opacity:1;fill-rule:evenodd;stroke:none;stroke-width:1.77577"
       d="m 187.33102,223.98761 1.43586,-1.39427 c 2.1087,-1.86595 2.92722,-2.59431 2.92722,-3.95388 0,-1.54688 -1.22083,-2.62898 -2.87173,-2.62898 -1.53297,0 -2.53878,1.24858 -2.53878,2.45556 0,0.75609 0.67979,0.75609 0.71448,0.75609 0.23583,0 0.70751,-0.15946 0.70751,-0.71447 0,-0.35377 -0.23584,-0.70754 -0.71446,-0.70754 -0.10406,0 -0.13868,0 -0.17349,0.0142 0.31216,-0.88095 1.04049,-1.38038 1.82432,-1.38038 1.2347,0 1.81738,1.10291 1.81738,2.20585 0,1.08211 -0.6798,2.15729 -1.42201,2.99663 l -2.60119,2.8995 c -0.15254,0.14562 -0.15254,0.1735 -0.15254,0.49944 h 5.02899 l 0.38152,-2.35846 h -0.3399 c -0.0694,0.40926 -0.15946,1.00582 -0.29827,1.20698 -0.0971,0.10406 -0.99192,0.10406 -1.28325,0.10406 z m 0,0"
       id="path24657" />
    <path
       style="fill:#000000;fill-opacity:1;fill-rule:evenodd;stroke:none;stroke-width:1.77577"
       d="m 196.14735,221.90661 0.0142,-0.28441 c 0.0833,-2.01854 1.22083,-2.35844 1.68558,-2.35844 1.39425,0 1.52604,1.83127 1.52604,2.35844 h -3.21162 l -0.0142,0.28441 h 3.78734 c 0.29135,0 0.33296,0 0.33296,-0.28441 0,-1.33876 -0.73527,-2.65672 -2.42085,-2.65672 -1.5746,0 -2.82316,1.39427 -2.82316,3.09374 0,1.81046 1.42198,3.12843 2.98271,3.12843 1.65783,0 2.2613,-1.50526 2.2613,-1.76191 0,-0.13869 -0.10406,-0.16639 -0.17349,-0.16639 -0.12484,0 -0.15254,0.0833 -0.18037,0.18729 -0.47167,1.40119 -1.6925,1.40119 -1.8243,1.40119 -0.67977,0 -1.22083,-0.40926 -1.53297,-0.9087 -0.40926,-0.65205 -0.40926,-1.54686 -0.40926,-2.03243 z m 0,0"
       id="path24659" />
    <path
       style="fill:#000000;fill-opacity:1;fill-rule:evenodd;stroke:none;stroke-width:1.77577"
       d="m 201.9671,216.47523 h 5.23016 v 0.26358 h -5.23016 z m 0,0"
       id="path24661" />
    <path
       style="fill:none;stroke:#000000;stroke-width:2.26565;stroke-linecap:butt;stroke-linejoin:miter;stroke-miterlimit:4;stroke-opacity:1"
       d="m 174.98397,250.47861 c 5.81282,0.48556 17.20262,-17.19592 17.20262,-17.19592"
       id="path24663" />
    <path
       style="fill:#000000;fill-opacity:1;fill-rule:evenodd;stroke:#000000;stroke-width:1.20835;stroke-linecap:butt;stroke-linejoin:miter;stroke-miterlimit:4;stroke-opacity:1"
       d="m 187.27559,240.89881 1.35956,6.26378 4.77232,-15.78778 -12.38864,10.88359 z m 0,0"
       id="path24665" />
    <path
       style="fill:none;stroke:#000000;stroke-width:2.26565;stroke-linecap:butt;stroke-linejoin:miter;stroke-miterlimit:4;stroke-opacity:1"
       d="m 12.225079,230.81325 c -0.485558,5.8129 17.195676,17.20286 17.195676,17.20286"
       id="path24667" />
    <path
       style="fill:#000000;fill-opacity:1;fill-rule:evenodd;stroke:#000000;stroke-width:1.20835;stroke-linecap:butt;stroke-linejoin:miter;stroke-miterlimit:4;stroke-opacity:1"
       d="m 21.797667,243.10481 -6.256752,1.35959 15.787551,4.77238 -10.883429,-12.39574 z m 0,0"
       id="path24669" />
    <g
       clip-path="url(#clip27)"
       clip-rule="nonzero"
       id="g24673"
       transform="matrix(1.7757534,0,0,1.7757783,-16.443627,37.392147)">
      <path
         style="fill:#000000;fill-opacity:1;fill-rule:evenodd;stroke:none"
         d="m 132.61328,6.628906 h 4.79297 c 0.23828,0 0.56641,0 0.56641,-0.34375 0,-0.34375 -0.32813,-0.34375 -0.56641,-0.34375 h -4.79297 v -4.8125 c 0,-0.234375 0,-0.5625 -0.34375,-0.5625 -0.33984,0 -0.33984,0.328125 -0.33984,0.5625 v 4.8125 H 127.125 c -0.24219,0 -0.5625,0 -0.5625,0.34375 0,0.34375 0.32031,0.34375 0.5625,0.34375 h 4.80469 v 4.800782 c 0,0.242187 0,0.570312 0.33984,0.570312 0.34375,0 0.34375,-0.328125 0.34375,-0.570312 z m 0,0"
         id="path24671" />
    </g>
    <g
       clip-path="url(#clip28)"
       clip-rule="nonzero"
       id="g24677"
       transform="matrix(1.7757534,0,0,1.7757783,-16.443627,37.392147)">
      <path
         style="fill:#000000;fill-opacity:1;fill-rule:evenodd;stroke:none"
         d="m 10.511719,6.625 h 0.191406 l 0.02734,-0.00391 h 0.02344 l 0.02734,-0.00391 0.04687,-0.00781 0.05078,-0.011719 0.02344,-0.00781 0.03906,-0.015625 0.02344,-0.00781 0.01563,-0.011718 0.03906,-0.023438 0.01172,-0.019531 0.01563,-0.011719 0.01172,-0.015625 0.01563,-0.023437 0.0039,-0.00781 0.0078,-0.023437 0.0078,-0.00781 0.0039,-0.015625 0.0078,-0.023438 v -0.01563 l 0.0039,-0.011719 0.0039,-0.015625 V 6.28125 c 0,-0.34375 -0.3125,-0.34375 -0.601562,-0.34375 H 1.226562 c -0.289062,0 -0.597656,0 -0.597656,0.34375 0,0.34375 0.308594,0.34375 0.597656,0.34375 z m 0,0"
         id="path24675" />
    </g>
  </g>
</svg>
