<?xml version="1.0" encoding="UTF-8" standalone="no"?>
<!-- Created with Inkscape (http://www.inkscape.org/) -->

<svg
   version="1.1"
   id="svg2"
   width="290.61917"
   height="117.03129"
   viewBox="0 0 290.61917 117.03129"
   sodipodi:docname="22-dipol.src.svg"
   inkscape:version="1.1.1 (3bf5ae0d25, 2021-09-20, custom)"
   xmlns:inkscape="http://www.inkscape.org/namespaces/inkscape"
   xmlns:sodipodi="http://sodipodi.sourceforge.net/DTD/sodipodi-0.dtd"
   xmlns:xlink="http://www.w3.org/1999/xlink"
   xmlns="http://www.w3.org/2000/svg"
   xmlns:svg="http://www.w3.org/2000/svg">
  <defs
     id="defs6">
    <marker
       style="overflow:visible"
       id="Arrow2Send"
       refX="0"
       refY="0"
       orient="auto"
       inkscape:stockid="Arrow2Send"
       inkscape:isstock="true">
      <path
         transform="matrix(-0.3,0,0,-0.3,0.69,0)"
         d="M 8.7185878,4.0337352 -2.2072895,0.01601326 8.7185884,-4.0017078 c -1.7454984,2.3720609 -1.7354408,5.6174519 -6e-7,8.035443 z"
         style="fill:context-stroke;fill-rule:evenodd;stroke:context-stroke;stroke-width:0.625;stroke-linejoin:round"
         id="path3086" />
    </marker>
    <marker
       style="overflow:visible"
       id="Arrow1Send"
       refX="0"
       refY="0"
       orient="auto"
       inkscape:stockid="Arrow1Send"
       inkscape:isstock="true">
      <path
         transform="matrix(-0.2,0,0,-0.2,-1.2,0)"
         style="fill:context-stroke;fill-rule:evenodd;stroke:context-stroke;stroke-width:1pt"
         d="M 0,0 5,-5 -12.5,0 5,5 Z"
         id="path3068" />
    </marker>
    <marker
       style="overflow:visible"
       id="Arrow2Mend"
       refX="0"
       refY="0"
       orient="auto"
       inkscape:stockid="Arrow2Mend"
       inkscape:isstock="true">
      <path
         transform="scale(-0.6)"
         d="M 8.7185878,4.0337352 -2.2072895,0.01601326 8.7185884,-4.0017078 c -1.7454984,2.3720609 -1.7354408,5.6174519 -6e-7,8.035443 z"
         style="fill:context-stroke;fill-rule:evenodd;stroke:context-stroke;stroke-width:0.625;stroke-linejoin:round"
         id="path3080" />
    </marker>
    <marker
       style="overflow:visible"
       id="Arrow2Mstart"
       refX="0"
       refY="0"
       orient="auto"
       inkscape:stockid="Arrow2Mstart"
       inkscape:isstock="true">
      <path
         transform="scale(0.6)"
         d="M 8.7185878,4.0337352 -2.2072895,0.01601326 8.7185884,-4.0017078 c -1.7454984,2.3720609 -1.7354408,5.6174519 -6e-7,8.035443 z"
         style="fill:context-stroke;fill-rule:evenodd;stroke:context-stroke;stroke-width:0.625;stroke-linejoin:round"
         id="path3077" />
    </marker>
    <marker
       style="overflow:visible"
       id="Arrow1Sstart"
       refX="0"
       refY="0"
       orient="auto"
       inkscape:stockid="Arrow1Sstart"
       inkscape:isstock="true">
      <path
         transform="matrix(0.2,0,0,0.2,1.2,0)"
         style="fill:context-stroke;fill-rule:evenodd;stroke:context-stroke;stroke-width:1pt"
         d="M 0,0 5,-5 -12.5,0 5,5 Z"
         id="path3065" />
    </marker>
    <marker
       style="overflow:visible"
       id="Arrow1Mstart"
       refX="0"
       refY="0"
       orient="auto"
       inkscape:stockid="Arrow1Mstart"
       inkscape:isstock="true">
      <path
         transform="matrix(0.4,0,0,0.4,4,0)"
         style="fill:context-stroke;fill-rule:evenodd;stroke:context-stroke;stroke-width:1pt"
         d="M 0,0 5,-5 -12.5,0 5,5 Z"
         id="path3059" />
    </marker>
    <g
       id="g1150">
      <symbol
         overflow="visible"
         id="symbol1895">
        <path
           style="stroke:none"
           d=""
           id="path7894" />
      </symbol>
      <symbol
         overflow="visible"
         id="symbol1395">
        <path
           style="stroke:none"
           d="M 3.484375,-0.5625 C 3.59375,-0.15625 3.953125,0.109375 4.375,0.109375 4.71875,0.109375 4.953125,-0.125 5.109375,-0.4375 5.28125,-0.796875 5.40625,-1.40625 5.40625,-1.421875 c 0,-0.109375 -0.078125,-0.109375 -0.109375,-0.109375 -0.109375,0 -0.109375,0.046875 -0.140625,0.1875 -0.140625,0.5625 -0.328125,1.234375 -0.75,1.234375 -0.203125,0 -0.3125,-0.125 -0.3125,-0.453125 0,-0.21875 0.125,-0.6875 0.203125,-1.046875 L 4.578125,-2.6875 C 4.609375,-2.828125 4.703125,-3.203125 4.75,-3.359375 4.796875,-3.59375 4.890625,-3.96875 4.890625,-4.03125 c 0,-0.171875 -0.140625,-0.265625 -0.28125,-0.265625 -0.046875,0 -0.3125,0.015625 -0.390625,0.34375 -0.1875,0.734375 -0.625,2.484375 -0.75,3 -0.015625,0.046875 -0.40625,0.84375 -1.140625,0.84375 -0.515625,0 -0.609375,-0.453125 -0.609375,-0.8125 0,-0.5625 0.28125,-1.34375 0.53125,-2.03125 0.125,-0.3125 0.171875,-0.453125 0.171875,-0.640625 0,-0.4375 -0.3125,-0.8125 -0.8125,-0.8125 -0.953125,0 -1.3125,1.453125 -1.3125,1.53125 0,0.109375 0.09375,0.109375 0.109375,0.109375 0.109375,0 0.109375,-0.03125 0.15625,-0.1875 0.25,-0.859375 0.640625,-1.234375 1.015625,-1.234375 0.09375,0 0.25,0.015625 0.25,0.328125 0,0.234375 -0.109375,0.53125 -0.171875,0.671875 -0.375,1 -0.578125,1.609375 -0.578125,2.09375 0,0.953125 0.6875,1.203125 1.21875,1.203125 0.65625,0 1.015625,-0.453125 1.1875,-0.671875 z m 0,0"
           id="path8184" />
      </symbol>
    </g>
    <g
       id="g3459">
      <symbol
         overflow="visible"
         id="symbol8282">
        <path
           style="stroke:none"
           d=""
           id="path4808" />
      </symbol>
      <symbol
         overflow="visible"
         id="symbol9472">
        <path
           style="stroke:none"
           d="m 2.828125,-6.234375 c 0,-0.203125 -0.140625,-0.359375 -0.359375,-0.359375 -0.28125,0 -0.546875,0.265625 -0.546875,0.53125 0,0.1875 0.140625,0.359375 0.375,0.359375 0.234375,0 0.53125,-0.234375 0.53125,-0.53125 z m -0.75,3.75 c 0.109375,-0.28125 0.109375,-0.3125 0.21875,-0.578125 0.078125,-0.203125 0.125,-0.34375 0.125,-0.53125 0,-0.4375 -0.3125,-0.8125 -0.8125,-0.8125 -0.9375,0 -1.3125,1.453125 -1.3125,1.53125 0,0.109375 0.09375,0.109375 0.109375,0.109375 0.109375,0 0.109375,-0.03125 0.15625,-0.1875 0.28125,-0.9375 0.671875,-1.234375 1.015625,-1.234375 0.078125,0 0.25,0 0.25,0.3125 0,0.21875 -0.078125,0.421875 -0.109375,0.53125 -0.078125,0.25 -0.53125,1.40625 -0.6875,1.84375 -0.109375,0.25 -0.234375,0.578125 -0.234375,0.796875 0,0.46875 0.34375,0.8125 0.8125,0.8125 0.9375,0 1.3125,-1.4375 1.3125,-1.53125 0,-0.109375 -0.09375,-0.109375 -0.125,-0.109375 -0.09375,0 -0.09375,0.03125 -0.140625,0.1875 -0.1875,0.625 -0.515625,1.234375 -1.015625,1.234375 -0.171875,0 -0.25,-0.09375 -0.25,-0.328125 0,-0.25 0.0625,-0.390625 0.296875,-1 z m 0,0"
           id="path8982" />
      </symbol>
    </g>
    <g
       id="g9873">
      <symbol
         overflow="visible"
         id="symbol2790">
        <path
           style="stroke:none"
           d=""
           id="path6095" />
      </symbol>
      <symbol
         overflow="visible"
         id="symbol173">
        <path
           style="stroke:none"
           d="m 2.8125,-2 c 0.34375,0.796875 0.75,1.8125 0.828125,1.90625 C 3.765625,0.0625 3.890625,0.0625 4,0.0625 h 0.140625 c 0.140625,0 0.203125,0 0.203125,-0.078125 0,-0.03125 -0.015625,-0.046875 -0.03125,-0.0625 -0.078125,-0.078125 -0.15625,-0.25 -0.1875,-0.3125 l -1.6875,-4 C 2.390625,-4.515625 2.25,-4.84375 1.5,-4.84375 c -0.078125,0 -0.171875,0 -0.171875,0.109375 0,0.078125 0.0625,0.09375 0.09375,0.09375 0.15625,0.015625 0.28125,0.046875 0.453125,0.4375 L 2.703125,-2.25 0.65625,-0.390625 c -0.078125,0.0625 -0.140625,0.125 -0.140625,0.234375 0,0.171875 0.140625,0.234375 0.234375,0.234375 0.140625,0 0.21875,-0.078125 0.234375,-0.109375 z m 0,0"
           id="path8277" />
      </symbol>
      <symbol
         overflow="visible"
         id="symbol6916">
        <path
           style="stroke:none"
           d=""
           id="path71" />
      </symbol>
      <symbol
         overflow="visible"
         id="symbol105">
        <path
           style="stroke:none"
           d="m 3.6875,-1.140625 v -0.25 H 2.90625 V -4.5 c 0,-0.140625 0,-0.203125 -0.140625,-0.203125 -0.09375,0 -0.125,0 -0.1875,0.109375 l -2.3125,3.203125 v 0.25 h 2.0625 v 0.5625 c 0,0.25 0,0.328125 -0.578125,0.328125 H 1.5625 V 0 C 1.921875,-0.015625 2.359375,-0.03125 2.609375,-0.03125 2.875,-0.03125 3.3125,-0.015625 3.671875,0 v -0.25 h -0.1875 C 2.90625,-0.25 2.90625,-0.328125 2.90625,-0.578125 v -0.5625 z M 2.375,-3.9375 v 2.546875 H 0.53125 Z m 0,0"
           id="path8254" />
      </symbol>
    </g>
    <g
       id="g4546">
      <symbol
         overflow="visible"
         id="symbol887">
        <path
           style="stroke:none"
           d=""
           id="path8554" />
      </symbol>
      <symbol
         overflow="visible"
         id="symbol1892">
        <path
           style="stroke:none"
           d="m 2.8125,-2 c 0.34375,0.796875 0.75,1.8125 0.828125,1.90625 C 3.765625,0.0625 3.890625,0.0625 4,0.0625 h 0.140625 c 0.140625,0 0.203125,0 0.203125,-0.078125 0,-0.03125 -0.015625,-0.046875 -0.03125,-0.0625 -0.078125,-0.078125 -0.15625,-0.25 -0.1875,-0.3125 l -1.6875,-4 C 2.390625,-4.515625 2.25,-4.84375 1.5,-4.84375 c -0.078125,0 -0.171875,0 -0.171875,0.109375 0,0.078125 0.0625,0.09375 0.09375,0.09375 0.15625,0.015625 0.28125,0.046875 0.453125,0.4375 L 2.703125,-2.25 0.65625,-0.390625 c -0.078125,0.0625 -0.140625,0.125 -0.140625,0.234375 0,0.171875 0.140625,0.234375 0.234375,0.234375 0.140625,0 0.21875,-0.078125 0.234375,-0.109375 z m 0,0"
           id="path4667" />
      </symbol>
      <symbol
         overflow="visible"
         id="symbol2997">
        <path
           style="stroke:none"
           d=""
           id="path1346" />
      </symbol>
      <symbol
         overflow="visible"
         id="symbol235">
        <path
           style="stroke:none"
           d="M 3.515625,-1.265625 H 3.28125 c -0.015625,0.15625 -0.09375,0.5625 -0.1875,0.625 C 3.046875,-0.59375 2.515625,-0.59375 2.40625,-0.59375 H 1.125 c 0.734375,-0.640625 0.984375,-0.84375 1.390625,-1.171875 0.515625,-0.40625 1,-0.84375 1,-1.5 0,-0.84375 -0.734375,-1.359375 -1.625,-1.359375 -0.859375,0 -1.453125,0.609375 -1.453125,1.25 0,0.34375 0.296875,0.390625 0.375,0.390625 0.15625,0 0.359375,-0.125 0.359375,-0.375 0,-0.125 -0.046875,-0.375 -0.40625,-0.375 C 0.984375,-4.21875 1.453125,-4.375 1.78125,-4.375 c 0.703125,0 1.0625,0.546875 1.0625,1.109375 0,0.609375 -0.4375,1.078125 -0.65625,1.328125 L 0.515625,-0.265625 C 0.4375,-0.203125 0.4375,-0.1875 0.4375,0 h 2.875 z m 0,0"
           id="path907" />
      </symbol>
    </g>
    <g
       id="g4441">
      <symbol
         overflow="visible"
         id="symbol3632">
        <path
           style="stroke:none"
           d=""
           id="path5691" />
      </symbol>
      <symbol
         overflow="visible"
         id="symbol758">
        <path
           style="stroke:none"
           d="m 2.8125,-2 c 0.34375,0.796875 0.75,1.8125 0.828125,1.90625 C 3.765625,0.0625 3.890625,0.0625 4,0.0625 h 0.140625 c 0.140625,0 0.203125,0 0.203125,-0.078125 0,-0.03125 -0.015625,-0.046875 -0.03125,-0.0625 -0.078125,-0.078125 -0.15625,-0.25 -0.1875,-0.3125 l -1.6875,-4 C 2.390625,-4.515625 2.25,-4.84375 1.5,-4.84375 c -0.078125,0 -0.171875,0 -0.171875,0.109375 0,0.078125 0.0625,0.09375 0.09375,0.09375 0.15625,0.015625 0.28125,0.046875 0.453125,0.4375 L 2.703125,-2.25 0.65625,-0.390625 c -0.078125,0.0625 -0.140625,0.125 -0.140625,0.234375 0,0.171875 0.140625,0.234375 0.234375,0.234375 0.140625,0 0.21875,-0.078125 0.234375,-0.109375 z m 0,0"
           id="path1215" />
      </symbol>
      <symbol
         overflow="visible"
         id="symbol4341">
        <path
           style="stroke:none"
           d=""
           id="path2912" />
      </symbol>
      <symbol
         overflow="visible"
         id="symbol8381">
        <path
           style="stroke:none"
           d="M 3.515625,-1.265625 H 3.28125 c -0.015625,0.15625 -0.09375,0.5625 -0.1875,0.625 C 3.046875,-0.59375 2.515625,-0.59375 2.40625,-0.59375 H 1.125 c 0.734375,-0.640625 0.984375,-0.84375 1.390625,-1.171875 0.515625,-0.40625 1,-0.84375 1,-1.5 0,-0.84375 -0.734375,-1.359375 -1.625,-1.359375 -0.859375,0 -1.453125,0.609375 -1.453125,1.25 0,0.34375 0.296875,0.390625 0.375,0.390625 0.15625,0 0.359375,-0.125 0.359375,-0.375 0,-0.125 -0.046875,-0.375 -0.40625,-0.375 C 0.984375,-4.21875 1.453125,-4.375 1.78125,-4.375 c 0.703125,0 1.0625,0.546875 1.0625,1.109375 0,0.609375 -0.4375,1.078125 -0.65625,1.328125 L 0.515625,-0.265625 C 0.4375,-0.203125 0.4375,-0.1875 0.4375,0 h 2.875 z m 0,0"
           id="path1576" />
      </symbol>
    </g>
    <g
       id="g4198">
      <symbol
         overflow="visible"
         id="symbol3938">
        <path
           style="stroke:none"
           d=""
           id="path2910" />
      </symbol>
      <symbol
         overflow="visible"
         id="symbol5741">
        <path
           style="stroke:none"
           d="m 7.203125,-4.5 c 0,-0.21875 -0.078125,-0.3125 -0.140625,-0.3125 -0.046875,0 -0.140625,0.046875 -0.140625,0.28125 C 6.875,-3.84375 6.1875,-3.4375 5.53125,-3.4375 4.953125,-3.4375 4.453125,-3.75 3.9375,-4.09375 3.40625,-4.453125 2.859375,-4.8125 2.21875,-4.8125 c -0.9375,0 -1.671875,0.703125 -1.671875,1.625 0,0.21875 0.078125,0.296875 0.140625,0.296875 0.09375,0 0.140625,-0.1875 0.140625,-0.234375 C 0.875,-3.953125 1.6875,-4.25 2.21875,-4.25 c 0.578125,0 1.078125,0.296875 1.59375,0.65625 0.53125,0.359375 1.078125,0.71875 1.71875,0.71875 0.921875,0 1.671875,-0.71875 1.671875,-1.625 z m 0,2.328125 c 0,-0.296875 -0.125,-0.3125 -0.140625,-0.3125 -0.046875,0 -0.140625,0.046875 -0.140625,0.265625 C 6.875,-1.53125 6.1875,-1.109375 5.53125,-1.109375 c -0.578125,0 -1.078125,-0.3125 -1.59375,-0.671875 C 3.40625,-2.140625 2.859375,-2.5 2.21875,-2.5 c -0.9375,0 -1.671875,0.71875 -1.671875,1.625 0,0.234375 0.078125,0.3125 0.140625,0.3125 0.09375,0 0.140625,-0.1875 0.140625,-0.234375 C 0.875,-1.640625 1.6875,-1.9375 2.21875,-1.9375 c 0.578125,0 1.078125,0.3125 1.59375,0.65625 0.53125,0.359375 1.078125,0.71875 1.71875,0.71875 0.953125,0 1.671875,-0.734375 1.671875,-1.609375 z m 0,0"
           id="path9407" />
      </symbol>
    </g>
    <g
       id="g1743">
      <symbol
         overflow="visible"
         id="symbol5843">
        <path
           style="stroke:none"
           d=""
           id="path8221" />
      </symbol>
      <symbol
         overflow="visible"
         id="symbol1412">
        <path
           style="stroke:none"
           d="M 4.140625,-6.515625 3.984375,-6.65625 c 0,0 -0.375,0.46875 -0.8125,0.46875 -0.234375,0 -0.484375,-0.140625 -0.65625,-0.25 C 2.25,-6.59375 2.078125,-6.65625 1.90625,-6.65625 c -0.375,0 -0.578125,0.21875 -1.078125,0.78125 l 0.15625,0.140625 c 0,0 0.375,-0.46875 0.8125,-0.46875 0.234375,0 0.484375,0.140625 0.65625,0.234375 0.265625,0.171875 0.453125,0.234375 0.625,0.234375 0.375,0 0.5625,-0.21875 1.0625,-0.78125 z m 0,0"
           id="path4679" />
      </symbol>
    </g>
  </defs>
  <sodipodi:namedview
     id="namedview4"
     pagecolor="#ffffff"
     bordercolor="#666666"
     borderopacity="1.0"
     inkscape:pageshadow="2"
     inkscape:pageopacity="0.0"
     inkscape:pagecheckerboard="0"
     showgrid="false"
     showguides="true"
     inkscape:guide-bbox="true"
     inkscape:snap-bbox="true"
     inkscape:snap-bbox-edge-midpoints="false"
     inkscape:zoom="2.4280448"
     inkscape:cx="111.61244"
     inkscape:cy="47.775066"
     inkscape:window-width="1904"
     inkscape:window-height="1035"
     inkscape:window-x="8"
     inkscape:window-y="8"
     inkscape:window-maximized="1"
     inkscape:current-layer="g8"
     inkscape:snap-global="true"
     inkscape:snap-bbox-midpoints="true"
     fit-margin-top="0"
     fit-margin-left="0"
     fit-margin-right="0"
     fit-margin-bottom="0" />
  <g
     inkscape:groupmode="layer"
     inkscape:label="Image"
     id="g8"
     transform="translate(12.064274,-0.96866)">
    <path
       style="fill:#969696;fill-opacity:1;stroke:#000000;stroke-width:1px;stroke-linecap:butt;stroke-linejoin:miter;stroke-opacity:1"
       d="m 196.68532,81.644078 h 31.84973 v 35.855872 h -5.08901 V 86.559243 h -26.76072 z"
       id="path2779" />
    <path
       style="fill:#969696;fill-opacity:1;stroke:#000000;stroke-width:1px;stroke-linecap:butt;stroke-linejoin:miter;stroke-opacity:1"
       d="m 196.68532,37.324532 h 31.84973 V 1.46866 h -5.08901 v 30.940707 h -26.76072 z"
       id="path2652" />
    <g
       id="g1846">
      <g
         id="g979">
        <path
           style="fill:none;stroke:#00b200;stroke-width:1px;stroke-linecap:butt;stroke-linejoin:miter;stroke-opacity:1"
           d="m 1.4767242,38.478251 c 25.5626248,0 55.3045418,18.694936 60.1414298,21.254437 4.836887,2.5595 35.706278,21.067534 60.650706,21.067534"
           id="path860" />
        <path
           style="fill:none;stroke:#00b200;stroke-width:1px;stroke-linecap:butt;stroke-linejoin:miter;stroke-opacity:1"
           d="m 1.4767242,80.800222 c 25.5626248,0 55.3045418,-18.694936 60.1414298,-21.254437 4.836887,-2.5595 35.706278,-21.067534 60.650706,-21.067534"
           id="path975" />
      </g>
      <path
         style="fill:none;stroke:#ff0000;stroke-width:1px;stroke-linecap:butt;stroke-linejoin:miter;stroke-opacity:1"
         d="M 1.0060295,59.127472 C 19.678098,48.573354 41.504448,38.250453 61.656788,38.250453 c 22.379645,0 45.069192,13.279245 60.771862,20.877019"
         id="path1020"
         sodipodi:nodetypes="csc" />
      <path
         style="fill:none;stroke:#ff0000;stroke-width:1px;stroke-linecap:butt;stroke-linejoin:miter;stroke-opacity:1"
         d="M 1.0060295,59.127472 C 19.678098,69.68159 41.504448,80.004491 61.656788,80.004491 c 22.379645,0 45.069192,-13.279245 60.771862,-20.877019"
         id="path1839"
         sodipodi:nodetypes="csc" />
    </g>
    <g
       id="g1858"
       transform="matrix(0,-0.95559862,0.95559862,0,169.50608,118.46131)"
       style="stroke-width:1.04646;stroke-miterlimit:4;stroke-dasharray:none">
      <g
         id="g1852"
         style="stroke-width:1.04646;stroke-miterlimit:4;stroke-dasharray:none">
        <path
           style="fill:none;stroke:#00b200;stroke-width:1.04646;stroke-linecap:butt;stroke-linejoin:miter;stroke-miterlimit:4;stroke-dasharray:none;stroke-opacity:1"
           d="m 1.4767242,38.478251 c 25.5626248,0 55.3045418,18.694936 60.1414298,21.254437 4.836887,2.5595 35.706278,21.067534 60.650706,21.067534"
           id="path1848" />
        <path
           style="fill:none;stroke:#00b200;stroke-width:1.04646;stroke-linecap:butt;stroke-linejoin:miter;stroke-miterlimit:4;stroke-dasharray:none;stroke-opacity:1"
           d="m 1.4767242,80.800222 c 25.5626248,0 55.3045418,-18.694936 60.1414298,-21.254437 4.836887,-2.5595 35.706278,-21.067534 60.650706,-21.067534"
           id="path1850" />
      </g>
      <path
         style="fill:none;stroke:#ff0000;stroke-width:1.04646;stroke-linecap:butt;stroke-linejoin:miter;stroke-miterlimit:4;stroke-dasharray:none;stroke-opacity:1"
         d="M 1.0060295,59.127472 C 19.678098,48.573354 41.504448,38.250453 61.656788,38.250453 c 22.379645,0 45.069192,13.279245 60.771862,20.877019"
         id="path1854"
         sodipodi:nodetypes="csc" />
      <path
         style="fill:none;stroke:#ff0000;stroke-width:1.04646;stroke-linecap:butt;stroke-linejoin:miter;stroke-miterlimit:4;stroke-dasharray:none;stroke-opacity:1"
         d="M 1.0060295,59.127472 C 19.678098,69.68159 41.504448,80.004491 61.656788,80.004491 c 22.379645,0 45.069192,-13.279245 60.771862,-20.877019"
         id="path1856"
         sodipodi:nodetypes="csc" />
    </g>
    <rect
       style="fill:#969696;fill-opacity:1;stroke:#000000;stroke-linecap:square;stroke-linejoin:round;stroke-opacity:1"
       id="rect1970"
       width="88.012169"
       height="4.9151649"
       x="34.406155"
       y="32.409367" />
    <rect
       style="fill:#969696;fill-opacity:1;stroke:#000000;stroke-linecap:square;stroke-linejoin:round;stroke-opacity:1"
       id="rect2502"
       width="88.012169"
       height="4.9151649"
       x="34.406155"
       y="81.644073" />
    <path
       style="fill:none;stroke:#000000;stroke-width:1;stroke-linecap:butt;stroke-linejoin:miter;stroke-miterlimit:4;stroke-dasharray:1, 2;stroke-dashoffset:0;stroke-opacity:1"
       d="M 61.472996,37.324532 V 117.49995"
       id="path2830"
       sodipodi:nodetypes="cc" />
    <path
       style="fill:none;stroke:#000000;stroke-width:1;stroke-linecap:butt;stroke-linejoin:miter;stroke-miterlimit:4;stroke-dasharray:1, 2;stroke-dashoffset:0;stroke-opacity:1"
       d="m 122.26886,38.478251 0.14946,79.021699"
       id="path2832"
       sodipodi:nodetypes="cc" />
    <path
       style="fill:none;stroke:#000000;stroke-width:1;stroke-linecap:butt;stroke-linejoin:miter;stroke-miterlimit:4;stroke-dasharray:1, 2;stroke-dashoffset:0;stroke-opacity:1;marker-start:url(#Arrow2Mstart);marker-end:url(#Arrow2Mend)"
       d="M 62.914198,112.51613 H 120.99533"
       id="path2834" />
    <path
       style="fill:none;stroke:#000000;stroke-width:1;stroke-linecap:butt;stroke-linejoin:miter;stroke-miterlimit:4;stroke-dasharray:1, 2;stroke-dashoffset:0;stroke-opacity:1;marker-start:url(#Arrow2Mstart);marker-end:url(#Arrow2Mend)"
       d="M 265.48749,115.96092 V 3.0167769"
       id="path3345" />
    <path
       style="fill:none;stroke:#000000;stroke-width:1;stroke-linecap:butt;stroke-linejoin:miter;stroke-miterlimit:4;stroke-dasharray:1, 2;stroke-dashoffset:0;stroke-opacity:1"
       d="m 206.27584,1.46866 h 64.44"
       id="path3384" />
    <path
       style="fill:none;stroke:#000000;stroke-width:1;stroke-linecap:butt;stroke-linejoin:miter;stroke-miterlimit:4;stroke-dasharray:1, 2;stroke-dashoffset:0;stroke-opacity:1"
       d="m 206.27584,117.49995 h 64.44"
       id="path3386" />
    <path
       style="fill:none;stroke:#000000;stroke-width:1;stroke-linecap:butt;stroke-linejoin:miter;stroke-miterlimit:4;stroke-dasharray:none;stroke-opacity:1;marker-end:url(#Arrow2Mend)"
       d="m 132.23215,59.402696 h 24.39579"
       id="path3503" />
    <g
       inkscape:label=""
       transform="matrix(1.5,0,0,1.5,111.09629,-107.01737)"
       id="g3677"
       style="fill:#00b200;fill-opacity:1">
      <g
         id="g7786"
         style="fill:#00b200;fill-opacity:1">
        <g
           style="fill:#00b200;fill-opacity:1"
           id="g1679">
          <use
             xlink:href="#symbol1395"
             x="91.925003"
             y="81.962997"
             id="use2752"
             width="100%"
             height="100%"
             style="fill:#00b200;fill-opacity:1" />
        </g>
      </g>
    </g>
    <g
       inkscape:label=""
       transform="matrix(1.5,0,0,1.5,110.97442,-56.296683)"
       id="g3919"
       style="fill:#ff0000;fill-opacity:1">
      <g
         id="g2317"
         style="fill:#ff0000;fill-opacity:1">
        <g
           style="fill:#ff0000;fill-opacity:1"
           id="g3235">
          <use
             xlink:href="#symbol9472"
             x="91.925003"
             y="81.962997"
             id="use497"
             width="100%"
             height="100%"
             style="fill:#ff0000;fill-opacity:1" />
        </g>
      </g>
    </g>
    <g
       inkscape:label=""
       transform="matrix(1.5,0,0,1.5,-51.471135,-18.618456)"
       id="g4185">
      <g
         id="g7743">
        <g
           style="fill:#000000;fill-opacity:1"
           id="g4877">
          <use
             xlink:href="#symbol173"
             x="93.121002"
             y="78.040001"
             id="use4970"
             width="100%"
             height="100%" />
        </g>
        <path
           style="fill:none;stroke:#000000;stroke-width:0.398;stroke-linecap:butt;stroke-linejoin:miter;stroke-miterlimit:10;stroke-opacity:1"
           d="M 9.375e-5,-6.5625e-4 H 4.726656"
           transform="matrix(1,0,0,-1,93.121,79.472)"
           id="path8506" />
        <g
           style="fill:#000000;fill-opacity:1"
           id="g238">
          <use
             xlink:href="#symbol105"
             x="93.498001"
             y="85.398003"
             id="use3895"
             width="100%"
             height="100%" />
        </g>
      </g>
    </g>
    <g
       inkscape:label=""
       transform="matrix(1.5,0,0,1.5,131.7834,-61.652058)"
       id="g4827">
      <g
         id="g1896">
        <g
           style="fill:#000000;fill-opacity:1"
           id="g9902">
          <use
             xlink:href="#symbol758"
             x="93.121002"
             y="78.040001"
             id="use2456"
             width="100%"
             height="100%" />
        </g>
        <path
           style="fill:none;stroke:#000000;stroke-width:0.398;stroke-linecap:butt;stroke-linejoin:miter;stroke-miterlimit:10;stroke-opacity:1"
           d="M 9.375e-5,-6.5625e-4 H 4.726656"
           transform="matrix(1,0,0,-1,93.121,79.472)"
           id="path157" />
        <g
           style="fill:#000000;fill-opacity:1"
           id="g4149">
          <use
             xlink:href="#symbol8381"
             x="93.498001"
             y="85.398003"
             id="use6228"
             width="100%"
             height="100%" />
        </g>
      </g>
    </g>
    <g
       inkscape:label=""
       transform="matrix(1.5,0,0,1.5,-64.073584,-61.837624)"
       id="g5697"
       style="fill:#00b200;fill-opacity:1">
      <g
         id="g5695"
         style="fill:#00b200;fill-opacity:1">
        <g
           style="fill:#00b200;fill-opacity:1"
           id="g5693">
          <use
             xlink:href="#symbol1395"
             x="91.925003"
             y="81.962997"
             id="use5691"
             width="100%"
             height="100%"
             style="fill:#00b200;fill-opacity:1" />
        </g>
      </g>
    </g>
    <g
       inkscape:label=""
       transform="matrix(1.5,0,0,1.5,-24.481604,-71.506756)"
       id="g5705"
       style="fill:#ff0000;fill-opacity:1">
      <g
         id="g5703"
         style="fill:#ff0000;fill-opacity:1">
        <g
           style="fill:#ff0000;fill-opacity:1"
           id="g5701">
          <use
             xlink:href="#symbol9472"
             x="91.925003"
             y="81.962997"
             id="use5699"
             width="100%"
             height="100%"
             style="fill:#ff0000;fill-opacity:1" />
        </g>
      </g>
    </g>
    <g
       id="g8088">
      <g
         id="g2777"
         transform="matrix(1,0,0,-1,161.95254,118.96861)">
        <path
           style="fill:none;stroke:#000000;stroke-width:1;stroke-linecap:butt;stroke-linejoin:miter;stroke-miterlimit:4;stroke-dasharray:1, 2;stroke-dashoffset:0;stroke-opacity:1"
           d="M 2.5370466,32.409367 H 34.406153"
           id="path2773" />
        <path
           style="fill:none;stroke:#000000;stroke-width:1;stroke-linecap:butt;stroke-linejoin:miter;stroke-miterlimit:4;stroke-dasharray:1, 2;stroke-dashoffset:0;stroke-opacity:1"
           d="M 7.452202,37.324532 H 34.406153"
           id="path2775"
           sodipodi:nodetypes="cc" />
      </g>
      <g
         id="g5318"
         transform="translate(92.3116,23.1153)">
        <g
           style="fill:#000000;fill-opacity:1"
           id="g2719">
          <g
             id="g8061">
            <g
               id="g8014">
              <g
                 id="g2521"
                 transform="translate(69.64094,-23.1153)">
                <path
                   style="fill:none;stroke:#000000;stroke-width:1;stroke-linecap:butt;stroke-linejoin:miter;stroke-miterlimit:4;stroke-dasharray:1, 2;stroke-dashoffset:0;stroke-opacity:1"
                   d="M 2.5370466,32.409367 H 34.406153"
                   id="path2517" />
                <path
                   style="fill:none;stroke:#000000;stroke-width:1;stroke-linecap:butt;stroke-linejoin:miter;stroke-miterlimit:4;stroke-dasharray:1, 2;stroke-dashoffset:0;stroke-opacity:1"
                   d="M 7.452212,37.324532 H 34.406153"
                   id="path2519"
                   sodipodi:nodetypes="cc" />
              </g>
              <g
                 id="g5795"
                 transform="matrix(0,-0.69913366,1,0,39.76862,33.348567)">
                <path
                   style="fill:none;stroke:#000000;stroke-width:1.19597;stroke-linecap:butt;stroke-linejoin:miter;stroke-miterlimit:4;stroke-dasharray:1.19597, 2.39194;stroke-dashoffset:0;stroke-opacity:1"
                   d="M 2.5370466,32.409367 H 34.406153"
                   id="path5791" />
                <path
                   style="fill:none;stroke:#000000;stroke-width:1.19597;stroke-linecap:butt;stroke-linejoin:miter;stroke-miterlimit:4;stroke-dasharray:1.19597, 2.39194;stroke-dashoffset:0;stroke-opacity:1"
                   d="M 2.5370466,37.324532 H 27.375788"
                   id="path5793"
                   sodipodi:nodetypes="cc" />
              </g>
              <g
                 id="g5801"
                 transform="matrix(0,-0.69913367,1,0,39.76861,65.217673)">
                <path
                   style="fill:none;stroke:#000000;stroke-width:1;stroke-linecap:butt;stroke-linejoin:miter;stroke-miterlimit:4;stroke-dasharray:1, 2;stroke-dashoffset:0;stroke-opacity:1"
                   d="M 2.5370466,32.409367 H 34.406153"
                   id="path5797" />
                <path
                   style="fill:none;stroke:#000000;stroke-width:1.19597;stroke-linecap:butt;stroke-linejoin:miter;stroke-miterlimit:4;stroke-dasharray:1.19597, 2.39194;stroke-dashoffset:0;stroke-opacity:1"
                   d="M 9.567405,37.324532 H 34.406153"
                   id="path5799"
                   sodipodi:nodetypes="cc" />
              </g>
              <path
                 style="fill:none;fill-opacity:1;stroke:#000000;stroke-width:1;stroke-linecap:butt;stroke-linejoin:round;stroke-miterlimit:4;stroke-dasharray:none;stroke-dashoffset:0;stroke-opacity:1"
                 id="path5837"
                 sodipodi:type="arc"
                 sodipodi:cx="167.02878"
                 sodipodi:cy="59.484303"
                 sodipodi:rx="4.7941704"
                 sodipodi:ry="4.7941704"
                 sodipodi:start="4.7055106"
                 sodipodi:end="4.7054843"
                 sodipodi:open="true"
                 sodipodi:arc-type="arc"
                 d="m 166.9958,54.690246 a 4.7941704,4.7941704 0 0 1 4.82703,4.761049 4.7941704,4.7941704 0 0 1 -4.76101,4.827064 4.7941704,4.7941704 0 0 1 -4.8271,-4.760986 4.7941704,4.7941704 0 0 1 4.76096,-4.827127"
                 transform="translate(-92.3116,-23.1153)" />
              <g
                 inkscape:label=""
                 transform="matrix(2.25,0,0,2.25,-137.78553,-134.18989)"
                 id="g7945">
                <g
                   id="g6118">
                  <g
                     style="fill:#000000;fill-opacity:1"
                     id="g8922">
                    <use
                       xlink:href="#symbol1412"
                       x="91.925003"
                       y="81.962997"
                       id="use3834"
                       width="100%"
                       height="100%" />
                  </g>
                </g>
              </g>
            </g>
          </g>
        </g>
      </g>
    </g>
    <g
       id="g8132"
       transform="translate(-173.79888)">
      <g
         id="g8094"
         transform="matrix(1,0,0,-1,161.95254,118.96861)">
        <path
           style="fill:none;stroke:#000000;stroke-width:1;stroke-linecap:butt;stroke-linejoin:miter;stroke-miterlimit:4;stroke-dasharray:1, 2;stroke-dashoffset:0;stroke-opacity:1"
           d="M 2.5370466,32.409367 H 46.252493"
           id="path8090"
           sodipodi:nodetypes="cc" />
        <path
           style="fill:none;stroke:#000000;stroke-width:1;stroke-linecap:butt;stroke-linejoin:miter;stroke-miterlimit:4;stroke-dasharray:1, 2;stroke-dashoffset:0;stroke-opacity:1"
           d="M 7.452202,37.324532 H 46.252493"
           id="path8092"
           sodipodi:nodetypes="cc" />
      </g>
      <g
         id="g8130"
         transform="translate(92.3116,23.1153)">
        <g
           style="fill:#000000;fill-opacity:1"
           id="g8128">
          <g
             id="g8126">
            <g
               id="g8124">
              <g
                 id="g8100"
                 transform="translate(69.64094,-23.1153)">
                <path
                   style="fill:none;stroke:#000000;stroke-width:1;stroke-linecap:butt;stroke-linejoin:miter;stroke-miterlimit:4;stroke-dasharray:1, 2;stroke-dashoffset:0;stroke-opacity:1"
                   d="M 2.5370466,32.409367 H 46.252493"
                   id="path8096"
                   sodipodi:nodetypes="cc" />
                <path
                   style="fill:none;stroke:#000000;stroke-width:1;stroke-linecap:butt;stroke-linejoin:miter;stroke-miterlimit:4;stroke-dasharray:1, 2;stroke-dashoffset:0;stroke-opacity:1"
                   d="M 7.452212,37.324532 H 46.252493"
                   id="path8098"
                   sodipodi:nodetypes="cc" />
              </g>
              <g
                 id="g8106"
                 transform="matrix(0,-0.69913366,1,0,39.76862,33.348567)">
                <path
                   style="fill:none;stroke:#000000;stroke-width:1.19597;stroke-linecap:butt;stroke-linejoin:miter;stroke-miterlimit:4;stroke-dasharray:1.19597, 2.39194;stroke-dashoffset:0;stroke-opacity:1"
                   d="M 2.5370466,32.409367 H 34.406153"
                   id="path8102" />
                <path
                   style="fill:none;stroke:#000000;stroke-width:1.19597;stroke-linecap:butt;stroke-linejoin:miter;stroke-miterlimit:4;stroke-dasharray:1.19597, 2.39194;stroke-dashoffset:0;stroke-opacity:1"
                   d="M 2.5370466,37.324532 H 27.375788"
                   id="path8104"
                   sodipodi:nodetypes="cc" />
              </g>
              <g
                 id="g8112"
                 transform="matrix(0,-0.69913367,1,0,39.76861,65.217673)">
                <path
                   style="fill:none;stroke:#000000;stroke-width:1;stroke-linecap:butt;stroke-linejoin:miter;stroke-miterlimit:4;stroke-dasharray:1, 2;stroke-dashoffset:0;stroke-opacity:1"
                   d="M 2.5370466,32.409367 H 34.406153"
                   id="path8108" />
                <path
                   style="fill:none;stroke:#000000;stroke-width:1.19597;stroke-linecap:butt;stroke-linejoin:miter;stroke-miterlimit:4;stroke-dasharray:1.19597, 2.39194;stroke-dashoffset:0;stroke-opacity:1"
                   d="M 9.567405,37.324532 H 34.406153"
                   id="path8110"
                   sodipodi:nodetypes="cc" />
              </g>
              <path
                 style="fill:none;fill-opacity:1;stroke:#000000;stroke-width:1;stroke-linecap:butt;stroke-linejoin:round;stroke-miterlimit:4;stroke-dasharray:none;stroke-dashoffset:0;stroke-opacity:1"
                 id="path8114"
                 sodipodi:type="arc"
                 sodipodi:cx="167.02878"
                 sodipodi:cy="59.484303"
                 sodipodi:rx="4.7941704"
                 sodipodi:ry="4.7941704"
                 sodipodi:start="4.7054821"
                 sodipodi:end="4.7054437"
                 sodipodi:open="true"
                 sodipodi:arc-type="arc"
                 d="m 166.99567,54.690246 a 4.7941704,4.7941704 0 0 1 4.82716,4.760898 4.7941704,4.7941704 0 0 1 -4.76085,4.827214 4.7941704,4.7941704 0 0 1 -4.82726,-4.760805 4.7941704,4.7941704 0 0 1 4.76076,-4.827305"
                 transform="translate(-92.3116,-23.1153)" />
              <g
                 inkscape:label=""
                 transform="matrix(2.25,0,0,2.25,-137.78553,-134.18989)"
                 id="g8122">
                <g
                   id="g8120">
                  <g
                     style="fill:#000000;fill-opacity:1"
                     id="g8118">
                    <use
                       xlink:href="#symbol1412"
                       x="91.925003"
                       y="81.962997"
                       id="use8116"
                       width="100%"
                       height="100%" />
                  </g>
                </g>
              </g>
            </g>
          </g>
        </g>
      </g>
    </g>
  </g>
</svg>
