<?xml version="1.0" encoding="UTF-8" standalone="no"?>
<!-- Copyright 2017 mathsisfun.com -->

<svg
   xmlns:dc="http://purl.org/dc/elements/1.1/"
   xmlns:cc="http://creativecommons.org/ns#"
   xmlns:rdf="http://www.w3.org/1999/02/22-rdf-syntax-ns#"
   xmlns:svg="http://www.w3.org/2000/svg"
   xmlns="http://www.w3.org/2000/svg"
   xmlns:xlink="http://www.w3.org/1999/xlink"
   xmlns:sodipodi="http://sodipodi.sourceforge.net/DTD/sodipodi-0.dtd"
   xmlns:inkscape="http://www.inkscape.org/namespaces/inkscape"
   width="354.892"
   height="183.584"
   version="1.1"
   id="svg262"
   sodipodi:docname="polarized-filter.svg"
   inkscape:version="0.92.4 (5da689c313, 2019-01-14)">
  <metadata
     id="metadata266">
    <rdf:RDF>
      <cc:Work
         rdf:about="">
        <dc:format>image/svg+xml</dc:format>
        <dc:type
           rdf:resource="http://purl.org/dc/dcmitype/StillImage" />
        <dc:title></dc:title>
      </cc:Work>
    </rdf:RDF>
  </metadata>
  <sodipodi:namedview
     pagecolor="#ffffff"
     bordercolor="#666666"
     borderopacity="1"
     objecttolerance="10"
     gridtolerance="10"
     guidetolerance="10"
     inkscape:pageopacity="0"
     inkscape:pageshadow="2"
     inkscape:window-width="640"
     inkscape:window-height="480"
     id="namedview264"
     showgrid="false"
     inkscape:current-layer="svg262"
     inkscape:snap-global="false" />
  <defs
     id="defs22">
    <marker
       id="id5"
       style="overflow:visible"
       orient="auto">
      <path
         transform="matrix(-0.4,0,0,-0.4,-4,0)"
         style="fill:#000000;stroke:#000000;stroke-width:1pt"
         d="M 0,0 5,-5 -12.5,0 5,5 Z"
         id="path2"
         inkscape:connector-curvature="0" />
    </marker>
    <linearGradient
       id="id2">
      <stop
         offset="0"
         style="stop-color:#19aeff;stop-opacity:1"
         id="stop5" />
      <stop
         offset="1"
         style="stop-color:#19aeff;stop-opacity:0"
         id="stop7" />
    </linearGradient>
    <linearGradient
       id="id1">
      <stop
         offset="0"
         style="stop-color:#8bd6ff;stop-opacity:1"
         id="stop10" />
      <stop
         offset="0.601"
         style="stop-color:#c5ebff;stop-opacity:0.4"
         id="stop12" />
      <stop
         offset="1"
         style="stop-color:#9eddff;stop-opacity:1"
         id="stop14" />
    </linearGradient>
    <marker
       id="id6"
       style="overflow:visible"
       orient="auto">
      <path
         transform="matrix(-0.8,0,0,-0.8,-10,0)"
         style="fill:#000000;stroke:#000000;stroke-width:1pt"
         d="M 0,0 5,-5 -12.5,0 5,5 Z"
         id="path17"
         inkscape:connector-curvature="0" />
    </marker>
    <linearGradient
       id="id3"
       gradientTransform="matrix(0.37443,0,0,0.519724,-58.5283,-516.527)"
       xlink:href="#id1"
       x1="675.5"
       y1="987.7"
       x2="1294.1"
       y2="987.7"
       gradientUnits="userSpaceOnUse" />
    <radialGradient
       id="id4"
       r="309.27"
       fx="984.79"
       fy="987.67"
       cx="984.8"
       cy="987.7"
       gradientTransform="matrix(0.37443,0,0,0.25106,-58.5283,-251.169)"
       xlink:href="#id2"
       gradientUnits="userSpaceOnUse" />
    <linearGradient
       id="id3-4"
       gradientTransform="matrix(0.37443,0,0,0.519724,-171.245,-366.671)"
       xlink:href="#id1"
       x1="675.5"
       y1="987.7"
       x2="1294.1"
       y2="987.7"
       gradientUnits="userSpaceOnUse" />
    <radialGradient
       id="id4-4"
       r="309.27"
       fx="984.79"
       fy="987.67"
       cx="984.8"
       cy="987.7"
       gradientTransform="matrix(0.37443,0,0,0.25106,-171.245,-101.313)"
       xlink:href="#id2"
       gradientUnits="userSpaceOnUse" />
    <linearGradient
       id="id3-49"
       gradientTransform="matrix(0.37443,0,0,0.519724,-252.918,-435.686)"
       xlink:href="#id1"
       x1="675.5"
       y1="987.7"
       x2="1294.1"
       y2="987.7"
       gradientUnits="userSpaceOnUse" />
    <radialGradient
       id="id4-0"
       r="309.27"
       fx="984.79"
       fy="987.67"
       cx="984.8"
       cy="987.7"
       gradientTransform="matrix(0.37443,0,0,0.25106,-252.918,-170.328)"
       xlink:href="#id2"
       gradientUnits="userSpaceOnUse" />
  </defs>
  <path
     inkscape:connector-curvature="0"
     id="path26"
     d="M 0.250274,11.0264 181.75,99.7264"
     style="color:#000000;overflow:visible;fill:none;stroke:#000000;stroke-width:1.14;marker-end:url(#id5)" />
  <text
     id="text28"
     style="color:#000000;font-size:17.099981px;font-family:Arial;text-align:center;text-anchor:middle;overflow:visible;fill:#c4a000;stroke-width:0.569999px"
     transform="scale(1.02662,0.97407)"
     y="14.0698"
     x="124.185">Unpolarized</text>
  <text
     id="text30"
     style="color:#000000;font-size:17.099981px;font-family:Arial;text-align:center;text-anchor:middle;overflow:visible;fill:#c4a000;stroke-width:0.569999px"
     transform="scale(1.02662,0.97407)"
     y="116.055"
     x="282.433">Polarized</text>
  <g
     id="g56"
     transform="matrix(0.618968,0.193403,-0.273377,0.437909,-232.24,-566.919)">
    <g
       id="g34"
       transform="matrix(-0.33244,-0.0625,0.18115,-0.15805,1446.6,1155.9)">
      <path
         inkscape:connector-curvature="0"
         id="path32"
         d="m 1822,370.5 c 2.6,6.2 2.6,6.1 6,12.5 1.8,6.6 5.3,10.4 7,18 3.2,3.8 4.2,9.8 7,14 2.2,7 6,11.5 8,19 3.3,4.3 5.2,10.1 8,15 3,7.1 6.9,12.3 9,19 3.4,3.6 5.2,8.8 8,13 3.7,6.5 7.3,11.4 11,17 4,5.1 7,10.6 12,14 1.4,5.3 7.7,7.4 11,11 5.1,3.6 10.3,7 18,8 10.5,1 19,-1.6 24,-6 5.6,-3.1 10.3,-7.1 14,-12 4.5,-3.7 7.6,-8.8 11,-13 3.8,-4.9 6.7,-10.3 10,-15 4.1,-7.2 7.2,-11.5 11,-20 3.3,-4.3 5.2,-10.1 8,-15 3,-6.5 6.3,-11.3 9,-19 2.7,-5.4 6,-11.5 8,-18 3.1,-4.2 4.8,-10.4 7,-15 2.5,-5.5 6.1,-10 7.8,-16.3 3.4,-4.5 1.5,-6.1 4.4,-11"
         style="color:#000000;overflow:visible;fill:#fce94f;fill-opacity:0.14;stroke:#c4a000;stroke-width:7.94" />
    </g>
    <g
       id="g38"
       transform="matrix(-0.32219,-0.0625,-0.02434,-0.39048,1501.8,1243.1)">
      <path
         inkscape:connector-curvature="0"
         id="path36"
         d="m 1822,370.5 c 2.6,6.2 2.6,6.1 6,12.5 1.8,6.6 5.3,10.4 7,18 3.2,3.8 4.2,9.8 7,14 2.2,7 6,11.5 8,19 3.3,4.3 5.2,10.1 8,15 3,7.1 6.9,12.3 9,19 3.4,3.6 5.2,8.8 8,13 3.7,6.5 7.3,11.4 11,17 4,5.1 7,10.6 12,14 1.4,5.3 7.7,7.4 11,11 5.1,3.6 10.3,7 18,8 10.5,1 19,-1.6 24,-6 5.6,-3.1 10.3,-7.1 14,-12 4.5,-3.7 7.6,-8.8 11,-13 3.8,-4.9 6.7,-10.3 10,-15 4.1,-7.2 7.2,-11.5 11,-20 3.3,-4.3 5.2,-10.1 8,-15 3,-6.5 6.3,-11.3 9,-19 2.7,-5.4 6,-11.5 8,-18 3.1,-4.2 4.8,-10.4 7,-15 2.5,-5.5 6.1,-10 7.8,-16.3 3.4,-4.5 1.5,-6.1 4.4,-11"
         style="color:#000000;overflow:visible;fill:#fce94f;fill-opacity:0.14;stroke:#c4a000;stroke-width:5.69" />
    </g>
    <g
       id="g42"
       transform="matrix(-0.33415,-0.06181,0.12185,-0.22756,1470.2,1181.1)">
      <path
         inkscape:connector-curvature="0"
         id="path40"
         d="m 1822,370.5 c 2.6,6.2 2.6,6.1 6,12.5 1.8,6.6 5.3,10.4 7,18 3.2,3.8 4.2,9.8 7,14 2.2,7 6,11.5 8,19 3.3,4.3 5.2,10.1 8,15 3,7.1 6.9,12.3 9,19 3.4,3.6 5.2,8.8 8,13 3.7,6.5 7.3,11.4 11,17 4,5.1 7,10.6 12,14 1.4,5.3 7.7,7.4 11,11 5.1,3.6 10.3,7 18,8 10.5,1 19,-1.6 24,-6 5.6,-3.1 10.3,-7.1 14,-12 4.5,-3.7 7.6,-8.8 11,-13 3.8,-4.9 6.7,-10.3 10,-15 4.1,-7.2 7.2,-11.5 11,-20 3.3,-4.3 5.2,-10.1 8,-15 3,-6.5 6.3,-11.3 9,-19 2.7,-5.4 6,-11.5 8,-18 3.1,-4.2 4.8,-10.4 7,-15 2.5,-5.5 6.1,-10 7.8,-16.3 3.4,-4.5 1.5,-6.1 4.4,-11"
         style="color:#000000;overflow:visible;fill:#fce94f;fill-opacity:0.14;stroke:#c4a000;stroke-width:6.94" />
    </g>
    <g
       id="g46"
       transform="matrix(-0.32804,-0.06145,0.03883,-0.28527,1489,1201.7)">
      <path
         inkscape:connector-curvature="0"
         id="path44"
         d="m 1822,370.5 c 2.6,6.2 2.6,6.1 6,12.5 1.8,6.6 5.3,10.4 7,18 3.2,3.8 4.2,9.8 7,14 2.2,7 6,11.5 8,19 3.3,4.3 5.2,10.1 8,15 3,7.1 6.9,12.3 9,19 3.4,3.6 5.2,8.8 8,13 3.7,6.5 7.3,11.4 11,17 4,5.1 7,10.6 12,14 1.4,5.3 7.7,7.4 11,11 5.1,3.6 10.3,7 18,8 10.5,1 19,-1.6 24,-6 5.6,-3.1 10.3,-7.1 14,-12 4.5,-3.7 7.6,-8.8 11,-13 3.8,-4.9 6.7,-10.3 10,-15 4.1,-7.2 7.2,-11.5 11,-20 3.3,-4.3 5.2,-10.1 8,-15 3,-6.5 6.3,-11.3 9,-19 2.7,-5.4 6,-11.5 8,-18 3.1,-4.2 4.8,-10.4 7,-15 2.5,-5.5 6.1,-10 7.8,-16.3 3.4,-4.5 1.5,-6.1 4.4,-11"
         style="color:#000000;overflow:visible;fill:#fce94f;fill-opacity:0.14;stroke:#c4a000;stroke-width:6.48" />
    </g>
    <g
       id="g50"
       transform="matrix(-0.32631,-0.0654,-0.01664,-0.33274,1507,1227)">
      <path
         inkscape:connector-curvature="0"
         id="path48"
         d="m 1822,370.5 c 2.6,6.2 2.6,6.1 6,12.5 1.8,6.6 5.3,10.4 7,18 3.2,3.8 4.2,9.8 7,14 2.2,7 6,11.5 8,19 3.3,4.3 5.2,10.1 8,15 3,7.1 6.9,12.3 9,19 3.4,3.6 5.2,8.8 8,13 3.7,6.5 7.3,11.4 11,17 4,5.1 7,10.6 12,14 1.4,5.3 7.7,7.4 11,11 5.1,3.6 10.3,7 18,8 10.5,1 19,-1.6 24,-6 5.6,-3.1 10.3,-7.1 14,-12 4.5,-3.7 7.6,-8.8 11,-13 3.8,-4.9 6.7,-10.3 10,-15 4.1,-7.2 7.2,-11.5 11,-20 3.3,-4.3 5.2,-10.1 8,-15 3,-6.5 6.3,-11.3 9,-19 2.7,-5.4 6,-11.5 8,-18 3.1,-4.2 4.8,-10.4 7,-15 2.5,-5.5 6.1,-10 7.8,-16.3 3.4,-4.5 1.5,-6.1 4.4,-11"
         style="color:#000000;overflow:visible;fill:#fce94f;fill-opacity:0.14;stroke:#c4a000;stroke-width:6.12" />
    </g>
    <g
       id="g54"
       transform="matrix(-0.30815,-0.061,0.12621,-0.06599,1418.1,1119.4)">
      <path
         inkscape:connector-curvature="0"
         id="path52"
         d="m 1822,370.5 c 2.6,6.2 2.6,6.1 6,12.5 1.8,6.6 5.3,10.4 7,18 3.2,3.8 4.2,9.8 7,14 2.2,7 6,11.5 8,19 3.3,4.3 5.2,10.1 8,15 3,7.1 6.9,12.3 9,19 3.4,3.6 5.2,8.8 8,13 3.7,6.5 7.3,11.4 11,17 4,5.1 7,10.6 12,14 1.4,5.3 7.7,7.4 11,11 5.1,3.6 10.3,7 18,8 10.5,1 19,-1.6 24,-6 5.6,-3.1 10.3,-7.1 14,-12 4.5,-3.7 7.6,-8.8 11,-13 3.8,-4.9 6.7,-10.3 10,-15 4.1,-7.2 7.2,-11.5 11,-20 3.3,-4.3 5.2,-10.1 8,-15 3,-6.5 6.3,-11.3 9,-19 2.7,-5.4 6,-11.5 8,-18 3.1,-4.2 4.8,-10.4 7,-15 2.5,-5.5 6.1,-10 7.8,-16.3 3.4,-4.5 1.5,-6.1 4.4,-11"
         style="color:#000000;overflow:visible;fill:#fce94f;fill-opacity:0.14;stroke:#c4a000;stroke-width:11.98" />
    </g>
  </g>
  <g
     id="g82"
     transform="matrix(-0.618968,-0.193403,0.273377,-0.437909,311.03,625.776)">
    <g
       id="g60"
       transform="matrix(-0.33244,-0.0625,0.18115,-0.15805,1446.6,1155.9)">
      <path
         inkscape:connector-curvature="0"
         id="path58"
         d="m 1822,370.5 c 2.6,6.2 2.6,6.1 6,12.5 1.8,6.6 5.3,10.4 7,18 3.2,3.8 4.2,9.8 7,14 2.2,7 6,11.5 8,19 3.3,4.3 5.2,10.1 8,15 3,7.1 6.9,12.3 9,19 3.4,3.6 5.2,8.8 8,13 3.7,6.5 7.3,11.4 11,17 4,5.1 7,10.6 12,14 1.4,5.3 7.7,7.4 11,11 5.1,3.6 10.3,7 18,8 10.5,1 19,-1.6 24,-6 5.6,-3.1 10.3,-7.1 14,-12 4.5,-3.7 7.6,-8.8 11,-13 3.8,-4.9 6.7,-10.3 10,-15 4.1,-7.2 7.2,-11.5 11,-20 3.3,-4.3 5.2,-10.1 8,-15 3,-6.5 6.3,-11.3 9,-19 2.7,-5.4 6,-11.5 8,-18 3.1,-4.2 4.8,-10.4 7,-15 2.5,-5.5 6.1,-10 7.8,-16.3 3.4,-4.5 1.5,-6.1 4.4,-11"
         style="color:#000000;overflow:visible;fill:#fce94f;fill-opacity:0.14;stroke:#c4a000;stroke-width:7.94" />
    </g>
    <g
       id="g64"
       transform="matrix(-0.32219,-0.0625,-0.02434,-0.39048,1501.8,1243.1)">
      <path
         inkscape:connector-curvature="0"
         id="path62"
         d="m 1822,370.5 c 2.6,6.2 2.6,6.1 6,12.5 1.8,6.6 5.3,10.4 7,18 3.2,3.8 4.2,9.8 7,14 2.2,7 6,11.5 8,19 3.3,4.3 5.2,10.1 8,15 3,7.1 6.9,12.3 9,19 3.4,3.6 5.2,8.8 8,13 3.7,6.5 7.3,11.4 11,17 4,5.1 7,10.6 12,14 1.4,5.3 7.7,7.4 11,11 5.1,3.6 10.3,7 18,8 10.5,1 19,-1.6 24,-6 5.6,-3.1 10.3,-7.1 14,-12 4.5,-3.7 7.6,-8.8 11,-13 3.8,-4.9 6.7,-10.3 10,-15 4.1,-7.2 7.2,-11.5 11,-20 3.3,-4.3 5.2,-10.1 8,-15 3,-6.5 6.3,-11.3 9,-19 2.7,-5.4 6,-11.5 8,-18 3.1,-4.2 4.8,-10.4 7,-15 2.5,-5.5 6.1,-10 7.8,-16.3 3.4,-4.5 1.5,-6.1 4.4,-11"
         style="color:#000000;overflow:visible;fill:#fce94f;fill-opacity:0.14;stroke:#c4a000;stroke-width:5.69" />
    </g>
    <g
       id="g68"
       transform="matrix(-0.33415,-0.06181,0.12185,-0.22756,1470.2,1181.1)">
      <path
         inkscape:connector-curvature="0"
         id="path66"
         d="m 1822,370.5 c 2.6,6.2 2.6,6.1 6,12.5 1.8,6.6 5.3,10.4 7,18 3.2,3.8 4.2,9.8 7,14 2.2,7 6,11.5 8,19 3.3,4.3 5.2,10.1 8,15 3,7.1 6.9,12.3 9,19 3.4,3.6 5.2,8.8 8,13 3.7,6.5 7.3,11.4 11,17 4,5.1 7,10.6 12,14 1.4,5.3 7.7,7.4 11,11 5.1,3.6 10.3,7 18,8 10.5,1 19,-1.6 24,-6 5.6,-3.1 10.3,-7.1 14,-12 4.5,-3.7 7.6,-8.8 11,-13 3.8,-4.9 6.7,-10.3 10,-15 4.1,-7.2 7.2,-11.5 11,-20 3.3,-4.3 5.2,-10.1 8,-15 3,-6.5 6.3,-11.3 9,-19 2.7,-5.4 6,-11.5 8,-18 3.1,-4.2 4.8,-10.4 7,-15 2.5,-5.5 6.1,-10 7.8,-16.3 3.4,-4.5 1.5,-6.1 4.4,-11"
         style="color:#000000;overflow:visible;fill:#fce94f;fill-opacity:0.14;stroke:#c4a000;stroke-width:6.94" />
    </g>
    <g
       id="g72"
       transform="matrix(-0.32804,-0.06145,0.03883,-0.28527,1489,1201.7)">
      <path
         inkscape:connector-curvature="0"
         id="path70"
         d="m 1822,370.5 c 2.6,6.2 2.6,6.1 6,12.5 1.8,6.6 5.3,10.4 7,18 3.2,3.8 4.2,9.8 7,14 2.2,7 6,11.5 8,19 3.3,4.3 5.2,10.1 8,15 3,7.1 6.9,12.3 9,19 3.4,3.6 5.2,8.8 8,13 3.7,6.5 7.3,11.4 11,17 4,5.1 7,10.6 12,14 1.4,5.3 7.7,7.4 11,11 5.1,3.6 10.3,7 18,8 10.5,1 19,-1.6 24,-6 5.6,-3.1 10.3,-7.1 14,-12 4.5,-3.7 7.6,-8.8 11,-13 3.8,-4.9 6.7,-10.3 10,-15 4.1,-7.2 7.2,-11.5 11,-20 3.3,-4.3 5.2,-10.1 8,-15 3,-6.5 6.3,-11.3 9,-19 2.7,-5.4 6,-11.5 8,-18 3.1,-4.2 4.8,-10.4 7,-15 2.5,-5.5 6.1,-10 7.8,-16.3 3.4,-4.5 1.5,-6.1 4.4,-11"
         style="color:#000000;overflow:visible;fill:#fce94f;fill-opacity:0.14;stroke:#c4a000;stroke-width:6.48" />
    </g>
    <g
       id="g76"
       transform="matrix(-0.32631,-0.0654,-0.01664,-0.33274,1507,1227)">
      <path
         inkscape:connector-curvature="0"
         id="path74"
         d="m 1822,370.5 c 2.6,6.2 2.6,6.1 6,12.5 1.8,6.6 5.3,10.4 7,18 3.2,3.8 4.2,9.8 7,14 2.2,7 6,11.5 8,19 3.3,4.3 5.2,10.1 8,15 3,7.1 6.9,12.3 9,19 3.4,3.6 5.2,8.8 8,13 3.7,6.5 7.3,11.4 11,17 4,5.1 7,10.6 12,14 1.4,5.3 7.7,7.4 11,11 5.1,3.6 10.3,7 18,8 10.5,1 19,-1.6 24,-6 5.6,-3.1 10.3,-7.1 14,-12 4.5,-3.7 7.6,-8.8 11,-13 3.8,-4.9 6.7,-10.3 10,-15 4.1,-7.2 7.2,-11.5 11,-20 3.3,-4.3 5.2,-10.1 8,-15 3,-6.5 6.3,-11.3 9,-19 2.7,-5.4 6,-11.5 8,-18 3.1,-4.2 4.8,-10.4 7,-15 2.5,-5.5 6.1,-10 7.8,-16.3 3.4,-4.5 1.5,-6.1 4.4,-11"
         style="color:#000000;overflow:visible;fill:#fce94f;fill-opacity:0.14;stroke:#c4a000;stroke-width:6.12" />
    </g>
    <g
       id="g80"
       transform="matrix(-0.30815,-0.061,0.12621,-0.06599,1418.1,1119.4)">
      <path
         inkscape:connector-curvature="0"
         id="path78"
         d="m 1822,370.5 c 2.6,6.2 2.6,6.1 6,12.5 1.8,6.6 5.3,10.4 7,18 3.2,3.8 4.2,9.8 7,14 2.2,7 6,11.5 8,19 3.3,4.3 5.2,10.1 8,15 3,7.1 6.9,12.3 9,19 3.4,3.6 5.2,8.8 8,13 3.7,6.5 7.3,11.4 11,17 4,5.1 7,10.6 12,14 1.4,5.3 7.7,7.4 11,11 5.1,3.6 10.3,7 18,8 10.5,1 19,-1.6 24,-6 5.6,-3.1 10.3,-7.1 14,-12 4.5,-3.7 7.6,-8.8 11,-13 3.8,-4.9 6.7,-10.3 10,-15 4.1,-7.2 7.2,-11.5 11,-20 3.3,-4.3 5.2,-10.1 8,-15 3,-6.5 6.3,-11.3 9,-19 2.7,-5.4 6,-11.5 8,-18 3.1,-4.2 4.8,-10.4 7,-15 2.5,-5.5 6.1,-10 7.8,-16.3 3.4,-4.5 1.5,-6.1 4.4,-11"
         style="color:#000000;overflow:visible;fill:#fce94f;fill-opacity:0.14;stroke:#c4a000;stroke-width:11.98" />
    </g>
  </g>
  <g
     id="g108"
     transform="matrix(0.618968,0.193403,-0.273377,0.437909,-191.017,-547.253)">
    <g
       id="g86"
       transform="matrix(-0.33244,-0.0625,0.18115,-0.15805,1446.6,1155.9)">
      <path
         inkscape:connector-curvature="0"
         id="path84"
         d="m 1822,370.5 c 2.6,6.2 2.6,6.1 6,12.5 1.8,6.6 5.3,10.4 7,18 3.2,3.8 4.2,9.8 7,14 2.2,7 6,11.5 8,19 3.3,4.3 5.2,10.1 8,15 3,7.1 6.9,12.3 9,19 3.4,3.6 5.2,8.8 8,13 3.7,6.5 7.3,11.4 11,17 4,5.1 7,10.6 12,14 1.4,5.3 7.7,7.4 11,11 5.1,3.6 10.3,7 18,8 10.5,1 19,-1.6 24,-6 5.6,-3.1 10.3,-7.1 14,-12 4.5,-3.7 7.6,-8.8 11,-13 3.8,-4.9 6.7,-10.3 10,-15 4.1,-7.2 7.2,-11.5 11,-20 3.3,-4.3 5.2,-10.1 8,-15 3,-6.5 6.3,-11.3 9,-19 2.7,-5.4 6,-11.5 8,-18 3.1,-4.2 4.8,-10.4 7,-15 2.5,-5.5 6.1,-10 7.8,-16.3 3.4,-4.5 1.5,-6.1 4.4,-11"
         style="color:#000000;overflow:visible;fill:#fce94f;fill-opacity:0.14;stroke:#c4a000;stroke-width:7.94" />
    </g>
    <g
       id="g90"
       transform="matrix(-0.32219,-0.0625,-0.02434,-0.39048,1501.8,1243.1)">
      <path
         inkscape:connector-curvature="0"
         id="path88"
         d="m 1822,370.5 c 2.6,6.2 2.6,6.1 6,12.5 1.8,6.6 5.3,10.4 7,18 3.2,3.8 4.2,9.8 7,14 2.2,7 6,11.5 8,19 3.3,4.3 5.2,10.1 8,15 3,7.1 6.9,12.3 9,19 3.4,3.6 5.2,8.8 8,13 3.7,6.5 7.3,11.4 11,17 4,5.1 7,10.6 12,14 1.4,5.3 7.7,7.4 11,11 5.1,3.6 10.3,7 18,8 10.5,1 19,-1.6 24,-6 5.6,-3.1 10.3,-7.1 14,-12 4.5,-3.7 7.6,-8.8 11,-13 3.8,-4.9 6.7,-10.3 10,-15 4.1,-7.2 7.2,-11.5 11,-20 3.3,-4.3 5.2,-10.1 8,-15 3,-6.5 6.3,-11.3 9,-19 2.7,-5.4 6,-11.5 8,-18 3.1,-4.2 4.8,-10.4 7,-15 2.5,-5.5 6.1,-10 7.8,-16.3 3.4,-4.5 1.5,-6.1 4.4,-11"
         style="color:#000000;overflow:visible;fill:#fce94f;fill-opacity:0.14;stroke:#c4a000;stroke-width:5.69" />
    </g>
    <g
       id="g94"
       transform="matrix(-0.33415,-0.06181,0.12185,-0.22756,1470.2,1181.1)">
      <path
         inkscape:connector-curvature="0"
         id="path92"
         d="m 1822,370.5 c 2.6,6.2 2.6,6.1 6,12.5 1.8,6.6 5.3,10.4 7,18 3.2,3.8 4.2,9.8 7,14 2.2,7 6,11.5 8,19 3.3,4.3 5.2,10.1 8,15 3,7.1 6.9,12.3 9,19 3.4,3.6 5.2,8.8 8,13 3.7,6.5 7.3,11.4 11,17 4,5.1 7,10.6 12,14 1.4,5.3 7.7,7.4 11,11 5.1,3.6 10.3,7 18,8 10.5,1 19,-1.6 24,-6 5.6,-3.1 10.3,-7.1 14,-12 4.5,-3.7 7.6,-8.8 11,-13 3.8,-4.9 6.7,-10.3 10,-15 4.1,-7.2 7.2,-11.5 11,-20 3.3,-4.3 5.2,-10.1 8,-15 3,-6.5 6.3,-11.3 9,-19 2.7,-5.4 6,-11.5 8,-18 3.1,-4.2 4.8,-10.4 7,-15 2.5,-5.5 6.1,-10 7.8,-16.3 3.4,-4.5 1.5,-6.1 4.4,-11"
         style="color:#000000;overflow:visible;fill:#fce94f;fill-opacity:0.14;stroke:#c4a000;stroke-width:6.94" />
    </g>
    <g
       id="g98"
       transform="matrix(-0.32804,-0.06145,0.03883,-0.28527,1489,1201.7)">
      <path
         inkscape:connector-curvature="0"
         id="path96"
         d="m 1822,370.5 c 2.6,6.2 2.6,6.1 6,12.5 1.8,6.6 5.3,10.4 7,18 3.2,3.8 4.2,9.8 7,14 2.2,7 6,11.5 8,19 3.3,4.3 5.2,10.1 8,15 3,7.1 6.9,12.3 9,19 3.4,3.6 5.2,8.8 8,13 3.7,6.5 7.3,11.4 11,17 4,5.1 7,10.6 12,14 1.4,5.3 7.7,7.4 11,11 5.1,3.6 10.3,7 18,8 10.5,1 19,-1.6 24,-6 5.6,-3.1 10.3,-7.1 14,-12 4.5,-3.7 7.6,-8.8 11,-13 3.8,-4.9 6.7,-10.3 10,-15 4.1,-7.2 7.2,-11.5 11,-20 3.3,-4.3 5.2,-10.1 8,-15 3,-6.5 6.3,-11.3 9,-19 2.7,-5.4 6,-11.5 8,-18 3.1,-4.2 4.8,-10.4 7,-15 2.5,-5.5 6.1,-10 7.8,-16.3 3.4,-4.5 1.5,-6.1 4.4,-11"
         style="color:#000000;overflow:visible;fill:#fce94f;fill-opacity:0.14;stroke:#c4a000;stroke-width:6.48" />
    </g>
    <g
       id="g102"
       transform="matrix(-0.32631,-0.0654,-0.01664,-0.33274,1507,1227)">
      <path
         inkscape:connector-curvature="0"
         id="path100"
         d="m 1822,370.5 c 2.6,6.2 2.6,6.1 6,12.5 1.8,6.6 5.3,10.4 7,18 3.2,3.8 4.2,9.8 7,14 2.2,7 6,11.5 8,19 3.3,4.3 5.2,10.1 8,15 3,7.1 6.9,12.3 9,19 3.4,3.6 5.2,8.8 8,13 3.7,6.5 7.3,11.4 11,17 4,5.1 7,10.6 12,14 1.4,5.3 7.7,7.4 11,11 5.1,3.6 10.3,7 18,8 10.5,1 19,-1.6 24,-6 5.6,-3.1 10.3,-7.1 14,-12 4.5,-3.7 7.6,-8.8 11,-13 3.8,-4.9 6.7,-10.3 10,-15 4.1,-7.2 7.2,-11.5 11,-20 3.3,-4.3 5.2,-10.1 8,-15 3,-6.5 6.3,-11.3 9,-19 2.7,-5.4 6,-11.5 8,-18 3.1,-4.2 4.8,-10.4 7,-15 2.5,-5.5 6.1,-10 7.8,-16.3 3.4,-4.5 1.5,-6.1 4.4,-11"
         style="color:#000000;overflow:visible;fill:#fce94f;fill-opacity:0.14;stroke:#c4a000;stroke-width:6.12" />
    </g>
    <g
       id="g106"
       transform="matrix(-0.30815,-0.061,0.12621,-0.06599,1418.1,1119.4)">
      <path
         inkscape:connector-curvature="0"
         id="path104"
         d="m 1822,370.5 c 2.6,6.2 2.6,6.1 6,12.5 1.8,6.6 5.3,10.4 7,18 3.2,3.8 4.2,9.8 7,14 2.2,7 6,11.5 8,19 3.3,4.3 5.2,10.1 8,15 3,7.1 6.9,12.3 9,19 3.4,3.6 5.2,8.8 8,13 3.7,6.5 7.3,11.4 11,17 4,5.1 7,10.6 12,14 1.4,5.3 7.7,7.4 11,11 5.1,3.6 10.3,7 18,8 10.5,1 19,-1.6 24,-6 5.6,-3.1 10.3,-7.1 14,-12 4.5,-3.7 7.6,-8.8 11,-13 3.8,-4.9 6.7,-10.3 10,-15 4.1,-7.2 7.2,-11.5 11,-20 3.3,-4.3 5.2,-10.1 8,-15 3,-6.5 6.3,-11.3 9,-19 2.7,-5.4 6,-11.5 8,-18 3.1,-4.2 4.8,-10.4 7,-15 2.5,-5.5 6.1,-10 7.8,-16.3 3.4,-4.5 1.5,-6.1 4.4,-11"
         style="color:#000000;overflow:visible;fill:#fce94f;fill-opacity:0.14;stroke:#c4a000;stroke-width:11.98" />
    </g>
  </g>
  <g
     id="g134"
     transform="matrix(-0.618968,-0.193403,0.273377,-0.437909,352.24,645.466)">
    <g
       id="g112"
       transform="matrix(-0.33244,-0.0625,0.18115,-0.15805,1446.6,1155.9)">
      <path
         inkscape:connector-curvature="0"
         id="path110"
         d="m 1822,370.5 c 2.6,6.2 2.6,6.1 6,12.5 1.8,6.6 5.3,10.4 7,18 3.2,3.8 4.2,9.8 7,14 2.2,7 6,11.5 8,19 3.3,4.3 5.2,10.1 8,15 3,7.1 6.9,12.3 9,19 3.4,3.6 5.2,8.8 8,13 3.7,6.5 7.3,11.4 11,17 4,5.1 7,10.6 12,14 1.4,5.3 7.7,7.4 11,11 5.1,3.6 10.3,7 18,8 10.5,1 19,-1.6 24,-6 5.6,-3.1 10.3,-7.1 14,-12 4.5,-3.7 7.6,-8.8 11,-13 3.8,-4.9 6.7,-10.3 10,-15 4.1,-7.2 7.2,-11.5 11,-20 3.3,-4.3 5.2,-10.1 8,-15 3,-6.5 6.3,-11.3 9,-19 2.7,-5.4 6,-11.5 8,-18 3.1,-4.2 4.8,-10.4 7,-15 2.5,-5.5 6.1,-10 7.8,-16.3 3.4,-4.5 1.5,-6.1 4.4,-11"
         style="color:#000000;overflow:visible;fill:#fce94f;fill-opacity:0.14;stroke:#c4a000;stroke-width:7.94" />
    </g>
    <g
       id="g116"
       transform="matrix(-0.32219,-0.0625,-0.02434,-0.39048,1501.8,1243.1)">
      <path
         inkscape:connector-curvature="0"
         id="path114"
         d="m 1822,370.5 c 2.6,6.2 2.6,6.1 6,12.5 1.8,6.6 5.3,10.4 7,18 3.2,3.8 4.2,9.8 7,14 2.2,7 6,11.5 8,19 3.3,4.3 5.2,10.1 8,15 3,7.1 6.9,12.3 9,19 3.4,3.6 5.2,8.8 8,13 3.7,6.5 7.3,11.4 11,17 4,5.1 7,10.6 12,14 1.4,5.3 7.7,7.4 11,11 5.1,3.6 10.3,7 18,8 10.5,1 19,-1.6 24,-6 5.6,-3.1 10.3,-7.1 14,-12 4.5,-3.7 7.6,-8.8 11,-13 3.8,-4.9 6.7,-10.3 10,-15 4.1,-7.2 7.2,-11.5 11,-20 3.3,-4.3 5.2,-10.1 8,-15 3,-6.5 6.3,-11.3 9,-19 2.7,-5.4 6,-11.5 8,-18 3.1,-4.2 4.8,-10.4 7,-15 2.5,-5.5 6.1,-10 7.8,-16.3 3.4,-4.5 1.5,-6.1 4.4,-11"
         style="color:#000000;overflow:visible;fill:#fce94f;fill-opacity:0.14;stroke:#c4a000;stroke-width:5.69" />
    </g>
    <g
       id="g120"
       transform="matrix(-0.33415,-0.06181,0.12185,-0.22756,1470.2,1181.1)">
      <path
         inkscape:connector-curvature="0"
         id="path118"
         d="m 1822,370.5 c 2.6,6.2 2.6,6.1 6,12.5 1.8,6.6 5.3,10.4 7,18 3.2,3.8 4.2,9.8 7,14 2.2,7 6,11.5 8,19 3.3,4.3 5.2,10.1 8,15 3,7.1 6.9,12.3 9,19 3.4,3.6 5.2,8.8 8,13 3.7,6.5 7.3,11.4 11,17 4,5.1 7,10.6 12,14 1.4,5.3 7.7,7.4 11,11 5.1,3.6 10.3,7 18,8 10.5,1 19,-1.6 24,-6 5.6,-3.1 10.3,-7.1 14,-12 4.5,-3.7 7.6,-8.8 11,-13 3.8,-4.9 6.7,-10.3 10,-15 4.1,-7.2 7.2,-11.5 11,-20 3.3,-4.3 5.2,-10.1 8,-15 3,-6.5 6.3,-11.3 9,-19 2.7,-5.4 6,-11.5 8,-18 3.1,-4.2 4.8,-10.4 7,-15 2.5,-5.5 6.1,-10 7.8,-16.3 3.4,-4.5 1.5,-6.1 4.4,-11"
         style="color:#000000;overflow:visible;fill:#fce94f;fill-opacity:0.14;stroke:#c4a000;stroke-width:6.94" />
    </g>
    <g
       id="g124"
       transform="matrix(-0.32804,-0.06145,0.03883,-0.28527,1489,1201.7)">
      <path
         inkscape:connector-curvature="0"
         id="path122"
         d="m 1822,370.5 c 2.6,6.2 2.6,6.1 6,12.5 1.8,6.6 5.3,10.4 7,18 3.2,3.8 4.2,9.8 7,14 2.2,7 6,11.5 8,19 3.3,4.3 5.2,10.1 8,15 3,7.1 6.9,12.3 9,19 3.4,3.6 5.2,8.8 8,13 3.7,6.5 7.3,11.4 11,17 4,5.1 7,10.6 12,14 1.4,5.3 7.7,7.4 11,11 5.1,3.6 10.3,7 18,8 10.5,1 19,-1.6 24,-6 5.6,-3.1 10.3,-7.1 14,-12 4.5,-3.7 7.6,-8.8 11,-13 3.8,-4.9 6.7,-10.3 10,-15 4.1,-7.2 7.2,-11.5 11,-20 3.3,-4.3 5.2,-10.1 8,-15 3,-6.5 6.3,-11.3 9,-19 2.7,-5.4 6,-11.5 8,-18 3.1,-4.2 4.8,-10.4 7,-15 2.5,-5.5 6.1,-10 7.8,-16.3 3.4,-4.5 1.5,-6.1 4.4,-11"
         style="color:#000000;overflow:visible;fill:#fce94f;fill-opacity:0.14;stroke:#c4a000;stroke-width:6.48" />
    </g>
    <g
       id="g128"
       transform="matrix(-0.32631,-0.0654,-0.01664,-0.33274,1507,1227)">
      <path
         inkscape:connector-curvature="0"
         id="path126"
         d="m 1822,370.5 c 2.6,6.2 2.6,6.1 6,12.5 1.8,6.6 5.3,10.4 7,18 3.2,3.8 4.2,9.8 7,14 2.2,7 6,11.5 8,19 3.3,4.3 5.2,10.1 8,15 3,7.1 6.9,12.3 9,19 3.4,3.6 5.2,8.8 8,13 3.7,6.5 7.3,11.4 11,17 4,5.1 7,10.6 12,14 1.4,5.3 7.7,7.4 11,11 5.1,3.6 10.3,7 18,8 10.5,1 19,-1.6 24,-6 5.6,-3.1 10.3,-7.1 14,-12 4.5,-3.7 7.6,-8.8 11,-13 3.8,-4.9 6.7,-10.3 10,-15 4.1,-7.2 7.2,-11.5 11,-20 3.3,-4.3 5.2,-10.1 8,-15 3,-6.5 6.3,-11.3 9,-19 2.7,-5.4 6,-11.5 8,-18 3.1,-4.2 4.8,-10.4 7,-15 2.5,-5.5 6.1,-10 7.8,-16.3 3.4,-4.5 1.5,-6.1 4.4,-11"
         style="color:#000000;overflow:visible;fill:#fce94f;fill-opacity:0.14;stroke:#c4a000;stroke-width:6.12" />
    </g>
    <g
       id="g132"
       transform="matrix(-0.30815,-0.061,0.12621,-0.06599,1418.1,1119.4)">
      <path
         inkscape:connector-curvature="0"
         id="path130"
         d="m 1822,370.5 c 2.6,6.2 2.6,6.1 6,12.5 1.8,6.6 5.3,10.4 7,18 3.2,3.8 4.2,9.8 7,14 2.2,7 6,11.5 8,19 3.3,4.3 5.2,10.1 8,15 3,7.1 6.9,12.3 9,19 3.4,3.6 5.2,8.8 8,13 3.7,6.5 7.3,11.4 11,17 4,5.1 7,10.6 12,14 1.4,5.3 7.7,7.4 11,11 5.1,3.6 10.3,7 18,8 10.5,1 19,-1.6 24,-6 5.6,-3.1 10.3,-7.1 14,-12 4.5,-3.7 7.6,-8.8 11,-13 3.8,-4.9 6.7,-10.3 10,-15 4.1,-7.2 7.2,-11.5 11,-20 3.3,-4.3 5.2,-10.1 8,-15 3,-6.5 6.3,-11.3 9,-19 2.7,-5.4 6,-11.5 8,-18 3.1,-4.2 4.8,-10.4 7,-15 2.5,-5.5 6.1,-10 7.8,-16.3 3.4,-4.5 1.5,-6.1 4.4,-11"
         style="color:#000000;overflow:visible;fill:#fce94f;fill-opacity:0.14;stroke:#c4a000;stroke-width:11.98" />
    </g>
  </g>
  <g
     id="g160"
     transform="matrix(0.618968,0.193403,-0.273377,0.437909,-150.045,-526.771)">
    <g
       id="g138"
       transform="matrix(-0.33244,-0.0625,0.18115,-0.15805,1446.6,1155.9)">
      <path
         inkscape:connector-curvature="0"
         id="path136"
         d="m 1822,370.5 c 2.6,6.2 2.6,6.1 6,12.5 1.8,6.6 5.3,10.4 7,18 3.2,3.8 4.2,9.8 7,14 2.2,7 6,11.5 8,19 3.3,4.3 5.2,10.1 8,15 3,7.1 6.9,12.3 9,19 3.4,3.6 5.2,8.8 8,13 3.7,6.5 7.3,11.4 11,17 4,5.1 7,10.6 12,14 1.4,5.3 7.7,7.4 11,11 5.1,3.6 10.3,7 18,8 10.5,1 19,-1.6 24,-6 5.6,-3.1 10.3,-7.1 14,-12 4.5,-3.7 7.6,-8.8 11,-13 3.8,-4.9 6.7,-10.3 10,-15 4.1,-7.2 7.2,-11.5 11,-20 3.3,-4.3 5.2,-10.1 8,-15 3,-6.5 6.3,-11.3 9,-19 2.7,-5.4 6,-11.5 8,-18 3.1,-4.2 4.8,-10.4 7,-15 2.5,-5.5 6.1,-10 7.8,-16.3 3.4,-4.5 1.5,-6.1 4.4,-11"
         style="color:#000000;overflow:visible;fill:#fce94f;fill-opacity:0.14;stroke:#c4a000;stroke-width:7.94" />
    </g>
    <g
       id="g142"
       transform="matrix(-0.32219,-0.0625,-0.02434,-0.39048,1501.8,1243.1)">
      <path
         inkscape:connector-curvature="0"
         id="path140"
         d="m 1822,370.5 c 2.6,6.2 2.6,6.1 6,12.5 1.8,6.6 5.3,10.4 7,18 3.2,3.8 4.2,9.8 7,14 2.2,7 6,11.5 8,19 3.3,4.3 5.2,10.1 8,15 3,7.1 6.9,12.3 9,19 3.4,3.6 5.2,8.8 8,13 3.7,6.5 7.3,11.4 11,17 4,5.1 7,10.6 12,14 1.4,5.3 7.7,7.4 11,11 5.1,3.6 10.3,7 18,8 10.5,1 19,-1.6 24,-6 5.6,-3.1 10.3,-7.1 14,-12 4.5,-3.7 7.6,-8.8 11,-13 3.8,-4.9 6.7,-10.3 10,-15 4.1,-7.2 7.2,-11.5 11,-20 3.3,-4.3 5.2,-10.1 8,-15 3,-6.5 6.3,-11.3 9,-19 2.7,-5.4 6,-11.5 8,-18 3.1,-4.2 4.8,-10.4 7,-15 2.5,-5.5 6.1,-10 7.8,-16.3 3.4,-4.5 1.5,-6.1 4.4,-11"
         style="color:#000000;overflow:visible;fill:#fce94f;fill-opacity:0.14;stroke:#c4a000;stroke-width:5.69" />
    </g>
    <g
       id="g146"
       transform="matrix(-0.33415,-0.06181,0.12185,-0.22756,1470.2,1181.1)">
      <path
         inkscape:connector-curvature="0"
         id="path144"
         d="m 1822,370.5 c 2.6,6.2 2.6,6.1 6,12.5 1.8,6.6 5.3,10.4 7,18 3.2,3.8 4.2,9.8 7,14 2.2,7 6,11.5 8,19 3.3,4.3 5.2,10.1 8,15 3,7.1 6.9,12.3 9,19 3.4,3.6 5.2,8.8 8,13 3.7,6.5 7.3,11.4 11,17 4,5.1 7,10.6 12,14 1.4,5.3 7.7,7.4 11,11 5.1,3.6 10.3,7 18,8 10.5,1 19,-1.6 24,-6 5.6,-3.1 10.3,-7.1 14,-12 4.5,-3.7 7.6,-8.8 11,-13 3.8,-4.9 6.7,-10.3 10,-15 4.1,-7.2 7.2,-11.5 11,-20 3.3,-4.3 5.2,-10.1 8,-15 3,-6.5 6.3,-11.3 9,-19 2.7,-5.4 6,-11.5 8,-18 3.1,-4.2 4.8,-10.4 7,-15 2.5,-5.5 6.1,-10 7.8,-16.3 3.4,-4.5 1.5,-6.1 4.4,-11"
         style="color:#000000;overflow:visible;fill:#fce94f;fill-opacity:0.14;stroke:#c4a000;stroke-width:6.94" />
    </g>
    <g
       id="g150"
       transform="matrix(-0.32804,-0.06145,0.03883,-0.28527,1489,1201.7)">
      <path
         inkscape:connector-curvature="0"
         id="path148"
         d="m 1822,370.5 c 2.6,6.2 2.6,6.1 6,12.5 1.8,6.6 5.3,10.4 7,18 3.2,3.8 4.2,9.8 7,14 2.2,7 6,11.5 8,19 3.3,4.3 5.2,10.1 8,15 3,7.1 6.9,12.3 9,19 3.4,3.6 5.2,8.8 8,13 3.7,6.5 7.3,11.4 11,17 4,5.1 7,10.6 12,14 1.4,5.3 7.7,7.4 11,11 5.1,3.6 10.3,7 18,8 10.5,1 19,-1.6 24,-6 5.6,-3.1 10.3,-7.1 14,-12 4.5,-3.7 7.6,-8.8 11,-13 3.8,-4.9 6.7,-10.3 10,-15 4.1,-7.2 7.2,-11.5 11,-20 3.3,-4.3 5.2,-10.1 8,-15 3,-6.5 6.3,-11.3 9,-19 2.7,-5.4 6,-11.5 8,-18 3.1,-4.2 4.8,-10.4 7,-15 2.5,-5.5 6.1,-10 7.8,-16.3 3.4,-4.5 1.5,-6.1 4.4,-11"
         style="color:#000000;overflow:visible;fill:#fce94f;fill-opacity:0.14;stroke:#c4a000;stroke-width:6.48" />
    </g>
    <g
       id="g154"
       transform="matrix(-0.32631,-0.0654,-0.01664,-0.33274,1507,1227)">
      <path
         inkscape:connector-curvature="0"
         id="path152"
         d="m 1822,370.5 c 2.6,6.2 2.6,6.1 6,12.5 1.8,6.6 5.3,10.4 7,18 3.2,3.8 4.2,9.8 7,14 2.2,7 6,11.5 8,19 3.3,4.3 5.2,10.1 8,15 3,7.1 6.9,12.3 9,19 3.4,3.6 5.2,8.8 8,13 3.7,6.5 7.3,11.4 11,17 4,5.1 7,10.6 12,14 1.4,5.3 7.7,7.4 11,11 5.1,3.6 10.3,7 18,8 10.5,1 19,-1.6 24,-6 5.6,-3.1 10.3,-7.1 14,-12 4.5,-3.7 7.6,-8.8 11,-13 3.8,-4.9 6.7,-10.3 10,-15 4.1,-7.2 7.2,-11.5 11,-20 3.3,-4.3 5.2,-10.1 8,-15 3,-6.5 6.3,-11.3 9,-19 2.7,-5.4 6,-11.5 8,-18 3.1,-4.2 4.8,-10.4 7,-15 2.5,-5.5 6.1,-10 7.8,-16.3 3.4,-4.5 1.5,-6.1 4.4,-11"
         style="color:#000000;overflow:visible;fill:#fce94f;fill-opacity:0.14;stroke:#c4a000;stroke-width:6.12" />
    </g>
    <g
       id="g158"
       transform="matrix(-0.30815,-0.061,0.12621,-0.06599,1418.1,1119.4)">
      <path
         inkscape:connector-curvature="0"
         id="path156"
         d="m 1822,370.5 c 2.6,6.2 2.6,6.1 6,12.5 1.8,6.6 5.3,10.4 7,18 3.2,3.8 4.2,9.8 7,14 2.2,7 6,11.5 8,19 3.3,4.3 5.2,10.1 8,15 3,7.1 6.9,12.3 9,19 3.4,3.6 5.2,8.8 8,13 3.7,6.5 7.3,11.4 11,17 4,5.1 7,10.6 12,14 1.4,5.3 7.7,7.4 11,11 5.1,3.6 10.3,7 18,8 10.5,1 19,-1.6 24,-6 5.6,-3.1 10.3,-7.1 14,-12 4.5,-3.7 7.6,-8.8 11,-13 3.8,-4.9 6.7,-10.3 10,-15 4.1,-7.2 7.2,-11.5 11,-20 3.3,-4.3 5.2,-10.1 8,-15 3,-6.5 6.3,-11.3 9,-19 2.7,-5.4 6,-11.5 8,-18 3.1,-4.2 4.8,-10.4 7,-15 2.5,-5.5 6.1,-10 7.8,-16.3 3.4,-4.5 1.5,-6.1 4.4,-11"
         style="color:#000000;overflow:visible;fill:#fce94f;fill-opacity:0.14;stroke:#c4a000;stroke-width:11.98" />
    </g>
  </g>
  <g
     id="g186"
     transform="matrix(-0.618968,-0.193403,0.273377,-0.437909,393.21,665.926)">
    <g
       id="g164"
       transform="matrix(-0.33244,-0.0625,0.18115,-0.15805,1446.6,1155.9)">
      <path
         inkscape:connector-curvature="0"
         id="path162"
         d="m 1822,370.5 c 2.6,6.2 2.6,6.1 6,12.5 1.8,6.6 5.3,10.4 7,18 3.2,3.8 4.2,9.8 7,14 2.2,7 6,11.5 8,19 3.3,4.3 5.2,10.1 8,15 3,7.1 6.9,12.3 9,19 3.4,3.6 5.2,8.8 8,13 3.7,6.5 7.3,11.4 11,17 4,5.1 7,10.6 12,14 1.4,5.3 7.7,7.4 11,11 5.1,3.6 10.3,7 18,8 10.5,1 19,-1.6 24,-6 5.6,-3.1 10.3,-7.1 14,-12 4.5,-3.7 7.6,-8.8 11,-13 3.8,-4.9 6.7,-10.3 10,-15 4.1,-7.2 7.2,-11.5 11,-20 3.3,-4.3 5.2,-10.1 8,-15 3,-6.5 6.3,-11.3 9,-19 2.7,-5.4 6,-11.5 8,-18 3.1,-4.2 4.8,-10.4 7,-15 2.5,-5.5 6.1,-10 7.8,-16.3 3.4,-4.5 1.5,-6.1 4.4,-11"
         style="color:#000000;overflow:visible;fill:#fce94f;fill-opacity:0.14;stroke:#c4a000;stroke-width:7.94" />
    </g>
    <g
       id="g168"
       transform="matrix(-0.32219,-0.0625,-0.02434,-0.39048,1501.8,1243.1)">
      <path
         inkscape:connector-curvature="0"
         id="path166"
         d="m 1822,370.5 c 2.6,6.2 2.6,6.1 6,12.5 1.8,6.6 5.3,10.4 7,18 3.2,3.8 4.2,9.8 7,14 2.2,7 6,11.5 8,19 3.3,4.3 5.2,10.1 8,15 3,7.1 6.9,12.3 9,19 3.4,3.6 5.2,8.8 8,13 3.7,6.5 7.3,11.4 11,17 4,5.1 7,10.6 12,14 1.4,5.3 7.7,7.4 11,11 5.1,3.6 10.3,7 18,8 10.5,1 19,-1.6 24,-6 5.6,-3.1 10.3,-7.1 14,-12 4.5,-3.7 7.6,-8.8 11,-13 3.8,-4.9 6.7,-10.3 10,-15 4.1,-7.2 7.2,-11.5 11,-20 3.3,-4.3 5.2,-10.1 8,-15 3,-6.5 6.3,-11.3 9,-19 2.7,-5.4 6,-11.5 8,-18 3.1,-4.2 4.8,-10.4 7,-15 2.5,-5.5 6.1,-10 7.8,-16.3 3.4,-4.5 1.5,-6.1 4.4,-11"
         style="color:#000000;overflow:visible;fill:#fce94f;fill-opacity:0.14;stroke:#c4a000;stroke-width:5.69" />
    </g>
    <g
       id="g172"
       transform="matrix(-0.33415,-0.06181,0.12185,-0.22756,1470.2,1181.1)">
      <path
         inkscape:connector-curvature="0"
         id="path170"
         d="m 1822,370.5 c 2.6,6.2 2.6,6.1 6,12.5 1.8,6.6 5.3,10.4 7,18 3.2,3.8 4.2,9.8 7,14 2.2,7 6,11.5 8,19 3.3,4.3 5.2,10.1 8,15 3,7.1 6.9,12.3 9,19 3.4,3.6 5.2,8.8 8,13 3.7,6.5 7.3,11.4 11,17 4,5.1 7,10.6 12,14 1.4,5.3 7.7,7.4 11,11 5.1,3.6 10.3,7 18,8 10.5,1 19,-1.6 24,-6 5.6,-3.1 10.3,-7.1 14,-12 4.5,-3.7 7.6,-8.8 11,-13 3.8,-4.9 6.7,-10.3 10,-15 4.1,-7.2 7.2,-11.5 11,-20 3.3,-4.3 5.2,-10.1 8,-15 3,-6.5 6.3,-11.3 9,-19 2.7,-5.4 6,-11.5 8,-18 3.1,-4.2 4.8,-10.4 7,-15 2.5,-5.5 6.1,-10 7.8,-16.3 3.4,-4.5 1.5,-6.1 4.4,-11"
         style="color:#000000;overflow:visible;fill:#fce94f;fill-opacity:0.14;stroke:#c4a000;stroke-width:6.94" />
    </g>
    <g
       id="g176"
       transform="matrix(-0.32804,-0.06145,0.03883,-0.28527,1489,1201.7)">
      <path
         inkscape:connector-curvature="0"
         id="path174"
         d="m 1822,370.5 c 2.6,6.2 2.6,6.1 6,12.5 1.8,6.6 5.3,10.4 7,18 3.2,3.8 4.2,9.8 7,14 2.2,7 6,11.5 8,19 3.3,4.3 5.2,10.1 8,15 3,7.1 6.9,12.3 9,19 3.4,3.6 5.2,8.8 8,13 3.7,6.5 7.3,11.4 11,17 4,5.1 7,10.6 12,14 1.4,5.3 7.7,7.4 11,11 5.1,3.6 10.3,7 18,8 10.5,1 19,-1.6 24,-6 5.6,-3.1 10.3,-7.1 14,-12 4.5,-3.7 7.6,-8.8 11,-13 3.8,-4.9 6.7,-10.3 10,-15 4.1,-7.2 7.2,-11.5 11,-20 3.3,-4.3 5.2,-10.1 8,-15 3,-6.5 6.3,-11.3 9,-19 2.7,-5.4 6,-11.5 8,-18 3.1,-4.2 4.8,-10.4 7,-15 2.5,-5.5 6.1,-10 7.8,-16.3 3.4,-4.5 1.5,-6.1 4.4,-11"
         style="color:#000000;overflow:visible;fill:#fce94f;fill-opacity:0.14;stroke:#c4a000;stroke-width:6.48" />
    </g>
    <g
       id="g180"
       transform="matrix(-0.32631,-0.0654,-0.01664,-0.33274,1507,1227)">
      <path
         inkscape:connector-curvature="0"
         id="path178"
         d="m 1822,370.5 c 2.6,6.2 2.6,6.1 6,12.5 1.8,6.6 5.3,10.4 7,18 3.2,3.8 4.2,9.8 7,14 2.2,7 6,11.5 8,19 3.3,4.3 5.2,10.1 8,15 3,7.1 6.9,12.3 9,19 3.4,3.6 5.2,8.8 8,13 3.7,6.5 7.3,11.4 11,17 4,5.1 7,10.6 12,14 1.4,5.3 7.7,7.4 11,11 5.1,3.6 10.3,7 18,8 10.5,1 19,-1.6 24,-6 5.6,-3.1 10.3,-7.1 14,-12 4.5,-3.7 7.6,-8.8 11,-13 3.8,-4.9 6.7,-10.3 10,-15 4.1,-7.2 7.2,-11.5 11,-20 3.3,-4.3 5.2,-10.1 8,-15 3,-6.5 6.3,-11.3 9,-19 2.7,-5.4 6,-11.5 8,-18 3.1,-4.2 4.8,-10.4 7,-15 2.5,-5.5 6.1,-10 7.8,-16.3 3.4,-4.5 1.5,-6.1 4.4,-11"
         style="color:#000000;overflow:visible;fill:#fce94f;fill-opacity:0.14;stroke:#c4a000;stroke-width:6.12" />
    </g>
    <g
       id="g184"
       transform="matrix(-0.30815,-0.061,0.12621,-0.06599,1418.1,1119.4)">
      <path
         inkscape:connector-curvature="0"
         id="path182"
         d="m 1822,370.5 c 2.6,6.2 2.6,6.1 6,12.5 1.8,6.6 5.3,10.4 7,18 3.2,3.8 4.2,9.8 7,14 2.2,7 6,11.5 8,19 3.3,4.3 5.2,10.1 8,15 3,7.1 6.9,12.3 9,19 3.4,3.6 5.2,8.8 8,13 3.7,6.5 7.3,11.4 11,17 4,5.1 7,10.6 12,14 1.4,5.3 7.7,7.4 11,11 5.1,3.6 10.3,7 18,8 10.5,1 19,-1.6 24,-6 5.6,-3.1 10.3,-7.1 14,-12 4.5,-3.7 7.6,-8.8 11,-13 3.8,-4.9 6.7,-10.3 10,-15 4.1,-7.2 7.2,-11.5 11,-20 3.3,-4.3 5.2,-10.1 8,-15 3,-6.5 6.3,-11.3 9,-19 2.7,-5.4 6,-11.5 8,-18 3.1,-4.2 4.8,-10.4 7,-15 2.5,-5.5 6.1,-10 7.8,-16.3 3.4,-4.5 1.5,-6.1 4.4,-11"
         style="color:#000000;overflow:visible;fill:#fce94f;fill-opacity:0.14;stroke:#c4a000;stroke-width:11.98" />
    </g>
  </g>
  <g
     id="g232"
     transform="matrix(-0.618968,-0.193403,0.273377,-0.437909,433.54,686.006)">
    <g
       id="g210"
       transform="matrix(-0.33244,-0.0625,0.18115,-0.15805,1446.6,1155.9)">
      <path
         inkscape:connector-curvature="0"
         id="path208"
         d="m 1822,370.5 c 2.6,6.2 2.6,6.1 6,12.5 1.8,6.6 5.3,10.4 7,18 3.2,3.8 4.2,9.8 7,14 2.2,7 6,11.5 8,19 3.3,4.3 5.2,10.1 8,15 3,7.1 6.9,12.3 9,19 3.4,3.6 5.2,8.8 8,13 3.7,6.5 7.3,11.4 11,17 4,5.1 7,10.6 12,14 1.4,5.3 7.7,7.4 11,11 5.1,3.6 10.3,7 18,8 10.5,1 19,-1.6 24,-6 5.6,-3.1 10.3,-7.1 14,-12 4.5,-3.7 7.6,-8.8 11,-13 3.8,-4.9 6.7,-10.3 10,-15 4.1,-7.2 7.2,-11.5 11,-20 3.3,-4.3 5.2,-10.1 8,-15 3,-6.5 6.3,-11.3 9,-19 2.7,-5.4 6,-11.5 8,-18 3.1,-4.2 4.8,-10.4 7,-15 2.5,-5.5 6.1,-10 7.8,-16.3 3.4,-4.5 1.5,-6.1 4.4,-11"
         style="color:#000000;overflow:visible;fill:#fce94f;fill-opacity:0.14;stroke:#c4a000;stroke-width:7.94" />
    </g>
    <g
       id="g214"
       transform="matrix(-0.32219,-0.0625,-0.02434,-0.39048,1501.8,1243.1)">
      <path
         inkscape:connector-curvature="0"
         id="path212"
         d="m 1822,370.5 c 2.6,6.2 2.6,6.1 6,12.5 1.8,6.6 5.3,10.4 7,18 3.2,3.8 4.2,9.8 7,14 2.2,7 6,11.5 8,19 3.3,4.3 5.2,10.1 8,15 3,7.1 6.9,12.3 9,19 3.4,3.6 5.2,8.8 8,13 3.7,6.5 7.3,11.4 11,17 4,5.1 7,10.6 12,14 1.4,5.3 7.7,7.4 11,11 5.1,3.6 10.3,7 18,8 10.5,1 19,-1.6 24,-6 5.6,-3.1 10.3,-7.1 14,-12 4.5,-3.7 7.6,-8.8 11,-13 3.8,-4.9 6.7,-10.3 10,-15 4.1,-7.2 7.2,-11.5 11,-20 3.3,-4.3 5.2,-10.1 8,-15 3,-6.5 6.3,-11.3 9,-19 2.7,-5.4 6,-11.5 8,-18 3.1,-4.2 4.8,-10.4 7,-15 2.5,-5.5 6.1,-10 7.8,-16.3 3.4,-4.5 1.5,-6.1 4.4,-11"
         style="color:#000000;overflow:visible;fill:#fce94f;fill-opacity:0.14;stroke:#c4a000;stroke-width:5.69" />
    </g>
    <g
       id="g218"
       transform="matrix(-0.33415,-0.06181,0.12185,-0.22756,1470.2,1181.1)">
      <path
         inkscape:connector-curvature="0"
         id="path216"
         d="m 1822,370.5 c 2.6,6.2 2.6,6.1 6,12.5 1.8,6.6 5.3,10.4 7,18 3.2,3.8 4.2,9.8 7,14 2.2,7 6,11.5 8,19 3.3,4.3 5.2,10.1 8,15 3,7.1 6.9,12.3 9,19 3.4,3.6 5.2,8.8 8,13 3.7,6.5 7.3,11.4 11,17 4,5.1 7,10.6 12,14 1.4,5.3 7.7,7.4 11,11 5.1,3.6 10.3,7 18,8 10.5,1 19,-1.6 24,-6 5.6,-3.1 10.3,-7.1 14,-12 4.5,-3.7 7.6,-8.8 11,-13 3.8,-4.9 6.7,-10.3 10,-15 4.1,-7.2 7.2,-11.5 11,-20 3.3,-4.3 5.2,-10.1 8,-15 3,-6.5 6.3,-11.3 9,-19 2.7,-5.4 6,-11.5 8,-18 3.1,-4.2 4.8,-10.4 7,-15 2.5,-5.5 6.1,-10 7.8,-16.3 3.4,-4.5 1.5,-6.1 4.4,-11"
         style="color:#000000;overflow:visible;fill:#fce94f;fill-opacity:0.14;stroke:#c4a000;stroke-width:6.94" />
    </g>
    <g
       id="g222"
       transform="matrix(-0.32804,-0.06145,0.03883,-0.28527,1489,1201.7)">
      <path
         inkscape:connector-curvature="0"
         id="path220"
         d="m 1822,370.5 c 2.6,6.2 2.6,6.1 6,12.5 1.8,6.6 5.3,10.4 7,18 3.2,3.8 4.2,9.8 7,14 2.2,7 6,11.5 8,19 3.3,4.3 5.2,10.1 8,15 3,7.1 6.9,12.3 9,19 3.4,3.6 5.2,8.8 8,13 3.7,6.5 7.3,11.4 11,17 4,5.1 7,10.6 12,14 1.4,5.3 7.7,7.4 11,11 5.1,3.6 10.3,7 18,8 10.5,1 19,-1.6 24,-6 5.6,-3.1 10.3,-7.1 14,-12 4.5,-3.7 7.6,-8.8 11,-13 3.8,-4.9 6.7,-10.3 10,-15 4.1,-7.2 7.2,-11.5 11,-20 3.3,-4.3 5.2,-10.1 8,-15 3,-6.5 6.3,-11.3 9,-19 2.7,-5.4 6,-11.5 8,-18 3.1,-4.2 4.8,-10.4 7,-15 2.5,-5.5 6.1,-10 7.8,-16.3 3.4,-4.5 1.5,-6.1 4.4,-11"
         style="color:#000000;overflow:visible;fill:#fce94f;fill-opacity:0.14;stroke:#c4a000;stroke-width:6.48" />
    </g>
    <g
       id="g226"
       transform="matrix(-0.32631,-0.0654,-0.01664,-0.33274,1507,1227)">
      <path
         inkscape:connector-curvature="0"
         id="path224"
         d="m 1822,370.5 c 2.6,6.2 2.6,6.1 6,12.5 1.8,6.6 5.3,10.4 7,18 3.2,3.8 4.2,9.8 7,14 2.2,7 6,11.5 8,19 3.3,4.3 5.2,10.1 8,15 3,7.1 6.9,12.3 9,19 3.4,3.6 5.2,8.8 8,13 3.7,6.5 7.3,11.4 11,17 4,5.1 7,10.6 12,14 1.4,5.3 7.7,7.4 11,11 5.1,3.6 10.3,7 18,8 10.5,1 19,-1.6 24,-6 5.6,-3.1 10.3,-7.1 14,-12 4.5,-3.7 7.6,-8.8 11,-13 3.8,-4.9 6.7,-10.3 10,-15 4.1,-7.2 7.2,-11.5 11,-20 3.3,-4.3 5.2,-10.1 8,-15 3,-6.5 6.3,-11.3 9,-19 2.7,-5.4 6,-11.5 8,-18 3.1,-4.2 4.8,-10.4 7,-15 2.5,-5.5 6.1,-10 7.8,-16.3 3.4,-4.5 1.5,-6.1 4.4,-11"
         style="color:#000000;overflow:visible;fill:#fce94f;fill-opacity:0.14;stroke:#c4a000;stroke-width:6.12" />
    </g>
    <g
       id="g230"
       transform="matrix(-0.30815,-0.061,0.12621,-0.06599,1418.1,1119.4)">
      <path
         inkscape:connector-curvature="0"
         id="path228"
         d="m 1822,370.5 c 2.6,6.2 2.6,6.1 6,12.5 1.8,6.6 5.3,10.4 7,18 3.2,3.8 4.2,9.8 7,14 2.2,7 6,11.5 8,19 3.3,4.3 5.2,10.1 8,15 3,7.1 6.9,12.3 9,19 3.4,3.6 5.2,8.8 8,13 3.7,6.5 7.3,11.4 11,17 4,5.1 7,10.6 12,14 1.4,5.3 7.7,7.4 11,11 5.1,3.6 10.3,7 18,8 10.5,1 19,-1.6 24,-6 5.6,-3.1 10.3,-7.1 14,-12 4.5,-3.7 7.6,-8.8 11,-13 3.8,-4.9 6.7,-10.3 10,-15 4.1,-7.2 7.2,-11.5 11,-20 3.3,-4.3 5.2,-10.1 8,-15 3,-6.5 6.3,-11.3 9,-19 2.7,-5.4 6,-11.5 8,-18 3.1,-4.2 4.8,-10.4 7,-15 2.5,-5.5 6.1,-10 7.8,-16.3 3.4,-4.5 1.5,-6.1 4.4,-11"
         style="color:#000000;overflow:visible;fill:#fce94f;fill-opacity:0.14;stroke:#c4a000;stroke-width:11.98" />
    </g>
  </g>
  <g
     id="g258"
     transform="matrix(0.618968,0.193403,-0.273377,0.437909,-108.728,-506.178)">
    <g
       id="g236"
       transform="matrix(-0.33244,-0.0625,0.18115,-0.15805,1446.6,1155.9)">
      <path
         inkscape:connector-curvature="0"
         id="path234"
         d="m 1822,370.5 c 2.6,6.2 2.6,6.1 6,12.5 1.8,6.6 5.3,10.4 7,18 3.2,3.8 4.2,9.8 7,14 2.2,7 6,11.5 8,19 3.3,4.3 5.2,10.1 8,15 3,7.1 6.9,12.3 9,19 3.4,3.6 5.2,8.8 8,13 3.7,6.5 7.3,11.4 11,17 4,5.1 7,10.6 12,14 1.4,5.3 7.7,7.4 11,11 5.1,3.6 10.3,7 18,8 10.5,1 19,-1.6 24,-6 5.6,-3.1 10.3,-7.1 14,-12 4.5,-3.7 7.6,-8.8 11,-13 3.8,-4.9 6.7,-10.3 10,-15 4.1,-7.2 7.2,-11.5 11,-20 3.3,-4.3 5.2,-10.1 8,-15 3,-6.5 6.3,-11.3 9,-19 2.7,-5.4 6,-11.5 8,-18 3.1,-4.2 4.8,-10.4 7,-15 2.5,-5.5 6.1,-10 7.8,-16.3 3.4,-4.5 1.5,-6.1 4.4,-11"
         style="color:#000000;overflow:visible;fill:#fce94f;fill-opacity:0.14;stroke:#c4a000;stroke-width:7.94" />
    </g>
    <g
       id="g240"
       transform="matrix(-0.32219,-0.0625,-0.02434,-0.39048,1501.8,1243.1)">
      <path
         inkscape:connector-curvature="0"
         id="path238"
         d="m 1822,370.5 c 2.6,6.2 2.6,6.1 6,12.5 1.8,6.6 5.3,10.4 7,18 3.2,3.8 4.2,9.8 7,14 2.2,7 6,11.5 8,19 3.3,4.3 5.2,10.1 8,15 3,7.1 6.9,12.3 9,19 3.4,3.6 5.2,8.8 8,13 3.7,6.5 7.3,11.4 11,17 4,5.1 7,10.6 12,14 1.4,5.3 7.7,7.4 11,11 5.1,3.6 10.3,7 18,8 10.5,1 19,-1.6 24,-6 5.6,-3.1 10.3,-7.1 14,-12 4.5,-3.7 7.6,-8.8 11,-13 3.8,-4.9 6.7,-10.3 10,-15 4.1,-7.2 7.2,-11.5 11,-20 3.3,-4.3 5.2,-10.1 8,-15 3,-6.5 6.3,-11.3 9,-19 2.7,-5.4 6,-11.5 8,-18 3.1,-4.2 4.8,-10.4 7,-15 2.5,-5.5 6.1,-10 7.8,-16.3 3.4,-4.5 1.5,-6.1 4.4,-11"
         style="color:#000000;overflow:visible;fill:#fce94f;fill-opacity:0.14;stroke:#c4a000;stroke-width:5.69" />
    </g>
    <g
       id="g244"
       transform="matrix(-0.33415,-0.06181,0.12185,-0.22756,1470.2,1181.1)">
      <path
         inkscape:connector-curvature="0"
         id="path242"
         d="m 1822,370.5 c 2.6,6.2 2.6,6.1 6,12.5 1.8,6.6 5.3,10.4 7,18 3.2,3.8 4.2,9.8 7,14 2.2,7 6,11.5 8,19 3.3,4.3 5.2,10.1 8,15 3,7.1 6.9,12.3 9,19 3.4,3.6 5.2,8.8 8,13 3.7,6.5 7.3,11.4 11,17 4,5.1 7,10.6 12,14 1.4,5.3 7.7,7.4 11,11 5.1,3.6 10.3,7 18,8 10.5,1 19,-1.6 24,-6 5.6,-3.1 10.3,-7.1 14,-12 4.5,-3.7 7.6,-8.8 11,-13 3.8,-4.9 6.7,-10.3 10,-15 4.1,-7.2 7.2,-11.5 11,-20 3.3,-4.3 5.2,-10.1 8,-15 3,-6.5 6.3,-11.3 9,-19 2.7,-5.4 6,-11.5 8,-18 3.1,-4.2 4.8,-10.4 7,-15 2.5,-5.5 6.1,-10 7.8,-16.3 3.4,-4.5 1.5,-6.1 4.4,-11"
         style="color:#000000;overflow:visible;fill:#fce94f;fill-opacity:0.14;stroke:#c4a000;stroke-width:6.94" />
    </g>
    <g
       id="g248"
       transform="matrix(-0.32804,-0.06145,0.03883,-0.28527,1489,1201.7)">
      <path
         inkscape:connector-curvature="0"
         id="path246"
         d="m 1822,370.5 c 2.6,6.2 2.6,6.1 6,12.5 1.8,6.6 5.3,10.4 7,18 3.2,3.8 4.2,9.8 7,14 2.2,7 6,11.5 8,19 3.3,4.3 5.2,10.1 8,15 3,7.1 6.9,12.3 9,19 3.4,3.6 5.2,8.8 8,13 3.7,6.5 7.3,11.4 11,17 4,5.1 7,10.6 12,14 1.4,5.3 7.7,7.4 11,11 5.1,3.6 10.3,7 18,8 10.5,1 19,-1.6 24,-6 5.6,-3.1 10.3,-7.1 14,-12 4.5,-3.7 7.6,-8.8 11,-13 3.8,-4.9 6.7,-10.3 10,-15 4.1,-7.2 7.2,-11.5 11,-20 3.3,-4.3 5.2,-10.1 8,-15 3,-6.5 6.3,-11.3 9,-19 2.7,-5.4 6,-11.5 8,-18 3.1,-4.2 4.8,-10.4 7,-15 2.5,-5.5 6.1,-10 7.8,-16.3 3.4,-4.5 1.5,-6.1 4.4,-11"
         style="color:#000000;overflow:visible;fill:#fce94f;fill-opacity:0.14;stroke:#c4a000;stroke-width:6.48" />
    </g>
    <g
       id="g252"
       transform="matrix(-0.32631,-0.0654,-0.01664,-0.33274,1507,1227)">
      <path
         inkscape:connector-curvature="0"
         id="path250"
         d="m 1822,370.5 c 2.6,6.2 2.6,6.1 6,12.5 1.8,6.6 5.3,10.4 7,18 3.2,3.8 4.2,9.8 7,14 2.2,7 6,11.5 8,19 3.3,4.3 5.2,10.1 8,15 3,7.1 6.9,12.3 9,19 3.4,3.6 5.2,8.8 8,13 3.7,6.5 7.3,11.4 11,17 4,5.1 7,10.6 12,14 1.4,5.3 7.7,7.4 11,11 5.1,3.6 10.3,7 18,8 10.5,1 19,-1.6 24,-6 5.6,-3.1 10.3,-7.1 14,-12 4.5,-3.7 7.6,-8.8 11,-13 3.8,-4.9 6.7,-10.3 10,-15 4.1,-7.2 7.2,-11.5 11,-20 3.3,-4.3 5.2,-10.1 8,-15 3,-6.5 6.3,-11.3 9,-19 2.7,-5.4 6,-11.5 8,-18 3.1,-4.2 4.8,-10.4 7,-15 2.5,-5.5 6.1,-10 7.8,-16.3 3.4,-4.5 1.5,-6.1 4.4,-11"
         style="color:#000000;overflow:visible;fill:#fce94f;fill-opacity:0.14;stroke:#c4a000;stroke-width:6.12" />
    </g>
    <g
       id="g256"
       transform="matrix(-0.30815,-0.061,0.12621,-0.06599,1418.1,1119.4)">
      <path
         inkscape:connector-curvature="0"
         id="path254"
         d="m 1822,370.5 c 2.6,6.2 2.6,6.1 6,12.5 1.8,6.6 5.3,10.4 7,18 3.2,3.8 4.2,9.8 7,14 2.2,7 6,11.5 8,19 3.3,4.3 5.2,10.1 8,15 3,7.1 6.9,12.3 9,19 3.4,3.6 5.2,8.8 8,13 3.7,6.5 7.3,11.4 11,17 4,5.1 7,10.6 12,14 1.4,5.3 7.7,7.4 11,11 5.1,3.6 10.3,7 18,8 10.5,1 19,-1.6 24,-6 5.6,-3.1 10.3,-7.1 14,-12 4.5,-3.7 7.6,-8.8 11,-13 3.8,-4.9 6.7,-10.3 10,-15 4.1,-7.2 7.2,-11.5 11,-20 3.3,-4.3 5.2,-10.1 8,-15 3,-6.5 6.3,-11.3 9,-19 2.7,-5.4 6,-11.5 8,-18 3.1,-4.2 4.8,-10.4 7,-15 2.5,-5.5 6.1,-10 7.8,-16.3 3.4,-4.5 1.5,-6.1 4.4,-11"
         style="color:#000000;overflow:visible;fill:#fce94f;fill-opacity:0.14;stroke:#c4a000;stroke-width:11.98" />
    </g>
  </g>
  <rect
     style="color:#000000;clip-rule:nonzero;display:inline;overflow:visible;visibility:visible;opacity:1;isolation:auto;mix-blend-mode:normal;color-interpolation:sRGB;color-interpolation-filters:linearRGB;solid-color:#000000;solid-opacity:1;vector-effect:none;fill:#19aeff;fill-opacity:0.204301;fill-rule:nonzero;stroke:#0084c8;stroke-width:1.596782;stroke-linecap:butt;stroke-linejoin:miter;stroke-miterlimit:4;stroke-dasharray:none;stroke-dashoffset:0;stroke-opacity:1;marker:none;marker-start:none;marker-mid:none;marker-end:none;color-rendering:auto;image-rendering:auto;shape-rendering:auto;text-rendering:auto;enable-background:accumulate"
     id="rect1219"
     width="118.437"
     height="96.8025"
     x="158.42"
     y="172.727"
     ry="14.7261"
     transform="matrix(0.817338,-0.576158,0,1,0,0)" />
  <g
     id="g206"
     transform="matrix(0.457357,0.412535,-0.417855,0.402516,136.951,-727.286)">
    <g
       id="g190"
       transform="matrix(0.31275,-0.09952,-0.1333,0.25283,501.98,1096.6)">
      <path
         inkscape:connector-curvature="0"
         id="path188"
         d="m 1822,370.5 c 2.6,6.2 2.6,6.1 6,12.5 1.8,6.6 5.3,10.4 7,18 3.2,3.8 4.2,9.8 7,14 2.2,7 6,11.5 8,19 3.3,4.3 5.2,10.1 8,15 3,7.1 6.9,12.3 9,19 3.4,3.6 5.2,8.8 8,13 3.7,6.5 7.3,11.4 11,17 4,5.1 7,10.6 12,14 1.4,5.3 7.7,7.4 11,11 5.1,3.6 10.3,7 18,8 10.5,1 19,-1.6 24,-6 5.6,-3.1 10.3,-7.1 14,-12 4.5,-3.7 7.6,-8.8 11,-13 3.8,-4.9 6.7,-10.3 10,-15 4.1,-7.2 7.2,-11.5 11,-20 3.3,-4.3 5.2,-10.1 8,-15 3,-6.5 6.3,-11.3 9,-19 2.7,-5.4 6,-11.5 8,-18 3.1,-4.2 4.8,-10.4 7,-15 2.5,-5.5 6.1,-10 7.8,-16.3 3.4,-4.5 1.5,-6.1 4.4,-11"
         style="color:#000000;overflow:visible;fill:#fce94f;stroke:#c4a000;stroke-width:7.8" />
    </g>
    <g
       id="g194"
       transform="matrix(-0.31275,0.09952,0.1333,-0.25283,1678.7,877.28)">
      <path
         inkscape:connector-curvature="0"
         id="path192"
         d="m 1822,370.5 c 2.6,6.2 2.6,6.1 6,12.5 1.8,6.6 5.3,10.4 7,18 3.2,3.8 4.2,9.8 7,14 2.2,7 6,11.5 8,19 3.3,4.3 5.2,10.1 8,15 3,7.1 6.9,12.3 9,19 3.4,3.6 5.2,8.8 8,13 3.7,6.5 7.3,11.4 11,17 4,5.1 7,10.6 12,14 1.4,5.3 7.7,7.4 11,11 5.1,3.6 10.3,7 18,8 10.5,1 19,-1.6 24,-6 5.6,-3.1 10.3,-7.1 14,-12 4.5,-3.7 7.6,-8.8 11,-13 3.8,-4.9 6.7,-10.3 10,-15 4.1,-7.2 7.2,-11.5 11,-20 3.3,-4.3 5.2,-10.1 8,-15 3,-6.5 6.3,-11.3 9,-19 2.7,-5.4 6,-11.5 8,-18 3.1,-4.2 4.8,-10.4 7,-15 2.5,-5.5 6.1,-10 7.8,-16.3 3.4,-4.5 1.5,-6.1 4.4,-11"
         style="color:#000000;overflow:visible;fill:#fce94f;stroke:#c4a000;stroke-width:7.8" />
    </g>
    <g
       id="g198"
       transform="matrix(0.31275,-0.09952,-0.1333,0.25283,637.25,1053.7)">
      <path
         inkscape:connector-curvature="0"
         id="path196"
         d="m 1822,370.5 c 2.6,6.2 2.6,6.1 6,12.5 1.8,6.6 5.3,10.4 7,18 3.2,3.8 4.2,9.8 7,14 2.2,7 6,11.5 8,19 3.3,4.3 5.2,10.1 8,15 3,7.1 6.9,12.3 9,19 3.4,3.6 5.2,8.8 8,13 3.7,6.5 7.3,11.4 11,17 4,5.1 7,10.6 12,14 1.4,5.3 7.7,7.4 11,11 5.1,3.6 10.3,7 18,8 10.5,1 19,-1.6 24,-6 5.6,-3.1 10.3,-7.1 14,-12 4.5,-3.7 7.6,-8.8 11,-13 3.8,-4.9 6.7,-10.3 10,-15 4.1,-7.2 7.2,-11.5 11,-20 3.3,-4.3 5.2,-10.1 8,-15 3,-6.5 6.3,-11.3 9,-19 2.7,-5.4 6,-11.5 8,-18 3.1,-4.2 4.8,-10.4 7,-15 2.5,-5.5 6.1,-10 7.8,-16.3 3.4,-4.5 1.5,-6.1 4.4,-11"
         style="color:#000000;overflow:visible;fill:#fce94f;stroke:#c4a000;stroke-width:7.8" />
    </g>
    <g
       id="g202"
       transform="matrix(-0.31275,0.09952,0.1333,-0.25283,1814,834.24)">
      <path
         inkscape:connector-curvature="0"
         id="path200"
         d="m 1822,370.5 c 2.6,6.2 2.6,6.1 6,12.5 1.8,6.6 5.3,10.4 7,18 3.2,3.8 4.2,9.8 7,14 2.2,7 6,11.5 8,19 3.3,4.3 5.2,10.1 8,15 3,7.1 6.9,12.3 9,19 3.4,3.6 5.2,8.8 8,13 3.7,6.5 7.3,11.4 11,17 4,5.1 7,10.6 12,14 1.4,5.3 7.7,7.4 11,11 5.1,3.6 10.3,7 18,8 10.5,1 19,-1.6 24,-6 5.6,-3.1 10.3,-7.1 14,-12 4.5,-3.7 7.6,-8.8 11,-13 3.8,-4.9 6.7,-10.3 10,-15 4.1,-7.2 7.2,-11.5 11,-20 3.3,-4.3 5.2,-10.1 8,-15 3,-6.5 6.3,-11.3 9,-19 2.7,-5.4 6,-11.5 8,-18 3.1,-4.2 4.8,-10.4 7,-15 2.5,-5.5 6.1,-10 7.8,-16.3 3.4,-4.5 1.5,-6.1 4.4,-11"
         style="color:#000000;overflow:visible;fill:#fce94f;stroke:#c4a000;stroke-width:7.8" />
    </g>
    <path
       inkscape:connector-curvature="0"
       id="path204"
       d="m 1022.3,1008.2 287.8,-90.6"
       style="fill:none;stroke:#000000;stroke-width:2;marker-end:url(#id6)" />
  </g>
  <text
     x="261.148"
     y="55.2284"
     transform="scale(1.02662,0.97407)"
     style="color:#000000;font-size:17.099981px;font-family:Arial;text-align:center;text-anchor:middle;overflow:visible;fill:#0084c8;stroke-width:0.569999px"
     id="text1278">Polarizing</text>
  <text
     id="text1280"
     style="color:#000000;font-size:17.099981px;font-family:Arial;text-align:center;text-anchor:middle;overflow:visible;fill:#0084c8;stroke-width:0.569999px"
     transform="scale(1.02662,0.97407)"
     y="71.6213"
     x="242.728">Filter</text>
</svg>
