<?xml version="1.0" encoding="UTF-8" standalone="no"?>
<!-- Created with Inkscape (http://www.inkscape.org/) -->
<svg
   xmlns:dc="http://purl.org/dc/elements/1.1/"
   xmlns:cc="http://web.resource.org/cc/"
   xmlns:rdf="http://www.w3.org/1999/02/22-rdf-syntax-ns#"
   xmlns:svg="http://www.w3.org/2000/svg"
   xmlns="http://www.w3.org/2000/svg"
   xmlns:sodipodi="http://inkscape.sourceforge.net/DTD/sodipodi-0.dtd"
   xmlns:inkscape="http://www.inkscape.org/namespaces/inkscape"
   version="1.0"
   width="565pt"
   height="350pt"
   id="svg2"
   sodipodi:version="0.32"
   inkscape:version="0.43"
   sodipodi:docname="rozpraszanie comptona.svg"
   sodipodi:docbase="/home/sfu">
  <metadata
     id="metadata1464">
    <rdf:RDF>
      <cc:Work
         rdf:about="">
        <dc:format>image/svg+xml</dc:format>
        <dc:type
           rdf:resource="http://purl.org/dc/dcmitype/StillImage" />
      </cc:Work>
    </rdf:RDF>
  </metadata>
  <sodipodi:namedview
     inkscape:window-height="745"
     inkscape:window-width="1272"
     inkscape:pageshadow="2"
     inkscape:pageopacity="0.0"
     borderopacity="1.0"
     bordercolor="#666666"
     pagecolor="#ffffff"
     id="base"
     inkscape:zoom="0.62639641"
     inkscape:cx="511.32584"
     inkscape:cy="194.81092"
     inkscape:window-x="3"
     inkscape:window-y="30"
     inkscape:current-layer="layer1" />
  <defs
     id="defs4" />
  <g
     id="layer1">
    <path
       d="M 591.28863,22.764635 L 335.13099,202.07497"
       style="fill:none;fill-opacity:0.75;fill-rule:evenodd;stroke:#000000;stroke-width:2.68965507;stroke-linecap:butt;stroke-linejoin:miter;stroke-miterlimit:4;stroke-dasharray:none;stroke-opacity:1"
       id="path1307" />
    <path
       d="M 335.28616,202.00909 L 697.87545,202.00909"
       style="fill:none;fill-opacity:0.75;fill-rule:evenodd;stroke:#000000;stroke-width:1px;stroke-linecap:butt;stroke-linejoin:miter;stroke-opacity:1"
       id="path1309" />
    <path
       d="M 335.51473,202.39837 L 335.51473,6.9519493"
       style="fill:none;fill-opacity:0.75;fill-rule:evenodd;stroke:#000000;stroke-width:1px;stroke-linecap:butt;stroke-linejoin:miter;stroke-opacity:1"
       id="path2184" />
    <text
       x="313.04584"
       y="44.924503"
       style="font-size:26.30458641px;font-style:normal;font-weight:normal;fill:#000000;fill-opacity:1;stroke:none;stroke-width:1px;stroke-linecap:butt;stroke-linejoin:miter;stroke-opacity:1;font-family:Bitstream Vera Sans"
       id="text3063"
       xml:space="preserve"><tspan
         x="313.04584"
         y="44.924503"
         id="tspan3065">y</tspan></text>
    <text
       x="642.38989"
       y="222.65637"
       style="font-size:25.60000038px;font-style:normal;font-weight:normal;fill:#000000;fill-opacity:1;stroke:none;stroke-width:1px;stroke-linecap:butt;stroke-linejoin:miter;stroke-opacity:1;font-family:Bitstream Vera Sans"
       id="text3067"
       xml:space="preserve"><tspan
         x="642.38989"
         y="222.65637"
         id="tspan3069">x</tspan></text>
    <path
       d="M 335.63275,7.2627793 L 323.61194,21.404914"
       style="fill:none;fill-opacity:0.75;fill-rule:evenodd;stroke:#000000;stroke-width:1px;stroke-linecap:butt;stroke-linejoin:miter;stroke-opacity:1"
       id="path3074" />
    <path
       d="M 335.61194,7.2627793 L 347.63275,21.404914"
       style="fill:none;fill-opacity:0.75;fill-rule:evenodd;stroke:#000000;stroke-width:1px;stroke-linecap:butt;stroke-linejoin:miter;stroke-opacity:1"
       id="path3076" />
    <path
       d="M 697.34124,202.11489 L 683.19911,214.1357"
       style="fill:none;fill-opacity:0.75;fill-rule:evenodd;stroke:#000000;stroke-width:1px;stroke-linecap:butt;stroke-linejoin:miter;stroke-opacity:1"
       id="path3078" />
    <path
       d="M 697.34124,201.9357 L 683.19911,189.91489"
       style="fill:none;fill-opacity:0.75;fill-rule:evenodd;stroke:#000000;stroke-width:1px;stroke-linecap:butt;stroke-linejoin:miter;stroke-opacity:1"
       id="path3080" />
    <path
       id="path3071"
       style="fill:none;fill-opacity:0.75;fill-rule:evenodd;stroke:#000000;stroke-width:0.79018295px;stroke-linecap:butt;stroke-linejoin:miter;stroke-opacity:1"
       d="M 5.9321218,189.24961 C 20.657034,189.24897 17.812894,215.41957 30.573459,215.23853 C 45.251939,215.03027 41.142239,189.33653 55.242068,189.25893 C 69.957044,189.24897 67.112904,215.41957 79.873464,215.23853 C 94.551944,215.03027 90.442244,189.33653 104.54205,189.25893 C 119.25704,189.24897 116.4129,215.41957 129.17346,215.23853 C 143.85194,215.03027 139.74224,189.33653 153.84206,189.25893 C 168.55704,189.24897 165.7129,215.41957 178.47346,215.23853 C 193.15194,215.03027 189.04224,189.33653 203.14206,189.25893 C 217.85704,189.24897 215.0129,215.41957 227.77346,215.23853 C 242.45194,215.03027 238.34224,189.33653 252.44206,189.25893 C 267.15704,189.24897 264.3129,215.41957 277.07346,215.23853 C 291.75194,215.03027 287.64224,189.33653 301.75199,189.26825 M 301.73212,189.24961 C 316.45704,189.24897 311.37453,202.83093 324.13509,202.64988 M 323.93415,202.52498 L 317.21905,212.51198 M 323.93415,202.69284 L 317.21905,192.70584"
       sodipodi:nodetypes="cscscscscscsccccccc" />
    <path
       sodipodi:type="arc"
       style="opacity:1;fill:#ffffff;fill-opacity:1;fill-rule:evenodd;stroke:#000000;stroke-width:0.68000001;stroke-linecap:round;stroke-linejoin:round;stroke-miterlimit:4;stroke-dasharray:none;stroke-dashoffset:0;stroke-opacity:1"
       id="path3269"
       sodipodi:cx="381.76581"
       sodipodi:cy="196.37361"
       sodipodi:rx="11.067478"
       sodipodi:ry="11.254008"
       d="M 392.83329 196.37361 A 11.067478 11.254008 0 1 1  370.69833,196.37361 A 11.067478 11.254008 0 1 1  392.83329 196.37361 z"
       transform="matrix(0.8623,0,0,0.862332,6.495154,32.19939)" />
    <path
       style="fill:none;fill-opacity:0.75;fill-rule:evenodd;stroke:#000000;stroke-width:2;stroke-linecap:butt;stroke-linejoin:miter;stroke-miterlimit:4;stroke-dasharray:none;stroke-opacity:1"
       d="M 328.3487,201.95491 L 342.5872,201.95491"
       id="path4144" />
    <path
       sodipodi:nodetypes="cscscscscscsccccccc"
       d="M 343.79917,206.27486 C 343.77813,213.61043 343.01964,220.91584 350.36162,225.05245 C 366.38668,234.08128 373.85313,210.84987 389.18963,219.62123 C 405.16227,228.83235 389.92848,248.09046 403.85968,255.93958 C 419.88476,264.9684 427.35121,241.737 442.68767,250.50833 C 458.66032,259.71947 443.42654,278.97758 457.35774,286.82669 C 473.38281,295.85552 480.84926,272.62412 496.18575,281.39546 C 512.15837,290.60659 496.9246,309.8647 510.85579,317.71381 C 526.88087,326.74264 534.34732,303.51124 549.6838,312.28258 C 565.65643,321.4937 550.42265,340.75182 564.35386,348.60093 C 580.37892,357.62975 587.84537,334.39836 603.18186,343.16969 C 619.15449,352.38082 603.9207,371.63893 617.85191,379.48805 C 633.87697,388.51687 641.34344,365.28547 656.68636,374.07052 M 656.67344,374.04309 C 672.65255,383.26794 660.83299,391.00296 674.76419,398.85208 M 674.60411,398.62578 L 662.6816,402.44777 M 674.5262,398.76072 L 671.87488,386.52452"
       style="fill:none;fill-opacity:0.75;fill-rule:evenodd;stroke:#000000;stroke-width:0.85223341px;stroke-linecap:butt;stroke-linejoin:miter;stroke-opacity:1"
       id="path5019" />
    <path
       transform="matrix(0.8623,0,0,0.862332,230.3318,-124.9836)"
       d="M 392.83329 196.37361 A 11.067478 11.254008 0 1 1  370.69833,196.37361 A 11.067478 11.254008 0 1 1  392.83329 196.37361 z"
       sodipodi:ry="11.254008"
       sodipodi:rx="11.067478"
       sodipodi:cy="196.37361"
       sodipodi:cx="381.76581"
       id="path5021"
       style="opacity:1;fill:#ffffff;fill-opacity:1;fill-rule:evenodd;stroke:#000000;stroke-width:0.68000001;stroke-linecap:round;stroke-linejoin:round;stroke-miterlimit:4;stroke-dasharray:none;stroke-dashoffset:0;stroke-opacity:1"
       sodipodi:type="arc" />
    <path
       id="path5023"
       d="M 552.18533,44.771858 L 566.42383,44.771858"
       style="fill:none;fill-opacity:0.75;fill-rule:evenodd;stroke:#000000;stroke-width:2;stroke-linecap:butt;stroke-linejoin:miter;stroke-miterlimit:4;stroke-dasharray:none;stroke-opacity:1" />
    <path
       style="fill:none;fill-opacity:0.75;fill-rule:evenodd;stroke:#000000;stroke-width:2.69000006;stroke-linecap:butt;stroke-linejoin:miter;stroke-miterlimit:4;stroke-dasharray:none;stroke-opacity:1"
       d="M 590.61093,22.37277 L 585.71556,42.926964"
       id="path5025"
       sodipodi:nodetypes="cc" />
    <path
       id="path6773"
       d="M 591.45062,23.124071 L 570.4142,23.124071"
       style="fill:none;fill-opacity:0.75;fill-rule:evenodd;stroke:#000000;stroke-width:2.69000006;stroke-linecap:butt;stroke-linejoin:miter;stroke-miterlimit:4;stroke-dasharray:none;stroke-opacity:1"
       sodipodi:nodetypes="cc" />
    <path
       sodipodi:type="arc"
       style="opacity:1;fill:none;fill-opacity:1;fill-rule:evenodd;stroke:#000000;stroke-width:2.69000006;stroke-linecap:round;stroke-linejoin:round;stroke-miterlimit:4;stroke-dasharray:none;stroke-dashoffset:0;stroke-opacity:1"
       id="path6775"
       sodipodi:cx="392.79782"
       sodipodi:cy="214.44064"
       sodipodi:rx="150.26019"
       sodipodi:ry="142.12846"
       d="M 543.04909,215.98921 A 150.26019,142.12846 0 0 1 522.91516,285.52421"
       transform="matrix(1.318886,0,0,1.394336,-182.5026,-97.724)"
       sodipodi:start="0.010895731"
       sodipodi:end="0.52375586"
       sodipodi:open="true" />
    <text
       xml:space="preserve"
       style="font-size:27.10456657px;font-style:normal;font-weight:normal;fill:#000000;fill-opacity:1;stroke:none;stroke-width:1px;stroke-linecap:butt;stroke-linejoin:miter;stroke-opacity:1;font-family:Bitstream Vera Sans"
       x="579.66437"
       y="184.47403"
       id="text7650"
       transform="matrix(0.882091,7.71724e-2,-9.843021e-2,1.125059,0,0)"><tspan
         sodipodi:role="line"
         id="tspan7652"
         x="579.66437"
         y="184.47403">O</tspan></text>
    <path
       style="fill:none;fill-opacity:0.75;fill-rule:evenodd;stroke:#000000;stroke-width:2.5999999;stroke-linecap:butt;stroke-linejoin:miter;stroke-miterlimit:4;stroke-dasharray:none;stroke-opacity:1"
       d="M 496.97537,241.88506 L 511.06593,241.98988"
       id="path7654"
       sodipodi:nodetypes="cc" />
    <path
       style="fill:none;fill-opacity:0.75;fill-rule:evenodd;stroke:#000000;stroke-width:0.99771428px;stroke-linecap:butt;stroke-linejoin:miter;stroke-opacity:1"
       d="M 4.9474644,202.85355 L 326.00228,202.5"
       id="path8529"
       sodipodi:nodetypes="cc" />
    <path
       style="fill:none;fill-opacity:0.75;fill-rule:evenodd;stroke:#000000;stroke-width:0.94408119px;stroke-linecap:butt;stroke-linejoin:miter;stroke-opacity:1"
       d="M 343.62388,207.31085 L 674.03415,398.35618"
       id="path8531" />
  </g>
</svg>
