<?xml version="1.0" encoding="UTF-8" standalone="no"?>
<svg
   id="svg2"
   height="467.46927"
   width="1452.0681"
   version="1.1"
   sodipodi:docname="5-paradoxon.src.svg"
   inkscape:version="1.1.2 (0a00cf5339, 2022-02-04, custom)"
   xmlns:inkscape="http://www.inkscape.org/namespaces/inkscape"
   xmlns:sodipodi="http://sodipodi.sourceforge.net/DTD/sodipodi-0.dtd"
   xmlns="http://www.w3.org/2000/svg"
   xmlns:svg="http://www.w3.org/2000/svg"
   xmlns:rdf="http://www.w3.org/1999/02/22-rdf-syntax-ns#"
   xmlns:cc="http://creativecommons.org/ns#"
   xmlns:dc="http://purl.org/dc/elements/1.1/">
  <sodipodi:namedview
     pagecolor="#ffffff"
     bordercolor="#666666"
     borderopacity="1"
     objecttolerance="10"
     gridtolerance="10"
     guidetolerance="10"
     inkscape:pageopacity="0"
     inkscape:pageshadow="2"
     inkscape:window-width="1920"
     inkscape:window-height="1057"
     id="namedview30"
     showgrid="false"
     lock-margins="true"
     fit-margin-top="40"
     fit-margin-left="40"
     fit-margin-right="40"
     fit-margin-bottom="40"
     inkscape:zoom="0.68233454"
     inkscape:cx="550.31657"
     inkscape:cy="87.200628"
     inkscape:window-x="1400"
     inkscape:window-y="23"
     inkscape:window-maximized="0"
     inkscape:current-layer="svg2"
     inkscape:pagecheckerboard="0" />
  <defs
     id="defs4">
    <linearGradient
       id="linearGradient3824"
       y2="1120.9882"
       gradientUnits="userSpaceOnUse"
       x2="491.87576"
       y1="805.82062"
       x1="360.27499"
       gradientTransform="translate(289.85715,-697.242)">
      <stop
         id="stop3820"
         stop-color="#0098fe"
         offset="0" />
      <stop
         id="stop3822"
         stop-color="#003bfe"
         offset="1" />
    </linearGradient>
  </defs>
  <metadata
     id="metadata7">
    <rdf:RDF>
      <cc:Work
         rdf:about="">
        <dc:format>image/svg+xml</dc:format>
        <dc:type
           rdf:resource="http://purl.org/dc/dcmitype/StillImage" />
        <dc:title />
      </cc:Work>
    </rdf:RDF>
  </metadata>
  <g
     id="g2716">
    <path
       id="path3813"
       d="M 41.75,426.4162 C 40.093,425.4511 40,415.249 40,234.44652 43.21155,165.14561 51,-62.09209 51,117.49621 h 32 32 c 4.25708,-151.76528 12,-14.01738 12,74.5 V 340.4962 H 196.5 266 V 268.49358 196.49095 L 228.57911,121.65441 C 172.07004,8.48328 202.25972,43.00889 239.48759,117.49621 h 70.51701 70.51702 c 44.52849,-93.55658 53.02449,-81.11707 10.03482,4.88714 L 353,197.49095 v 71.50263 71.50262 h 71.49933 71.49934 L 570.5,191.49621 c 41.39661,-76.90153 123.1536,-221.27155 49.49444,-74 h 68.00278 c 37.40153,0 68.00278,-0.2275 68.00278,-0.50556 -77.34488,-166.27378 26.24096,26.99826 50,74.50556 L 880.49463,340.4962 H 913.74732 947 l -0.0345,-36.25 -0.0345,-36.24999 36.51859,-36 36.51861,-36 -73.41157,-74 c -116.01957,-117.64722 -58.97374,-75.43249 11.8893,-4.5 h 29.52168 29.52169 c -78.04554,-76.59849 -90.3495,-106.35345 15.0333,-0.97744 68.8363,68.83194 76.4774,76.78633 76.4774,79.61317 0,2.81179 -3.9265,6.98788 -37.5,39.8842 l -37.5,36.74357 v 33.86829 33.8682 h 107.5 107.5 l 0.031,-52.74999 0.031,-52.75 -37.5634,-37 -37.5634,-37 0.033,-22.00487 0.033,-22.00487 c 80.4939,-83.64124 109.5618,-93.56804 15.5095,0.50974 h 102.9894 102.9893 c -95.4387,-95.35798 -65.2157,-81.25169 16.5107,0.55296 l 0.034,20.97352 0.034,20.97352 -38.0634,37.5 -38.0633,37.5 0.029,94.59499 c 0.028,90.3931 -0.052,94.6686 -1.7992,96.2501 -1.6978,1.5364 -47.9868,1.6528 -646.25014,1.6246 C 252.04566,427.4449 42.93367,427.1056 41.75,426.4162 Z"
       fill="url(#linearGradient3824)"
       style="fill:#4c99ff;fill-opacity:1" />
    <path
       id="path3811"
       d="M 41.75,426.4162 C 40.093,425.4511 40,415.249 40,234.44652 V 43.49621 h 5.5 5.5 v 37 37 h 32 32 v -37 -37 h 6 6 v 148.5 148.49999 h 69.5 69.5 v -72.00262 -72.00263 l -37.42089,-74.83654 -37.4209,-74.83653 4.44765,-2.16084 c 2.4462,-1.18846 4.88639,-2.16083 5.42264,-2.16083 0.53625,0 9.40891,16.875 19.71704,37.5 l 18.74205,37.5 h 70.51701 70.51702 l 18.48919,-37.07952 c 10.16905,-20.39374 18.81126,-37.28576 19.20489,-37.53782 0.56342,-0.36079 8.21995,2.93632 9.59074,4.13003 0.16853,0.14676 -16.59397,34.06527 -37.25,75.37445 L 353,197.49095 v 71.50263 71.50262 h 71.49933 71.49934 L 570.5,191.49621 c 40.97573,-81.95 74.74396,-149 75.0405,-149 0.51194,0 8.61784,3.94817 9.26692,4.51367 0.16908,0.14731 -7.59467,16.067 -17.25278,35.37708 l -17.5602,35.10925 h 68.00278 c 37.40153,0 68.00278,-0.2275 68.00278,-0.50556 0,-0.27805 -7.83992,-16.18042 -17.42205,-35.3386 L 721.15589,46.819 725.6047,44.65761 c 2.44684,-1.18877 4.77547,-2.1614 5.17474,-2.1614 0.39926,0 34.24851,67.05 75.22056,149 L 880.49463,340.4962 H 913.74732 947 l -0.0345,-36.25 -0.0345,-36.24999 36.51859,-36 36.51861,-36 -73.41157,-74 -73.41155,-74 3.94024,-3.9981 3.94023,-3.99811 38.71022,38.74811 38.71016,38.7481 h 29.52168 29.52169 l -34.76579,-34.77642 -34.76577,-34.77642 4.0437,-3.94856 4.04369,-3.94857 76.47747,76.47253 c 68.8363,68.83194 76.4774,76.78633 76.4774,79.61317 0,2.81179 -3.9265,6.98788 -37.5,39.8842 l -37.5,36.74357 v 33.86829 33.8682 h 107.5 107.5 l 0.031,-52.74999 0.031,-52.75 -37.5634,-37 -37.5634,-37 0.033,-22.00487 0.033,-22.00487 38.4787,-38.46892 38.4786,-38.46892 4.0425,3.94737 4.0425,3.94737 -34.7658,34.77642 -34.767,34.77642 h 102.9894 102.9893 l -34.7658,-34.77642 -34.7658,-34.77642 4.0504,-3.95509 4.0504,-3.95509 38.9708,39.00799 38.9707,39.00799 0.034,20.97352 0.034,20.97352 -38.0634,37.5 -38.0633,37.5 0.029,94.59499 c 0.028,90.3931 -0.052,94.6686 -1.7992,96.2501 -1.6978,1.5364 -47.9868,1.6528 -646.25014,1.6246 C 252.04566,427.4449 42.93367,427.1056 41.75,426.4162 Z m 1283.2173,-103.17 -0.033,-93.24999 37.5635,-37 37.5634,-37 -0.031,-17.25 -0.03,-17.25 h -107.5 -107.5001 l -0.031,17.25 -0.031,17.25 37.5634,37 37.5634,37 -0.033,59.55 c -0.025,44.94619 -0.3271,59.84429 -1.2328,60.75009 -1.5138,1.5138 -232.4095,1.7319 -234.8,0.2218 -1.2845,-0.8115 -1.543,-6.7351 -1.7994,-41.2348 l -0.2984,-40.28709 37.0857,-36.5 37.0857,-36.5 -37.2912,-37.25 -37.2913,-37.25 -29.99503,0.004 -29.99507,0.004 35.87091,35.74606 c 30.75769,30.65059 35.87749,36.168 35.91669,38.706 0.04,2.59395 -4.6159,7.53979 -37.65572,40 l -37.70145,37.04014 0.0348,37.31569 c 0.0222,23.8779 -0.338,38.0124 -1.0004,39.2501 -0.99777,1.8643 -2.52563,1.9343 -42.25349,1.9343 h -41.2183 l -57.49304,-115.00009 -57.49304,-115 h -70.2526 -70.25261 l -56.60451,113.25 c -31.13248,62.2875 -57.30262,114.03749 -58.15586,114.99999 -1.45272,1.6388 -6.56186,1.7501 -80.36118,1.7501 -76.89352,0 -78.835,-0.047 -79.84502,-1.9343 -0.6877,-1.285 -1.03518,-27.6187 -1.03518,-78.4517 v -76.51739 l 18,-36.06914 c 9.9,-19.83803 18,-36.28479 18,-36.54835 0,-0.26357 -30.6,-0.47921 -68,-0.47921 -37.4,0 -68,0.21564 -68,0.47921 0,0.26356 8.1081,16.72655 18.018,36.58442 l 18.018,36.1052 -0.268,77.45227 c -0.23378,67.56129 -0.45956,77.57339 -1.768,78.40029 -2.02182,1.2778 -156.9784,1.2777 -159,-1e-4 -1.31649,-0.8321 -1.53212,-14.8992 -1.76255,-114.98471 L 114.975,121.49641 H 82.98755 51.0001 v 147.5 147.50009 h 637 637.0001 l -0.033,-93.2501 z"
       fill="#000000" />
  </g>
</svg>
