<?xml version="1.0" encoding="UTF-8"?>
<!-- Created with Inkscape (http://www.inkscape.org/) -->
<svg width="675" height="520" version="1.1" xmlns="http://www.w3.org/2000/svg">
 <g fill="none" stroke-width="7.5">
  <rect id="trans-neptunians objects rectangle" x="222.39" y="170.06" width="352" height="271" rx="21.34" ry="21.34" stroke="#9c5a3c"/>
  <path id="minor planets rectangle" d="m25.733 148.47c-10.667 0-21.333 10.634-21.333 21.3v313.96c0 10.667 10.667 21.333 21.333 21.333h272c10.667 0 21.333-10.667 21.333-21.333v-112c0-10.667 10.667-21.333 21.333-21.333h116c10.667 0 21.333-10.667 21.333-21.333v-159.3c0-10.667-10.676-21.727-21.333-21.3h-335.88" stroke="#6f3198" stroke-linecap="round"/>
  <rect id="planets rectangle" x="3.722" y="4.522" width="474.56" height="132.56" rx="21.34" ry="21.34" stroke="#00f"/>
  <rect id="satellites rectangle" x="489" y="3.734" width="179" height="512" rx="21.34" ry="21.34" stroke="#f00"/>
  <path id="dwarf planets rectangle" d="m37.065 165.35 67.902-7e-5c11.192 0 8.3893-6 22.374-6l319.97-2e-4c11.153 0 20.131 8.9738 20.131 20.121v129.68c0 11.147-8.9784 20.121-20.131 20.121h-410.25c-11.153 0-20.131-8.9738-20.131-20.121v-123.68c0-11.147 8.9786-20.051 20.131-20.12z" stroke="#008000"/>
  <rect id="small solar system bodies rectangle" x="15.686" y="339.68" width="462.59" height="176.09" rx="20.79" ry="21.344" stroke="#787878"/>
  <rect id="comets rectangle" x="328.62" y="360.94" width="138.76" height="144.26" rx="19.83" ry="21.379" stroke="#ff7e00" stroke-width="7.2364"/>
  <rect id="plutoids rectangle" x="233.07" y="201.07" width="224" height="117.33" rx="21.34" ry="21.34" stroke="#f0f"/>
  <rect x="222.41" y="451.74" width="289.5" height="42.65" rx="21.34" ry="20" stroke="#fc0"/>
  <rect x="34.985" y="211.65" width="176.5" height="106.5" rx="21.34" ry="20" stroke="#fc0" stroke-dasharray="22, 7.5"/>
 </g>
 <g font-family="'Bitstream Charter'" font-size="16px" font-weight="bold">
  <text x="26" y="25" fill="#0000ff" font-size="18px">Planety</text>
  <text x="500" y="33" fill="#ff0000" font-size="18px">
	  <tspan>Přirozené</tspan>
	  <tspan  x="500" y="54">satelity</tspan>
	  </text>
  <text x="32" y="187" fill="#008000">Trpasličí planety</text>
  <text x="31" y="155" fill="#6f3198">Planetky</text>
  <text x="236" y="190" fill="#9c5a3c">Transneptunická tělesa</text>
  <text x="254" y="222" fill="#ff00ff">Plutoidy</text>
  <text x="27" y="361" fill="#787878">
   <tspan>Malá tělesa</tspan>
   <tspan x="27" y="382">sluneční soustavy</tspan>
  </text>
  <text x="340" y="382" fill="#ff7e00">Komety</text>
  <text x="232" y="478" fill="#ffcc00">Kentauři</text>
  <text x="47" y="233" fill="#ffcc00">Kentauři</text>
 </g>
</svg>
